<mxfile host="Electron" modified="2023-05-23T21:15:37.467Z" agent="Mozilla/5.0 (Windows NT 10.0; Win64; x64) AppleWebKit/537.36 (KHTML, like Gecko) draw.io/21.2.8 Chrome/112.0.5615.165 Electron/24.2.0 Safari/537.36" etag="PVFKa-j0Mi9vOBVy34Eq" version="21.2.8" type="device">
  <diagram name="Page-1" id="e3a06f82-3646-2815-327d-82caf3d4e204">
    <mxGraphModel dx="2100" dy="2689" grid="1" gridSize="10" guides="1" tooltips="1" connect="1" arrows="1" fold="1" page="1" pageScale="1.5" pageWidth="1169" pageHeight="826" background="none" math="0" shadow="0">
      <root>
        <mxCell id="0" style=";html=1;" />
        <mxCell id="1" style=";html=1;" parent="0" />
        <mxCell id="2d47nBokaIBnYjA3GNP5-40" value="" style="rounded=0;whiteSpace=wrap;html=1;shadow=0;strokeColor=default;fillColor=#FFFFFF;gradientColor=#F0F0F0;strokeWidth=1;" parent="1" vertex="1">
          <mxGeometry x="710" y="-80" width="1150" height="680" as="geometry" />
        </mxCell>
        <mxCell id="egRuFmPWwaY5cJxwygKu-5" value="Ubuntu server" style="whiteSpace=wrap;html=1;fillColor=#e1d5e7;fontSize=14;strokeColor=#9673a6;verticalAlign=top;shadow=1;rounded=1;glass=0;" parent="1" vertex="1">
          <mxGeometry x="730" y="70" width="760" height="510" as="geometry" />
        </mxCell>
        <mxCell id="2d47nBokaIBnYjA3GNP5-1" value="Docker Compose" style="whiteSpace=wrap;html=1;fillColor=#dae8fc;fontSize=14;strokeColor=none;verticalAlign=top;shadow=1;rounded=1;" parent="1" vertex="1">
          <mxGeometry x="750" y="108.49" width="460" height="441.51" as="geometry" />
        </mxCell>
        <mxCell id="2d47nBokaIBnYjA3GNP5-32" value="" style="shape=image;verticalLabelPosition=bottom;verticalAlign=top;imageAspect=0;image=data:image/png,iVBORw0KGgoAAAANSUhEUgAAASwAAAEsCAYAAAB5fY51AAAABmJLR0QA/wD/AP+gvaeTAAAACXBIWXMAAAsTAAALEwEAmpwYAAAAB3RJTUUH3gQMAToEeLC+0AAAIABJREFUeNrsvXm8XVd1Jvitdc65b9ZkSZYxEBAYQlIFJJChOylCEUgHSCdd3Q3p/lV1ICGxwRh3V6p+5SRUhdSvqrqApBIIJI2pgAHHGE/IgyzPNp5HyRptDdZkWZI1vaenN997zl79x57PPe9ZtiVbw17+Xb+nd88995x9zv7Ot9Ze61skIkiWLFmy08E4DUGyZMkSYCVLlixZAqxkyZIlwEqWLFmyBFjJkiVLlgArWbJkCbCSJUuWLAFWsmTJkiXASpYsWQKsZMmSJUuAlSxZsmQJsJIlS5YAK1myZMkSYCVLlixZAqxkyZIlwEqWLFmyBFjJkiVLlgArWbJkCbCSJUuWLAFWsmTJkiXASpYsWQKsZMmSJUuAlSxZsmQJsJIlS5YAK1myZMkSYCVLlixZAqxkyZKdbpanITh9bP3+ZwABQOT+RmCYP+qfTNFnCAQy7872vKJ4lwAIMsdTjZhr3wBzDACZHemj8b93mz4y4qZ33FGBIQABSghMc++Pw3fNSTd9ov6VIoTxchIXnPOWdJMlwEp2IuzyJ36IrzzwLSgIRDTA2J960okDi8hU9yyVht8QwN6sJg0bNXyIgj/Yt5WHVHcoym2vHNw0HhvNcnBNxxLgk4Rf0oRWCiDWmzNl+Mz7fhdf/ODF6WZLgJXs1diOI3tw745HMNgaQJG19ExjM/uU1Ga0mbWWaSkFWEak/OxlJihF5ndAqRBa/Nz2eMdQDrG4AQkMUjCZt5SnOVDuLSj7ScsI2R8XE6AEBIKE50McnJ4yaB0fqz919tvVjpMiGPTvERHaVQcP7HoCv7n3A3jf+f8k3XQJsJK9Urt5813YPvw8iqxAljEgZlJCgIwN1TI/I+bB+n2LH6w/JxBAEZg0xWACiA3AUG6YlICY/NyHgMEAa0CBMq6oYXUaP8QcC0CcN7iYBJCAAZAFNufiCogYQoCQZotUp4mK9Xk6rKEGH49AyhwPmfMJqJcbGqUBTZgARWgx4eD4Yfzj2hUJsBJgJXul9tzwbty4+W50VIWx6bHLFORuEewgwnL707iEO4ho+XG6hDuaXMJz+88ZOTBxeOEJcAmXh99FwPKlg4tWHxg/svDcgUUjByeG3wcASwcXrQaAA+OHFxJ4+azH9gpdwnP7zxmBaK6mMV6c66nBDDg4fnghAcuZsg/P6xn8yn07H8PNz96D337Xr6ebLwFWspdrKzbdgeHJEbSyAoOtgS+fTJewEmBx38KT4hJWorB0cAFEKZzTvwAAoTLHtrh/0UlxCaswiFVZ/FbR2S3uW+hcwnMHlyzfP37wous3rMIvn/ceLF2wON2Ap5iRiKRROEXtkd1P44t3/yVGJo8iz3IRAbIsC5iF+SWMwkOCyDbHTMvgh3UJbdSZCRCxLiFFLqEELqEGJOsSotkltM5ftJIo3iVU9n0K8EZ/jpghSruEmM0ljJBUZncJYYCNaA6XEM4lFFGopAIRqJQK/+o9/wL/7p9dmG7CU8xSHtYpbKu23ovR6TEs6F8gHVWByQSoRZkJJ4ZxmJ8iNniDeC1OwcxiQCntGrECafyBKGWwTsx+FYQFCgoCZbYVEwITw/Ds92pEIygwC5hMqoJSwUtAIiD33eKPifR+hMiEtJTb1h17SIrsabHSB1/zEQUKipQeBnM+okSvrkJ5ECTNBgkCsAJlmtUpEWFi3L/jUazd90y6CRNgJTsee2Dn47hz24NQojA8OYKCMz3RXdKUZgaQ4CeRuaISgAXM+9DgAPNvRXo+m8lNRBDSUR4RAimTJ+W2JSilNNtS5PfJegVQlHYxlfndsTWyy4PmJ1Hw/eb7QB7QuHZ+yoCvMowsPC+QZ1vmuMiOBfT5aKZGYKWZl/u8SPAZgJWgyHIoCDLOsHt0H7752A/SjZgAK9nx2DUbV2GqnMHCvvnCNv3TTcbQJfRumI9Td0XBjS8YZFMakCIQSDT4kAjYMSAJ3D7NsMiloYpnN+aYCD6niewxiWFgdjVQoSuWzqKJmgMpUBw8p9BtVBE7skAlhluJdS0hfr/WByQJ9kVB0MsH5VmAnBidqiMtLrDhxS24Y+sD6WZMgJVsLrtp051YvXcjCs4wOj2GPG/pmE88zwzDYLfi5a6mZWH2PQm8xDgZKUAOaBBghoANO7FAwh4oOfgbBcdUiyPp9IPg/XA79vip2ECGBODLNaAik6/FQYxN+f0Qi0nNYH38ZJhetJ/gmDk4D2bNLsFQIGRUgIlx3tCShdNqBlc8fT12j+xNN2UCrGRNtvfAXty89R5MlVPIORclOqajc5zqACPevUEQshLx8SgxAGD/RiH1kK4IkCgFVuY7m0ANtX03momphccsAUlSHoe0W0kQNjlWKvgOQKOa/T4VLiiIy/sSRVDCJrPdxMAkYHrRuVpmaA7AnAcpwyJZWZdwOKMMWw5vx/Wbbks3ZgKsZE12374nsfHFrcjAmCpnkJsETE2oGqgR1ViHdZmIg1Uy8zfhwK0M6IeLgROECcrEs9DgdbqYUrgCZwE1+H7NcsgRs4jhBS8SEwZzSaTs9+8+F7BFd+f6c3SnK6HLaMGOY99SKEg65Zj6mXggE6HFBQrKRSnBTc/ehc0Ht6ebMwFWstD27duHf1x3I6aqGbTyHik4M3OVQRQCjAWIgIkEc05Er4gJwhiSDyIJBCIKTSktZFf0IN2BJpu2QGEwygOHTYEwye5g0fty7A7d7qg+Kn28LiAVsjexbEpBSPT5OXalaowPMXhLeKwWlQOmpcy/Od6OQMg4w7SaQZHlODI9isuf+mG6QRNgJQvtngOP4cDEERSUY6qcQsY5RFivzkkwiR2lCGJUdj4SwEQ+6BwmklpWw2RAkGKwY+iVQmIIyBRam5wtCVlVGA33KRUUfI2NsQmzfoXfFVA37YaRjtExTJoDYoZlvo+UOS/H8jhmmbXziQP5wcsdaBBIA3exuIwyVFJJi3KseWETVm6+J92kCbCSAcAzB7bhR+tXQpRCzplkTjZGGXwK2FXEjEQzDzYvw600xnAsN2NcJFFiQFBilzAgUySAXp1kAy3Kr/pFrqJPXRAKwlYmxkZhTCwkZtZdsx9SwfviQVgsHsJ4tLDresoBpQSvKFYWBvLriw4qYG8U5LaZ4yQQMmIoJRjqGZCRmRH83WNX4uDRw+lmTYCVbOWW+7B37ACWDS25bKqaQcaZZ0E2qTOK5XhxFhICg13OFAmDwJ7McD3sRe4VMSwBFAvEJoWaycwshgFRXAVUAwCToG40rsSv5Fk2Y9w57bKa4BWHDMm4lgGW2QwGtikTbMHbv0lkGGO4Kmlz1tySJGLAZAm2oXjFk8QxUesSFtzC/rGDWLH1znSzJsBK7OrmZ++EQHBg4siXC9KBdseCyPhrKlidE11OI5ZhQYFYu1gRY1AxG3NBpjCablmFcbei5EsxNYfB6p4jQSoAL6qxF4NookwGu2GGEbgoipiOjauRiEmk1+CmRFyCf4DTTrlGxGTlqzD3ywbcA6Zl41Vs3FzFEZuLkNIm9IPQohyDxYCACNdtvA2P73463bQJsM5eu27jrRhtj+ONQ8sWilK6vAUEolqciRqYhWiGpYGBjconxfEmO9GZotiNSD3nCkEQWny4rJ5Qz7VUqdBFBByTUtClOE5OhtnE1A24RIFwz5Rg86jsGDBFISrUY/6wmfnGBWbLklQQ2DNHbIEKJl7mqgfgg+/aH3Yh+CxjjMyM4LzBJZ8YnhzG9c+kNIcEWGep3b/jcTyw60nklGHv2IHhLOcg30m51T2B8q4UCUQZ9mFdJ5hcojC+JTVECVcWgxxKqsekwkTRAFMsDkS1fXUXMQgLOYxQ+nhROz6xgXHDaMIwl3Uv40RZxPH+iOHVVi+FAvYU5o0FvqEEJUaOlZFLfSATh2dh6xJeqwDct/Nx3PjMXenmTYB19tk1G27F8OQIBoo+EQjYuDHC3juBCX6zYRsAgZjBTI4QxH4Z4tiUTQcgs2LH5FIblHHDXMoShxNasw+x+zCAKSwOhMSChXggtHErEYYI1243vSLIJqTvAv+sM9Yd6Nr9hkAj3r3TCw32T+LXIhTcMUqYvU/BamXIwurJpdZlZONVG+xjE19b3L9I2mUbV6+/BS+MHkg3cAKss8ce2vUknti7FiDGaHscRZbr+I5dwjeTGuGqmIlJuXSlMPhd99McO9L74mhTE3h3rqX1oFzug1thtNszs36BNWA6CRizvQTup2VlNo+MKYh/a0AhBOkMALoSYS0Ac+jqmaMRc8wcpGm49AfWxc6AGS8FEuUEJhwDs6khbv/GXVRBG4zgMzlnGJ4cRpHl2D68C7dsTiwrAdZZYlu2bsUVq6/HTNXGor75klMGcooIJj3BpR5oRQNl1BSgAqmWxuLiIMhsJIeVYVNu/ypgJBLXVbukTJOjIIAJfCv3EqWgREzgPUjihHfRhOLv9GUwZCRfTHJrAHJhHbdOZQjKcoIEWC0FY7xmFXyUzffCHJuJW+lPBd/n3MRgcUIFg1jTJ7SF4goAEUunKnHdxlV4bE8KwCfAOhsAq3oezx5+DkWWY3hyBFmWmQC7d+tCB8/9TnCSLEEfK3c1xb4frHZRwKZc2gCZFUXUxAzC4H54HDYNgoLvRlAgTUHaA6wbG//nt4NvPqbilmJOZNSyQUXdIyHmWIIAnJamMcH7QGrH5YpSMAZhqkWTKx0OOIfHRCg4R7ts6+s2dRTXbliZbuYEWGe27R3dj6vW3YixmSkwWGBXA01JDLNp2cVBDpGdR+LL6FCLK3n3TUBuBUyCCI34VTunbW6lYqQ7uM21+JRNOSAxCgmm9AY1GZnwVc/Xilb3grQye6pSSxKlMJPVx5dcYF+apN71sbISXR6EIP/LpnmokAmamFd9zMNzciWOOjcLRlTnvh2P4cebUm5WAqwz2O567mFsO7ILrTzHTNVGnml30KoWKLHB6O4Z6Ra2xCz7m7gSBTlN+vN+tc+Xy9XyjCwyWLSIyhXtSiRceQ2CeJWILW7mWKMrDJSFq3wI3gvEUl0cznqTtkLGiZHWgnTKZMazBhplFhQc0Bj+x6bURpkaR5dcGzqcxuUlMTEvCrS+OEjLsgBnT4MYnarEwr75IgBufvZO7EsB+ARYZ6LtHt6LGzbdjkpV6MkKKbLcy457xWAv2Ae75C8++dKRJy0HY+t+Q8EDIl/cK2wndpxn5BVKu+WGfYInexxjL7usFUJNxSGLw8Aa1YlZl4qlH5zeqPLszoFYuBO7kqlUAE5W1pB941anQsruznaLmDB5oty9SqHZnC8YF5O75obJbm5lcQzLGp46CibC0/ufwZXrVqSbOwHWmWe3bL0X+8YOIOdCu4SUu1UphIASNIywffq6y0/IgJOO31hJKbcWb3KcSOlVNUKQm6QCEBAjaxwGvcWuRvoguwe2eDVPA2iwANCUAc8GopRObg1TDsKyGJutH8lB25VMI6UcyRyLaKlls1ABZUDcBvu9dEQNPcm5zAQtzUwqkFI2bqRbMJA62JJNyxAAuHXLvUmCJgHWmWUbD2zFqi33QqkKAiWtPHelxaEqQahTpRUK2BAI5dw0hy2hrrvLaA9j1EFCpXPNjNY5EZjJN44Ivtpm2Dtt90hnPYxFGTeWKZaeaup5bwTymMW7ZnUpGQlSJMLqIZdpT7X6w2CfVsOdKa6XJOsSUpwmEu7YriSGStKsXW6bpR+qORAIOecQAEWWY2T6GL6z+tp0kyfAOnPsR+tvxt6xg2DOUalKR1ScnnmDOwVf4iImHUCDR4BDDTgXa6eH5TxwAetQRip2wTzDUsqkAUQ1gujSWico7R4qNAmZBvhArlmFRDlfQQwszEoPYmCOeHYF921ZEnkShLorGmCjCk5AUdcQuVML2aJNdwjB1bBGJkKnKqXgAo/sWY3rNqxKN3oCrNPfthzajp/sfMIyC8m5cIyg0ZywZ5iSgPrqvqsseUlrcNcikYQa0DQqOtSYkw5LUdAlBw1FhvFniWaR1fJf7N+UBteynm4QAo2tdVYNeBVsF676YZZnRci03GBzcL0M+80oAwAMtvpkvD2JH224Jd3sJ9FS5+fXyL6z+jqMzhzDm+ad9779xw4gz4pIj6+JXYUaeV1/65rv1rWkSNRPAhSyUjVuiV+kOVD+Su0E9+QlmoWxdW1HPkbH3Q1ynJBhkOUeq61SNLTRuEalR3HXIe3lknMJCy7w7MHt+JuHvoN//aufSTd9AqzT0+7f9Tie3LsOOeXYO3bwqZxzw14CLT5pYCSqa07NDhBEccGy4c9kkiytuJ1AUEGhU3VAwuhIR6+L1Trdd5X4vCysauzTFZiKNyWPJ47ACNWqssNU/Pi0te69oDfvAatgeVDiWJvzpSUImkOiptmRz+Fc65hZ1ceDmVFIgb6iR5Qounv7w/jQ8v8R73nDu9LNnwDr9LPvPnUtjkwexbyeIRlvT4CJorZ9VM9ZkprDPhtgUAPI1Np4WSZlM8NFCcqqxIYv3E5n0hh/4L9/Ukanx9HKCi96GIF9MOCGdmmm6cGR+CXGd7Yxh87NGm9PIqcce47txxVrrsXX3vCldPOnGNbpZXdvewgbD2xFzhlGZ44hM9KZKiqP8Z1nREzOVNRoIgi+By0bQilgpdus+5I+J3vsGZZSCpVSWNg3/4wb5wf+6FpiZlRSBakMNYIXan4BULZkyRIvFaQxzFafGV4nV8uo38sow1RnWjLK8NjetbglacAnwDqdbO+Bfbhy3Y1oVx3M7x2SnHJkyEy6o62n4yC6q6WNGVa4j4P4is3UDpTWSdxSP8OoJzQFqOGLdzuqg/v/8Ed0Jo73059fSZ2q9C3RQg16NMha1EqIiEhL+BA1t1SzjS/MNj67Qn8u5wytvMAbhpYunJiZwvfW3ID9YwfTREiAdXrYffsex5bDO1BkBY5MHnXsKg7gBK2mXIM+895sxXLu0hF4jkhRrIIsKFWJgaLvjB7zoZ5BVKqEeGXDeKz9agS4qc4xlLWJnhnhMuvsllGGPcf2D7fyAruO7sH1G5M6aQKs08C2bduGazauwnQ5DQIk58yXkETqnsHL5SjYVOvZ8hbijgreXWzu1qwb02g38vHP3Uhn8rg/ctH1pN3jssaSaolqJDFQhcXecSJb/Pmw+WLThCKd6lBkuShVYeXme7Fu36Y0IRJgndp278iT2DGyGxllaFcdZJR1danpSlsw5StOEyWcK02TJ3AXnYRLI64JFCqsu+RWOhvGft0lq6hU1SyYUmsvFq6OqtpDpAm7qJaPVd87EXLOMGHKrvaOHcDlT/0oTYgEWKeu7Rjegzu2PYgiK1BkhRR25aqZIMVPeq6FWoDjy2+qt5QPgFGFsipnixF8AL4+5GEjVWp4BjRJ48x27RrGnYjQyguARIo8x+p9G3HP9kfSxEiAdWra1etvwnPDO5GBMV1OIyOO7/KmLG9CdzY6XgZozRKPEaVjV8uGlv7J2XQNHMuCdPVRjZtSzDGWTeBUZ72zZPczM5SqsLTvnMsnO1P49pNXYfuR3WlyJMA6tWzDi1vw4M6nwJRhupoRXbrRoEM120RpAjOOn+ZNjY1jfRkTu4KWRmYm3P7p733lbLsWi/sXoRQPWp45he3OGliSHcv6isZsDwUzzi7VwdT2GJfwwhYX2H5kD27ZfG+aIAmwTi27Ys112Dd2wAReC3DGsRJCY/1aqOpZmzShAoP5rNtNKJjH9cmkaUUpFZ7+/NkRu6rbvZ+5ijplR4OJVSqdLUGXMUttToM7WLuWBHIdjZxaDgHMhCLPkWe5dFSJazfcik0HtqZJkgDr1LDVezfgyb3rkXGGjmpLhlgJFLMtQIVdappiKlybNHWrr7YTACEoJejLes7qa/KWhW9cVEoVj32NiboxlDliVTiOWFbNnSch5Mgw2ZlCkeUY60zgyrU3pomSAOvUsCvXrsCx6XGcO7D4MqbM9LJD86vx0S2zPNVNzAXSPGnQPekUBO2qg8c+t4LO5mty6+99d6Q370VZlV4qJ2RZs43trGoSZuhJoCjowtP0GcO+WlwAAsmJ8eDuJ3BDys1KgPV6221bfoLHX1gLJsa+sQNftrIjsSpAQ+NOe2fXuxBHEyfQM5c5Yl52NV4Elaowr2cgXRgAj3/2x6Rs12zMMragWhA+KMVpiG85jXgK6xKldr31bpkYHVWiL++T8elJ/HD9zdh7YF+6MAmwXj+7ZsOtmOxMY7CnXzLOwFbSmOqP7VnKQxB0hmlU65wjttJFynQQ+OGLrqd0ZbQNtgbQqcpuQHGXpZ5b5QTJuuNbXXFIAhE3XG/zrtGAH+tMIM8ybDu8E6uefyBdlARYr49dv+E2PL1/EzJiHJse9wXOXdnnDYGUMIIu/DIU+WYBK8OulgwsTBcmsIcvuo6YKMrNCgatIc0h7DLbEKuS2iNClFOGRePzhpATo7foESLGj9bfgseeX5suTAKs19YOTRzBbdvuBwHoyVvCZJTDRbebpyiVgRBlsgvFOQphA4pXhFaaXZWicPcfXJXYVc2evuRWqkR1e+eRDGqN0tYTfkOWG1zXqINPQ1IpESHjHOPTk7rjzvRR3LL57nRREmC9tvbD9bfg6f0bwcyY7Ewj58w1PmjqHtyVEGrnBmog9jJAKswH6qgS81spdjWb9eY96IgJwDeVR80SYmyUqqk3+6j3kaxVKxABeZahXbZFBLh92/340bokqZwA6zWyLVu34o6tD6DSOlOSGQU4iZslx09nDka9KTbSFR9pSn9vnjhKBAXneCjFrma1xz+7gpTRHKt3/YpmQwRmDS5jV1qD6byjyEhPB2/W87WIcU7fAilVhR8/e0e6KAmwXhu7/fDD2DO6DznnIOinp26dZbpCUU0b3JqqYZDMhUsBkjVlyrtQi6CjOjh3YMmidGXmtvMGFn+7U3VMY9mYBdU7C+lLYDt1UPAUku4seJswSgRyBdY+FCbGfbQuYc4Zth3ejb99+HvpoiTAOrm26cBzuPO5h5AxQ6CE2TQIDVpnuc4r9cRR+A5XTV1gZhNdiNgUvEKNlY9hItz6qe+MpKszt93x+z+4qD/vRaWqhu7UiBNLuxgtRf0Jmzx0J/oQVidEPWPJkjVRVGHl1nuxfv+z6cIkwDp5dt3GW7F/7ADeMLTsfZVSWj4mDEcZJkVBoNY3Az3e4JSeOY4EGJljiMT4JoKy6uDcgSXfTlfm+Oyxz66gdtUxK7keZF7yGoXuYUNdqFVgrnfBjtstapZVqgqZMPaNvYjvrL4mXZQEWCfHVu/biLueexBKBHtG9+kuOOy1rrpitIEHwQ3hkual8qZcLZ2sWG/uVYpCX6sPd/z+9y9KV+f4bX7PIMqqBFgQtn2MREYFs3TfoWbpGWlmzO7X4L2cMwhIRqcnccvm+3D1upvTRUmAdeJtxcY7MDYzgfPnLVuYsdZS90/TUPYYsyQa1h6/TVpMXatUTZLJAkiFsirx2Gd/nALtL9MevugGImZUtvW11J4czq0zYz9X0B2GWrFtMx3sT8y1Zi+1QUoH4BVVeNeS5Xf99ce+iAsWvyVdlJcwmi3RLdks8Y8t9+MvfvK3mOpMg0kXaGTM/ibucuy6G5lGJKrxqtSe2LNsIwKUqkTBGZ64+KYEWK/Q/uk3flNaeau774TUHu0vNVXmurbUsI0AShTaqo2Nl96Zrt9xWOpL+DJt1bafYKozhYGiXyY6Uyh4llbM7iEdNDIFmnvdocGtYBzH9nr5/ImLV6ab/VXYTKeDyfb0t09c62qaC9N2mC2Wmyu4Y8e/uf8r6SokwDrhdu2GW/HonjUgMMZmJtDKC7NYJDVGRAELigtifSa01O7tWjBE1ahUA2Z1qg568550YV6lbf3jexLgJ8A682zFM3dipuqgv+iTqc60AZ+gfMOCV8CIbD9AjVMSB2+F4iadvo2wWaaKWzoTxDdFFQXm7KyXj0mWACtZg/3j2hux9fBOZJxjqjOFnAutJCoCCM3a5MbKjoQuYrgEpZu0MFwrZ6YGh8JsCw96ZVVift9QujDJEmAli23P0f24+dm7UUmFFufSARvMsexK+VCT6zcoXbEnm6OFCMAAgkAMUIkKGBf5LQCT2yNAJQpEhPv/8JrErpIlwEoW283P3o1th3ciY8ZM1UGLTduuoFhQiFz4ikI3Luh14JbFyUfS9Wq63o9YDjZLFrWNiZWqxPlD574/XZlkCbCSRbZrZA9ueOZ2KAgYJBnnQcyKGt1AOHAS3+AZHAAWXNNTcvsR/zmJg/buO0gvg+dZjlWfvmJ1ujrJEmAli+ymZ+/G8NSIK6UoKAeJzFpLFqGLZVvKABJrfSyJxNjr1bMNQXsTaBchlKqDdV9YlVzBZAmwksX26O41uPnZeyACVFUlLkG0CazqIpYI41TiagttI4RI6A3wASpPybrSIiopIaLShUl21loqzZnDbtx8F0amj+Kc/oWiIEbLiLpdPys3ElbnM/ntmaJ/U5Cn5ct2An2SIAGViEDsdbbWX3p7YlfJEsNKFtuTeza4AmfrEtbBSsTWAZpW9EoiJ8+V5SjNsSRoJRUV11pX0NOt+DtMoL0nJYkmS4CVrMmu3XgLOlJiad9iOTw5bNI2TXJnPb5kxKoIpEXhAIjouJMr7ndB9mA/BrXEBdr1ux68yNUfKsgpU+C898A+vNgZxgvH9mPb4V3YeXQPSlXBj0KsXBH/X//GNW5PxMG75J8D7i/eKWB4VkqBo0Dk3XUOP+dIa/DX4NjIrOaC/FXi4IApdETY9gzJMFgMoK/ocQsnBNbnJeRSfQmaXbt/mxuCKTpTd4/Y7cAEhgCideKVKMxUM/ilN/0clp/z5gRYybyt3HwvHtm9BjlyjEwfNexKV7+apspGfFKglF/584kJAJGYuUNRXMtvExdFE1EQ9/KVtroLTomc89d9TFZtuQ9P79+EkeljRuHALD6QdpfdOoIhnCFKicFoJj0JNUYr6GmpPCSZ9A4X6yILAAAgAElEQVRXKG4FxZTeb3e1ny+Lqiu9+Aw5LW6oTFWBfihwTaQv3jMF74V1CK6HBYleH3HPr3DVNz4+8QcTPbR8EnF4BH5v7k4hoFPO4Px55+F9b3x3YljJYvvxptswUU6CiUWJICMCRMX9NCV8wktwR3fdsX7iymwqlT6wTrVbV0SgIFh78c2vObvaPbIX12y4Fau23IM9xw6AAfQUPejLe3QfPqIa+zk+M9yhhmoSvPdaLCxQI1B1bVXvr1q7bnO9H90TFJ9nzLYbIdg8+Ej3U8x68C/f89t4x+K3JsBKFoLVHVh3cIvu1islevMe3aorfBgKgUj8jUqBRGWYllBXbqBgAtRSF1y7KYn1rqpKYenA4te8H9QVq6/H1etvxs6jL6CV55jfO4SMAmngqKAbjSunkbSOeCgWUvVInZdLJ2XYUgOgNMnzSPiMCPWqKC4WCNkLAaLC4nPqxi63QhvAS53Cmdw6W+PZBXCkmVgcAaAaKFEN8v1JScCyf3rJ2/Fb7/z1s35+Jj2swF48dhAX3fRFbB95HvNbQzJZTqOouWLCsZJCdPtFT9taUmntSUwNT1QXwzKmRKEUhbWXvHbyMbtGXsDXHvkObt58L3rzFnrzXmTEOnJECkyZGJdwR80lXH6KuoQ7jEu4XAl2GJdw+StwCXcQsFyUlocRkh0kWE6E5VoyxrmEyxtcwh01l3C5QHYQaHnNJdwRuIRuv0LY0SlnPnn+vPOGHznLOyIlhhXYsnlL0d/TjwoKE+UkMi50vCoEGkUN3h3V4lH6yUyBOAPmyDUlyzCUp2K6C06Jc4deW3b1F/d8DU/t34h5PYPo4RYECv1Fr+w5duDbDHw4cAmXnyYu4fLm31+2S7i8to/lgUu4/CVcwuUNLuHyBpdwec0lXG5cwuWS9Zz1YJUYVoM9/vxaXHzrn4vYxhKhdIzMJiopETC5dzlmAHNNbiLS7RBMYLhSCkrkNWNXe48dwJ/d8Vd49IXVGCj6kXOGhX3z79p59IXlrTxf3sM9J8wltE8AagAGXzd+sl1CHJdLGP6h7hJKoGnd6BKiySVs+qo5XEIC2mWqbkgMaxb7pTe/FzOdGfTlvR6sXLRdAr09qt1y5nlpVwtNo067RD1XeFWnWolb0lYAlFL4s1+7+DW7Sa9aeyM2HNyCwVY/MspxZGrksonO5IeHWgORS2hTMuzyvCveRm18/KK+zz8j3eGn3vPdpoA0415dcrVbLNEzVJ1CIEqMAobvUmNBTMyqG1jMsdCsX0WWQYbxysBnpBrVDhvnUgC8OvUlBl6ai9lZgCOgUgqtvJUmZgKs2a2C8svONaYAZkApAzDkFEfDhIVwoooW7jZzq86w/IQI9a5EBD15Cz/acAt+8Y3vxlsWvemknu/Du1bjhk23oVIlWlmBqWpaQpdQYMoha+kWkDCNgyBz6TlHSbIxVSESL82juhdayTIOIYQqGB68nEiPcycFZESAJFik09+lN+HmYGK4RCfmCopnWFExethQVdBwbeuKs/5ad395cADmNJUCZqoSG79wS2JXQXg0Wc3OaS1AZUDJPmmZbVkNwMzIrNCeeUrr6WFgyuRnEVPXZ+OZEbdeIWGQ6BKeUpW08+ge3PTsyQ9hXbNxJSY6UyiyHKMzY1JQjoJzKAKI2bAF0/3FMkEikC09otB98+cj0Mqo0rTa4IYg7IWlu42SYXRsxtS+p9/W36FrKoPvcT0c7TUSiAp6BNrvUrVOtdJA5ihgQvbaBaVS9nrCgLQIQWBafdtuqZYluXuAgry8hm65kS/KEMVQqsK81kCakAmw5raHPnsdCSrPeUwDUz/xzGRhRNpW/ulvn6Sq4bP2pq23embXzktBobdoiVLAzZvvwdZDO0/aua7Zuwnr9j+LggsogQy2+pFzblqua2AQA0zMNsEVgeKE1Fq+BoKDdiy4oYdfre2isqxN6e+0/zU50r7xcijzo11vjUt650ICRdo1jL87bpnm8KzWXs0ytvAY4uupQCR6XNiUZvluqT4cRQ1tJ2cDK5BxvStUUiEF2hNgHZctGzz3T0ql9DPbZKJroqFcK3pRUutlFzz1haAUzRGkUM5dkNAXUjpAPd6eQpFlODx5BNduXHnSzvOJPWsx1h5HK8ulUiUyykzZjD5+EYCUBV59uuwjRy5kTKg3H7XqE2ImctOMle7AjxvrMEPJCBwKzJhyFDuy7QBJCVjp2JQKujNTmG7hckxsi2cd72ITBwuB1e1X/DEETqlJzyBzLwQsEUYOSOlrS0ofQ7jaHF57dw+Ilx2qlMI5/QvTREyAdXx2+6e/95Wy6kSuh5tM7sUBw6o9K8mHnq0L4W/OBvcCsaeQU4ZKKsmIcf+uJ/DEnrUn5Ty3DO+ECJxLCADKTjSSqN7OeTuiQcEH0JuYk2WN3KVA4YHKuoC6Wo+s8qqIwzcdkGedXsLav3O8TgIGQ5pZKWIIUc11gwfOUF3DJfmyB1kVgAhRSOf0uTD7fvRsxog00wqlzYjDa+upWxjTsu8zM9jsVwFQIuhUHdz7mR8mdpUA6/ht6eBitKvKPKjj/7pb/5qJJWGgVUAszt3xk4jNtta9gP43oGMhZLoCK2Bh30J5cfwQLn/y6hN+fgePHsGe0Rcxr2dQCi4MAHuAEWigEBYIiwMyYUAxQyg+X/dSNmCtnEvl/jOALVaB1bI3eIAgInAAiK5PrWINLraej821CEHIOnOB6yZ29dYeM5vzMvlgQuZ8oF+AARAE18dmrSox107HmXT8CvF1F82+lVJaOpvIfS8MODFb/BSzKqyBk4RRKoVFiV0lwHq5du9nrqLevIASnZHNILCwD+LWOqfqeAY7UNI3PRvCwWZ+6uC1js/qejxm85SGAtuGFsTOJSw4x4YXt+DhXU+d0POboRlMzExgrD2OjNm4RsqQJHPcQmDFIBWcl1l/I1Fa48tNQn0+lnR6D8uMngTMh0MX0HA4Ic+CDHgxa6BgYRNXMySHzT5NYJxdoD6InRHp4zHXjZXvOk/CFpp8NJGU2TfcdzIRmEQnmxi/jkhfP4LSYybm+x2jMw8nsHZTRUCi3HhohGJD8BiklNk/oKRCToQH/uhHiV0lwHoFMZ7P3UjWNVQQ7XqwdjvqgXT7VFdmFUsp/xJRxn3QeUDKvh/EhrRHYvYrulwlI8Y5/Qu3T5XT+Ic11+Lg0SMn7NzKqkJHdVyukgjp7zerbgrKBK41U7LnoZTy6Q5i43r+fByLEjZTWty+hAzzCGJMmu6ErpOOLbn9SjCm9vuVTXUQty+/nXctxagzKFLuJfZ8xL/EMCl7bErM9qZwKIxeiWkxL/CEzx2XiGPLipRmphaYAbeQoBz7VEHYT6FUJc4dWrIozbwEWK/YsqzQrbUMqyClDJOI1+gtU+BwBZD0cjeRv9md9lWQj8TB8jmxTytkyvDi+KHlRVZg86EduHfXwyfsvArO0ZO1YFc86+GmWGQQTlGVmR270bTBB8s1ezI/3efJ/bSpCvaz1t0Uw16EYYCtltVE7DW0LAsyaRfMdozhc+NYxxg9ZwxTTyyBY8/Egt9tpoaLvwcACKNxxi6cRXrcgniUXkARM6ykS7TsQoDiKL7lvhs+xnnr7313JM26BFiv2NZ8/hZqV20o46roZepwuZv8bNZdJ8AsYBKwKJCSSLEhiuO6mzzCPndTc8YoOEdOmUx2JnDlupuwfdeOE3JeEwfHoEQ+wcQgFa69B86cCwqTy43yrFGMGyu1ZQcT32O77A/9eTbJnaFAIVi7nEKh8+hyvdjmgZnbVU9uhijybMis3IrUGnpAObeNosYfcZ5Dd+pJuFwYpHRwuMjCehXVpjK4eBli9zAIwpNRpnUs3CVO6N/bUmLxQCJXc1nKdD9OW9Q3H2MzEzqnKFAd1coCnoaIhBMnRiEy9WdBt69ICwvwEiTWnQGAjDJMldNoZQWeH92L+w49gbe9ZfmrPqd3vuMd6DzUudZ/cQ01g2Cy/zsCsKFogcFOfhPRCwAh3mdYJ2gnuVWJ9v8mt5ho5R9mK3slAsJC6jALv6sG0K3WoaZBFh1sULkg0Tk4xzXYv8/A0+6pBENl74WuFVUVjIIIKlEYKPpw72euSrGrxLBevT3wR9eSi4lQnNQcOlFhVrR7VgdPZ+d22VX/sMdhQL0okO4lBoqsQCvvESbGys334tmD20/IefVkrUXdOFA/n+DFAesh5dwhn80fH7eTiA724Zt1hDlu5HtwkFWwsCkDqsuN8syUfMmOK3gms5hBs9YmRsdj0hWEyMUn43MNEmBr48GBe1o/H6oVd4lbIKDgM/pVVRUeveiGBFYJsE6cze+dj1JV2oWQYJm/IYdZu0I2b8g8eYNkQgnygjQAkstD0rEc7Trp+DsjI8ZkZwJvnHfewp2jL+D6TatOyDl9/eN/PiL18pnZLFyuD1QIrVsmemnNUiUTyqklg9gxgNTeE5fW4VM5fXpU+L1+a2VWWM14mtwoIQmSzsP0dWk8KRv8hohxBMPUBESpCvUUDqVsGkc4SPZYDHMkH9MTuzAR7KtSFYpU4JwA60Tb/X90NYnSk8GlJBA3isa46I4QSLF73jI4qkWDSX2IlvPJ1BQKm3o9/X055Xh+dO8wgfDAriew4cUtr/qc3r74LcDxKlrVmZJY18b8TSc06aUz20iWKK4KDILMLtUBfhsLGDpc7oP7LpZm0yp0MhiU0p9yrrqy6ROe2UX91xpOyo41M3uX3kbmg59hkidTkFYRJcUG1DJEXGXrMP1/dhzKqsJTF9+Y2FUCrBNv6y5dRZUqfUpCU72b6JgFmwJom7glJFCs4KLbYe2cXRmLkilNLZ/oID+TnrA5Z9h/7CC++ej3T8g5ZcyNLHFOYgKzmsdBEN3W6JGqhd+DELM9L6XHQsj/TbkANNzvKihhUsF/Qvonw6YleC0xq+7q41S+cLvpfDQji9NP4IBTOSkYm/aglL5eippqHXVKCpTXwdIZ+DaBFKaySJ9PqToYaPWliZUA6+RZK8t1dg5Rgya3uUmZNAg5yQDLQMjnXYVxD9eSqhYnYZ3QSDqvEDln6KhSWnkPnjn0HB7c+cSrPp8FvfNRqVphtwvAzU7ASDxLqse+LFQRYlZB5NmmTSSNYz42fB00yrKqCUKOkbnUCA5jYxowJUg9IAqVIKjxfKge03KRp3AN1MbTzPbKH0sDDfXsDFF5u0s6diKCRHj0FGnflgDrDLUnLr6JZlSnVrxsnq9RfArObfJNBUwdGXGgBz8bhRFPDEyjPuuCntM/f/vYzBiuXLsCW7ZufVXnc/cfXEkz1bSW1PF8Iq6/a6BeVn1K0BQnqqOdxOwDPs4V0KGuT/oYFgKN91BFQ4KqHDINQnQMUQUrmO4/JTVZhjliXI6RhV0lgnOhuBxorpfTfSBxw1CqCn1Zao6bAOs1sAIFKlV1FTYDiGI0NqwrpjjWxmGiwl6ZjcKQK4WxjRsA5xIuJ8qwet8mbGy/+hXD84eW7ShVaViMVUPgKB4jtSx2X+esY0RdtZTRyy2Lmn2ya2BhllIjwBcDGCQ2DK+CzhA2R8yuVpoFCpgqBJt+Lvp7xJwPm1iiPh92r/A6hA+hiKXZ7cOaxOh8EVzLOI8LQQTTrobqzyg8/Nm0MpgA6zWwNZfcQpUoVKbjsashZI4IhqvId1Vr1unySZU06y1rOAwpECswa5ckowytvAeDrX4ppcQP19+C7TtfXTLpXX9w5dsyZsxUbf2dLF36VdEyv0ln8MRImVq8hkUF9gm1vmjcJ3G6FUEOlv2te+w+H7uaYfo9gcFCRl5G1wNqNmrq/UiBmeL0fVJWkya6DmHWu5OOEbu9+T5xyf1Bdj+7FUvUInh1scbXq8FIAqyz3Bb2zXfKpC77O8gCDzPCFXwdHEyZj6tdC4PB0hVd0YmkLvalw9E5AWMzY8g5w/bh3bjvyKuPZa35/EpSUOio0rhgKgKHKLUgqpFUXUFpx7CceJjUYlxBnEsUWOmKAAkzzqPvkVqcDA74BH7RQkGPk6srDI9LvCZ9oEkTXYcw693ngdlD1ddOggC90zZTyrin5H1YQcM567bzBee489M/+EiaRS/PUtecV2n/5Ou/Kb1FS7dqf9VXoyGMUnvb/U0EparAxKiUogsW/xT+y4f/Ld6x5NV3Bv6Zr/+GZMToyVteRWEuVd9XaQ2NcGptKub4YNeGzX2NTpZJranPXNfSurztqo11X7gtuYKJYb32tqBvyCWTvqwZWmdTdU+nxico+BCZbO6cM5RSImPCtsM7ceXTK07IOT3zf99JBeeYbE+hVKWLv520p2YNc15icTL+YNeGL6WZfoKP3bmGwUWtX8tgjaGS2UuMkiWG9ZrYe7/5W5IRIWM/e6L6wHovP5uMKC/nkV17bJvArRKFSikAoKHWAK76xN/gzQvPP2Hn9o6//udCxOgrepFz5pbxiV4eIEgjjwr6Jb8k73qFjO0EEy6Rhm9xDUZmoVXB9WpXbay7JLGrBFivs73nGx+XVpa7FUMY8biu8SUjUjfXJKp346xPdImnZ7uqUORMU+1pfPQdH8RffvTPTvj5vetrH5GZsv0neZZ9ueAcOec6xYKOv/Nz2J3RZDZh7tYML/X+cX7S/cNL0CDoOUkBukl0tLOzKn2JybRwkwaW142gpSrRU7Tw6EUp7yoB1utsP/eNj4tu/8Xmpjb9C80dLl7gylTuI8jNCpjYrAyrmyrYfCml9GolEdOC/vn4iw9eil9b/ksn7Vz/p+996vIjkyMXjncmtXhe2Ba01pv0Jf99vNvU3zuebWpMq6foAZtV1ozY4xgjCpBT0CMyzKGNriP0UiGDoERqLdy6gUtEMFO1sT7Frl6VJXmZE2TnzV/6/j1H9z/VSz0698eAk00f0nmfQRMKl4Okb3r7dwpdxWji1ZMWfb+ajHJUpDDY6peRiaN01bqbTipg3fHp718E4KLT6fr8/WNX4fInrwKBUeSFKFVBEfvVS/HpB07uxnZtJu8Les1Gw5TZN+qIVwUlcodLVb5mcbUz2VLQ/QTZqt+7YnV/0YdKKp22oExZis9PNPLH5LrEsBiwUlY+OXgwu1TvIPnSqXsGsTKTU1RkGUamjoKI8Pjetbh1y33pohh77shu3LDpNgDAYM+AdMpKJ74qJ/AQ5JeZBE9TD+rlk7tXQ1ymQ5Tcb8qDrHoq+zz79V9YlRArAdapY49/bgVVSkxshnWejwpyFMXH2rU+vCn2ZTZg5pmVL8mpdRNWYZ2K12KHMIqshQX980VEcO2GlXjx2KF0UQBcseZ6HJo4giLLMT4zbpI+lQOWWI/dNF61HW6sIgc1tXILul9b8mtyu8goT0Dp9JOFffPThUiAderZYE8fKlWaDHWp5ygijJSQfcorpfv8hX3tLMkKC+mc1Em8bG//lDFjZOIocs6x6cBzWLnlnrP+etz4zJ14YNfjyJnRqcq4eWBYXG0lbMw1QdAoI+yB2B0sqxWLWy1Bqyhj3rvvM1cndpUA69Szhy+8nkopYfu11O7j+GYn0fEuKz0Svmulpch2YJ79freTw06+SirpqA5u3/YA9ozuP6uvxw/X3ozR6XEs7FsogFa76GJLYQNX01VHhbIwpuuOsLlCCrVV3Nka6Qo6VYmhVn+aGAmwTl1bNrBkR6WqBlUANPxuettFt73prKzE1QXPlfYUFunmnEFEkGcZth7ege+vvv6svQ5//+iV2HRoC3LOnEvYmD/mBjAIRbkljbivops11KUpgXqgXYlCxowHL7wusasEWKeu3fUHV75NzHJ3dzp2XQHT57FHT2yjZhBNhVmy4cO/6wz4HCQszBke2PUknju8+6y7Bs8c2Ibbn3sARVZgoNUnOXtl2EAANBo/q+/VmEel6mNf78JT+5ypT1zz+ZUJrBJgnfp2/tDSRaXRzOqq05BYAbMbh3zUnUR82/ZZJKb8U1//zIjRUR3knOHg5GF8Z/U1Z934f+vJH2L3yF5klGN0ehzMGWxfyKjfh3glBddyy8nFNDxj3LjbphcN19M0WiVO0ysB1mlit37quyPKdggWxAzLqV9SraU7urYRJijTyaXblakRNRv7ZUKeZWiXbSFkeOT5NXj0+TVnzdjfvvUBPLZnLZgJ0+WU5JyZLjpN1U5WwiZQPiV0S8WEgUhG1Pkn3IfJV0ElFdZ8/pbErhJgnT624dLbqCNlt6Zll4sxu+olQdwq4qxmP8bWFzENHDjDkv6Fd41Mj+L7a244K8Z837EX8YO1N2CqM4WMcxRZgYw40Laqj52VwPFKpHpbI+iHUDPUCDGq2vUL9iFKUJbVK60oSpYA6/W1+cWQdg+gpeqihppGLbM7rhWCWqBJjlliV13bswvAH5w8/OGCcjy5bwNWbf7JGT/eN2y6A1sP70BPVqBTdiSjPGo/37VA6PpC+4RcCtTcbdcyUkaxVNnIfF0iGUF9omBtShJNgHU62oMXXUudqmNE/AhC7FzB2NeoRXXrum+oMbH6qjoFAGhAUP+XYbBnQEpV4oZnVuHg0cNn7Fg/vW8TVm6+B2WlwJwLsy5An4vu+HhWuHLhXXabP+fTTOz1MI+goPmqLsGp0FsknfYEWKex9eU9KE2aA4UtoLpoEqHWMsEkLQZa6lZOOGq2Gmqtk9MLB4CMCSPTo8iIseHANqzYeucZO87feepa7B8/hCzLnEsIp58ftqcPx1RcozbfRlCMuqq4hQ+dZhK65lYtVcsykwm4V0qlLjgJsE5ve+Lim6iUSndxiVxBF6Vy3WrCnB8WXdPmW5yzcRzte+R6Fdq27FafXLMLRoYMBeUgYmlXbax49q4zcozvee5hPLVvPTLKQBDpyQpkZBuzmhIbFt9YlawOO4MUu/F0rcvItxfz1yeM2sdReAHQUSXytDKYAOtMsPMGl9ytYLXPu9YEgxRE2w6KTANloxhgG7eaMh1lBfyUMm3ZPcNSYChlauRMp55SlciI8fzIC/ibh75zRo3tc4d34e+euBKT7WksHVh0eVkpELFrxkowY6c4aqwqyjiBpEyGu2atirx0D1yzEDHa9XECsG2Oq0gn+a65JOVdJcA6A+zO3//BR6zigr/xaz3rXNNR7TpakBJl5Wl0YFjDnooCyZZd+RaklsgZ15AYGefSylv4yc5H8czBbWfM2N6y5R7sGtmLIsuxf/zQhVmWGRVQ/RhQsM1pbUsyPY4EW8cJ04LLvgzfNUWgetWQghZefqHENcetBOcNLX1/utMTYJ0xNtDqR7vqBLEoDuoNOZLlQw2M5pJSMkrvscsSZEcSETLK0K7aWDa09LLdo/tw1dqbz4gxXfPCBly34TZUSqHIcskoM2U1YedpuH+7Vlum3b2EYysqToE3CxjdK4w2Eu+TTdtqBqs+dcXqdJcnwDpj7KELr6OCW7qFlCizdB5K8TK6m3DCuDBawZRE6RiLmzRsmo2aSRrWndTKeIxL+GWA8MDux/HUC+tP+zH94YabMd6ZQJEVmGxP67IkG2iHjT+FPbe9SgMbRuW4brQq669Dd4dv0WBn4lWqUjh/aFnqMZgA68yzpy6+MUombSoNjM3mYSF+zItJX2C9YqjsWhdR0FVZuVwhMrGsVt5CzhmOTo3hqnWnN8u6bsOteOT5tcgoh5JKiix3ixlhVaAHp+YUB+88MuKCZmXGzjdX9Z/QW1dSQaHSLn+yk25JIvl1sL68D+2qjQwcSO6q2MmjwD0U/7sQHDDpJgjKEwILZM6t9E0ftCqdQkaMUpXSynJ6cu86fH/NDfi5834WGWen1RhOtCfxvadvwMTMBAZa/TLRmUIry4MyS1XroqZLASiQQQ41211zjKb83IBdUdAHRC96SOox+BpaakLxOtm7v/FRaWU9YLI1Ncq7ImKXqQyIEddkwgPJZGITcrFJESb2ElTuOpUCAkTpzs5DPQMYnRqjPM/BIFQS5Iad4tOPAK0e2p5Ab9aDjiqllfUEtX/skkRm71YRvE9BN+joPSAuSafoIKqqghKFtWllMDGsM92GigFMlNMoODPzxkrrGuUA0rlC+lGuggCLiuecmU9MZJQGwjmmgVACpkaAcwn78h5UUqGSSk9R25ZM4BwkFTW+8nEg1pqqQWyBTLTt5T8AOTqr2G0zPYigoON09mzKqkJf3otW1iOqMx0E132iqCuwdDpXCj55hD0j7RpbrgGbj2sxABEFEUJVlVh3aSrBSYB1FtjDn72e3vvNjxto0HGSKDQsyoRj2GVr215+DliiZ74OxguJWyMjM8liEq2ndCvL0coLmSmFdOKpCSAHzEwDiTI11eSAw/pFRXTE2rI5CRohdsCaP0foVs5R7ie5Y1s8sHDhC0dfRCsvwMQuQYTgV0fF1HFKLSboEhSIgnHU+/BhQtEBfLFjqhyElapEX6s33cgJsM4eW9y3EIcnh1FkhVYBQNC+k2wkRsXPetfli1ywPVhLBOA1yCXsJErWqRHHpo5NjyPPc2EQ2lV5/C7h6xxFIACc5dh19AX0Zj0AoTZOypy/cZMphEBVJ6ewK4EuThggvP3dXh8xwKVE4bFUgpNiWGdfLOtj0pO1GlQEmjrc1dkJuQiVnbAU/b/eadkwNNtzWcwql6jYJcSp7RICuhkqBb0D6wyOHIjP1stZovPRP3zvR3IqsN3nU6oS83qG8JM/TI0lEsM662JZ/RhvT6KVF27OhJ2dpZHWcK1MmmtbSa03dPOEFSCoRTz9XMIYjiJRMDR2yq49nHW+lgqgSYIYlzQySoFgpmzjJ59PYPV6WMrDOgViWb2tHh97Ma6MlUb2pbfQonxgN6V8REa593wyJAftLdgoPPkiIGWD9cwmY0n35rPfycatYmFdqwgB2NTVGa0ou3+b82RvKScvbDuJ2gRMrz9hPuOPF2Zffu8cl9aYb2Dj1ikDYaESg12gsFI+ALuzt/4x24Jn4gDE9XHqImjTfg0+fwumaAAgKKWwbGBJunGTS3h22zeSrVQAACAASURBVHu++TFp5S1dm0YwBbtNzxTNeMQ9byRygPxfLR9hF9cJnEHDMPS6mSUWLHBAwJbTeC8JRApK7N4lOIa44w9AcYZAcGz+eHw2FLtPsQNuiT5joSo+H/sZsjEmM3YQFRxbcD7Efq/BKiK5uJZPH7EOrv1uEFCKglIlnv78rYldJZfw7LYMjKpUOoFTlHPzqJZHJK74OY5UaYTw/MPDh3WmGELBJwPNLBhmp4BgUgcpFRYkhO1jzkEjNbmuLjXCbq+CEhipHTkFiwWq65jr7mM9ficOe2zBMnvgCVxEJVwLR3XLj3oBUWWGiKOUkKqqsPYLCaySS5gMay5ZSaV0tOKCUXQg199eGa9KGQdJuWnuVTL1NkSiW6szXBt1V6kDePnfoKhXi2sqECnjSJoXKXcsTACz3YaDGkh7LMqxGf29Gvu8uKrdrzgnz0ek7N/JFb2QczglkCxm8xNBcbM/TnuSRNYJJrO9cufnX+LO1QMrTDmTjXEpozOmoKREJWW6URPDSmZtqGcAE22dTGqLm11Y27IhQuDahYyJtCQN4pITQ41MbpJlSkFeEcUrZS5oL94Nc6zHkg1SiNf22Ei0KLdPRIyKfWDbhSCsyxnmSQVHIgyfaaYiduWzNTwLlbBpLcX7q7f1sOcuEpwDcS23nU08TL9fqRJvmndeko9JMaxkUSzrGx+TIsuNFrl90rP3tiLdAZPoGMaTKKg0QZAk4DK6xWlDeVwThKU94pHRAYgIap+Bi5G57yELhtK0SOddQaLgfBRCBfpo3dGCiE++9+dWS+aErcuUuI6QApACwvFjX4PpDld1xeSsTnvBOR7/3IrkDiaGlSy0vqIX02VbsywTRyEJ4lLkPXlfwmvWtEwPRHJdp2vsgl3VrmcXFE/OKNnUxHMcs5FazWN4DAHOCBlQIvLZqxJsLfZYjFSxcd9UV5KEqtWEU1ywTBJRLhHrkpJP/BCrfyW1fAsJypDsmNrBUJ7XCdCpUo/BFMNK1miPffbHxAja5FlmQSYJQBgsCiymAULQfTgMZ4eXNkohEIr7r7qeDOz0zJm5todoSjv9c522YH66bex7tX7wBNOs1MTVDMMhi2BB52SbTsEKXVphDJiOyiYVQcx5cQByIu6ryeSYuXMXr4dPJhKnhVxNXEuM6ys+xaQ4zZQsEsNK9prasqEl7983dvCpLCsA8Wt+YtQZWNgt34N07zwtJeNZBZngt+8E44IAgSvkWRABQe0d+zi0hKUtJqHB9lkk87tlfdZdU/WoEYLokIQeqFGbYJeRQPAHK84llGBBj12dpD505bcL6geFPIsiYii/wOlYlM/jIh2DM6SSrSusCDOqjfVJPibFsJLNbb/w978jSpRe8QuiwdJIkEPZBjZsJdiKGaLCVIfZimHiqsRZbxo0lxMSCMQEJX5V0qVO1MNaDTsRNChSNLkFTLoF1xyOg8nz1H1llWo87rk7FgKlUhhs9eHBC69NgJUAK9lL2bu/8VFTZ9ggdxI4fy7wbFb2yHTdIdhSG6NIUA9+Iy5HCcGCwC6mFBbDCML2ZN4J5TCWBBUnlZKVdSEQCZR01/xFVZASxM3I+cRG2kWfG5TBZvFJsCJe3JCNJI8EAfy4Ipwj8PQRP6/o2q7aqYNzcgmTHa8VnKOSStfZUb0U2btoEPbARcqtnpFbVpMap4hzzCmqQLTJmiouhpEgjZN8coAOlhtAIv8pgne7bPYXzKJAWCgtFMCfBJDJbGJgZvvANXbyz/aIbDmTySlTolt1eSkZ5cfMuKEu11aku7JRBB1VYqDVn27CxLCSvRx77zc+LnmWBWkOFBQxB2U5pBxw1bhCjRnVmZqf2NHqmEvf9MyLCCDhmgZnqMgVqJ5GIKn8cVOEC0Gpsf6NDVOiMDcjPGLxrNIJ8hj/UsSDMrOJZUWLDzY+Ro5kkaCbYyqVYleJYSV7JTbUO4DxmQmQ6wYjNWEXCVbpwgnaLfQSSs90g1es0iARJEhQceNTIaTLpYRja+higjoAzhJHqEKGReLVIjQTM4wtZIlUV58IGBJ5pgZlRQxVHKMjH/gXZcCXwtQNoJQK589f9sl09yWGlewVxrK8/ju6uBOZlTu36udWwcJIkWdQ3UIu3ZxrNmjruoHm0I3qhsUuBarGyJxNIKUah+uSfBGY0iWvxupz67kWT6v32g6C+8KO7lUmvWL1JSnvKjGsZK/I+os+THVmdFcYQhfIOE+IbDyKa26ezQpn1FutvxT3mhuApEsgsBnsKIqV1QE3PIJwn9LgzFIdc1yf5toCgXgtVhv/a2aUcPWDIkBHdfDGectSCU5iWMlejf383/+2kBAyrqcecA0watJ3tbITijLmX2phv4HQzAVs4hUU/EZhNnqk3eL3KIHmA4VoJLPE2qwrHLCk4HM6TGVcVwnHqw7Y8fkppVBJhbWXpJXBBFjJXrW95xsfM+2s6mCiGuJUIYNgH2z2xYVdEBQXIBO6VxfrIf3udlg2vQBNjmZYqlNjX6Cwe00TPM6iQWoLHaPvCv5uI/tRjhnVHFMd9+qU7dQFJ7mEyU6UKdEyJwwO4kdhwDlmJR6XLAsJ1aS4BgzKlcq4T1PdbaOgWDkGCftdUcNRxK0UUWtGGjl8YvZJ9dpDiYuwA9CJEmRrwnv+72EXZ65F9XxXnY5UGOodSDdZYljJTjTL6skKgE37KSIDMs0RJGogO9Y7i8X0gj24fcYfJhvgb3QYYz2EJr5Xl5GxGZthiD1iVO79ueJjiJXYg3023O41zqccK5wqZ7DhkpTGkBhWshNqvXkLnapEYSeriJdeifiD6o7UBMFnQrgip7wbKBIxIcJsYfpa+7FotZBqLeFjtkUB4xLomsEYekxPRjGMLoKRer+eiJCBxTTloKYiHH9sZKUBRVBVFXq5lW6uxLCSnQx759d+XbhLSz3mMl1sZrYbIOZWmCX61Bwba3hfXlHTQqq5nXIcW6KxC32Y3tB8vPU0DC0Vvflf35vYVQKsZMmSJTtxlvSwkiVLlgArWbJkyRJgJUuWLAFWsmTJkiXASpYsWbIEWMmSJUuAlSxZsmQJsJIlS5YsAVayZMkSYCVLlixZAqxkyZIlS4CVLFmyBFjJkiVLlgArWbJkyRJgJUuWLAFWsmTJkiXASpYsWbIEWMmSJUuAlSxZsmQJsJIlS5YsAVayZMkSYCVLlixZAqxkyZIl67LU+TnZSbMdw89jvD2Jc/oX4Px5y9KAJHttAWvzoe0Ym5lAf6sPP7v0gtPmJLcd3oXRmTEUnOPcwcVYNrQkXfmTaNdvvA0/XHczdo++gJmyg/6iDz+z5G34w/f/Ln71Lb+QBugE2vYju3Fw4ghaWYE3L3gDlgycc9oc+759+3CYj2F8ZgIL+ubhZ44DU16y8/Od2x7EzZvvwaaDW3Fk8ihKVSLjDIv65mP5wjfhg2/9ZXzq5/+3U24wnjuyG1esuQ5PvLAOhyaG0a46YDAGe/rx1oVvwr/4md/AJ//px0/Kd6/ach+u27gKA60BiCgz0gCEQLM0RKfg//ZXqvdhB4HItGAP2rRT+D6Ct8w+OqrEF375U3jH4ree9HH/D3f/Na5cuwJDrQH0FT0gYlRKYbIziUop/OkHPodPv+9/f9n7fXHsEG569i6s3rcRByeOoFQl+vM+vHXRm/Abb/9V/PrbfuWUnJS7Rl7APdsfwZp9G7Fv7CA6VYm+ogfnz1+GX3rje/H+vp/GBRe8/If/91ZfjxXP3onnR/dhupwBgzDUM4QLzvkp/OYFv4Z/+d7fOWWB6o5tD2LFM3fgmYPbMDx1FJWqUHCBc4cW48Nv+xX8L8s+hHe+4x0vD7Ce3rcJX37gW3h6/yYwMfqLXhRcgIggIiilxHRnBtPlDC4456340ocuxf/w5p8/JQbk9m0P4It3/iWOzYxjsDWAIsvBRBAAlVSY7sxgsjOF33j7B/Ct3/nPJ/z7P3LF/4Xtw8+jN++BEuURhAh4iQdECET+d9G/GzgSjUQgs4HoCwmxaAWPWAzCeHsCH3/nh07KuYb2rSeuwlcf/DaWDS6BEqXP3VJ5zlFKiWPT4/jW7/xnfPCtv3zc+12x6Q589aFv4+C4ZhJFloNAUFCYKdsAgA+85Rfxnz78xzhvaOkpcQ/uPbAP31x3FW7fej/G2xPIKEMrL0DEUKLQLtuoROENQ0vxf777f8bnfulfHZ+3sG0b/uv6/477dj6GoZ5B9OYtMDEgQCklpsoZzJQzuOCct+CPf+Uz+Mjb/9kpA1QbDmzBVx74Fp7Ysw7MjIGiDznnDlNmqg7GZsZwwTlvwdc+/uf46SVvOz7Auuu5h/Bvb/t/0VElFvQOQQRQoiAQN4sIABODiTE2MwEFwX/5yL/B77zrI68vRR5+Hv/Hj76AjioxUPShVJU5bg8AGTGYM+w99iJ+/+c/gS996NIT9v3/3+NX4euPfheL+xehUpUZ5eMAqpBqSfgZ6kY0w9aCq2hYVx3tDGgRYWR6FH/1m3+Gj73zn5+UcT80cQT/61Wfw2RnGnmWQYlASSXWJQQUZZRjvD2Bdy/7aVz1ya8d137veu4hXHLLlzDQ6kNv3gsx96E9Uya9bnRg/DB+8Y3vxdW/+/XXfWJuObwDl678j9g+vBuLehcgzzKIiH6ReXaBQESYLts4On0M73vDz+K/ffTf480L3jDnvi++6T/gjucewHlDS1GqEkrMw8zcAxkxiBjj7UnMlNP4g/d9Epd94LOv+5hcs2El/uv9f4922cGC3nkQAEoqfZeKAKTHo+AcRyaP4qcWnI+/+7U/x9veujzaDzfFqf70zq8iY8aC3iGUqkIlFfpbfTJdtmW8PSVT5Yz0Fr1SiUJbdTDQ04/evIU/vfOrWLXlvtd1YP5x7QocmxnHQNGHTtXBvN5BaVcdGW9PymRnWphYKlEoqw7OHViMWzbfjeeO7D4xPvmxA7h6/c0YKPrRqUpUovRLVf73l3op+3sV/Axfdpvgbyr8jmA7+29VoZUV+OZjPzhp437fjsdweHIErazAgfHDC6c705IRY6DVByUK4+1JGZ46Kv2tPmw6uA3rX9x8XPv9u8d+gJ68hZ6sx42pEoUlA4sWKhGUqkJHVVg2uBRP7V2Pf1x74+t6/+05uh+fu/Hf44XR/Th3cDHAQMdcGwXBkv5zFioRVFKhVBUKzvGGoaVY/+IWXLryL+bc98rN9+Ku7Q/h3MElaFcdKBF0VCljnQmZaE8JUyaVKHRUif6iFwv7FuDyJ6/G/3Prf3pdx+Sbj/0AX7zrvyHnAvP75qGUEpVU6Ml7ZLIzJWPtCZnuzMi8nkGZKdtY1D8f24d344Y9d3Xtqwuwrly7AmMzE+jLe9FRJY5OH9t+bGZcRqePoS/vwbyeQfTnvRhvT2CiPSnDk0cvm98zdHnOOfryXnzpnq/hmYPbXrfBeWrvBvQXvZguZ2Rk+thdhyf0JJrXM4CBnj6UUmKyMyWHJoc/weZJ9PgLa0/Id3//6R/jwPgRLOpfIIcmhz8x3p6UYzPjcmx6XP9sT+ifc72mg5/295kxOTY9Zv42JqPT4zJq/z5jfp8ek9GZMRmdNq+ZMRmdGZexmQlREPQVfdg+/Dz++qF/OCnjrq+54MDE4U+8Yejc4YFWv3ZXRcBEWNA7H/P7hjA6PSbT5Qw2H9r+kvt85Pk12HZkFwaKPoAgw1NHLxubmZDpsi17ju4fniqn5ej0se2j08e2V1KhN+/BHdseeF0n55/e9VXsHz+EBb3z0C476JSlHJ0avevY9LhMlzOy59j+4alyRkanx2V4avTynrwl7aqNxQOLsPHAVvzDk9fMuu/btv4ErawFJQqHJobfN122peAc83uGMNQaRKk6mOhMycjU0csX9s27TInCssElWLnlXnzhlr94Xcbj649cga8/8l0s7l+IjBhVVeLo1Nj2YzPjMtGexEDRj/m989BX9OLQxAiGp45eNtQauHywNYD7dj7Wtb+86cbrK3ox3p6UjiqxuH9h5BLqIDIhpwzzegaxoHfel/cdOwAFuXCop5/GZyZx2R1fxV//8r97RcHEV2MvjO7HkcmjyDmXjiqxdOCcD1uX0FJnJsZQawDze+ddu/fYi4v68p6R3Uf3vurv3np4J1Y8cwfm9Qxgz+g+vGFo6bWnkEsoI9OjmNczSFdvuAUffccH8a6lbz+hY39k8igW9y+Syc40KqmgRHR0zfhApeogoxwF5+hUJQ5PjhzHmO5AKRWGp0ZloNWHcwcXf7nuEg61BpYbl/Cy+b3zvrJv7AC2bN06a9D2ZNoX7/wrPPHCOizuX4jBnoG7tg/v3rGodwGWDCz6cN0lHCz6QEQXjrcncXT62CeWDpxzXV/Ri4effwp/+Au/27j/HSPPo5UVODRx5LLz5537ZesSKqUAEjAx5rUGQD1DF+49dhAz5fSX5/fOo6UDi3D7c/fj0pX/EX/7W196zcbjbx/9Hr752A9wTv9CCBRmqra0y47GlP+/vS+PkqM67/19VdV798x0z0isxjCKjXGOs2G/7E4eHuUljvPyTvLMe+/knUecxFJsDFrAMS+Jk7wEY7CD2DGSjZDYbMCA2bQwo4VFEgKJRQhJSJphlxCamZ6e3rur6nt/VFV3dXdt3dM94JP6dOaop6e76t5b9/7u9/vut9QoIYNVFSBCSAogHlx49Vszx/DxgTPwfvbk0lfffx2fOfVcaw3r7Zlj+CA/DUkQuZkSmu1XxnJopoSZUpYToTgOT05g1YH18z5h8pUiFFVuoIQ1+5XpOM1ECadjwSjnK4U53/tHe+5DtpxDJBDmjyolXBBLfTlfKeDGXeu6PvZVVa5RQmZVx10y4ScZpgWEAyGWVdn1muniLAhkSQmZtU3IRAmvzpZzo+VqBeGFsXmfe6ufvxf379+AwWgSYTHE72aOj5wSH1rSTAmNdjdRwvvTxQwHxADeyRzHkSNHLI34hUoJuUp+9JT4gqsNSmg+YDHmtpkSThbSX5ZVBUPRFDYe3j5vmtaNO9fhpl3rMRgdADMwVcisbqaEtT1cPzpnZpgo4XBZqSBbydlTwmw5h2K11EAJW7Z/bn6HICsyDEpYVao8GB3AlvGdWPXs7fM6aYydNxoIQ1YV2PoQ6IBrUELw3O774rH92Hz0aSTCcZzQT7K45aLcqPiY3mWL96Fizu0yvm+ihPf3hRJ46o3n8USXbY1E5t6YnDS4cbMQIKAklz1dU2UVIgkcC0SgsGJ6nNTQP4J2+huWQiNMGijMp2w8vB037lqHVKQPqqo0UEJDIW59mFSbswYlnC1lV2dKWYQXxFvuccYppyMkBRAUgyPm01er500MqKoG7KfGF9w/XcysVlQFC2IpbDqiaVo9B6vn1mMwmoTKwHQxPToUTS4xKKGFP0697USQFQXxYGzk4wNnfCsihe0Bq6JUoagKIvqCb/UDsmAc+k1UKAhKAZTkMmRVQTLaj9Uv3IuHXts8r5NHEiQWBbEBMKxeGb9TF+655vkfQ1ZkgMF9oRgUywlVOx5qGU6CBfOz+Gz7KGJa/KqCvlAcCiscECX8YPfd3d4t6n20aUNtNbWBJzIr9uNgep+ZERADCEuheUWrl48fwLfHrkNYCoFASJdmx5ORPlTUKoha/FNgPRXJWHdLZFWBnfYpCuK3NA2WnceD6ruFrMpYGEstSZcyo7IiY0FM07R6BVo37tLAKhUdgMoq0sWZ0cFocoShexk4OyLqOhEjKAbwfvbk1Wf2n+psdI+HYiwJovv2Ts2qgjboiVAcmVKWASARiuPftt+EPe+9Om8TSFFl00Rpntetex3NERW2ju/Cs2/vQSIUQ7acgzZ2sB4/1XnBs43WaFqVtruq7T1r12ZIgoR8pYBoMIIjU2/i+h1ru6tlmZvIDu2kdq5J7gCnH+sLRChXK/M2147NnsDlG7+LilpBUApgqpgZHYwmh2ubPdeBnOEM5AbgDkYHmG06XKiUrhZIsNbILa+v3USnhCPp0uyozErPQOumXToNjCV1Sp8ZHYwOjDADDXs4u7MCIkJZqbR47gvNnSxWS6gNiuPFyfI9Wa1iMDqAdCEzLgkimFV8c9N38W7m/Z5PILKaGG4tJy9P38l29RMQCEW5zIlw3KRdUXsLlexGlJp5l2Vn2OkGNdudgr5QAplilvtCcdy779HunugSeQSlDsabHd4znWkwzZ+CddnGq3Bs9n3EpChmSzlORfpGVOOgpUlLJpe+MBiiICJTytreLyQFJlSoIAe2Y3cPnRKOpAuZUVlVsCA2qIFWl2xaN+1ahxt2aTSQVRXTBU2zUhlQoTYOALlDCTMjILRGDgqtGooFFWSL12xSCbhR09Ip4XC6mOGIFMGJ3CS+uem782LDamyjy04/R3n4tc14+fgBxIJRyIoMAUKjFmTDBCzb2TSkjmvWwwRtfWZ1TSUgSjglPpTMlvO4ZfddXaWF1DzuZhsWdzD+VlSTHUBxnvDq8o1XYe97r2Ig0oeqKrNBCdl4iFbPg22AxmSLk82A1yRPfuWuRbIia/sCWYyt2R5qMbd0SjiSLmZGZVXWQOvIU1g2R03rpl3rceOu9bpHAWO6mBlNRQc0WxszyHyizWhdI032WgJBVmWkov0ugMUWthOr3wFAoPq3bT6fCMVRUso8EE5g73uv4u82XT1Pex/Ve+eK5tTxHF/74gMIiAHkKnlOhGJaKIqFlsEtw0OtNgddQSGHVd2ws7K9cqPvG63PlLRTJJ0STveHE9g2sau7zr7U9CM0/6094xxZMUKLZ0pEmC+5Yec6PHJwFIOxJKKBKBuUUDVsNIKN7Y4cbE4eQbeiVEB6KI7Vtah5zZrmFoigU0INtHSb1oYj27Hs8X+dA1it008DGdPFmdHBWHLEET+IGlG66TMCEUpKGdv++sfkqmHZDhZb7NoOn2VmGJQwJIV4MJbEwwc245bn7uo9XJGNycdS8+rM8L527wM4MvkGooGIDkBkO34WIcwQBRGiIELSf+qvJYiCVHu/5e+k/y/q71P975YmDGrdxQ0DvMoqB4QAfrD7nu4pWW5zhNszurMXeNPnW7v2sU7kp/s34ge770YqOgBFVWqUUFZUlzXkbovz0vREKA5FUTrvJ2ta3ILY4IhmiFewIDqIDYe3tW3TqoNVEiozpoozqwejyRFWVaiq23MmRxqhqNYGX8l6pXu8vstsUliBQQnjwShSkQHc/NydODt5Jv64RzFt5oaRaY1Qy67D3oyXFjL+xgTufeURRAIRZEqz3BdO1AN9yX5cGIAAQlWpIlvMjzm0foKA4fZAmob7QvFhgbS4NafHZRjgZ0qzSEb6cHjqDVy/cy2W/9ZfzXGn8AL+1Nliax5TtjRG9pQS7nr7RVy5/WYkQpqf10xxdnwolkTVfNDjtCbIbfm4D8yerz9Kn1x1wfhQLDVcVavtHxrpN9Up4cjJ/NRoMtK32DDEL3scuMGDc6kZrJhVpIuZ0aFoUneQbdT42SMYgwFREJEt53Bo+Ri5A5ZhhCCPD56cmsI6F1UwEE5gMp8eT0X6F0UDEfzLlutxZt+p+OXTzushXDnbqq2tod7kkWPb8E7mOAb1o9vaER85zzsB2snHaYmFV7x40ePXdLvfv7X6z7kiV9Hs1tG6HDQnzv5wAjOlWU6E4nTvK4/iDz/xeXxqwS/gIydOdMr8GUbPNKw30u/gis3X1BbVVCE9OhRLDbe4/7SxsZOdDdZFzk6egRO5SUQDEU0ToTZWhmkxGDatk4Xp0WS4f/GC2CA2HN4OPE644Uv/5BGsNJuVdhqoe0JS+5ojAJCg2a4k0T5Nn2BJ+7wYdV2bQrXxkVUFg7Hk8FRxZjQoSigrFfzdpqtxMj81/5Pfitq2IW/NvIcHX9uIRCiG6cIMRwMR3XblYig3uHm1hI0X3XFNL7q2c+mDNFvJTYiCULuzsxGfERACCAgSsuU8bp4Hum7rv9HOM7P8TG81rMs2fAdThRlEAmHMFGc5FR0YURwM5B2tWCubj4U8+ZW7FkHPcyYIQs1h2n0cW5FEp4QmQ3wKGw5vw7In/tUWrG5qACvjNNBzK2y6rf2bKc2OvfyNJ8gbYLngT9vtMV1PURWkIgMjM6UsxwNRvJ15D5dvvKo3G7JTRyyOmtvp1tq9D2Ayn8ZAuI8jBliBbAGwfkahedUfWrGlp1aWwyu2LspVChBIdLXPMTNiwQimizM8EE5gy/hObHh9O34ehdA7G9bFj/4TXvvgCPrCCRTlEhuUsPt98D4hX7lkAxWrJSiqApHEzoFTj/Osnx4qGIqlsOH1bS2G+Jufu1Pz6I8OgFmtgRWzOud+C0SYzE+vObJym2N+Km9FKNj06U6Opk0NiwYiqKoyJyP92Pn2i/j22LXdByovjobc/u637/1DeOL1regLx/FO5jgigVDrrmIL7PMXMmLE2jl2Tm+KrDv7KqxyUAzM0QOevH2GOrguucxNYyfq8hBftf0WPHn0GQxGBxAQRDYoYfOzZK9ryK2fbbT/tWVPUr5ahKIqjb6T7bZDd0VaENM0LSOMx2yIv+W5u3DDzjt0zQo6DdRtVnPoO4EgkICT+fSao5dtX+p2KaGtechoP2TE1FgVDIMSJoLx0aFoCve9+gTW7rm/S2TDFEzVhtrttTt37H0A+UoRQTHAiVDM9iSj+YIiCZgt57F/2eZ5OXvff+lmypRnTV73zm00KGE0GMHhqQncsHNd72l52wZJ9qaWdHGE73rpYax/6SEMRpOQVaVGCVWL505e15CXgWmjDwd00FJVBSIJ7kNO9m3TKWFN0xqMJrF1Yie+dOdf40d7fqIl3mNGujgzXgerNjLo2mhWGlhtW+qlv10p80U13cbCbtLUWIVV6JRwRGUVA+E+rNpxO0aPPtsL5dp9gXhcPDvf2ostEzvRF45jMp9GwDLA2VoUVhESg/NKkRbGhlCSK9rplUv/FdYORmaKszwQ7seP9z2KI1NvtnU/6UJx9wAAIABJREFUQRC8jam+WQgkeH+U3MYq7pKGtW1iF773zGr0heNgMDKlLPeFE1DYm0uBkVHUtnHcvT4cWPYkaZlKFAhkfTxNlt68raJTwpF0MTOqsopYMIZ3MscRFLX0ztPFmdFUdGDYSPPj6KQNN7AScLLgHay6AlhGkQOFVZB+ObfnKbOMZKQf08WZUYEEBKUAvj22Cgc/ONqbHdzJI9rjOrh97/1GGhfuC8fRYnC1mQOiIGK2nMNL33ic5hOwnv7qfVSoFDTvezfbpN78oKgFr7+fPYnvPnVrW/fLlvPetAl9nIrVYneZZkdGVms5ePIo/n70+wiIEkQS9TCTAVSVqvt8Y+10XGEFVUVusqd6VOs7mCkHlj9Jeb3Qh0BNY2HnTWq3gal151JmVTd9oB7IzBYamxPzYiuwEnGyML3m6ErvYNUKWNw+XFXVKoaiyQktHY13vxAjIHO6ODMekkLIVwq4fNN3LXMB9YRztGFx33j4Kex6+0UkQjHkK0VIJLmovVwDc1mRMRDuw4chh1ZsoWwlZ0EVWj1qVT1XVUku8e98/LOYLmawt42g9d/82K8BbZwTnddOmTj2+pG57wnvndAOg3LlAkJSCOlihgejyRFZVZqyL9gsKBJQUaqISmEMRgcgq3IbvlLUOWIBOLBslPIVA7SEzgBcN6folHCkUC3yUDSVrCpVHgj3eaOBLgCsaVZTa46u3L603eYJTld2c6wUiFColvDxgTMWPbPkfspVihPed0PNODwQ7hvOlnKcCMUwPvUmvv/aHXPS9rQX5GJkbG9LW7v3fkiihEK1qGlXrDReyirchxmCICBTzk4897cPET4kCQgSVGYIJNaKhjS+Nn4XAQYGwv04Ov0W/+wvVuP8Mz7j+T5f+/W/gKR76Ivk8KN763/p3At6YPSau4b17WdvwPjU20iEYsiV82xQQscHTvX5p+r5rZ5ecj+dFl9IJbncQssd11VDyotONK1R3RCvWtNu1/VQ75uJEk4blFCd48GRSIKuWbUPVhaAxa3PgdwbYHzv8Ioti6YLM2O19DQuPl0MLa1rUApAZeZUdADbJnbhO9tv7p5eRW7vOVOJH+97DPtOvI6Y7qQnNJ3k2EUiCiSgLJdxZt+pw/gQ5aVvPEG7v/YwFaoF5Cp5x59sOWtQwlQn99p3yUaaLmYwXZrBdFH/Mb8uziBdnOng8MGda9Ac6FQNrMZW4Zm3XtCO7cFsUELtRNDpQIdrdrx0MTP22rInyTy/Ldkg2fSnC6xWM8QXLOer83poXbBmSggwiDpeiXMGK6AHpeqPrNy2+NzrvsCD0aSW1M4FMFQt1hC5ch5nDZxxPjPvXf/Sw/j4wJn437/y37pPBdv4zrFjx3Dniw8hIoVMRlfVOiSk6ZKCICBfKeLFix8nfARk3yUb56UdB/TFOj/SvVv98IWf4L59j2EomkIy0nf+2zPHEA/FTLZKclzxkiDhZH5qzOxHRE5TzinMqAuB3AeWjdJ51y/meCiquzyoHsbL+u/1UmIu/XC4jmgY2OcAVhYaVnfk9RVbKFPKQhRFTyCiqDJ0SrhHBWMgnMD3nlmNZ958oafT1+3w6bF3t2M8/RYigXBruIATVRYIBbmI13vsJPofRsiTq3vHe9bGw9tx3c61SEYGoLCC8am39yRCMdvMn830ThJETBdnYO/0yM4TtcV9sEuHB8tHKV8pQmUVAolz8kS3dC3xkPOM9FqJGlhtWzrXPgkdr3iXvicj/ShVS7rHtftoyKqCVHQA0wXt5FAkEVds/h7Gp99uv0ns7cNOJtRjsx/gnlceQSIY06q21Lza9e84nDwSSMvn7Ut3xGVnYW4wJLUlr7x/CP84ugoRKQyQliUzFR1A1S5FeNM9JBKRreRxTvLMK7qm+3fR+fWAyblU7NQQ7zjpnZ6J4Wc13RWwaqWETF7MOp7a/uyS++mXbvojVliBAKGl+rKVaCeHyZGpYmZ8MDKwKFOaxTc3XoWH/uK2jjYEt+wW3ARcZrnzpQdxIjeJ4eRZ31JyH7TsTnaasEACspUCDi4fbWvpPP/uK3jmzRfwzsxxvJd9H1VFhgBqqBRsNoCYA5nJZPStswqqlYIg83f0gSEihMQgiAQ9D5f58/pvpE24qiLjlPgQrlx8mW37b99zHw5PvoF4MAYigigIupsLa6XI9VuLJKKqyvjdsz+H3/n4Zz0/TcckCB3qscdmT+CyDVdC1qvMTBXS40PR1LB2sucCJvrYVJQKolIEGy9ad41T++1snZYx813Wyw8se5I+ff1ijgWjEAUrw7nHqPF2UlsTmfysti/tVl+kTqHdS9v3XbKRzr3uC5yM9HvOV6RTwuF8tcB94Ti99sERXPLYv+CmP/kXz23i5iwSDs/DKtpu/4nDePDAJvSFEhhPv7VkMJqE50BX8/biQY5OvYkrt9+C3e+8jKpahSRotfuoJT9HHfDZJtukG0qzeTD042m3ABOBRKSLGfzzBZc69mP7G7sxNr4D/eEEFFVpPVkjw5ah0SeBqA3A8jLf2qeEl2+8CseyJ9Af7kOmlGWDEnppCIGgMlBSynjt4sfIk6JUL9No2S9ufxl6B63low2gpflNUm8QssFmtW1pN68rWa/47hk/X1+xhT6x6oLRBbHkiKZmw/7UgusnKyKJIAg8GB2gTUeewvefWYNv/u6SNjVpfaU4aPZWO19VqUJWFCRCMVY5Vg/FMIBDn3XNOKiF4OTwmkfD8/4Th/HVn/1fpAszSEb6a+k1uTnYsQZYTuhE7e2WzeW4LL4pkIBCtYTfPut8LPnc/3K8Wn84gQWxFPpCCagOi14URARECVpl6HZYkp5qV6+q0hA3Si6hJzZgtefYqxiKJlGWq2xQQqj2lV3M4yOQgKlCeuLwyq2LPK8KMpmCyAK9eiwHlo/Sp2/4A44FIlqWB5U7uL9pwMlq+xfqNLCLmpW1DatT84ILwh1ZuXVxupiBpPv6WAN7ffBUVhGWQsiUZg0HNty+5z78dP9Gb8DJNjuHx4Iav3r6L+LPfvG/4ERuEkExaIpRRAMANj8vhVUExIDnsfunseuQKWUxGEtC1gueKixDZVWr6MusvYZae63UCnGqLZ9T9N/rf1OhsmJ6bfpdrb+n1L7bXNhVQVkp4y9/7b+79kXRy1MpqgxZ0YqEGj9VVYbc8KNAbSvCn2sUtZn6duLgfv2OO7QUx9EkooEIy6qMoCjpC5hczQySlg/LEazcpynZ543qIYhpYTwFzQufyL7KkRMXdrCJMBgf5Kev6AVYWdiwOr2M+wif1X/62PHcyRGtKKZqvf2Y7Vksoy8cx1RhhgfCfRQPxfGd7bfgY/2n4dc/9isuzfGWMc3pVObRQ2NsaAteMiiKJGCmlMWp8QU0/sYEFp3j7H616fBTOHjyCAYi/agoMnLlAlfV6hpJkJZ81CjhF8/9fc8GjnRplhVVGWPwhA0lXEKeE7C7azr2vMpafrp/I257/p56imOdEsqK7JoX3sjUmi7OohOwap5HzRgwH7k8bt19N6qqQnFBZBVqvc+WCVPds1I2foL0nPN0zcoNV2LVF/+xx4DVpvWyHj7kPtSbv3Ln4s/d+qdcUWRIouiaasXIVjoYHcDJ/PToYDS5uKpUccXma3Dnl1fhY/2nue8CrmTIfmHIioKAKGmf9ZBBUdbzpB/LnsDD747h8nOc6etLxw8YV+JsKWtQwiUfRUroVQuSBMkA+REnSpguZjw20qEYB7e8cJXd77yE72y/GXEjxXFpdnwomtROBF3nPkMiEflKAWf1nz7W3l7O1surw8ycncoPdt+N63euRSrSDwBUqBQ5bhRPMWuybbTIDFZlpYKgGKCFsRQeO7QFALoOWoLzBGGP08nbUL/w9Ueo0BD0al+Hi01AMBhNjswUMxwNRnAiP+Uh8Z9zmXgvrX3pG4/TbDlnfRRsLnpgWoiFahGJUAwPvrYJRybfdLx+rpwDAT8XlNCrtEMJO9Pg2Qa12HWNTUy/jW9uurruN6XVzdNTHNvNHdMMJwEVtYqQGMTmr6xf3JnxxMLKyt32vrIHq+t21MAKhWqRY8FIEzWnVmd79rbGGIywFESxWmIjCeBjh7Zg5YYrewhYLfmuuq+rHlw+StOFmTFREHVuY73tUNNDjYfiKFW1kmEvHXvNGbTsYgUtKsg48aihaAoVVbbcCpt3ZGatEGYiGOd0aRa373XO8TUUS4HB3B9OoNIQ1U+NHMJmwzbaztxqYyHHWAxq1Nxsxk8gAblyEQeWteeeYR1qZ6rl1NFcsivoZzVmdkb273pMcWyjYTBQrJbxwtcfIXQ0INbpDJrjDKlHYLVqx1oko/1Q9Rzs4UCo8YScmw4GnE4ObMZcZUYsGMV0MbNa6RFoCa4bAXubSu3IkZXbFk/lZyYkUWwtKgorhUYrGaZqeaV4MJbEIwdHcfOu9db7sWle17rDrdZTdqFQzy65n7Ll3IRokQiPW/5nRKQwjmVPoC8Ux6YjT2GPQ7YDLbsB6elIGq1J7EbRTf2zpqvkvssTO1Z3YeaO/Zu4M4Xd+WLcSJPbKUiupTg+jP5wHKVqieOmFMfcojm3ThhREDFdzIy1G3bkJY0Xo8mnscuIddvue7Bqx1oMRvsBZsyUZsdTkf4RAQJqFUyZLTzZ3er9mX6o/pvKKhbGUkvMmUsfPbQFl234To8Ay8qA7eBl0un4Hl65ZVGmlIUkSK2VNpqUDNaTzBmUUFFVpKIDuGX33Xjs0FjLF9lqt6A6sDT8zaVU/SdSZ19YrBZbjOBk0X+VFSRCMYgkcFWRseb5e22v+xtn/Wqj86dJm3W3wHGLAuwt/bJFTqSmBGzMrDu/5vHqpZs6erzOp12dxD1TSwFWq1qPVnLV9ltrKY4lQWKDEhrOk9SiOdfthUZtzal8euLIyq2LOxoHtjZ12D2RbtLCW3ffjVU7bkcq2q9nCp0dT0X6hwG9fHxDp+sbAdvR8JZWU8MWSSYzzpApc+nCWAqPHhrDyi6AVktoDrmYp60N250N82A0iVK17JhEnwg1T2wtt1QCM8XMOABEgxH8v603Yu97+zXAMFT8Fq2D7Se2S4D8Exet3VuqVrSo9+ZFhFZNMCAEkC7NIhGKYsfbe7H5yNMO0MPeLPq2U7w+tYg6pO9NCdiICCqriEih7nMTmqua5U0Mqnfniw9h/UsPtqQ4dnUO1XVeSdRqN3bqvsAW64i8fL4LqHXb7ntwnQ5WYMZ0cXY0Ge0f1qrbqI3Ff027vPXsal+UJtBaoIPWXDWtFhsWkw0ocQNf6MqoPv3V+0hRFaisx21xqyHP/NDNJcOmCzOjAUFCRaniW5uvxrFjxxCUgg4cx2l6Oj+UQyvGSKtEIzRoadwyDlqmyb5QHCW5wgIJuN0hX71IogeveKdDCSsbhMdASmbbNs2Wc9hr473ttalsWXyK27djmS0G7Hw/4714KIYdb+1tSXHcH47rAc3kqM0wGKJ+InhG4tTuATY32iW5ue1dA6t7ce2O2/XqNsB0cXZ0MNo/0kA9mgle88bJPDd2aspcOl3MrDZrWnMBLcFel3fY+Yks1cJOZN+lG2mmlJsgohZtg8xQYqIEOiUcyZSyHA9G8c7scfzz8zejolQ98JTOdvBGmKBaPJ5dKo2qIiMeiuGV9w/i3pcfsbzm/mWb6WR+ek1QDOjRZl5ivKhJWeEmTCYPvSFL+xgRUFWrSEUG5qBBmZ+dRdvbnS7koNTaXGff8YP4h9HvQxIliCSYUhwrDa2ya4ZAAqpKFUEhgNG/umtuVqVmUweRhXLbPf+G256/F6t2/Khms0oXM+OpaP8Is5Zgxipiiqz40lxT3FCdHho2LUPTeuTQWMcl/gR7TcTjTt2FLeHwii2LpgrpMUkQ7RWOhoHW+Hc0GEFFqXIy3I9db7/omvhvLjbg/ZduokzJlG7Y4XkqrCIRimK2lOVIIIz1Lz1km/r56GXblx6bPXGhrMqQSIQkmH+kpt+1jJ21H9H0GRIR0N83/m93ygkkIlvOY+fSn3500uJ4LkBRR7Z/3XYTZkpZhKUQ0sVZU4pj77ctVkvYc/GjNOc1yx1sjx0uqR/svgfXPvtD/TRQK8WVivYPQy/FRS2binU4W7cfvmyhaf3s4Cgu29i+piU1q4GerX8Nm//cQevIym2LP3X9CKci/ai65MHWAk9VBAQJhWoRA+E+ZjDtP3EYATFg6wRINvZcrxINhDUvfY/TVSABESmMN9LvYuPkDnziE9Z5zCcuf/qB31lzISYL05BVZQ0BXclS2heKj4iC6LG1hLJcsXHI7UyhsJ433Etkg6qqKKsVhKSgdYpjFxEFEZP56TG3gp7tMWSCF69F6jBFDgCsfv5erNpxOwZ1GqinyWksGOHpeZGlxqnqVXKoQzgzNK2T+enhZKR/8cJYCo8eHAMYuPaL/9AhYLWDPz2I2zwn+bEr3s0cvzoejLoCgwFaBiXsDyUQCYRqRQDIaxmpNtbP3osfo3Ov+wIbYR1OIK6ygrhezr4vHKP79j2OP/nUF3BO8mOW1352yf1dG86bdq3Hzc+tx1AsNXoyPz0SME5iHQZBEETkSvmJFy9+bNFcVmjX4Yi8baDafND8gLLlHCJSiMtyBaK+2FqOkyzOOyRBxGQ+PdENsHKfZK10nzvUblY//2Nc++yPkIr0G2A1PhjtH2bWi/cSORoZnNomgJCr5BGRIhBJNJ0udq5pfZCfXp2K9C816CER4d//6O87oYTtreJ2Pd3dZONFd1wTCYRQUaqe69ZVVRnJcD8K1RKrrMV6tbsg2llkC2NDqMgV652mYWHpp22BMAYjydGpQhrr9v605wzq8OQbuOflnyERimOqkB6RBKdMk1zbQQuVIg6v2LpobuBCvQkv8VQ1R3PHKFZLCIpBNiihYlMBm5oC7yVB7DhGsDO90/o9pnbB6l6NBuoe7NPFGf00sNkWZX1KaQ2ltcxoyFUL2H/pZgJYq4pFNKeSIIamZaaHjxwc9WzTEuwm3oclz3/tESrJZc1x0abb3LKzKogFIyjLFS5Ui57ArtMj5GeW3KedGAqC69xkZoMSDveFE3js0Fa8cvxgT8fvpl3rkCnncEp8wfkluWIaC/sql0bQajeQxTV7B3UGVl4ek0CEslJFUS4hJAWhqKqrGwED+olgEWf0ndIjrPLmiU1gb9mgmzSrOlhlRgejAyPNp5FO97WDUlHLSLFGA6t6WJ2Wbpk8rR87xycrQ/zPDj6Jb3oALaEbD6Tb+PbasicpXcxMCILokWVrTn4GJWynLCEIbfPyRamzLixWi9ZVdptEZRV94dhwQJC4pJSx+oV7ewZWGw9vx9aJXegPJ3B06o09iZApl5dNHw0n0YPLx6jLq7Srl/J6RYG0HOJePPW1DKhaIWBJEDH2V3fPw07t7hbspbNr9z5QM7ADGg1MRfp1mxXP6RGIJOBkfqoln9XB5WOUKxegqqqnwyenXjcb4hfEhvDwwSdxxebvtQFYnXSSe2NHPbxy66Lpwgw0SuNNVOaO+tFu8zdcdMcDJYMWuoYuMQJiAFOFNPpCMWx/YzeeemN3T5bCrc/drVFiZk6E4hpYmWkqw5MtZS6LsTcrntv/tMdNiwEUKsXO/M7mDFLckda/8fB2fP+Z1ZpmpbsuJHUPdmZ1Ti0VBQGThfSYXXWbg8tHKVcpQPGU4cLdpmUO41kYG8QD+zfg+h1r56phcZeXvDcxqu9IgmiVMMFCuW+vLUydL7JDy8co60QNTaKoCvrCCVRkmUUScNvz93R9rK7bsRavT00gGowgU86hwdDeGDFdGyKRBMyWctjfYQiO1fJ3cv1tf6rYkQoPvi9k43RjekPQsjaMHWgz/377bJDnBGtmeSP9Dq7cdjMigQiIgHRxtgZWKtgD3WEHzUrEyVx6jduhgwZaeagq66DlctrCjWYS8xt1TSutB0wnsWbPT7B1YpflpSTbbcfTUPYuJ7QhQ9EUMmXNgGpOhWGfz4pcx61b3hhWS9RKe2EAEgnIKQX0heJ49f3X8cMXfoLfH/4NFCpFzwcMVtpbUAzgncxx3Pfq4+gLJTBbynK/UT/Rboz0lwqrCNlGB3SiahPIQePijkGLHKwt9pkp7EIZmYGAKGGy0IsTweb+Nh5zNuqz1PCOlzTPtzx3F6YKaaSiA5jMp8eT0f5hMDxVHbS6Z12zEnEyN+U5rfHB5WN03vUjHA/FIUCA6nTCaZ56FoCqU8IlJ/OTGIqmlkqChJt2rcMFw7/pAliOBr9mL4zuOI26yVNf/Qn98k1fZEVVIQhkQmjqCGDM/ZkrgXn10k306Rv+gPtCcZuUv/WTGYVV9IVimC3nOB6M0k271uHm5+50rE/JHvujghHUqxTXgsldKl+Kgoh0IYNDK7pouyJ28fnhesxiW/YGtul5B1QRgCSKmCllcHjFlkW9nLvkYQ7aFeK1nG/vv47Ro8+iP9KHdDHDBiVkzzyBmwCUTGDVfg72g8vH6FPXjXBfOA5B0NxK3POSWvdZp4RLTuSmJhbGB6858MFRPPDqBnz5M1/0QAnJ+obUCZvsgrxyyQaaLWebgirmSlNpboUldYlIIUefseYAWMNYGQlGEZZCiEhBhKWQ/hNEWAoiYvo9on9G+7/+2vz5aCAMiSTMlGbHo8GIbssjx921qsgYiPT1ZInap6SjWi4VzyTJpFwxqM0n1gpsop5F9dTYAnz40uxQ6nzCsOnIUyjJFUgkskEJ2UFtZYeFbUCLRgOn1xy9rLPqNodWjFG2nIfKrCcIYBdAsXOsYD1gOnl1ppTlgChh05GnXGxYBJeUINSg+NE8lvx4fcUWmirMjNWN8ILHydrOdG5f9l78GGXLeWge5VZTpD52KquIBaMoVIrMrJoyCtVDhc2/m/XYxs80/Y0ZRMR9ocSw0pJBsxmktZqB2XIez/3tQ11+gGyTcMQ02tRmKTlTwijyRvpsjQACaWm3RQjY+jf3ztPkdWMi5Jkyv3TsAEKSdoATloLaxkQeTB82z0kURJwsdA5WDTatcl7nYIJ7QVDb/musRxIkhKUwjky+ifdm33cALLYetforFQTVtGx4XhLnG3Jk5dbF04WMfnKotkVMybajDFGYm7Y4FBlociZlW8OzyiqiwQhK1RKX5TKX5AqXm35Kpv9L+mdaf8q1zxflMlfVqsnNohH+zG0RAJTlMk5LLOjJ0oRprqAJcrVfvds9g2KgKW1Xa9rEZqOFM5ASsuU8XvzGY/MEVuRoMLU6OCIbO8+xY8fwQX4SBOL+SF89zbSFUZ9acnC1aroiCZrNqkt1Aw8uH6XZUlazZQlO7qnscHxS96nMlnOcLs3iePakPWA1eomTpZag/SaY/kKO+ay6Lb8weHYqV87XbDXkUdPjlr1HpxdM6A8n5tSmZ5c+QPlKEUJtHJxMz+gZJWy8I+mPtxEgBEFEoVrC9r/5cVcXrZZxwhw6S45qe9BDObSF8ZT1FWxAzyo/hGH4FrUTwYnXu2mzc5FwIGSTBrx1hZkdzgJi61kYi1rO/JJcgWBetlYBsdTo105NBxeSIOJkPt31uoGHVmyhXDmn0UOyp4HOR2RUOxRRWGnJwNIAWDWbBruRpsYdLqU7r82HPP5/fpSOBiIoy1UTUHrN6Wyd7mTYJr6vHTk7eeaaolzyTJO7TQktUyw3jQsRoVgpYVHyrM92+7ksjA+5ajrmd081fd5Ozh3SbOKqa1oZsrUZQg/XmpxLHcEORQskZ4tEeNRUGametogZONMiAP2MU05HPBhDSApo7gsWfMFxFeiamEgiPsjNnQY6GeJzuk1LC+Nhx3aiNn8btaywFMZQJMkDTcqE0DrAsFRjrZxDjWP9z5xy7ryaKnd/7WEqySU9fMdk6LN1E7ZSQ/Wlz8Bnz/ilObdp01+uW1qslqy9322jJFT7j7IT4TXyGcPBGRQWBktCWSnjiYvW7u32M/nlU8+rtZksC2lQ3STPjE8v/IT7NU87T6c4zhumtQMm1Zx2Z0qzc4+T7EB+7+xfr7WkOZcnmQ4gvGy1AFCSy6w5Bqv6sFKDZdkxJoRYLx8/1TOwMtPDbDmvpduG0ALZVumtm7cckUSkS7Mt86TFeCOQ0ARORk21JhXfxJ0/f+pn53su4MCyJyldykwQmfJH2qbgJQuCa3xLxVkDp3elTa+v2EL5llhGbix82kJtyGITMF64nLpYzVKGibKbbFdEyFeLXQ7BqcuXPnWBXnm9mZ5QEzhrjf7k0DkeNVG0OEOyzabUvJFKJCJXyePU+IdzIvj5c/6TyRnIYnehVq3big4aIutplxikDwm7pDGua94aWE2vsfNg7xlo6UHpZt2yyZO06SCGatPGKpV1C2DFgtGGdBzckt/DqJRBYGgxW2eccvqHMiEOr9i6aDI/s0azHZE9PWBrj2lGW4dWnkSL3eMmm58NcSdr+lT7ll3CLnYoOtEC2nX7hdJ2PcD2xN67o366zDZGZTsJGadhDTaZ5o2zcSozUMuVFg9GsfWv7/nQovllVdXXCizZSq1nRJBZwVA0eaHdteLBWEpl1XIqNWdO4dqoCJrrQj49b2BlpWkRGT6UjZ4GIKt8p5pPV0QKuwPWs0vup4pSqVEbqu2O1ESoNL8LxocrRy/btvRkfmqNKIj1MIHmfYesKYXKCvojia62Z/+yzTRbzusnj+7xCk57o5MpriE9Mzt/R6sxmMdrbZapalcEgWwsKXW40k6Bop6vue+SDVSoFCC2pMnhJq26/regKCFbLiAoBrFz6YMfavZUKxpE1GpWkQQRhUoJGy664wF7++3t6bJS0RyoAeu5bjKPEBEEQcAH+akrek0DnUBrtpyDyqr+DK2qxVMLm6soFey1yPhqeZ6fKxcuFEiwcdTUbQOCiKJcwsLYIPChg9b2pSeyUxeqqqqfdAq2Zl8D5YNiAFOFmSue+9uHuz6hQ6KW2sQNrKzf5SaDrNP31fqiZTvXDbU2WXoYH68vAAADmUlEQVQtpycWojGlDTVoFZIgIVfOY0+bxUgVVUFZLiMoSCCyyhQvgIgg6WmhT2Sn1pwaH8ILX//Zh57q+eDyUTqRm7wwIEqWIVhE2lzMVYqIByMeNXinIhpcq26tqio+yE1dMX7Z9ms+zDE4tHyM8uUiSnIZAUG0AKlGDVoSBOTK+TWWG4AdtTjn33/v/KFock9AlMBQwayzZ33Qc+U8ZFZwoMe7djvyKzf/MRerJSRCMQSEgO4JzA1bG4EgqzIm89MXTlz+9AO9ast51y/moVhKtzs0qf8tCrDT/syOsEUN+3QjcTJ27unCTM+1K0MWXfv731oQS11NRFBV1eQMKKIolyGrMvZdsrHttnzu1j/ldGl2TUSKLAlKon5CrPVRVRVUFBkluTQWlsIjr1668aOTk762nj5/fiwY3RMWg7WAeWZGVZWRq+TXDEVTS7w68p79759Pnp5YOK31XW2YQwYoGkkD9n2ExuJ311zI7+cmx1LRgRGRBCis1BQIw/9MFER8kJsas6sDSU4FOH/t5j/h2XJ2jSiKSyTS1DlZkSdU5rFPDp095qS+fpjyG7f9GU8XZyaYeUISpBFB588yKxMqq2PxYGzJy994oqcP8nO3/leeLMx8NiBI9zN4wnt0ILuAlfdym0Q0rKjKmmggcvWrXcnI4E0+ueqCcUkUhyNSuFbnMFcpTkSk0PArl2yYczt+e/WXWUsmp518xYIRPNPFFNO9lN9e82UuVApg1nzRBmMDV2y8aF3bGtAvXPufVwdFaUkkEIYgaLZkWVVQrJYAaAdAH9Ux+MyNf8gluTwWDYRHJDEAgTSbVVmuoFApXjhx+VO2uELMDF986c2O+j+4rJQRC0Sxbd5CYf5jye/98H/WsuwORPrGNv/l+sU/T+3/zdv+nKtqFSEphB1LHnAvI+wDli+++PLzIoI/BL744osPWL744osvPmD54osvPmD54osvvviA5YsvvvjiA5YvvvjiA5Yvvvjiiw9Yvvjiiy8+YPniiy8+YPniiy+++IDliy+++OIDli+++OIDli+++OKLD1i++OKLLz5g+eKLLz5g+eKLL774gOWLL7744gOWL7744gOWL7744osPWL744osvPmD54osvPmD54osvvviA5YsvvvjiA5YvvvjiA5Yvvvjiiw9Yvvjiiy8+YPniiy8+YPniiy+++IDliy+++IDliy+++OIDli+++OKLD1i++OLLf1D5/+53GqAEuZB/AAAAAElFTkSuQmCC;fillColor=#FFE599;gradientColor=#FFD966;" parent="1" vertex="1">
          <mxGeometry x="780" y="270" width="91" height="91" as="geometry" />
        </mxCell>
        <mxCell id="2d47nBokaIBnYjA3GNP5-2" value="Node API service 1" style="verticalLabelPosition=bottom;aspect=fixed;html=1;verticalAlign=top;strokeColor=none;shape=mxgraph.citrix.web_service;fillColor=#66B2FF;gradientColor=#0066CC;fontSize=14;" parent="1" vertex="1">
          <mxGeometry x="948.5" y="210" width="63" height="60" as="geometry" />
        </mxCell>
        <mxCell id="2d47nBokaIBnYjA3GNP5-3" value="Node API service 2" style="verticalLabelPosition=bottom;aspect=fixed;html=1;verticalAlign=top;strokeColor=none;shape=mxgraph.citrix.web_service;fillColor=#66B2FF;gradientColor=#0066CC;fontSize=14;" parent="1" vertex="1">
          <mxGeometry x="948.5" y="330" width="63" height="60" as="geometry" />
        </mxCell>
        <mxCell id="2d47nBokaIBnYjA3GNP5-37" style="rounded=0;orthogonalLoop=1;jettySize=auto;html=1;strokeWidth=2;endArrow=none;endFill=0;entryX=0.011;entryY=0.447;entryDx=0;entryDy=0;entryPerimeter=0;" parent="1" source="2d47nBokaIBnYjA3GNP5-32" target="2d47nBokaIBnYjA3GNP5-3" edge="1">
          <mxGeometry relative="1" as="geometry">
            <mxPoint x="810" y="348.59355357648565" as="sourcePoint" />
            <mxPoint x="744.9766999999999" y="353.0145000000002" as="targetPoint" />
          </mxGeometry>
        </mxCell>
        <mxCell id="2d47nBokaIBnYjA3GNP5-38" style="rounded=0;orthogonalLoop=1;jettySize=auto;html=1;strokeWidth=2;endArrow=none;endFill=0;" parent="1" source="2d47nBokaIBnYjA3GNP5-32" target="2d47nBokaIBnYjA3GNP5-2" edge="1">
          <mxGeometry relative="1" as="geometry">
            <mxPoint x="820" y="358.59355357648565" as="sourcePoint" />
            <mxPoint x="754.9766999999999" y="363.0145000000002" as="targetPoint" />
          </mxGeometry>
        </mxCell>
        <mxCell id="Vr0tz_ug4oFLOFbfRHcb-44" style="edgeStyle=orthogonalEdgeStyle;rounded=0;orthogonalLoop=1;jettySize=auto;html=1;exitX=1;exitY=0.25;exitDx=0;exitDy=0;" edge="1" parent="1" source="Vr0tz_ug4oFLOFbfRHcb-1" target="Vr0tz_ug4oFLOFbfRHcb-42">
          <mxGeometry relative="1" as="geometry" />
        </mxCell>
        <mxCell id="Vr0tz_ug4oFLOFbfRHcb-45" value="1. Create Image(s) and publisg to AWS ECR" style="edgeLabel;html=1;align=center;verticalAlign=middle;resizable=0;points=[];" vertex="1" connectable="0" parent="Vr0tz_ug4oFLOFbfRHcb-44">
          <mxGeometry x="-0.7303" y="-2" relative="1" as="geometry">
            <mxPoint x="19" y="-12" as="offset" />
          </mxGeometry>
        </mxCell>
        <mxCell id="Vr0tz_ug4oFLOFbfRHcb-1" value="GitHub Actions" style="shape=image;verticalLabelPosition=bottom;labelBackgroundColor=default;verticalAlign=top;aspect=fixed;imageAspect=0;image=data:image/png,iVBORw0KGgoAAAANSUhEUgAABIQAAASECAYAAAAV0tQ2AAAABGdBTUEAALGPC/xhBQAAACBjSFJNAAB6JgAAgIQAAPoAAACA6AAAdTAAAOpgAAA6mAAAF3CculE8AAAABmJLR0QAAAAAAAD5Q7t/AAAACXBIWXMAAAEEAAABBADFKsCjAACAAElEQVR42uzdd5RtRYG28ZecM5JFEEGgwAQqKoZSBAzbAOgoijmHATHNZ0TFnBXDGMCsOAa0zIKlYMSAokWWnHPOcL8/zvZC07n7nPPu8PzW6nV1XDPzCJe+3W/vXSUBAAAAAAAAAAAAAAAAAAAAAAAAAAAAAAAAAAAAAAAAAAAAAAAAAAAAAAAAAAAAAAAAAAAAAAAAAAAAAAAAAAAAAAAAAAAAAAAAAAAAAAAAAAAAAAAAAAAAAAAAAAAAAAAAAAAAAAAAAAAAAAAAAAAAAAAAAAAAAAAAAAAAAAAAAAAAAAAAAAAAAAAAAAAAAAAAAAAAAAAAAAAAAAAAAAAAAAAAAAAAAAAAAAAAAAAAAAAAAAAAAAAAAAAAAAAAAAAAAAAAAAAAAAAAAAAAAAAAAAAAAAAAAAAAAAAAAAAAAAAAAAAAAAAAAAAAAAAAAAAAAAAAAAAAAAAAAAAAAAAAAAAAAAAAAAAAAAAAAAAAAAAAAAAAAAAAAAAAAAAAAAAAAAAAAAAAAAAAAAAAAAAAAAAAAAAAAAAAAAAAAAAAAAAAAAAAAAAAAAAAAAAAAAAAAAAAAAAAAAAAAAAAAAAAAAAAADCNZdwBAACgv0KspMHXI8vXHyvWHytLWlXSavWv//nXq9cfa9S//ud/fuf/bJX6f/+uHytIWlbScnf5WCLpNkm317/+5+NmSTfe6eOm+tfrJV1bf1xX//vr6n9/zRT/2X/+8xvq//2b649bJd1Wclri/vsAAAD6h0EIAAAMRYjVf4adlTUYZtaUtLakdSVtIGkjSZtK2qT+9e71r323RNJZks6VdF79cb6kCyVdIulySVdqMDZdp8GoxJAEAAAWhUEIAABMq36CZzkNnrpZU3eMO5tK2kLS1pLuLWnb+j/H+Fwi6SRJJ0v6twaj0nm6Y0S6RtKNJafb3aEAAKB5GIQAAOixEKtlNRh71pa0oaR7SLqXBgPPjpJ2Fl8vtN31kv4q6V8ajEenSTpH0sWSrtJgNOJpIwAAeoYv8AAA6LD6Na5VJK0jaWNJ95S0vaSdJD2s/p8D50n6vaTjJJ0o6QwNXlm7UtJNJSd3HwAAGDIGIQAAWq5+rWsVSXeTtLkGr3A9QIPB577uPnTCHzQYjP4u6RQNzju6TIxFAAC0FoMQAAAtUb/etZakzXTH6PMIDYYfwOUXkn6rO8ai8yVdy2toAAA0G4MQAAANUw8/a2rwtM8OknaRtLsGIxDQFn+RdJSkYyWdoMFraQxFAAA0BIMQAABGIVYra3C2T9Bg+NlDg4Ocga7Kkn4p6c8a3JJ2ccnpZncUAAB9wyAEAMAY1Of8rCFpS0n3lxQl7S1pdXcb0ADnSTpC0m8kHS/pnJLT9e4oAAC6jEEIAIAhu9P4c08NnvbZU9I+7i6gZW6Q9C0NniY6TtLZjEQAAAwPgxAAAItUv/a1uQZXuT9O0n7uJqCjrpT0dQ1Gor9LOr/kdIs7CgCANmIQAgBgHkKsltHgevcdJO0m6dmS7u7uAnrseA2eJPq1BmcSXVFycjcBANB4DEIAAMwgxGpFDZ7+eYgGr309yd0EYFZfkfQDDQ6uPr/kdJs7CACApmEQAgDgTkKsVpW0jaRHS9pXg9fAALTbkZK+LekYSadzqxkAAAxCAICeC7FaXdK2knaX9AJJW7mbAIzcnzV4iihL+nfJ6UZ3EAAA48YgBADolRCrVTQYgPaU9FJJ93A3AbD7q6RDJf1KPEEEAOgJBiEAQKeFWK2gwVM/u0t6kaQd3U0AGu83kr6kwUHVZ5ecbncHAQAwbAxCAIBOqW8B20TSrpKeI+nx7iYArfc1Sd+UdKykS7nFDADQBQxCAIDWC7FaTdJ9JT1N0gHuHgCddo2kD0n6oaQTS043uYMAAFgIBiEAQOvUTwFtrsFrYK+QdD93E4De+qWkL2jwmtlFPD0EAGgLBiEAQCuEWK2swVNAT5d0oLsHAKZwnaT3STpC0sklp1vcQQAATIdBCADQWCFW60l6uAZPAT3W3QMA8/QNDW4v+1PJ6Vp3DAAAd8YgBABojDu9CvZ4SW+QtIW7CQCG5E+SPiHpqJLTRe4YAAAYhAAAViFWy0raRoMDod/p7gGAMbhQ0rslJQ2utV/iDgIA9A+DEABg7EKslpe0o6T9JL3G3QMARkskvVXS/0k6lXEIADAuDEIAgLEIsVpBg0Ohnyfple4eAGiod0j6lqRTSk63u2MAAN3FIAQAGJn6SaD7SnqxpJe6ewCgZQ6W9HUNbizjySEAwFAxCAEAhirEajlJQdLzJR3g7gGAjniLBk8Onc44BAAYBgYhAMCi1beD3UvSczT4pgUAMBq3SXqtpO+UnM5zxwAA2otBCACwYCFWm0raR9KHJC3v7gGAnjlLgwOpf1xyutwdAwBoFwYhAMC8hFitJWlPDa5M3srdAwCQJB2jweflo0tON7hjAADNxyAEAJhViNWKknaR9HpJT3T3AABm9AVJn5J0PDeVAQCmwyAEAJhSiJUkbS3pRZLe4O4BACzI6yV9o+R0vjsEANAsDEIAgAlCrNaW9CRJH5a0vrsHADAUf9fgvKGjeKUMACAxCAEAJIVYLStpZ0lvlLSXuwcAMFKflnSIpBNLTu4WAIAJgxAA9FiI1YaSninpo+4WAMDYXSHpvyX9sOR0tTsGADBeDEIA0DMhVstJeoikd0h6tLsHANAIX5X0IUn/LDktcccAAEaPQQgAeiLEagNJz5L0EXcLAKCxrpX0ckk/KDld444BAIwOgxAAdFiI1TIanA10kKTHu3sAAK3yeQ0uGDiZs4YAoHsYhACgg0Ks1tDgcOhDJS3r7gEAtNrpkvaX9MuS003uGADAcDAIAUCHhFhtJelASa9wtwAAOultkj5fcrrQHQIAWBwGIQBoufqQ6Idr8Fj/A9w9AIBe+IEGlxMcx+tkANBODEIA0FIhVmtKeoak/3W3AAB661JJL5X0Y14nA4B2YRACgJYJsbq7pAM0eDUMAICmeL2kw0pOl7lDAACzYxACgBYIsZIGr4O9R9Ie7h4AAGbwBUnvLzmd5g4BAEyPQQgAGizEanlJj9Xgi+tN3D0AAMzD7zV4mvXYktMSdwwAYCIGIQBooBCrVSX9lwbXxgMA0GaXSnq+pJ+VnG51xwAABhiEAKBBQqzWk/QySQe7WwAAGIEXSfpmyel6dwgA9B2DEAA0QIjVphocxrm/uwUAgDF4o6TPl5yucIcAQF8xCAGAUYjV1pLeIemZ7hYAAAw+KOmjJacL3CEA0DcMQgBgEGK1g6QPS9rd3QIAQAN8XtLBJaez3SEA0BcMQgAwJvXV8TtL+qSkXdw9AAA00OGS3sKV9QAwegxCADBi9RD0EElflLSduwcAgBb4saTXlZxOcocAQFcxCAHAiNRD0MMkHSZpa3cPAAAt9HNJB5acTnCHAEDXMAgBwJDVQ9DDJX1Z0pbuHgAAOuAoSQeUnP7lDgGArmAQAoAhqYegh0r6iqSt3D0AAHTQLyXtX3I60R0CAG3HIAQAi1QPQQ/S4NWw7d09AAD0wI8kvbbkdIo7BADaikEIABYhxOp+kg6VdH93CwAAPfRdSa8vOZ3hDgGAtmEQAoAFCLHaVtIhkh7jbgEAAPqipLeVnM53hwBAWzAIAcA8hFhtIemDkvZxtwAAgEk+LOl9JadL3SEA0HQMQgAwByFWG0h6h6SXuVsAAMCs3iTpkyWna90hANBUDEIAMIMQqzUlvUbSQe4WAAAwby+W9JWS083uEABoGgYhAJhCiNVKkl4g6dPuFgAAsGhPlfTDktPt7hAAaAoGIQC4kxCrZSQ9SdIR7hYAADBUF0t6SsnpD+4QAGgCBiEAqIVY7SLpe5I2drcAAICR+Y2kl5ScTnGHAIATgxCA3gux2krS5yQ92t0CAADG5guS3lRyusQdAgAODEIAeivEah1Jb5N0gLsFAADYHCjpMyWnG90hADBODEIAeifEagVJL5T0GXcLAABojCdLSiWnJe4QABgHBiEAvRFiJUmPkXSkuwUAADTS6ZL2Kjn9wx0CAKPGIASgF0Ks7iXpy5Ie6m4BAACN9xVJry85XewOAYBRYRAC0GkhVmtpcE7Qge4WAADQOgdocL7Qze4QABg2BiEAnRRitaykZ0j6ursFAAC03mNKTr9yRwDAMDEIAeicEKv7SUqSNnO3AACAzjhK0gtLTme5QwBgGBiEAHRGiNV6kj4g6QXuFgAA0FlvlfThktMN7hAAWAwGIQCtV78etp+kL7lbAABAb+xecvqlOwIAFopBCECrhVjdR9KPxethAABg/I6U9IKS0znuEACYLwYhAK1U3x52sKRXuVsAAEDvvU7SJ7mNDECbMAgBaJUQK0l6iqTvu1sAAADuZImkh5ac/ugOAYC5YBAC0BohVltocI38Q90tAAAA0/iSpNeWnC53hwDATBiEADReiNUKkv5b0ofcLQAAAHP0DEnfLjktcYcAwFQYhAA0WojVTpKOkbSKuwUAAGCe/iLpaSWnM90hAHBXDEIAGinEanUNDo3e390CAACwSAdI+lTJ6VZ3CAD8B4MQgMYJsXqspF+4OwAAAIboCkmx5PQPdwgASAxCABokxGpdSZ+R9HR3CwAAwIi8R9K7Sk43ukMA9BuDEAC7+ir5J0s6wt0CAAAwJruUnP7kjgDQXwxCAKxCrDaU9GVJe7hbAAAAxuyTkv5fyek6dwiA/mEQAmBRPxX0dEmHu1sAAADMHl5y+q07AkC/MAgBGLv6qaCvSdrN3QIAANAQn5L0Rp4WAjAuDEIAxqZ+Kuhpkr7tbgEAAGioXUtOv3NHAOg+BiEAYxFitb6kr0h6nLsFAACg4T4m6U0lpxvcIQC6i0EIwMiFWD1B0o/cHQAAAC2zc8npr+4IAN3EIARgZEKs1pL0aUn7ulsAAABa6h2S3l1yusUdAqBbGIQAjESI1SMk/cbdAQAA0AFXSnpIyekkdwiA7mAQAjBUIVYrSTpY0uvcLQAAAB3zCkmfLTktcYcAaD8GIQBDE2IVJP1F0sruFgAAgI46VtJTSk4XuEMAtBuDEIBFC7FaRtKrJH3C3QIAANATTyk5/cAdAaC9GIQALEqI1UaSjpD0YHcLAABAz3xJ0qtKTte5QwC0D4MQgAULsXqcpJ+4OwAAAHruASWn49wRANqFQQjAvIVYrSzpI5Je7m4B0EuXSLpI0hWSrqo/rpZ0Tf1xg6Sb6o+b7/TrbZJun+Jjmfpj2bt8LC9pRUkr1R8ranBG2iqS1qg/1pK0pqS1Ja0raaP6XwPAuL1W0sdKTre7QwC0A4MQgHkJsdpW0j80+MYIABbiKkmnSTpd0tmSzpV0oaTLdMe4c60Gw86Nkm7RHWPOkpKTu39GIVbSHQPT8pJW0GBIWlXS6rpjQFpf0saSNpN0D0n3lLS1OJgfwML9WVJVcrrIHQKg+RiEAMxJ/Q3O8yUd6m4B0FgnSjq+/vV0SedJuliDJ3n+8+TOrVyXPLP6oP4VNXgSaU0NnjzaQIPh6F6StpN0X0lbulsBNNZjS05HuiMANBuDEIBZhVitJekrkp7kbgFgc7GkP2rwhOBJks6UdIGkyyVdp8HQ427slXqoX1HSaho8bbSJBk8ZbSvpfpIeVv9nAPrpA5LeUnK6xR0CoJkYhADMKMRqJ0l/cXcAGIsi6TeSjpN0iqRzJF0q6TrOpGinEKvlNXhNbQNJm0u6t6SdJUUNXlMD0G3nSnpYyelsdwiA5mEQAjCl+pWFV0g6xN0CYKiul/RTSb/V4GmfMzU4pPk6XuXqlxCrZTU4GHtDDZ4sur+kR0raw90GYOiqktOP3BEAmoVBCMAkIVZrS/qW+KYAaLNbJR0hKWvwxM+Zki4rOd3sDkOz1a+irazBU0X31OCJosdI2tPdBmBRPibpjfw5AOA/GIQATMArYkAr/V1SkvQ7SSdrcGPXjZzpg2Gqh6LVNDirKEh6hKSniMOtgTa5QNIuvEIGQGIQAlCrv9B/iaT/dbcAmNExkn6gwQHPp2rw1M9t7ij0V4jVCho8TbStpF0l7S1pR3cXgBk9ruT0M3cEAC8GIQAKsVpd0mGS9nG3AJjg75K+o8EIdJKkSzncGW1QH2a9oaQdJD1K0r4aHGoNoDkOlnQQP1QA+otBCOi5EKvtJJ3g7gCg2zQYZn8q6W+SzuOqYHRJiNXKGtxs9iBJTxI/hACa4HhJjy05XewOATB+DEJAj4VY7a3B0wcAxu80SV+RdKQGo+xVnPmDPqlvs1xf0n00OLD6hZLWcXcBPfWQktMf3REAxotBCOih+lH+90s60N0C9MhfJX1Z0q8k/bvkdKM7CGia+hXmbTW45fJFkrZwNwE98nJJn+WHE0B/MAgBPRNitaEG11Bv524BOu4vGrwC9msNBqCb3EFA24RYrabBQPRYSS/T4JUzAKNzuKQXlJyud4cAGD0GIaBHQqwerMHNRACG7xxJn9HgDKCTeAIIGL4QqzU0uMHsyZL2l7SSuwnooBskhZLTGe4QAKPFIAT0RIjVCyR90d0BdMynJX1b0t9KTte4Y4A+CbGSpPUk7SLp2ZKe4W4COuaxJacj3REARodBCOi4EKsVJR0i6cXuFqADjpH0eQ1eAzu35LTEHQRgIMRqOUn3lLS7pP+WtI27CeiA10n6CH/eAd3EIAR0WIjVRpL+IA7lBBbjE5K+JekfnKkAtEeI1VqSHizpuZL2dfcALfYDSfvyZyDQPQxCQEeFWO0s6c/uDqCFztHgFr4fSzqLn4oC7VffrrmNpL0kvV3S8u4moGWuk7R9yelsdwiA4WEQAjooxGpfSV93dwAt8mtJn5L065LTpe4YAKNTnz20mQZX279Og1vMAMzNI0pOx7gjAAwHgxDQIfX5Ce+V9Hp3C9AC35X0WUl/KDld544B4BFitY6kKOk1knZ19wAt8JKS0+fdEQAWj0EI6IgQqzUl/UTSw9wtQIN9SYPb9v7CtfAA7qr+s3RXSa+S9Dh3D9Bgn5X06pLTre4QAAvHIAR0QIjVPSX9290BNNRXNfjC9S8lp5vdMQDaIcRqdQ3GoddocHMZgIn+Jmm3ktMV7hAAC8MgBLRciNXDJR3t7gAa5nANzgQ6tuR0kzsGQLuFWK0h6ZEanDn0SHcP0DDblJxOdUcAmD8GIaDFQqyeL+lQdwfQEL+W9AFJv+FqXACjUp85tKekgzS4uQyA9JiS06/cEQDmh0EIaKEQq2UlvU8cHg2cLunNkn7OI+sAxi3EamNJT5X0MUkruHsAsxeXnL7gjgAwdwxCQMuEWK2qwe1Ie7pbAKP/kfSNktM57hAACLFaRtK9Jb1Y0oHuHsDoQ5LeWHK63R0CYHYMQkCL1D+JPF7S+u4WwOBQSZ+UdDxfaAJoqhCrFSXtIun/iR/eoJ9+LmkvXt8Gmo9BCGiJEKsdNRiDgD45TdIbNXgl7Dp3DADMR4jVepL2knSIpBXdPcAYXSZph5LThe4QANNjEAJaIMRqN0m/dHcAY/QOSYeVnM5yhwDAYtWvlG0v6dWSXuruAcYolJxOcEcAmBqDENBwIVbPk3SYuwMYg79IepMGt4Td7I4BgFEIsVpd0hMkfULSBu4eYAweXXLK7ggAkzEIAQ1V/zTxIElvc7cAI3aQpC+WnM51hwDAuIRYSdK2kvaX9DJ3DzBi+5WcvuaOADARgxDQQCFWK0j6kqR93S3AiJwm6QBJv+RpIAB9F2K1hgZnDX1B0vLuHmBE3izpPSUndweAGoMQ0DD1F4VHSnqQuwUYgc9K+mjJ6RR3CAA0Tf108E4aPB1cuXuAEficpFeUnG5zhwBgEAIaJcRqI0knSVrL3QIM2UslfavkdLU7BADaoP6a4MWS3uluAYbsKElVyekGdwjQdwxCQEOEWG0j6WR3BzBEf5d0oKSj+UkgACxMiNXKkp6owetk/MAIXXG2pAeUnC5zhwB9xiAENECI1QMlHevuAIbkSxqcEXCqOwQAuuJOr5O9X9Kj3T3AkNyj5HS2OwLoKwYhwCzEandJP3d3AEPwFkmfKzld4g4BgC4LsdpC0uslvcLdAgzBDiWn4o4A+ohBCDAKsXqmpG+4O4BFerak73EWAACMV4jVOpKeL+nD7hZgkR5Wcvq9OwLoGwYhwCTEan9JH3N3AAt0gQbfhBzJ+UAA4FWfM7SPpK+6W4BFqEpOP3JHAH3CIASMWYiVNLgx5K3uFmAB/ihpf0nHlpzcLQCAOwmxWk7S7hqc5baBuwdYgP1KTl9zRwB9wSAEjFGI1bKSDpH0cncLME8/lvSGktMJ7hAAwMzqA6gfKulzkrZ39wDz9OqS0yHuCKAPGISAMQmxWkGD84L2cbcA8/ANSW8rOf3bHQIAmJ/6qeSdJH1Cg4EIaIuDJL2Dp5GB0WIQAsYgxGoVDW4Se7i7BZijz0k6uOR0jjsEALB4IVZB0kc0eKUMaINPStq/5LTEHQJ0FYMQMGIhVmtI+oOk4G4B5uCzGgxB57lDAADDF2K1nQa3kj3O3QLMwVckvYALLIDRYBACRqi+DvZfkjZxtwCz+JSk95SczneHAABGL8RqW0kflPREdwswix9K2qfkdIs7BOgaBiFgREKsNpR0lqSV3C3ADD4v6SCGIADop/qJoU9I2s3dAszgaEl7lJxudIcAXcIgBIxAiNVmkjh7BU32NUlvLjmd7Q4BAPiFWO2owWvDHD6NpvqnpIeUnK5zhwBdwSAEDFmI1T0knenuAKZxhKTXlpxOd4cAAJonxGonSV+StIO7BZjCvyU9oOR0tTsE6AIGIWCIQqzuJelUdwcwhT9IenHJqbhDAADNVl9X/whJ35O0nrsHuIsLJW1fcrrCHQK0HYMQMCT14YwnujuAuzhT0jNKTn9yhwAA2iXEallJj5eU3C3AXVwj6Z4lp0vdIUCbMQgBQxBiFTS4TQxokj0l/aLktMQdAgBorxCr5SU9S4NXyYCmuF3SxiWni90hQFsxCAGLVB/CeLy7A7iT50n6esnpVncIAKA7QqxWk7S/pHe7W4A72ajkdJE7AmgjBiFgEUKs7iPpH+4OoPZmSZ8oOV3rDgEAdFeI1QaS3iXpJe4WoLZxyelCdwTQNgxCwAKFWN1P0nHuDkDSVyW9gS+EAADjFGJ1b0mHSXqIuwWQtEnJ6QJ3BNAmDELAAjAGoSH+JemZJSfOrwIAWNQ3kj1K0pGSlnP3oPcYhYB5YBAC5onXxNAQj5P0s5K5+AUA4FcfPL2fpEPdLeg9Xh8D5ohBCJgHDpBGAxwo6dMlp5vcIQAA3FWI1dqSDtLg8GnAhYOmgTlgEALmiKvlYfYtSa/hJ14AgDaozxf6uqSd3C3orQ25kh6YGYMQMAchVttKOtHdgV66WNLjS05/dYcAADAf9flCj5P0E3cLeulWDZ4UuswdAjQVgxAwixCre0k61d2BXnq+pK+WnG5zhwAAsFAhVqtIer2kd7hb0DtXSdqi5HSlOwRoIgYhYAYhVveQdKa7A71zmKTX8xMtAECXhFhtKemrkh7mbkGvnC9p25LTNe4QoGkYhIBphFhtJukcdwd65UpJjyk5/c0dAgDAKPAaGUxOlXT/ktN17hCgSRiEgCmEWG0oicN7MU6vkPQ5Xg8DAPRBiNVqkt4m6Q3uFvTG3yU9pOR0ozsEaAoGIeAuQqzWkXSBpJXcLeiFn0p6UcnpfHcIAADjVt/i+mNJ93C3oBeypD1KTre4Q4AmYBAC7iTEag1JJ0naxN2CXti95PRLdwQAAE4hVstKeo4GZ+gBo/Z9SU/jqWyAQQhYqr4B48+SgrsFnfdxSW8pOV3rDgEAoClCrDaSdKgGZwwBo3SYpBeWnJa4QwAnBiFAUojVCpKOkvRwdws67UZJu5ac/uoOAQCgqUKsHq/Ba2TAKH1M0mtKTu4OwGZZdwDgVj+m/A0xBmG03iBpTcYgAABmVnL6iaS1JP2vuwWddoCkN7sjACeeEEKv1VefflrSy90t6KyzNTgr6GR3CAAAbRNitaukY9wd6LRXlJw+444AHHhCCH33TjEGYXT+W9I9GYMAAFiYktNvJa0m6aPuFnTWp0OsnumOABx4Qgi9FWK1vwbvDgPDdqKkJ5acTneHAADQFSFWD5L0J3cHOuvxJaefuiOAceIJIfRS/VOAj7k70EmvkrQDYxAAAMNVcjpW0qqSPuJuQSf9JMRqF3cEME48IYTeCbHaXdLP3R3onLMk7VZyOs0dAgBA14VYPUTS790d6KTtS04nuiOAceAJIfRKiNUDxRiE4XutpK0YgwAAGI+S0x8kra7B5SDAMJ0QYrWZOwIYB54QQm+EWG0jicN9MUw3SHpgyam4QwAA6KsQq0dLOsrdgc5Zt+R0hTsCGCWeEEIvhFhtJMYgDNcHJK3DGAQAgFfJ6VeS1pX0A3cLOuXYEKuV3RHAKPGEEDovxGoNSedIWsvdgs7YteT0O3cEAAC4Q4iVJD1d0uHuFnTGTyRVJafb3SHAKDAIodNCrFaQ9FtJD3K3oBP+T9KLSk5Xu0MAAMDU6vNffiFpO3cLOuFTkl5VcnJ3AEO3nDsAGJUQq2UkfUXSnu4WdMIzSk4HXXLmKTe5QwAAwPQuOfOUqzfY8t6flXS9pN3cPWi9B0m64ZIzT+HpcHQOTwihs0Ks3iHpbe4OtN4Zkh5dcjrTHQIAAOYnxGpnSX92d6ATnlFy4nVEdAqHSqOTQqyeJ8YgLN5BkrZhDAIAoJ1KTn+RtIakb7lb0HrfCrHa1R0BDBNPCKFzQqx2k/RLdwda75Elp6PdEQAAYDhCrPaV9HV3B1pv25ITtxejExiE0CkhVjtKOt7dgVY7RtJeJadL3SEAAGC4Qqy2lvRXDZ4aAhZqw5LTxe4IYLF4ZQydEWK1sRiDsDj7a/BkEGMQAAAdVHI6VdLdJB3ibkGr/TXEamV3BLBYPCGETgixWlXSWZLWd7egtR5ccjrWHQEAAMYjxOqpkr7n7kBr/UDSU0tOS9whwELxhBBaL8RqWUnfFWMQFuY3ktZjDAIAoF9KTt+XtJWkq9wtaKUnS3qXOwJYDAYhdMH7JO3pjkArvU5SLDld7g4BAADjV3I6XdJGkj7nbkErvTnE6jnuCGCheGUMrRZi9XxJh7o70Eq7lpx+544AAADNEGL1DEnfdHeglR5RcjrGHQHMF4MQWivE6uGSuBYc83WypEeVnC50hwAAgGYJsQqS/uXuQCvds+R0hjsCmA9eGUMrhVjdU4xBmL+PSNqBMQgAAEyl5FQkrSXp5+4WtM7pIVZruiOA+eAJIbRO/YmWw/8wX3uXnLhJBAAAzCrEahlJB0r6kLsFrfJbDZ5Ev80dAszFcu4AYD5CrJaTdKSkzd0taJVQcuKJMgAAMCeXnHmKLjnzlD9ssOW9fyuJQ4MxV5tLWuOSM0/hCTO0Aq+MoW3eK+lh7gi0xjGS1ik5neAOAQAA7VNyOkrSlpKuc7egNV4TYrWfOwKYCwYhtEaI1b6SXu/uQGu8S4NHdq90hwAAgPYqOZ0paQNJ33W3oDW+EmL1YHcEMBvOEEIrhFjtLOnP7g60xl4lp++7IwAAQHeEWEnSa8W5Qpi7TUtO57sjgOkwCKHxQqw2knSBuwOtcd+S0/HuCAAA0E0hVntK+qm7A61wkaQtSk43ukOAqfDKGBotxGpFSX9wd6AVTpK0AWMQAAAYpZLTzyRt6+5AK2wo6Yv102VA4zAIoekOkbSFOwKN9wVJ9yk5XeIOAQAA3VdyOlnSOpKOdbeg8faV9Ep3BDAVXhlDY4VYvUDSF90daLz9JX2i5OTuAAAAPRNitbykT0h6ubsFjfeIktMx7gjgzhiE0Ej1qfx/dHeg8R5fcuIdfgAAYBVi9UoNnmwHZnL3ktO57gjgPxiE0DghVhtKutDdgcbbseT0L3cEAACAJIVY7S7p5+4ONNrFkjYvOd3kDgEkzhBCw9SP3WZ3BxrtPEkbMgYBAIAmKTn9QlJwd6DRNpD0KXcE8B8MQmia90vazh2BxvqppK1LThe7QwAAAO6q5HSCpI00eBIEmMoLQ6ye644AJF4ZQ4OEWO0t6TvuDjTWhyW9oeR0uzsEAABgJiFWq0o6QtJj3S1orAeUnI5zR6DfGITQCCFW20k6wd2Bxnp5yemz7ggAAIC5CrFaVtJHNLgRFZjKeiWny90R6C8GIdiFWK0u6Rp3BxqrKjn9yB0BAACwECFW+0v6mLsDjXSMpEfxBDxcOEMIViFWknSYuwON9WDGIAAA0GYlp49Lerq7A430cElvcEegvxiE4PYSSfu4I9BIW5ecjnVHAAAALFbJ6f8kPdLdgUZ6b4gVvzdgwStjsAmx2knSX9wdaJxLJO3ATWIAAKBrQqyCpH+5O9BIm5ScLnBHoF8YhGARYrW2pCvcHWicv0iKJadr3SEAAACjEGJ1d0lnuzvQOCdK2rHkdJs7BP3BK2MYuxCrZSR9y92BxjlC0sMYgwAAQJeVnM6RtL6kc90taJTtJL3dHYF+YRCCwysk7eGOQKN8StLeJaeb3SEAAACjVnK6TNK2kn7vbkGjvDXE6jHuCPQHr4xhrDg3CFN4q6SDS07uDgAAgLEKsVpB0tfELWSYiPOEMBYMQhibEKu1JF3p7kCjvLrkdIg7AgAAwCXEallJh0h6ubsFjfEvSffjPCGM2nLuAPRDiJUkfVvSvd0taIznlJy+4I4AAABwuuTMU5ZssOW9fyxpRUkPd/egETaQdPMlZ55yjDsE3cYghLHYYMt7P1/SG9wdaIynlJy+7Y4AAABogkvOPEWXnHnKrzbY8t7XSdrd3YNGePQGW977yEvOPOUcdwi6i1fGMHIhVttqcI0iIEm7lZyOckcAAAA0UYjViyV9zt2Bxliv5HS5OwLdxC1jGKkQq5Ul/cPdgcbYlTEIAABgeiWnz0vaz92BxvhmiBUPcmAkGIQwah/R4H1o4EElp9+5IwAAAJqu5PQ1SU9zd6ARdpf0YncEuomlESMTYvU4ST9xd6AR7ltyOt4dAQAA0CYhVk+UlNwdaITtS04cw4GhYhDCSIRYbSTpAncHGoE/vAAAABYoxOqxkn7h7oDd9ZLWLTnd5A5Bd/DKGIaufsf1CHcHGmFbxiAAAICFKzn9UtJj3B2wW1XS+9wR6BYGIYzCqyQ92B0Bu21KTie7IwAAANqu5PQrSdHdAbsDQqx2c0egO3hlDEMVYhUk/cvdAbt7lZz+7Y4AAADokhCrR0j6jbsDduuXnC5zR6D9eEIIQxNitZKkv7g7YHdPxiAAAIDhKzkdLenh7g7YfTXEyt2ADmAQwjAdLGlldwSs7lVyOsMdAQAA0FUlp99KeqS7A1aPk/RsdwTaj1fGMBQ8vgoNzgw61R0BAADQByFWj5KU3R2w2rLkdKY7Au3FIIRFC7FaS9KV7g5YbcsB0gAAAOMVYvUYSUe6O2BzqqTtSk63uUPQTrwyhmH4tDsAVtszBgEAAIxfyekoSXu4O2CztaRXuyPQXjwhhEUJsXqCpB+5O2Bz35LT8e4IpxCrZSQtL2lFDc7QWq7+98tJul3SbfXHTZJulnSrpNtKTkvc7QAAtFGI1XKSVpW0hqR1JN1N0rr1v19T0lq648/gWyVdK+kiSZdKukLSBZKu6tJTFSFWlaQfujtgs33J6UR3BNqHQQgLFmK1vqRL3B2weVDJ6c/uiHEKsdpKg5/E7CzpgfWvmyzw/9zFkk6QVOqP0ySdI+lCSdd06YtUAADmq75BaVVJG0naVtIDNPhz9xEajEDDcImkL0n6qaTj236Nd4jV0yR9290BiyskbVhyusUdgnZhEMKC1H9I/0SDE+7RP7uWnH7njhinEKu7Szp7jP8vz9bgn7FjJB1f//urS07uvxQAAAxdiNWqkrbQ4AcuT5D0NEPGciWn291/LRYjxOo5kr7s7oDFQSWnd7gj0C4MQlgQfgLRa7vV76v3SojV+yW9wd2hwT93P5H0J0lnlJxucgcBADAf9Q8W15G0owY/XHyxpPXcXZJWLzld545YrBCrl0r6rLsDFvcvOf3dHYH2YBDCvIVYbajBay3on6eUnH7gjhi3EKvVNDh/oIlOlvRVST+TdGLJ6Xp3EAAAdxVitbqk+0h6iqQDNThrr2k2Kzmd544YhhCrN0p6n7sDY3erpNVKTje7Q9AOy7sD0C71T3S+5u6AxXP6OAbV9nIHzODekg6uPxRidYqkz2nwFNFpvEsOAHCoL13YQtKekvbX4M+rpttAUicGoZLT+0Os1pH0RncLxmp5SW+R9DZ3CNqBJ4QwLyFWT5d0uLsDY/fqktMh7giHEKtlNfhpS1s/X/5A0qGSfltyutwdAwDorhCrFSXdT9K+GoxAbfOkklNnDuurR7nPSnqJuwVj94CS03HuCDRfW7/BgQGvivXWW0tOB7sjXEKsHiLp9+6OITlT0ock/UjS2SWnJe4gAEC71YdBP0iDc4D2dfcs0gElp4+7I4ap/sHW/6nZTztj+G7T4NUxzprEjHhlDHNSvyrGjQX98ynVryL1WJceud1C0iH1x+0hVm+R9F1JpzIOAQDmKsRqZUm7SHq1ujU0bOMOGLaS0+0hVs+U9FsNbnBDPywn6f9JOsgdgmbjCSHMSYjVkyUd4e7AWB0hae+2X7+6GCFW60m61N0xJm+W9C1Jp3O1PQDgrkKslpe0s6RXSnq2u2dEji45PdIdMQr1od6nSdrQ3YKx2rHk9C93BJqLQQizCrFaV9Jl7g6M1V8kPazvNxT09NrWmyW9VtJ3S04XuGMAAD71GTRbS3q+pP9x94zB1SWntdwRoxJitb6kS9wdGKvLJG1UcrrVHYJmYhDCrEKsDpf0dHcHxuYSSfcsOTX1mvWxqL8IvlXSsu4Wo39p8Kjxz/v++wEA+qR+QnYvSZ+UtJK7Z8yW6/LT0SFWm0s6y92BsXpdyenD7gg0E4MQZhRi9VhJv3B3YKw2LDld7I5wC7G6j6R/uDsa5KuSPirpH13+QhkA+qp+Jewhkt6kwVXxfbVKyelGd8QohVjtKOl4dwfGauuS02nuCDQPgxCmVb9rfI27A2PFHxa1EKsvSnqBu6OhXiXp8JJTX85XAoDOCrHaWNJzJb3X3dIQ65ecOn9UQohVlPQrdwfG5gRJO3CJCO6KQQjTCrH6mKT93R0YmweXnI51RzRBfXvKDe6OFvihpHdL+gtPDQFAe4RYLSdpV0nvkNTJQ5QXYauS0+nuiHGobx/7hrsDY/O8khO3RmMCBiFMKcRqJw0OFkY/VCWnH7kjmoKfmi3ICzQ4iPpqdwgAYGr1RSHPlHSIu6XBevUDshCr10n6oLsDY7NRyekidwSaY3l3AJonxGoFSce4OzA2L2cMmuQAd0ALHSrp0BCrz0j6CK8eAkAzhFhJUpD0Rkn7uXtaYCN3wJh9SNJWkl7mDsFYfFHSE90RaA6eEMIkIVav1eAPB3Tfh0tOr3NHNAlnZw3NnzW4vv53vE4GAONXHxL9aA2eBtra3dMiryg5fcYdMU71K4S/kvQIdwvGYs+S08/dEWiGPl+njCmEWG0hxqC++KmkN7gjGoizFIbjgZKOlnRbiNWzQqxWcQcBQB+EWK0ZYvVySbdI+rkYg+ZrC3fAuJWcbpP0BPEDsb74WYjVau4INAODEJaqHyn+ursDY3GepL15cmNKr3cHdNDXJF0fYvX6+vwKAMCQhVhtEmL1fklXSfq0u6fFtnIHOJScrpW0rbsDY/N2dwCagVfGsFSI1VMkfd/dgbHYsOR0sTuiaXhdbGw+Ken9Jafz3CEA0HYhVttJeqekfdwtHXF8yem+7giXEKv7SPqHuwNjsWPJ6V/uCHgxCEGSFGK1lqQr3R0YCz75TyPE6tGSjnJ39Mg3JL2dA6gBYH7qp7ofJOkTkh7s7umYW0pOK7ojnEKsnigpuTswcudJ2pw3BvqNV8bwHwe7AzAWj2cMmtHz3QE9s6+kU0OsfhZiFdwxANB0IVbLhlg9VtLZkv4kxqBRWCHEqtffI9W3zx7o7sDIbSrpue4IePGEEHg0tD/2Lzl9wh3RVCFWK0i62d3Rc7/W4Pfp8e4QAGiS+haox0v6tqSV3T09sFLJqddfE9RPoR0qfljWB3crOV3qjoBHr9dvDH7SJOnH7g6M3Oc1eKwc09veHQA9StI/Qqx+H2J1P3cMALiFWK0QYvU0SbdK+qEYg8al93+dS06S9FJJPFnefR91B8CHQQj7SdrMHYGROknSK+s/2DG9p7sDsNRDJB0XYvWbEKsd3DEAMG71EPQMDZ5c/ba7p4dWdwc0QcnpFknR3YGRe3aIFa+f9hSvjPVYiNV6kng8sPs2KDld4o5osvqx6OslreJuwZR+ocGrZCe5QwBglOrXl/eW9E13S89tx585d6h/OPNPdwdG6kZJa5ScbnWHYLx4QqjfPuAOwMjdlzFoTtYXY1CT7S7pxBCrb4VY3cMdAwDDFmK1XIjVPho8EcQY5LeOO6BJ6gtJnuLuwEitLOlF7giMH4NQT9Xnc7zA3YGR2ovDeefsQe4AzMl/STozxOpTIVYbumMAYLHqW8OeqMEZQf/n7sFS67sDmqbk9ANJb3F3YKQ+E2J1N3cExotBqIfqg6Q5UKbb3lVy+r47okWe6Q7AvLxC0oUhVm8NseKcBwCtE2KlEKtHS7pSfE3WRBu4AxrqPZJ+5o7ASH3EHYDxYhDqp2eIg6S77GhJB7kj2qIeSJ/t7sCCvFPSNSFWL6jP3QCAxguxeqCkUyQdJWkNdw+mtLE7oIlKTkvEJRxd9+wQq53cERgfBqGeCbFaS9LX3R0YqSeXnG53R7TIpu4ALNoXJd0cYrVHfUA4ADROiNW9Q6x+LelYSVu7ezCjTdwBTVVyukbSNu4OjNTP6h+Yogf4G90/b3MHYKRCyelKd0TLPNAdgKH5maR/hljt6A4BgP8Isdo4xOpLkk6S9Eh3D+bk7u6AJis5nSrpCe4OjMz64jiF3mAQ6pEQq3tJOtDdgZHZu+R0gjuihZ7sDsBQ7SDp+BCrr4VYbeSOAdBfIVarh1gdJOl8Sc9192BetnAHNF3J6SfiB81d9rUQqzXdERg9BqGeqF+j+LK7AyPzkZLT99wRbRNitYyk57g7MBLPknRBiNWBIVYruWMA9Ed9hfx+kq6R9HZ3DxZkS3dAS7xb0u/cERiZN7sDMHrLuAMwHiFWj5F0pLsDI3GSpB1LTre6Q9omxGp9SZe4OzAWe0r6eclc5tNndzljapm7/HrXf31XS+7y69J/ze8r/EeI1SMl/VISB92337L1IcqYQYjVupIuc3dgZO5Vcvq3OwKjwyDUA/XtOze7OzAyG5ecLnRHtFGIVZT0K3cHxuaPkp7NFzbNVz+9t5yk5SWtJGllSavWH6tpcDPTmnf6dU1Ja9Ufa9zp368pafX6Y436f38UbpZ0Xf1xjaSr61//86+vqn+988c1kq6tf71O0vWSbpB0U/1xq6Tb+Ya0HUKs7inpC5KiuwVDs3zJ6TZ3RBuEWD1A0l/dHRiJo0tOnH3WYQxCPRBi9TJJn3F3YCR2LTnxqO4ChVi9Q7z/3kcHS3pvyel6d0gf1E/lLKvBsLOaBiPNupI2qD82kbSZBmd23EODVzVWcXc3yHWSzpB0lqRz64/zJV0k6VJJl2swMF0n6UZJt/LE0viEWK0h6S2S3uBuwdCtUnK60R3RFiFWz5d0qLsDI/GIktMx7giMBoNQx4VYraPBF4vonteVnD7sjmizEKvjJXEjVX9Vkn7EN88LVz/Js6IGT+CsJ2kjDW7n2UrStpK2l3Qf8fXGuJ0l6QRJJ0s6rf73F2jwiuyVGjyNxHC0CPXv/b0l/Z+7BSOzdsnpKndEW9Tj/zfE7VRddIOkNXhirpv4Aq3jQqw+KukAdweG7teSHs2rBAsXYrW8pFvcHbA7RtJ+Jaez3CFNVH+Bv6KktTUYe+4h6d6S7ivpwZK2djdiUf4i6W+SiqRTJZ0t6WINXnG7mcFoaiFWQdL3xe//ruOV/HkKsVpNg1dh0T3PKTl91R2B4WMQ6rAQq600+Mkgume9khNPfi1CiNUmks5zd6AxXi/pEyWnXp63Vp81t46kTSVtI+kBkh5Wf6C//lh//EODCwzO0eDw2Bv7OBbVr4cdJOlAdwvGgsN0FyDEajsNnlBE96xZcrrGHYHhWt4dgJH6nDsAI/FgxqCh2N4dgEb5oKQPhFg9pOT0J3fMqIRYrShpfUn3lHR/DQafPTR4Agi4q13qj0lCrH4j6WgNnjA6SYNzja7p4pOr9ZNyT5L0A3cLxmoNd0AblZxODLF6lqSvu1swdK8XZ292Dk8IdVSI1S6S/uDuwNDtX3L6hDuiC0KsDpL0dncHGumzkt5YcrraHbJQ9fkma0raXIPXux4l6SkanPMDjNKxkn4u6U+STpR0QcnpBnfUQoVY3V3SVyVxy07/PLLkdLQ7oq1CrL4s6TnuDgzdpiWn890RGB6eEOqg+huB77k7MHRHS/qkO6JDHuMOQGO9TNLLQqyeWHL6sTtmNvXTC2tpcJDzgyU9ToMDswGHB9UfS4VY3SjpO5J+qcHV1GdJurbJr52FWC2nweeCQ9wtsFnLHdByLxeDUBd9QNKz3REYHp4Q6qAQqydLOsLdgaG7W8npUndEF9Sj6e3uDrTCjyS9sOR0sTvkP+rXvjbX4JvuJ4obXdBOt2vw5M3PNDjc+uymnOEVYrWtBk85be5ugdXzSk5fdke0WYjVDpL+6e7A0IWSE+dEdQSDUMeEWK0k6UZ3B4aOx5aHKMRqdUkciof5+C9J33Y80VD/ft1Wg6faniPOv0J3naTBSHSUpBPH/dpmffvk6yS91/0XAo3w2pLTR9wRbRdi9WJxrmnX/FnSg5r8lCfmjlfGuucF7gAM3UGMQUO3sTsArXO4pFeGWD1z1O/O1wNQ0ODVr5dJ2tD9Xx4Yk20lvbv+UIjV1ZI+I+nHko4vOV01qv/HIVb3lvQb8c8b7rC+O6AjPq/BGXaPd4dgaB4o6REaHGeBluMJoQ4JsVpT0si+WILFGZK2KTnd6g7pkhCrJ0rixxpYqGdK+tawfjJWvwK2tQa3fb1Cg7OAAEx2oaRPafD5+6SS002L/T8YYrWspFdK4sIG3NXnS04vcUd0QYjVOpK4IbdbLtfgOAuOYGi5Zd0BGKrXuAMwdJExaCTu4w5Aq31T0lEhVgt+kiDE6m4hVk8JsfqhpJsk/UvSh8UYBMxkI0nvkvR3STeGWP08xGqvEKu7LeT/WIjVJhq8+sAYhKnwtNiQlJyu0OCJEnTHuuICi07gCaGOCLHaQNJF7g4M1TNKToe7I7ooxOr7Gjy+DCzW3iWnWW91rJ9CuKekJ0n6H0kL+gYWwLTO1+DsnyTprNme4AuxeoIGh8YD0zm25PRgd0SXhFi9W9Kb3B0YqpWaciEAFoYzhLrjHe4ADNW3GYNG6uHuAHTGd0OsvivpRSWnK+/8H9TXVgdJ+0p6ozsU6LhNJH2y/rgxxOrNGlx1f/adx6H6Fc33SzrAHYzG28gd0EEHSXqhePqqS54t6VB3BBaOJ4Q6IMRqCw3OmkF3rDXu21X6ov4mndfwMAqP1uBQ2iDpeZIOdAcB0IUaPJX3Q0mrSPqdpC3cUWiFW0pOK7ojuibEaitJp7k7MFSrl5yuc0dgYThDqBs+6A7AUO3KGDRSq7sD0Fm/knSbpOPFGAQ0xUaSvqTBAajniTEIc7dCiByRMmwlp39r8JQQuuOl7gAsHINQy4VYbStpH3cHhub9JaffuSM6bj13AAAAaAW+VxqNwyQd447A0Hw4xGotdwQWhk9y7XeIOwBDc4Okt7sjeoD31gEAwFws5w7oopLTEklPc3dgqLjtuqUYhFosxOp+kh7j7sDQPLDkdJM7ogc2cwcAAIBW4AKeESk5XaTBzZvohreHWHGDagsxCLVU/U4zJ7p3x2tLTsUd0RNbugMAAEArrOAO6LKSU5L0LXcHhuZN7gDMH4NQez1I0v3dERiKsyR93B3RI/d2BwAAgFbglrHRe7k7AENzQIjVRu4IzA+DUAvVTwcd5u7A0OxWcrrNHdEjO7gDAABAK6zkDui6ktOVknZ3d2Bo3uoOwPwwCLXTQyVt747AULyy5HSaO6JntnEHAACAVljZHdAHJadfih92d8UrQqw2dUdg7hiEWqZ+Ougr7g4MxQmSPuuO6JMQq2Ukre3uAAAArcAgND77uwMwNAe5AzB3DELt83BJW7kjMBRVyel2d0TPcH0sAACYq1XcAX1RcrpG3J7cFS8Ksbq7OwJzwyDUIvXTQV92d2AoXl1yOt0d0UMcDgkAAOZqVXdAn5ScfiXehOiKt7sDMDcMQu3yMHFldhecLekz7oie4id9AABgrlZzB/TQf7sDMBQvDLHazB2B2TEItQQ3i3XK7twqZsMgBAAA5oonhMas5HSVpMe5OzAU3DjWAgxC7fEQSVu7I7Bobyg5neyO6DEOhwQAAHPFE0IGJaefSfquuwOL9pIQq03cEZgZg1AL1E8HfdHdgUW7QdLH3BE9xxNCAABgrtZwB/TYy9wBGIo3uwMwMwahdthZ0nbuCCzariWnW9wRPcdP+gAAwFyt7g7oq5LTpZKe6e7Aor0ixGpDdwSmxyDUDp90B2DRPl5y+ps7AnxhBwAA5oyvG7wOl/RXdwQW7UB3AKbHINRwIVY7SNrF3YFFe4s7AJI4QwgAAMwdg5BRyWmJpH3cHVi0N4RYreuOwNQYhJrvw+4ALNruJadr3RGQJK3oDgAAAK3BGUJmJaczxRMmXfBKdwCmxiDUYCFWW0va3d2BRflpyemX7ggstYI7AAAAtMaa7gBIkg6RxDmc7fbOECv+eWogBqFme4c7AIv2IncAJuAJIQAAMFc8IdQA9aUsD3d3YNGe5w7AZAxCDRVitak4Wb/tXlFyOt8dgQkYhAAAwFxxhlBDlJz+JOkwdwcW5eMhVpzn2TAMQs31encAFuUKSZ9zR2CSZdwBAACgNXhCqFle6w7Aou3tDsBEDEINFGK1nqT93R1YlN1KTre5IzDJ7e4AAADQGpx50iAlpysk7evuwKJ8LcRqeXcE7sAg1EwvcwdgUQ4tOf3NHYEpMdIBAIC54gmh5vmWpDPcEViUPdwBuAODUMOEWK0q6WB3BxblDe4ATIsnhAAAwFxxhlDDlJyWSHqSuwOLcliIFcc4NASDUPP8lzsAi/L8ktNl7ghMi0EIAADM1cohVu4G3EXJ6V8aXEWPdrqbpAe6IzDAINQg9fuUh7o7sGAXS/qKOwIzusEdAAAAgEV7izsAi/IRdwAGGISa5bHuACzK40tOPIHSbAxCAABgPni1pYFKTldJepa7Awv2sBCrrd0RYBBqjPpx1C+4O7Bg3yw5/dUdgVkxCAEAgPlgEGqub0m6yB2BBeMprwZgEGqOB0jaxB2BBXuNOwBzwiAEAADQAfWT+U90d2DBnhNidTd3RN8xCDXHe9wBWLDXlJz46UQ73OgOAAAArcITQg1WcvqLpMPdHViwl7gD+o5BqAFCrO4uaQ93BxbsM+4AzNm17gAAANAqfL/UfAe4A7BgB4dYreKO6DM+wTXDAe4ALNieJaeb3BGYs+vdAQAAoFV4QqjhSk4XSnqDuwML9hR3QJ8xCJmFWK0p6UB3Bxbkn5J+7o7AvHCGEAAAmA8GoXY4xB2ABftqiBW7hAl/4f2e4Q7Agu1bcnI3YH54mgsAAMwH3y+1QMnpBkl7uTuwIMtJ2sUd0Vd8gjMKsVpO0v+6O7AgXyk5/csdgXm7xR0AAABahSeE2uMISee6I7Ag73MH9BWDkNfD3QFYMN5Tbqdb3QEAAKBV+H6pJUpOSyQ91d2BBXl4iNU93BF9xCc4rw+7A7Agb+aa+XaqX/E7z90BAABagyeEWqS+hv7H7g4syH+7A/qIQcgkxGorSQ9wd2BBPu4OwKKc7A4AAACtwSDUPq92B2BBDgyxWt0d0TcMQj7cLNZOzy05XeeOwKKc6g4AAACtwSDUMiWnMyR90t2BBdnbHdA3DEIGIVZrSHqFuwML8g13ABbtJHcAAABoDQahdnqnOwAL8sUQK/6ZGyMGIQ+uRGynPUpOHErcfqe7AwAAQGvwzWkLlZwulfR6dwfmbTlJO7sj+oRBaMzqxfNQdwfm7QxJv3RHYCg4VBoAAMwVg1B7fdodgAV5uzugTxiExm9n8de9jZ5ZX2WJ9rvYHQAAAFqDQailSk7XS3qBuwPz9oQQqw3dEX3BMDF+B7kDMG+/Lzn9yR2BobncHQAAAICx+Lo7AAvyfHdAXzAIjVGI1QaSHu/uwLy9xB2AobreHQAAAFqDJ4RarOR0szi/tY3eG2K1gjuiDxiExutZ7gDM2/dLTsUdgeGpX/37t7sDAAAAY/EDSde6IzBvD3cH9AGD0JiEWC0n6SPuDszb69wBGInfuQMAAAAweiWn2yU91d2BeXu3O6APGITG5yHuAMzbV0tOXFHeTX9wBwAAAGBsjpJ0gTsC87JLiNVm7oiuYxAan3e4AzBvb3EHYGT+6Q4AAACtwC2zHVAfGfAMdwfm7YXugK5jEBqD+tq8R7s7MC+fKzmd7Y7AyJzpDgAAAMBYHS3pNHcE5uUgDpceLQah8XimOwDzxhNd3XapOwAAALQCTwh1RMlJkvZzd2DednUHdBmD0IiFWC0r6aPuDszLISWn890RGJ2S002SrnJ3AACAxmMQ6pY/SjrBHYF5Ocgd0GUMQqO3szsA8/YedwDG4gh3AAAAaDwGoQ6pnxLiXJp2eUSI1UbuiK5iEBq9N7oDMC+fKTlxA0E/ZHcAAABoPAah7vmjpJPdEZiXfd0BXcUgNEIhVmtL2svdgXk52B2AsfmbOwAAADQeg1DH1E8JPd/dgXn5cH0UC4aMv6ij9SR3AOblfzk7qFfOcAcAAIDGYxDqpj+IG8fa5v7ugC5iEBqRECtJ+rC7A/PC00H9cq2kW90RAACg0W53B2D4eEqolV7jDugiBqHR2VrS+u4IzNnXS07nuiMwPvUXAl9xdwAAgEbjCaHu+p2ki90RmLNnhVit4Y7oGgah0XmROwDz8nZ3ACx+6A4AAACNxhNCHVVyWiJpP3cH5mUPd0DXMAiNQIjVipLe4O7AnP2o5PRvdwQs/uoOAAAAjcYTQt12pDhCoE3e5w7oGgah0djFHYB5eaM7ADYXuAMAAECjMQh1WMnpdklPc3dgzrYKsbq7O6JLGIRG4/XuAMzZH0pOJ7gj4FFyuk3SEe4OAADQWLwy1n0/cgdgXp7pDugSBqEhC7FaS9IT3R2YswPcAbD7hjsAAAA0Fk8IdVzJ6VZx41ibvD/Eih1jSPgLOXx7ugMwZ+dLOtYdAbs/uAMAAEBjMQj1w7fdAZiXHd0BXcEgNHzvdgdgzl5QXz2OfjvPHQAAABqLQagHSk7Xi3NF2+Tl7oCuYBAaohCrTSVt5e7AnB3pDoBffeXoR9wdAACgkRiE+uPz7gDM2UtDrFZyR3QBg9Bw7eMOwJw9qz5QGJCkw90BAAAA8Ck5XSHp4+4OzNlD3AFdwCA0JCFWy0j6kLsDc/Z9dwAa5R/uAAAA0DjXcrxA7/DUeHu8xh3QBQxCw3MvScu7IzAnby453eCOQHOUnG6S9B13BwAAaJRr3AEYr5LT2ZJ+5u7AnDwpxGoNd0TbMQgNz3PcAZizz7kD0EifdAcAAIBGudIdAIs3uQMwZ492B7Qdg9AQhFgtJ+kt7g7MyWElp0vdEWikP7kDAABAo1zpDoDFcZLOdUdgTt7sDmg7BqHhCO4AzNl73QFopvq1sU+7OwAAQGNc6Q7A+NXnRr3E3YE5eWCI1bruiDZjEBqO57sDMCfHlZxOdUeg0T7lDgAAAI1xlTsANke6AzBne7gD2oxBaJFCrJaXdIC7A3PyWncAGu8ESRe5IwAAQCNc7Q6AR8npFvE9Xlvw2tgiMAgt3n3dAZizo90BaLb6EeGXuzsAAEAjXOEOgNVX3QGYkxBidTd3RFsxCC3ei90BmJOXlJxuc0egFX7kDgAAAI3AK2M9VnK6XNJh7g7MyRPcAW3FILQIIVYrSHqpuwNzcrg7AO1QPyK8j7sDAADYMQjh/e4AzAmvjS0Qg9Di8LpYO3ym5MQ74JiP72lw5SgAAOgvvn7suZLTyZK4lKb57sVrYwvDILQ4z3MHYE4+5g5Ae4RYLSPpfZLu724BAABWXw2x2t4dAbvXuAMwJ3u6A9qIQWiB6tvFXunuwKxOLTmd4o5AO9T/XH9Z0hvcLQAAoBFKiNW93RGw+qU7AHPy/9wBbcQgtHA7ugMwJyz6mJMQq1U1+AN/P3cLAABolJNCrO7ljoBHyelmSW91d2BW24VYre+OaBsGoYXjm8Z2YNHHrEKs1pH0L0mPcrcAAIBGOjXE6u7uCNh80R2AOdnNHdA2DEILEGK1rHjypA3eXi/6wLRCrDaTdLmkLd0tAACg0c4OsdrQHYHxKzldIOlX7g7Miu/R54lBaGG2cQdgTg51B6DZQqy2k3SOuwMAALTGuSFW67ojYHGQOwCzelCI1ZruiDZhEFqYp7kDMKs/l5zOdUeguUKsdpF0grsDAAC0yvKSjg+xWs0dgrH7gzsAc7KrO6BNGITmqb6S+p3uDszqze4ANFeI1ePEH+oAAGBhNpV0VIjViu4QjE/J6VZxE20bcBP4PDAIzd/m7gDMyW/cAWimEKv9JP3E3QEAAFrtwZIOr88WRX981R2AWT0+xGoVd0Rb8Als/h7vDsCsDuIwaUwlxOo1kr7i7gAAAJ3wFEkfD7Fyd2BMSk4XSvq1uwOzeoA7oC2Wdwe0EI8JNt+X3AFolvpVz/dKeqO7BQAAdMqrJJ0t6YPuEIzNuyQ9yh2BGT1H0u/cEW2wjDugTUKs1pN0qbsDMzq15MQtcFgqxGo5SV+U9Fx3CwAA6Kxnl5y+7o7A6NVnR93k7sCsli853eaOaDpeGZufh7sDMKv/cQegOUKsVpL0IzEGAQCA0fpaiFV0R2D06qMp3uvuwKx4SGAOGITm5xXuAMzq5+4ANEOI1RqSjpW0p7sFAAD0wq9CrLZzR2AsvuAOwKye6g5oAwahOQqxWlnSY90dmNEXS07XuSPgV7/eeZqk+7hbAABAr5wQYrWBOwIjd7qkc9wRmNGbOfB9dgxCc3dfdwBmdYg7AH4hVptocNYXX4wBAACHv9c/TEZHlZwkjqpoulUlbeiOaDoGobl7ujsAszreHQCvEKt7SjrP3QEAAHptY0lfr285RXf9xB2AWT3KHdB0DEJzUH8yP9DdgRm9seR0uzsCPvU7+/92dwAAAEjaS9Kb3BEYnZLTlZJ+7O7AjF7mDmg6BqG52dwdgFl90x0AnxCr+0s6wd0BAABwJweHWO3ljsBIfcAdgBk9KsRqFXdEkzEIzc3u7gDM6N8lJw5166kQqwdL+pu7AwAAYArfDbHawR2BkfmjOwCz4izgGTAIzQ3XzTfbm90B8AixeoT4gxgAADTbP0Os1nVHYPhKTjdL+qi7AzPa2x3QZAxCswixWk3S/dwdmNHP3QEYvxCrx0j6jbsDAABgDn4eYrWcOwIjcag7ADN6HQe8T49BaHY8YtZsuT7QDT0SYrW7pCPdHQAAAHO0s6R3uyMwEpxj2XwbuwOaikFodk9zB2BGHOTWMyFWjxNPhQEAgPZ5Y4jVk9wRGK76pmOOsGi2R7gDmopBaAb1o2UHuDswo6PdARifegz6ibsDAABggX4QYrW1OwJDx43HzfYid0BTMQjNbBN3AGb0rZLT9e4IjEeI1Z5iDAIAAO13Aldhd84Zkq5yR2BajwmxWskd0UQMQjPb1R2AGX3KHYDxqM8M+qm7AwAAYAiWl/QZdwSGp+Qk8dpY023jDmgiBqGZPccdgBn92R2A0QuxepQ4MwgAAHTLc0Os9nVHYKiOcAdgRo9zBzQRg9A0QqxWkPR4dwem9ZWS003uCIxWiNVDJWV3BwAAwAh8PcTq3u4IDM15ki52R2Bar3IHNBGD0PS2cgdgRv/rDsBohVjtJOl37g4AAIAR+itnm3RD/drY29wdmNbdQ6zWdEc0DYPQ9HZ3B2BGf3EHYHRCrLYXf48BAED3rSbpA+4IDE1yB2BG93MHNA2D0PS4mq65Dis53eyOwGiEWG0pqbg7AAAAxuS/69tU0XIlp/MlXeDuwLSe4g5oGgahKdTXQO7o7sC0vugOwGiEWG0o6XR3BwAAwJj9NMTqbu4IDMXB7gBMa/8QK3dDozAITW1bdwBm9Fd3AIavfqf3NHcHAACAybf4ZrUTeG2suZaVtJ47okkYhKbGI5vN9Z2S043uCAxXiNXKkn4vaXV3CwAAgMmjJT3PHYFFO0fSDe4ITGsnd0CTMAhN7aXuAEzrs+4ADFeI1bKSvi0puFsAAADMDqvPU0RLcdtY4+3tDmgSBqG7CLFaXdI93B2Y1h/dARi6D0ni+WgAAICBH9c/MEN7fd8dgGm9JMRqGXdEU/CJZjLOD2quXHK6zh2B4Qmx+m9Jr3F3AAAANMh24o2FtuOSlGZb3x3QFAxCk+3uDsC0PuUOwPCEWFWSPu7uAAAAaKBPh1ht5Y7AwpSclkj6gLsD03qAO6ApGIQme4E7ANP6tTsAwxFidT9JP3R3AAAANNgPebWl1b7lDsC0nuwOaAoGoTsJsVpVEkt8M51dcrrMHYHFC7HaRNJx7g4AAICG217cOtZm/3IHYFovD5EjTCUGobvaxh2Aab3fHYDFq6+X/6u7AwAAoCUOrX+YhpYpOd0i6ZvuDkxrPXdAEzAITfRodwCm9RN3ABanXuEPk7SRuwUAAKBFvszTDK11qDsA07qPO6AJGIQm2tcdgGmd5Q7Aor1G0jPcEQAAAC2zm6Q93RFYkGPdAZgW/0yJQWipEKsVJe3k7sCUPl6f1I+WCrGKkj7i7gAAAGipn4ZYreaOwPyUnK6WdKK7A1PiMikxCN3Z5u4ATOtwdwAWLsRqM0m/cncAAAC03NvdAViQj7sDMKX1Q6xWd0e4MQjd4SHuAEzr7+4ALEz95N0f3R0AAAAd8PoQq3u7IzBvP3cHYFq9v1SKQegO+7gDMKWjS043uCOwYB+WtKk7AgAAoCMOD7Faxh2BeeEs1OZ6lDvAjUFIUv1J9UnuDkzp8+4ALEyI1ZMlvcrdAQAA0CH3Fd+3tEp9Fuqn3R2Y0n+5A9wYhAbu5g7AtH7tDsD8hVhtIekIdwcAAEAHHRFitao7AvPybXcApvSgEKvl3RFODEIDO7gDMK3z3AGYn/qT6m/dHQAAAB22vzsA8/I3dwCmtYk7wIlBaGA3dwCm9Cmum2+lt4hzgwAAAEbpPSFWvf5Gtk1KTtdIOtXdgSk9wB3gxCA08Gx3AKbEo5UtE2L1EHElKgAAwDh8xB2AeTnEHYApPd4d4NT7QSjEamVJd3d3YErHuQMwdyFWa0j6vbsDAACgJ/4rxGpHdwTmjOvnm+kFIVbuBpveD0KSNncHYEpn149Woj0+5g4AAADomS/1+ZvZljndHYApLSdpdXeEC4OQtJM7AFP6jDsAcxdi9RhJL3B3AAAA9MwDJD3SHYHZlZxuEU8JNdU93QEuDELS49wBmNJP3QGYmxCrtSQd6e4AAADoqRRixfd17fAVdwCmtIs7wKXXnzjqxyv3c3dgSie7AzBnH3IHAAAA9Ngakp7gjsCc/NYdgCn19r3LXg9CGnzyRPP8ueR0ozsCs6tvFXuRuwMAAKDnfhhitbw7ArM61x2AKT0xxGoZd4RD3weh3r4r2HCHuQMwuxCrlcStYgAAAE2xjzsAMys53S7pm+4OTGkdd4BD3wehnd0BmNKv3QGYk9e6AwAAALDUN0OsVnBHYFbfcQdgSvdyBzj0fRDa0x2AKXElY8OFWN1D0rvdHQAAAJhgb3cAZvUndwCm9GB3gENvB6H6QGkeq2yeP5ecbnJHYHr1Pzu81gcAANA8PCXUfBe4AzClXh7M3ttBSBwo3VRcxdh8j5UU3REAAACY0lPdAZhefY7Qt90dmGSPPh4s3edBaEt3AKaU3QGYXv0Tp1+4OwAAADCtw0OslnNHYEb/5w7AlNZ2B4xbnweh+7sDMKV/uwMwo+e6AwAAADCrx7oDMKNj3QGYUu8eGunzIMQrL81zasnpRncEphZitZakz7s7AAAAMKsv9/H1lxY5zx2AKe3kDhi3Pg9CnMDfPJwf1GxvdAcAAABgTjaQtIs7AlMrOd0mjspoose4A8atl4NQiNXKklZ3d2CSI90BmFqI1UaS/p+7AwAAAHP2YXcAZnS4OwCTPK2+Ubk3ejkISdrYHYApnegOwLTe5g4AAADAvDwkxOpe7ghM6xh3ACZZVtKq7ohx/xfuo+AOwCS3SrrKHYHJQqzuIenl7g4AAADM25vcAZjW6e4ATGlTd8A49XUQ4n3a5jms5ORuwNQOcgcAAABgQZ4fYrWuOwKT1ZfpnOvuwCTbuQPGqa+D0B7uAEzyU3cAJgux2lTS89wdAAAAWLBnuwMwra+7AzDJQ9wB49S7QSjEallJO7s7MMnf3AGYEo8ZAwAAtNvHQ6yWd0dgSlyq0zy9enikd4OQpDXdAZjS+e4ATBRitaGkV7g7AAAAsGjRHYAp/dMdgEnuXz9E0gu9+S96J5u7AzDJcSWnW9wRmIQxCAAAoBve4w7AlC5xB2BKa7kDxqWPg9AO7gBM8h13ACYKsVpNXDUPAADQFTuHWN3dHYGJSk63i9fGmqg3D5H0cRDihrHmOcYdgEme5g4AAADAUL3QHYApcdVy82zvDhiXPg5Cu7sDMMlJ7gDcIcRqOUmHuTsAAAAwVG8PsVrBHYFJ/uAOwCS9eYikV4NQfTjUvd0dmOQydwAm6M0nQAAAgJ55mDsAk5zmDsAkj3UHjEuvBiH16HCoFvlN/e4smuOd7gAAAACMxJvcAZjkSncAJtmuLzeN9eK/5J1s5g7AJD90B+AOIVYbS3q0uwMAAAAj8dgQq/XcEbhDyWmJOEeoidZ0B4xD3wYhXhdrnj+6AzDB890BAAAAGKknuQMwyc/cAZhkU3fAOPRtEHqAOwCTnOoOwEB9mPS73R0AAAAYqfeEWLkbMNGf3QGYZGt3wDj0bRB6hDsAk1zuDsBS93cHAAAAYOQ2krS5OwITnO4OwCS9+N6oN4NQvYJzqn6zHFdyus0dgaUOcAcAAABgLP7LHYAJrnAHYJKHuwPGoTeDkKRV3AGYhMPTGiLEajVJz3J3AAAAYCw+EGK1jDsCA/Wty793d2CC2IdXK/s0CN3NHYBJfucOwFI8PQcAANAv93QHYIIfuwMwycrugFHr0yDEe7LNc7I7AEvt7w4AAADAWO3jDsAEx7oDMMm67oBR69MgxJXzzXOROwBLXxd7vLsDAAAAY/U+XhtrlFPcAZhkM3fAqPVpEOLK+Wa5WdKN7ghIknZ1BwAAAMCCtyiagx+WN0/nr57v0yDEGSnNckTJnCndEC90BwAAAMCCp8QbouR0k6Qb3B2Y4H7ugFHrxSBUPwp5X3cHJvi1OwBSiNUKkp7m7gAAAIDF/7gDMMEP3AGY4KHugFHrxSAkrpxvouPcAZAkbe8OAAAAgM3mIVbruyOw1G/cAZjgoV2/er4vg9A67gBMcqY7AJKkvd0BAAAAsOJojeY43h2ASVZ0B4xSXwahjd0BmORyd0Df1Wv3ge4OAAAAWD3fHYClznQHYJK13AGj1JdB6J7uAExwXcnpZncEtK6k1dwRAAAAsHpyfa4k/C51B2CSDd0Bo9SXQYhzUprlp+4ASJIe4A4AAABAI2zrDoBU/9D8JncHJriHO2CU+jII7eQOwAS/dQdAEucHAQAAYGAPdwCW+ok7ABN0eiztyyDEQWnN8g93QN/V5we9zN0BAACARni5OwBL/c4dgAnu7w4Ypc4PQiFWy4pbxprmTHcA+GcCAAAAS90zxGp1dwQkSf90B2CCTr9t1PlBSNIq7gBMcok7ANrOHQAAAIBG2dEdAEnSGe4ATLBt/XZFJ/VhEFrbHYBJrncHQNEdAAAAgEbhHKFmuMgdgElWcgeMSh8GoU5fE9dC/yw5LXFHQPu6AwAAANAoL3QHQJJ0rTsAk6zhDhiVPgxCnb4mroWOdgf0XYjV8pK2d3cAAACgUTYLsVrNHdF3JafbJZ3u7sAE67sDRqUPg9C93AGY4Dh3ALr7CQ0AAACLso07AJL4IXrTbOoOGJU+DELbugMwwSnuAPAHPQAAAKa0qzsAkqS/uwMwQWffOurDIMRp+c1yrjsAerA7AAAAAI20tzsAkqST3AGYoLNvHXV6EKqvh9vZ3YEJLnUHQI91BwAAAKCRHhlitZw7AjrLHYAJOnv+aqcHIUnLSVrGHYEJrnMH9Fk9kjIIAQAAYDrc0ux3sTsAE9zfHTAqXR+EVnEHYIKL6lPz4bOSOwAAAACNtp07ALraHYAJNg+x6uSDJl0fhNZ0B2CCP7gDoPXcAQAAAGg0Dpb2u1XSEncEJljBHTAKXR+E1nUHYILj3QHQ5u4AAAAANNqT3QF9V3KS+GF606zqDhiFrg9CG7gDMAGn5ftt5Q4AAABAo92fg6Ub4Th3ACbo5NtHXR+ENnUHYIIz3QHQvd0BAAAAaLx13AFQcQdggk4evdH1QWgLdwAmuMAdAN3HHQAAAIDG28IdAP3bHYAJNnIHjELXB6Gt3QGY4HJ3APRAdwAAAAAa737uAOhcdwAm2MwdMApdH4R4PaZZrncH9Fl9VeIm7g4AAAA03iPcAdCl7gBMsIU7YBS6Pght6w7ABLe6A3quk1clAgAAYOh2cwdA17gDMMEW7oBR6OwgVD8N0cmTwFuq1NcnwmcVdwAAAABaYWNuGrO7yR2ACTp5HE1nByFJy7sDMME/3QHQ6u4AAAAAtMZa7oA+KzndLuladweW6uTbR10ehFZ2B2CCE90B4A91AAAAzBlnT/od5w7AUmu4A0ahy4MQT0M0y+nuAGg9dwAAAABaY0t3APQvdwC6rcuDEOcHNct57gB0c9UGAADASGznDgA/VMdodXkQWtsdgAkucQeAkRQAAABz9gB3AHSOOwDd1uVBaF13ACa4wh0AzhACAADAnD3MHQBd4A5At3V5ENrAHYAJrnEHQOu4AwAAANAam4VYLeOO6DnessBIdXkQ2sgdgAlucAeAQQgAAADzsqI7oOeudAeg27o8CG3qDsAEt7oDoJXdAQAAAGgVLiXx4i0LjFSXB6FN3AFY6sqS0xJ3BLSCOwAAAACtsp47oOducgeg27o8CPGEUHOc6g6AJB75BQAAwPys7w7oOd6ywEh1eRC6uzsAS53hDoAkBiEAAADMD+eyGtVvWdzo7kB3dXIQCrGSeEKoSc52B0ASgxAAAADmZzN3AHjbAqPTyUFIEtcjNsu57gBIkm5zBwAAAKBVtnAHQKe7A9BdXR2ElncHYIIL3QGQxOOmAAAAmJ/N3QHQWe4AdBeDEMbhMncAJHFLAQAAAOaHc1n9+OE6RqargxBnpTTLVe4ASGIQAgAAwPxs4Q6ALnEHoLsYhDAOV7sDIIlBCAAAAPNzt/rCHvjwtgVGpquD0MruAExwnTsAkqRr3QEAAABona5+z9gWV7gD0F1d/Yd7VXcAJrjeHQBJ/GECAACA+evq94xtwfEbGJmu/sO9mjsAE/CqUjNc6Q4AAABA63Bhj9c17gB0V1cHIZ4QapZb3AGQxE8XAAAAMH8ruAN6jrctMDIMQhiH29wBkMTh3gAAAJg/nhDy4m0LjExXByFeGWuW290BkMSh0gAAAJg/BiGvm90B6K6uDkKruwMwwRJ3ACRxqDQAAADmj0HIi+M3MDIMQhi1i0tO7gYMcCAdAAAA5otByOtWdwC6q6uD0BruACx1oTsAS3EgHQAAAOaLQciL4zcwMl0dhHhCqDl4Tak5OJAOAAAA87WMO6DnGIQwMl0dhLhlrDm46rw5uO0NAAAA88UgBHRUVwchbhlrDq46b4j6LKd/uzsAAAAAzE39NfyV7g50E4MQRo1BqFn+6g4AAABAq/CEkB/HcGAkujoIcYZQczAINcu/3AEAAABoFY4d8LvSHYBuYhDCqF3rDsAEp7oDAAAA0CoMQn5XugPQTV0dhFZxB2CpG9wBmOAsdwAAAABahVuu/K5zB6CbujoIrewOwFJcdd4sF7oDAAAA0Co8IeR3ozsA3cQghFFjEGqWS90BAAAAaJVb3AHgrQuMBoMQRu1mdwAm4HFTAAAAzAeDkB9PCGEkGIQwajwh1CAlp9vFwdIAAACYu1vdAeAJIYwGgxBGjSeEmudodwAAAABag0HIjyeEMBJdHYRWcAdgKQ6ha56/uAMAAADQGnw978coh5Ho6iDU1f9ebcQ1lc1zgjsAAAAArcEg5Mf3VBiJrg4ny7kDsBSfvJqHM4QAAAAwV0vcAWCUw2gwCGHUGISa5xJ3AAAAAFrhvJKTuwEMQhgRBiGMGoNQw5ScbpV0hrsDAAAAjXeeOwCS+J4KI8IghFHjk1cz/dAdAAAAgMa7wB0ASXxPhRHp6iDEe67NsYw7AFM6xh0AAACAxrvQHQBgdLo6CPGOZXMwCDXT8e4AAAAANB5nTzZDV79vh1lXf2PxSF1zdPX3WNud6w4AAABA413qDoAkvqfCiHT1NxZPCDUHTwg1UMnpBkmXuzsAAADQaJe5AyCpu9+3w6yrv7EYhJqjq7/HuuBb7gAAAAA0Gk8INQPfU2Ekuvobi0GoObjxrbmOdAcAAACg0RiEmmF5dwC6qauD0M3uACy1gjsA0/qHOwAAAACNdqU7AJKkldwB6KauDkI3ugOwFINQc3GwNAAAAGZyjTsAkhiEMCIMQhi1Fd0BmFrJ6WZJxd0BAACAxrrOHQBJfE+FEWEQwqjxyavZvukOAAAAQGPd5A6AJGlldwC6qauDEJ+4moNBqNmyOwAAAACNdYs7AJKkVdwB6KauDkI8IdQcq7oDMKMT3QEAAABopLNKTu4GDKzuDkA3dXUQut4dgKVWcwdgRle4AwAAANBI/3QHYKk13AHopq4OQte6A7AUg1CD1T/1+Zy7AwAAAI1zkjsASzEIYSS6OghxGn5zMAg13w/cAQAAAGicf7sDsNSa7gB0U1cHIZ4Qag7ed22+v7kDAAAA0DinuwOw1NruAHRTVwchzhBqjnXcAZjVRe4AAAAANM657gBIIVYS31NhRLo6CPHKWHOs5w7AzEpOSyR93d0BAACARrnEHQBJ0jLuAHRXVwchXhlrDgahdjjcHQAAAIBGudodAEkMQhihrg5C17gDsNT67gDMyZ/cAQAAAGiUm9wBkNTd79nRAF39zcUTQs2xXv3eK5rtYncAAAAAGuP4kpO7AQPLuwPQXQxCGAcec2y4+g/8Q9wdAAAAaITfugOw1AruAHRXVwchDpVulq7+Puua77kDAAAA0Ah/cwdgqZXcAeiurn6jzrXzzcJjju3wV3cAAAAAGuEkdwCWWtkdgO5iEMI48JhjC5Scrpb0b3cHAAAA7M52B2CpVd0B6K6uDkK8MtYsPObYHp9wBwAAAMDuMncAllrdHYDu6uogdIM7ABOs4g7AnP3MHQAAAAA73rhojrXcAeiurg5CN7oDMMEa7gDMGa+MAQAA9NsvuXK+UdZ1B6C7ujoI3ewOwASs2i1RcrpN0pfcHQAAALDJ7gBMsL47AN3FIIRxWNsdgHn5sjsAAAAANtw82ywbuAPQXV0dhG51B2ACVu12+bM7AAAAADanugMwwcbuAHRXVweh29wBmIBVu0VKTtdJ+r27AwAAABYXuAMwwT3cAeiuTg5CJaclkpa4O7DU3d0BmLdD3AEAAAAYu2tLTlzQ0yz3dAeguzo5CNXOcgdgKVbt9jnSHQAAAICx+447AJNs4w5Ad3V5EDrXHYCltnIHYH5KTpdIOt3dAQAAgLH6lTsAdwixWkbd/p4dZl3+zXWeOwBLsWq303vcAQAAABir49wBmGAFdwC6jUEI47ByvW6jXX7iDgAAAMBYnekOwASruAPQbV0ehM53B2AC1u32uUDSJe4IAAAAjMXNkq51R2CCNdwB6LYuD0IXugMwwaruAMxPyUmS3uruAAAAwFh8pf76D82xtjsA3dblQYgnG5qFdbudfuAOAAAAwFj8zB2ASe7mDkC3dXkQutwdgAnWdQdg/kpOF0o6zd0BAACAkfubOwCTbOwOQLd1eRC6yh2ACTZwB2DB3uEOAAAAwMid6w7AJFu6A9BtXR6ErnYHYILN3QFYsJ+6AwAAADBSfyo53eKOwCTbuAPQbV0ehK5zB2CCrdwBWJiS02WSfuvuAAAAwMh83R2AKQV3ALqty4PQje4ATLCtOwCLcrA7AAAAACPza3cApnRfdwCWutQdMApdHoRucwdggvu4A7Aov3EHAAAAYGS4RKRhQqyWk7S8uwNLnewOGIXODkIlpyXi6vkm2SrEyt2ABSo53Sjpc+4OAAAADN0pJacb3BGYZGV3ACbo5Gja2UGo1skVr8VWdAdgUT7tDgAAAMDQ/a87AFNa2x2ACc50B4wCgxDGaXV3ABbleHcAAAAAhu7n7gBM6W7uAExwljtgFLo+CHXysa4WW88dgIWrX8N8mbsDAAAAQ3WqOwBT2swdgAnOdQeMQtcHoU6ueC22sTsAi/YddwAAAACG5jclp5vdEZjSVu4ATHCRO2AUuj4InecOwARbuAOwOCWnyyT9yN0BAACAoTjMHYBp7egOwASXuwNGoeuDELeMNUtwB2Ao3uMOAAAAwFAc5Q7AtB7oDsAEV7sDRqHrg9AV7gBMsJM7AEPxJ3cAAAAAhoI3KhooxEqS7uPuwAQ3uANGoeuDUCdXvBZ7mDsAi1dyul3Si90dAAAAWJQP1JeGoHlWdAdgklvcAaPQ9UHoRncAJlg5xGp5dwSG4v/cAQAAAFgULgtprrXcAZjglJKTu2EkOj0I1U8yXO/uwASruQOweCWnqyR90d0BAACABfunOwDT2sgdgAn+4Q4YlU4PQrW/uQMwwQbuAAzNB90BAAAAWJAjSk68TdFcW7oDMMEJ7oBR6cMgxPLdLFu4AzAcJaeTJR3v7gAAAMC8fcYdgBlxO3OznOYOGJU+DEInuwMwwXbuAAzV/u4AAAAAzNsf3AGY0c7uAExwjjtgVPowCHV2zWsprp7vlmPcAQAAAJiX35acrnFHYEaPdAdggvPdAaPSh0Gos2teSz3cHYDhKTndJul57g4AAADM2UfdAZhefSvzeu4OTHCpO2BU+jAIXewOwARbhlj14fddn3AFPQAAQHsc5Q7AjNZ0B2CSa90Bo9KHb8yvcgdgkjXcARiektP1kt7o7gAAAMCscsmJ74+abWN3ACa5xR0wKn0YhLhOsXk2cgdg6D7vDgAAAMCsPugOwKzu5Q7ABH8vObkbRqbzg1DJaYmk89wdmIBPch1TcrpC0kfcHQAAAJjR0e4AzOr+7gBM8Fd3wCh1fhCq/d4dgAnu6w7ASHzYHQAAAIBpfbfkdJ07ArPihrFm+Yc7YJT6Mggd5w7ABNw01kElp/PFq2MAAABNxQ/vGi7ESpIe5e7ABCe7A0apL4PQie4ATLBn/ckO3fMudwAAAACm9Gd3AGa1ijsAk5ztDhilvgxCZ7gDMAmf7Dqo5HSOpC+7OwAAADDBO0pOt7ojMKsN3AGY5GJ3wCj1ZRC60B2ASfhk111vdwcAAABgAn5g1w5buwMwyTXugFHqyyB0pTsAk2zlDsBolJzOkvQldwcAAAAkDd6W4I2JdtjJHYAJbpd0iztilPoyCN3kDsAkfLLrtre6AwAAACBJOrDk5G7A3DzaHYAJftX1f3Z6MQjVfxP/4O7ABLu5AzA6JadzJX3S3QEAAAD93B2A2dWX7uzu7sAEf3QHjFovBqHa790BmGB3bhrrvIPdAQAAAD334ZLTDe4IzMlq7gBMcrw7YNT6NAj93R2ASVZ3B2B0Sk4Xi1EIAADA6dPuAMzZJu4ATHKaO2DU+jQIneIOwCSbugMwch90BwAAAPTUcSWn090RmLMd3AGY5Dx3wKj1aRA61x2ASfik13Elp6slvczdAQAA0EMHugMwL7u6AzDJle6AUevTIHSZOwCTPMIdgLE4zB0AAADQQ8e4AzAvHLDaLLeUnG52R4xanwYhrp5vnqe6AzB69SfSJ7s7AAAAeuTFJafb3BGYmxCr5SVt7e7ABL9wB4xDbwah+ur5XvxNbZG7h1it4I7AWCRJp7ojAAAAeuJwdwDm5W7uAEzyO3fAOPRmEKr14m9qy2zoDsDolZyWSNrH3QEAANAD7y45XeOOwLxs6w7AJP9wB4xD3wah49wBmGQ7dwDGo+R0vKSvuDsAAAA67pPuAMzbw9wBmKTzV85L/RuEuHq+eR7pDsBYvd4dAAAA0GGHlpwuckdg3jhQunkucAeMQ98GoV78TW2ZvdwBGJ+S08WSXu3uAAAA6Kh3uwMwPyFWy0l6kLsDk1zrDhiHvg1CvEvbPNtxsHTvfFZS569wBAAAGLMflZxOd0dg3jhQunn+Up+B2nm9GoTqv6l/dXdgEg6W7pGS063iVUEAAIBh49X8dtreHYBJjnIHjEuvBqFab/7mtsiO7gCMV8npj5K+6e4AAADoiJ+WnE5yR2BB+EFp8xzrDhiXPg5Cvfmb2yKPdQfAYn93AAAAQEe81h2ABdvHHYBJejOu9nEQOsEdgEn2dQdg/EpOl0h6lrsDAACg5X5RcjrRHYH5q89S5ZWx5jnXHTAufRyEevM3t0U2DLFaxR0Bi29K+rs7AgAAoMW4wbW9NnUHYEq9uYyqj4NQL66Pa6F7uAMwfvVB73u7OwAAAFrq6yWnU9wRWLCd3AGY5Ld9uWFM6uEgVP/Nze4OTLKLOwAe9fWoB7o7AAAAWuh/3AFYlCe4AzDJL9wB49S7Qah2pDsAkzzVHQCrT0g6xx0BAADQIh8rOXEcRkuFWEnS890dmKRXl1D1dRDq1d/klnhSiFVffz/2XsnpNkm7uTsAAABa5N3uACzKWu4ATOlkd8A49fUb8N5cI9cyd3MHwKd+/51XxwAAAGa3f8npUncEFoXbxZrpAnfAOPV1ELrYHYAp3ccdALtPSDrDHQEAANBw/+sOwKI9xh2ASa4sOd3kjhinXg5CJaebJZ3v7sAkj3cHwKt+dYw/HAEAAKZX9e2b1o7azx2ASb7nDhi3Xg5CtSPcAZjkpfXhauixktMZkp7j7gAAAGigUyT92B2BxQmxWlnSNu4OTNK728j7PAj9xh2ASVYRh6th4Kvq2ZWPAAAAc7BXyWmJOwKLtpU7AFP6uztg3Po8CP3DHYApcbgaVHKSpGe5OwAAABrk4yWn4o7AUDzKHYApneUOGLc+D0LnuAMwpd3dAWiG+uaMR7o7AAAAGuJt7gAMzbPdAZjSNe6AcevtIFRyul7Sje4OTPISdwCao+R0tKR3uDsAAADMnl5yutodgcULsVpR0i7uDkzy3fothV7p7SBU+6Y7AJNsEmK1hjsCjfIuDQ5QBAAA6KO/S/qOOwJDs4U7AFP6mTvAoe+D0JHuAEwpuAPQHFxFDwAAem5vDpLulOgOwJT+7A5w6Psg9Dd3AKb0OHcAmqXkdK6k3dwdAAAAY/baktPp7ggM1fPcAZjSGe4Ah74PQme7AzCll7kD0Dwlp6MkvcXdAQAAMCZXS/qEOwLDE2K1kjg/qKl6eUZXrweh+mDpq9wdmGSDEKu13BFopPdK+r07AgAAYAweWXK61R2BobqXOwBT+mYfD5SWej4I1b7uDsCU7ucOQPOUnG6XVLk7AAAARuxtJae/uyMwdI91B2BKP3EHuDAISb9wB2BKe7kD0Ewlp8sl7ejuAAAAGJErJL3PHYGReLk7AFP6izvAhUFI+oc7AFP67xB5EARTKzn9S9Le7g4AAIAR2LXkdIs7AsMVYrW6pG3cHZjSWe4AFwYh6Tx3AKa1oTsAzVVy+p6kd7s7AAAAhuh1JacT3BEYifu4AzCly0pON7gjXHo/CNXr+z/dHZjSw9wBaLy3Sfq5OwIAAGAI/i7po+4IjMxT3AGY0lfcAU69H4Rq33IHYErPdQeg2epDpveWdKW7BQAAYJGeUH9tg46pj8J4vbsDU+r1D5cZhAayOwBTelKI1QruCDRbyek6STu4OwAAABahKjmd747AyGzkDsC0jncHODEIDZzkDsC0tnYHoPlKTudJ2tndAQAAsACfKzn9yB2BkXq4OwDTusgd4MQgNHCFOwDTerw7AO1QcvqrpCe4OwAAAObhKkn7uyMwci90B2BKv+z7a5oMQpJKTpL0VXcHpvRadwDao+T0E0kvcXcAAADM0QNKTje6IzA6IVYrStrD3YEpfdcd4MYgdIcfuAMwpY1CrNZzR6A9Sk6fl3SwuwMAAGAWTy45ne6OwMgFdwCmdYw7wI1B6A5/dgdgWg91B6B13ibpy+4IAACAaXyk5PRDdwTGYh93AKbV+0GWQegO57kDMK0XuAPQLiWnJRq8q93rayQBAEAjHS/pje4IjF593fyb3B2Y0qm8rskgtFTJ6TZJv3J3YEpPqd+9Beas/mf6KZL+6W4BAAC4k8eUnG51R2AsNnUHYFpfcQc0AYPQRIe7AzCtHdwBaJ969X+YpMvdLQAAAJLuV3K61B2BsdnNHYBpHekOaAIGoYmOdgdgWv/lDkA7lZyukbSNpFvcLQAAoNf+q+T0D3cExuoAdwCmdYI7oAkYhCY6wx2Aab0hxGoZdwTaqeR0maTN3B0AAKC3Dio5fdsdgfEJsVpL0v3cHZjSVSWnq90RTcAgdCclp5sk/cXdgWndwx2A9io5XSze4wYAAOP3f5Le6Y7A2D3EHYBpfdYd0BQMQpNxuFRzPdEdgHYrOZ0vhkUAADA+/5a0X30DKvrlxe4ATOsn7oCmYBCaLLsDMK23uAPQfiWnsyVt7u4AAAC9sEv9FgJ6JMRqJUl7uTswrePdAU3BIDTZae4ATGvDEKsN3RFov5LTOZLu7u4AAACddi9uFOutB7gDMK2bJF3pjmgKBqG7qK+pPs7dgWnt7g5AN5SczhUHTQMAgNHYqeT0b3cEbJ7vDsC0Pllycjc0BoPQ1L7oDsC0XusOQHeUnM6TtJG4kh4AAAzPY0tOf3NHwCPEanlxflCT/dAd0CQMQlP7lTsA07pviNW67gh0R8npIg1GoYvcLQAAoPX2LTkd6Y6AVXAHYEacH3QnDEJT4/HOZnuMOwDdUnK6XNLWkk50twAAgNZ6Scnpm+4I2D3XHYBpXVJyusod0SQMQlMoOd0s6Wh3B6b1OncAuqfkdI2knSTxUz0AADBfB5acPu+OgFeI1XKSXuPuwLQ+7Q5oGgah6X3JHYBpPSjEam13BLqn5HSDpD3FP/8AAGDu3lZy+qg7Ao3A62LN9mN3QNMwCE0vuwMwo+gOQDeVnG6T9AJJ73G3AACAxnuvpHe5I9AYz3EHYEbFHdA0DELTO9sdgBn9jzsA3VVyWlJyerOkV7pbAABAY71H0pu4whrS0tfFuBG5uf5ecrreHdE0DELTKDndLunr7g5M60HcNoZRKzl9WlLl7gAAAI1zsKQ3MwbhTu7jDsCMPucOaCIGoZlxS0Cz7eEOQPeVnH4kaWd3BwAAaIx3SnorYxDu4kXuAMyIi2OmwCA0sz+5AzCjt7gD0A8lp79K2kLSre4WAABg9SZJb2cMwp2FWK0g6RXuDszoDHdAEzEIzexSSde5IzCt7UOsNnRHoB9KTmdJWlccOA8AQF+9suT0XsYgTGEndwBm9J2SEz/YnQKD0AzqT/YfcndgRk92B6A/Sk7XSNpN0gfcLQAAYKz2q88WBKbyancAZvRld0BTLeMOaLoQq/tL+pu7A9O6UtI6/KQG4xZitZ+kr7g7AADAyD215HSEOwLNFGK1qnirpOnuVnK61B3RRDwhNLsT3AGY0dqStnRHoH9KTl8Vh00DANB1D2cMwiwe6Q7AjK7U4CgYTIFBaBYlp5skHeXuwIz2dQegn+rDpjeQVNwtAABg6ELJ6bfuCDTe/7gDMKMP8zbJ9BiE5ubz7gDM6OAQK34vw6LkdImk+0n6uLsFAAAMxU2SNi058aYAZhRitZ6kR7g7MKMfugOajG+i5+Y37gDM6n7uAPRXyenWktMBkvZytwAAgEX5o6QNS07nu0PQCk9yB2BWJ7oDmoxBaG4ulHSDOwIz4mR/2JWcvi9pa0nXu1sAAMC8fVqDM4Oucoeg+UKsJG6kbrrvlZxucUc0GYPQHNTvHL7X3YEZPa8+4R+wKjmdJml9SV9ytwAAgDl7ZcnplSWnW90haI2tJK3rjsCMDnUHNB2D0Nwd4Q7ArB7tDgAkqeR0Q8np+ZL2cbcAAIBZ7VFy+rQ7Aq3zfHcAZvV7d0DTMQjN3UnuAMzqXe4A4M5KTt+VtKWkc9wtAABgkiWSti45/cIdgnYJsVpB0pvdHZjR2SWnK9wRTccgNEf1u4ffcndgRvcLsdrUHQHcWcnpTA0eKX63uwUAACz1Y0lr1q96A/P1UHcAZvVBd0AbMAjNzxfdAZjVs9wBwF2VnG4pOb1FfPEAAEATvFFSVXK61h2C1nqLOwCz+rE7oA2WcQe0SYjVGpKudndgVsuXnG5zRwBTqT+PfErSfu4WAAB66NElp+yOQHuFWK0v6RJ3B2a1bMlpiTui6XhCaB5KTtdI+rO7A7N6oDsAmE7J6ZqS03MkVe4WAAB6pEjamDEIQ8ClIc33fsaguWEQmr+PuwMwqze5A4DZlJx+JGk9Sd9ztwAA0HEHS7pvyelCdwjaLcRqWUmfcXdgVoe7A9qCQWj+jnIHYFZViNV67ghgNiWny0tOe0t6krsFAICO2q3k9FaOE8CQ3N8dgDn5lzugLRiE5qn+ycLF7g7M6unuAGCuSk5Jg6eFvuluAQCgI7Kku5Wc+GEuhumN7gDM6qv1DeGYAwahhTnYHYBZfbp+pBNohfppoX0lRXcLAAAt9xJJjyk5XeoOQXeEWK0t6WnuDsyKm8HngW+YF+aH7gDMyU7uAGC+Sk6/lrSapA+6WwAAaJnLJG1Xcvo8B8piBHgDoR2OdQe0CYPQwpztDsCcvNUdACxEyen6ktMbJO0g6Qx3DwAALfBmDW4RO8kdgu6p3zz4X3cHZvXTktMN7og2YRBagPonDm9zd2BWVYjV3dwRwEKVnIqke0naz90CAEBD3aDBDWLv4dwQjNAD3QGYk0+5A9qGQWjhvu0OwJzwjTRareR0e8npaxocOs070QAA3OGdktYuOR3vDkHn8TBAOxzjDmibZdwBbVU/Nsj1le2wQsnpVncEMAwhVveR9F0NnhwCAKCPzpW0R8npBHcIui/EakNJF7o7MKujS06PdEe0DU8ILVDJ6XZJ73J3YE4e5Q4AhqX+Keg2kvZ2twAAYPBySVswBmGMXugOwJx8xB3QRgxCi/NNdwDm5MPuAGCYSk5LSk7f0+A2sje5ewAAGIMs6e4lp8+WnHhKH2MRYrWSpHe7OzAnv3YHtBGvjC0Cr421ytYlp9PcEW1V/15fXtKK9a/SHZ8/bpJ0s6TbuOLVI8RqI0nvk/RcdwsAACOwu6RflpzcHeiZEKtK0g/dHZjVH0pOD3VHtBGD0CKFWL1b/IS+DT5dcnqlO6LpQqxWl7SZpPtI2rn+2FXSCnP8P3GbBj/B+5Ok4yX9u/64ki/iRi/EansNDp7exd0CAMAQvFXSh0pON7pD0D8hVpJ0lqTN3S2Y1V4lp++7I9qIQWiRQqy2k8Q7zO2wdsnpKndEk4RYrSApSNpL0oslbTTC/3fflPRjSX+QdGZ9DhdGIMTqIZIOl3R3dwsAAAtwlKQXlZzOdIegv0KsdtTgB5xoPr7PWyAGoUUKsVpGEt/YtsMrS06fdkc0QYjV2pIOluR8auoTGoxE/yg53eD+a9I19eemPST91N0CAMAcXSdpz5LTb90hQIjV/0nax92BWf265BT/f3v3HS5rVR5s/KYKKL2JIIhBQJe9RbGxYkN0oWgURQV7i7189kTRaOzYwIotmlhRX8XuQkWxAAq6QIkFLIhSBEQEpHx/zJiAcg5n7z0zz7zv3L/rOhcieM69PbDnnWdWiY7oKwdCE5ByeTFwUHSH1sjCX0GfcrkDMG8PWh9idDPA9105NFkpl3WAfYBPRLdIkrQaDwf+ywOjNQ+8ar5X7tNq99noiL7ylrHJ8Lax/rhrdECklMv2zN8wCGB/4Bjg0pTLM1Mu20UHDUWr3aXjPdXrAftF90iS9Df+Ddik1e4/HQZpjjw+OkBr7GvRAX3mCqEJcNtYr/wM2GVRDzhOuXwO2Cu6Yw19EnhBq91J0SFDMj436gE4yJYkxToUeEmr3e+jQ6QrSrlsxGj7oubfEa12946O6DMHQhOScnkGoy0vmn83b7U7Pjpi1lIuOwGnRHcswzeBpwHHLuogbxpSLusCBbeSSZJm65PAM1vtfhEdIl2VlMvDgfdHd2iN3LXV7qvREX3mlrHJ+Wh0gNbYy6MDgtwgOmCZ7sBoO9nJKZd/jI4Zila7S8ZbydYF7g2cFd0kSRq0LwI3arXb12GQ5tX47EWHQf3xreiAvnMgNCGtdr8GfhXdoTVyn5TLIl7H3ffDtG8AfDvl8pmUy47RMUMxPmPoCGBrRsO346KbJEmD8hXgxq1293QbuHpgz+gArbHDWu0ujI7ou3WiA4Zkm513OwvYN7pDa2StM045+QvREbN0xiknn7LNzrvdBdg5umWFdgWesc3Ou627zc67fe+MU06+ODpoCM445WTOOOXkX51xysnv2Gbn3T4GbA/sHt0lSeqtrwL7tNq99oxTTj4jOka6OikXgM8DW0a3aI087oxTTj4tOqLvPENoglIuWwJnRndojW3RaveH6IhZSrnsDPw8umPCHgp8yPOFJi/lch3gycDzo1skSb3xEeDFrXYnR4dIS5FyuTnw/egOrbH1Wu36vgMinFvGJqjV7ixGB+CqHx4bHTBr4z37r4jumLAPAl9NuVw7OmRoWu1Oa7V7AbAx8OjoHknSXDsU2LHVbj+HQeqp10QHaI39u8OgyXCF0ISlXPYCPhfdoTV2zVa7C6IjZinlci3gj9EdU/JA4GOuFpqO8UGLewCvZHTekCRJLwLe0WrntjD1VsrlH4CfRndojd2g1c7frwlwhdDkfS06QEuyX3TArLXanT/gr/ujwBEpl62jQ4ZofAD1N1rt7gjsBLwqukmSFOahwEatdv/uMEgD8KLoAK2x83B4NzGuEJqClMu7gUdFd2iNrd9q95foiFlKuawNnAIM+ba1e7TafSk6YuhSLhsC9wReT/8PLJckrd73gGcDR7XaXRYdI01CymU7wMOJ++NxrXbvjI4YClcITcdbogO0JCU6YNbGD3H3je6Ysi+mXJ6fcnHwPUWtdn9utfskcH3gBsDB0U2SpIl7DbBzq91tW+2+7jBIA/Oc6AAtySejA4bEN0pTMF59cWl0h5ZknUV8uEm5vBx4YXTHlH0FeECr3bnRIYtivGooAwcBt4rukSQtyznAE4Bu0c5b1OLwluje+eb46AJNiCuEpmA8WPh/0R1akntEB0RotXsRcGB0x5TdFTgn5ZKiQxbFeNXQEa12twa2x0/eJKlP3gYkYPNWuw87DNLAPTk6QEtyUHTA0LhCaEpSLtsDv47u0Bo7G9iq1e7y6JAIKZc7sxgHou/XaveR6IhFNF45eRPg8cATo3skSVfyM0bD+y84ANKiSLlsymglnPpjg1a7i6IjhsSB0BSlXI4HbhrdoTX2T612NToiSsrlBsDJ0R0z8P+A13g1fZyUyzUYXVv/HGCv6B5JWmAvAv6z1e7U6BBp1sWnakMAAEULSURBVFIuzwX+I7pDa+yNrXZPj44YGgdCU5Ry2Qf4VHSH1thvgOsu6ioh+N991EcBu0e3TNnBwLMW8dyoeZNy2ZjReUP/j9GQSJI0Xe8G3goc7+ugFtX4+eO86A4tyQ1b7X4cHTE0DoSmKOWyEfCn6A4tyV1a7b4eHREp5bI+8F7gIdEtU/ZxYP9Wu4ujQzSSctkcuDujlUO3ju6RpAH5DPBGRgey/jk6RoqWcnkG8ProDq2xPwHXcoX/5DkQmrKUy6GMbmhQP5zC6FrV6I5Q46vaXwC8PLplyo4FcqvdH6NDdGUpl82APYFnAneK7pGkHvoSoze832i18wNKaSzlci3AZ79+eWSr3XujI4bIgdCUpVxuBLToDi3JnVrtjoqOmAcplwcBH47umLI/ALu32v0+OkRXLeWyCXB74HHA/aN7JGmOfRY4hNEQyDe80lVwdVAvbd5qd050xBA5EJqylAvAucAm0S1aY6cyWiW0sGcJXVHKZRvgHcB9o1umbLtWu9OjI7R64wOpbwo8DHhqdI8kzYH3AIcBx7odTFo9zw7qpY+22j0oOmKoHAjNQMrlAOB90R1aktxqd2R0xDxJuewFfC66Y8q2abU7IzpCa2Z8lf31GN1U9nTgBtFNkjQDFzK6Gelw4KRWu79EB0l9kXJ5NvCa6A4tyW1a7Y6JjhgqB0IzkHLZFDgnukNLcjpwHVcJXdn4U5VXM9xzsS5gdNPc2dEhWrrx99p/BPYHDozukaQJOhJ4G/A14PRFP+tQWo7xFvRzozu0ZOt4I+L0OBCakZTLBxm9SVF/3K3V7ivREfMo5XI74Ojojik5E9il1c4Hhh4brx7aCfgn4PHAbaKbJGkJzgDezOh2sJNa7S6MDpL6LuXyQoZ/YcrQPKXV7i3REUPmQGhGUi43A34Q3aElOR/Y1In0VRuf5fJ84N+iW6bgl8CNPZBzOFIuGwK7Mdpe9gRGwyJJmidvBz7K6Cygc6JjpCFJuWwBnBXdoSXbqtXO37cpciA0I+NrvP8EbBjdoiW5b6vdp6Mj5lnKZWdGh1nuGd0yYT8GbtVqd0F0iCZvfOXsTRgNiB4DXCe6SdLCORT4FHAccKbb1KXpSbn8B/Dc6A4tySdb7faNjhg6B0Iz5OHSvbVeq90l0RHzLuWSga9Gd0zYd4A7+vs/fOMB0e7A3YFHALtGN0kalNOA9wNfAo4HzvIcIGk2Ui7bMjofVP3iYdIz4EBohjzIrLce2mr3oeiIPki5rA+8kWEdOv1O4HE+uC+W8ZbInYHbA/8M7B3dJKlXvgR8DPgm8HOvg5fipFzexug8QfWLh0nPgAOhGUu5vAt4dHSHlmxDD3RccymXRwDvie6YoGe12r0+OkJxxodUbwPcmNFB1Q9hdOW9JH0b+CRwFPAT4GzfxEjzYXy0wc+jO7Rkj2u1e2d0xCJwIDRjKZcbAidGd2jJntpq9+boiD5JudwG+G50xwTt22r3yegIzY/xKqLrArcA7go8GNg0ukvSVH0R+ALwPeB/gDNa7S6NjpJ01VIunwL2ie7Qkm3mjb+z4UBoxlIuAKfgDTd9tLm3fizNeM/29xi9aR4C9zJrtca3me0A3JzRQev3wwOrpT76CaPhz7eBExjdPvlHD36W+iPlchNG//6qXw5rtXNHzYw4EAqQctmH0a0S6pdXtNq9MDqib1IuGzH6NPWO0S0TslOr3S+jI9Qf47O1tmF07f3tGR1cfefoLkkAHAN8g9ElAicCvwbOdcuX1G/jD+GPBW4Z3aIlu1Gr3UnREYvCgVCA8TYDz6Ppp+1b7U6LjuiblMt6jG7Ye0h0ywRcCmzRandedIj6K+WyFnAtYHvgRsDtGJ1NdKvoNmmAvs9oC/MxwEmMVvucCVzoih9pmFIuewI1ukNLdipwPS9zmR0HQkFSLv8GvCS6Q0v2wVa7h0VH9NH4DfBrgGdFt0zA14E9fSOhSbvCoOjawA0YfbK5B3A3YL3oPmlOHcPoKvcTGW31OhX4HXAecJFvLKTFknJZB/gjsGF0i5bsvq12n46OWCQOhIKkXLYDXGnSTzdutWvREX2VcnkxcFB0xwQ8ptXu3dERWhzjlXabM1pVtCtwE+C2wF2A9aP7pCk4afzjp8AvgN+Mf5wBnANcAFzqwEfSFaVc9gP+O7pDy7JBq91F0RGLxIFQoJRLB9wnukNLdixwax9Aly/l8jLgRdEdE3C9VrtToyOklMu6wCaMziraEdgFuDGjLWi3je6TlugHwN6tdr+NDpHUL+OzK/8U3aFleV6r3auiIxbN2tEBC+7fogO0LLcCcnREz72Y0faxvvvUeIuPFKrV7pJWu7Nb7X4MfAk4gtHNKptFt0nLcHPgtJTL3tEhknrnqdEBWrbDogMWkW9kAo3fSJ7FaAuA+uUy4BqtdpdEh/TV+PaHg4GnRbes0AGtdh+IjtBiS7lsANwU2A94ZnSPNEFvAZ7TaudlHJJWK+VybcCVhf30kVa7/aIjFpErhAKND6R9XHSHlmVt4IDoiD4bb7l7BvBf0S0r9P7xA4g0UykXUi53Srl8Hvgzo2uzHQZpaJ4MnJ1y2Tk6RNLce3V0gJbt5dEBi8qBULzPRAdo2d6dctk0OqLPxkPRRzC6ErjPPFxaM5VyuQ2jG5W+Dtwzukeasg2Bn6dc7hAdImk+pVxuAjw8ukPLcgrww+iIReVAKNh4CfTzoju0bEM4GDlUq93FjM5k6vP2u70960KzkHK5ScrlW8B3gRtG90gzdlTKxdW5kq5kfAzHR6M7tGxP9LKeOA6E5oOrC/rr2SmXXaIj+q7V7lyg79sBPpty2SQ6QsOUcrlByuWvB0XfPrpHCvS+lMsrUy4+w0r6qwLsFh2hZftydMAi88V0DrTanQm8J7pDy/be8QHJWoFWu18zusGtz14bHaBhSbnsmHL5EHAycK/oHmlOPA/43PgwdUkLLOWyIfCp6A4t2xO8pCeWA6H58croAC3bHYC7RUcMQavdccCB0R0r8NiUyx2jIzQMKZc9gVOBh0S3SHPoHsC3Ui4bRYdICvX06ACtSN8vl+k9r52fIymXbwP/GN2hZbvG+DwcrVDK5VDgCdEdK3DNVrsLoiPUT+MVh08G3hzdIvXAT4DbtNr9MTpE0mylXK4L/DK6Q8v26la750ZHLDpXCM2XZ0QHaEX+JTpgQJ4G/CI6YgVeER2gfkq5XAP4AA6DpDW1G3BiymWz6BBJM/fO6ACtyBujA+QKobkyPiH/LGDz6BYt2w6tdr+JjhiClMt2wGnRHStwx1a7b0ZHqD9SLtcBjgG2i26ReugPwA1a7c6KDpE0feNt1TW6Q8v20Va7B0VHyBVCc6XV7nLgEdEdWpFDowOGotXut8C9oztW4KiUy7WiI9QPKZfbA7/BYZC0XJsDP0q5XDM6RNJ0pVzWx2FQ3/1bdIBGHAjNn89FB2hFSsrlztERQ9FqdwRwSHTHCrjtR1cr5XJL4FvRHdIAXBv4fMpl3egQSVP1lOgArchxrXYnRUdoxIHQnGm1+wvwuOgOrcjXxp9caDKeBfwlOmKZHpFy6fMqJ01ZymV74NjoDmlA7ggcNt6GL2lgxgdJvza6QyviQG+OOBCaTx+KDtCKPS06YCha7S4Ebh7dsQKfGZ8NI13JeGvLidEd0gA9HHh5dISkqTgsOkArciZwdHSE/o8DoTnUavcn4PnRHVqRV6dcdoqOGIpWuxOB/xfdsQKfT7msEx2h+ZFyWRs4HNgkukUaqBekXB4bHSFpclIudwfuFt2hFTlgfG6u5oQDofn1jugArdgHUi7RDUPyBuCM6IhlugnwvOgIzZX/AO4eHSEN3DtSLreJjpC0cimXjYAvRndoxfw9nDMOhOZUq93ZwOujO7QidwLuEx0xFK12lwB7RneswMtTLv8UHaF4KZdHAc+J7pAWxHdTLltHR0hasX+NDtCKPbTV7tLoCF2ZA6H59rroAK1Yl3JxS8iEjLeOvSC6YwW+Mj5EWAsq5bIN8O7oDmnBfMFtu1J/pVwS8NzoDq3Yx6MD9PccCM2xVrvT8OC0IfiP6ICB6fug9Hsplw2iIxTmDdEB0gK6BfCy6AhJSzc+c++I6A6t2BNa7S6KjtDfcyA0/w6KDtCKPdEzDCan1e5iRtcK99V2wLs9X2rxjL8P7B/dIS2o56dc7hIdIWnJHgPsGB2hFftAdICumgOhOddqdyrwsegOrdhRKZf1oiOGotXum8BHojtWYH/gadERmp3xdhUPUpRiHek2bqk/xtvs3x7doRV7VqvdBdERumoOhPrhhdEBWrH1gWdFRwzMU6IDVujglMv9oiM0MwcCm0VHSOLN0QGSrt54JfV/RndoIt4VHaBVcyDUA612JwNfiO7Qir0y5bJbdMRQtNr9HnhCdMcKHZ5yuW10hKYr5bIpHiQtzYsDUi73jI6QdLX2pd+3y2rkX1vtzouO0Ko5EOqPZ0YHaCI+Nz4cT5MxhEPXv5Ny2TU6QlP14OgASVfy+ZTLZtERkq5aymVL4BPRHZqIt0QHaPV8Y9oT4+u2vxzdoRXbGXhsdMRQtNr9Bbh7dMcE/CTlskN0hCZvfHbQ26I7JP0dbx2T5pfnBg3DS1vt/hAdodVzINQvT48O0ES8LeVyveiIAfkycEx0xAT8KuWydXSEJu7O0QGSrtKTUy43io6QdGUpl72AB0R3aCLeFB2gq+dAqEda7RpwZHSHJuJTKZe1oiOGoNUO4OHRHRNymkOhwXlddICkVfqor8XS/Bifufe56A5NxMtb7c6OjtDVcyDUP0+NDtBE3BR4VHTEULTa/Rj4UHTHBKwLnO5QaBhSLv8A3CK6Q9Iq3Qi4b3SEpP/11ugATczB0QFaMw6EeqbV7ofAV6M7NBHvSrnsGB0xIM+LDpiQtYHfpVyuEx2iFXt8dICkq3V4ymWD6Ahp0Y1v/3todIcm4qBWu7OiI7RmHAj101OiAzQxn3a5+mS02v2K4XwasRbwm5TLDaJDtDzj2wSfE90haY0MZdux1Espl82Bz0d3aGIOjg7QmnMg1EPjG8fcXzsMN8NVBJP079EBE3ZyyuWW0RFaFod5Un+8I+WyUXSEtMAOjQ7QxLzYm8X6xYFQfz0jOkATc2jKZZfoiCFotTsTOCi6Y8KOTbl4xkX/PDA6QNKSPDI6QFpEKZd9gP2iOzQxb44O0NK4VaXHUi6HA/eL7tBEnALs0mp3aXRI36VctgCGuG/5ucCrx7eqaY6Nt4FeFt0hack2brU7PzpCWhQpl22A30V3aGKe22r36ugILY0rhPrtWdEBmpjr4e/nRIyvuHxpdMcUvAr475TLNaNDdLV2iA6QtCz7RwdIiyLlAvBf0R2aqEOiA7R0DoR6rNXu58B7ozs0Ma9KudwsOmIg3hgdMCX7AeenXHaPDtFq3Sk6QNKyvD3lsm50hLQgHg78U3SEJuZJrrDsJwdC/fei6ABN1A+8/nblxofZDe2A6Ss6KeXy4PGna5o/B0QHSFq2u0YHSEOXctkZeH90hybqPdEBWh4HQj3XavcbvNpvaF4VHTAQQ10l9Ff/BXw25bJVdIj+T8plPeCe0R2Slu0Qh+3S9IxX4dXoDk3Uw1vtLoyO0PI4EBqGV0QHaKKemnK5W3RE37XanQG8NbpjyvYGzki57B0dIhgP5x4X3SFpRa4P3CQ6Qhqw5wI7RUdooj4cHaDl85axgUi5vAh4WXSHJmrr8TXqWqaUyw7Ar6I7ZuTzwGPGqwY1I+NPOm8HvBi4R3SPpIl4R6vd46MjpKFJudwG+G50hyZqn1Y7r8DtMQdCA5Fy2Rg4L7pDE1WBu7baXR4d0mcplw8DD4rumKFnAG9ttftLdMiQpVy2Bw5k2GdVSYvsmq12F0RHSEPhe5VBOhPYttXusugQLZ9bxgai1e6PgJ9mDUsGHhMdMQD/Fh0wY28ALk653Cfl4tB/glIuG6dc9km5HAP8GodB0pC5dVuakPG5XO+K7tDE7eswqP98szAgKZdrAB7oNTyp1e7E6Ig+G7+Bv1V0R4AzgPsDR7Xqat7lSLlsBNwBeCawV3SPpJn5YavdTaMjpCFIuTyY0WUYGo5jgVv7fNl/DoQGJuXyAOBj0R2aqMsZLV3/c3RIX6Vc9gC+Gd0R6BTgscBX/STn6qVc1gduCzwZ2C+6R1KY7VrtTo+OkPos5XJ94GfRHZq4m7XanRAdoZVbNzpAE3c4cDawRXSIJmYt4M24fWwljgYuADaKDglyPeBL8L+f0n3aAeOVpVw2A/Zg9O/ZvtE9kubCvYD3REdIfTX+gOU70R2auI85DBoOVwgNUMrlDsBR0R2auPu32h0eHdFXKZcHAh+J7pgjbwLeCpy8iMt9x+cr7cRoG9gzgRtEN0maOz9ttfN7g7RMKZc3AE+P7tDE7dhqtyi3+A6eA6GBSrkcxejcCw3L9VvtfhEd0Ucplw0AV8X8vd8Bzwc+N+StEeMB0NaMzpLal9EWOkm6Otu02p0RHSH1Tcplb+Cz0R2auFe12j0vOkKT40BooFIuuwMnRXdo4s4Etm+1uzg6pI9SLs8DXhndMcd+C7wM+Azwmz6fN5RyWRvYktEA6H54C6Ok5Xloq92HoiOkPkm5XBf4ZXSHpmLzVrtzoiM0OQ6EBizlchjwyOgOTdxbWu2eEh3RRymXrYHfR3f0yAcZbbP7DnDGvA6Ixqt/tmC07ev2QAFydJekQfhGq92doyOkvki5rAf8FNgxukUT96RWu0OjIzRZDoQGLOWyDaPtIBqe+7XafSo6oo9SLh8CHhLd0VNfZ7T8+2jgZOAPwMWzOoMo5bIusBmwPbArcAvgTsAdo/+PkTRoG7baXRgdIfVByuV1jM7m0/Bcw10Kw+NAaOBSLs8GXhPdoanYpdXOazyXKOWSgB9FdwzMt4DvAicw2nZ2NnAO8EdGt7v9BbgcuGz8x7/+WIfRbZfrAesD12B0E9zWwHUY3Y62C7A7cFNg0+gvVNJCulWr3XHREdK8S7ncB1i8myoWw71a7T4fHaHJ89r54XsrDoSG6oSUy1ZeH75kDfg5cP3okAHZY/xDkoZoH8CBkLQaKZfr4zBoqH4EOAwaqLWjAzRd42HB/aM7NBUbAW+Ljuib8famJ0d3SJJ642nRAdI8S7lsCPwgukNTs/+sjgfQ7DkQWgyfxJP+h+qAlMuB0RE99OXoAElSb2yWcrlWdIQ0j1IuMPqAcuPoFk3F+1vtfhgdoelxILQAWu0uZ3TtsobpvSmXW0RH9Emr3V/wwENJ0prbLTpAmlOPAA6IjtDUPCc6QNPlQGhBtNp9n9EV0hqm41IuW0ZH9Mz7ogMkSb3xT9EB0rxJudwaeE90h6bm6a12v4+O0HQ5EFosz4oO0FQdkXJZJzqiL1rtzgYOi+6QJPXCQ6MDpHmSctka+F50h6bq0OgATZ8DoQXSavc73CYzZLcFXhod0TOvig6QJPXCzfzQRRpJuayL5zEO3T1b7S6OjtD0ORBaPIdEB2iqXphy8Va5NdRqdzLw3egOSVIvbB0dIM2JVwE3jY7Q1Hwb+GJ0hGbDgdCCabW7CLh7dIem6uMplxtHR/TIM6IDJEm9sHt0gBQt5bI/7jgYuod7zfzicCC0mL4MfC06QlP1w5TL5tERPXE0cE50hCRp7u0RHSBFSrncEi+pGbpXttr9NDpCs+NAaAGNJ76PiO7Q1H1hvMdbq9FqdznwkOgOSdLc86YxLayUyzbAsdEdmrpXRAdothwILahWu1OAl0R3aKpuA7w2OqInvghcGh0hSZprd025RDdIM5dyWR/4VnSHpu7+rXbnR0dothwILbbXRAdo6p6WcnlkdMS8a7W7DLhXdIckae5tGB0gzdJ4CPou4B+iWzRVPwQ+GR2h2XMgtMBa7S7AN8GL4LCUyx2iI3rgS8BJ0RGSpLm2bXSANGNPBx4eHaGp++fxMQpaMA6E9HngyOgITd1RKZfrRUfMs/HZWvtEd0iS5toO0QHSrKRc7gm8IbpDU/eKVruToyMUw4HQgvOA6YXys5TLJtER82x8q4LX0EuSVmXX6ABpFlIuidEHxxo+D5JeYA6ERKvdqcBzozs0dWsDR6Rc1okOmXNvBn4bHSFJmks3jQ6Qpm18o9iPojs0E/dutftTdITiOBDSXx0cHaCZuAPw+uiIedZqdylw1+gOSdJc+sfoAGmaUi4bAN+N7tBMHAkcER2hWA6EBECr3cXAHaM7NBNPTbk8KTpinrXanQS8ILpDkjR3bh0dIE1LymUt4IPATtEtmokDxseHaIE5ENL/arX7JvCf0R2aibemXO4dHTHnXotbxyRJV7auW681YC8D7h8doZl4eqvdr6IjFM+BkP7W06MDNDOfSbncIjpiXrXa/QW4fXSHJGnubBgdIE1ayuWRwAujOzQTFwBvjY7QfHAgpCtptTsL2D+6QzNzXMrlutER82p84LorqSRJV+SNnRqUlMvdgMOiOzQzd2m1uyQ6QvPBgZCuyn8DP4iO0MycmnLZLDpiXrXaHQG8KrpDkjQ3No8OkCYl5XJT4EvRHZqZt7baHRMdofnhQEh/p9XucuAB0R2ambWAb6Rc1o8OmWMvAv4nOkKSNBe2jg6QJmG8Svz46A7N1POjAzRfHAjpKrXa/Rx4VnSHZubGwIfGt0vob4yX1e4Z3SFJmgvbRQdIKzVeHf7L6A7N1F6tdn+MjtB8cSCk1XkTcH50hGbmAbg1apVa7U4DbhndIUkKd53oAGklUi4bAN+M7tBMda12X4iO0PxxIKRVGq+KuHN0h2bqOSmXZ0RHzKtWu+8De0d3SJJC7RgdIC1XymUd4OPAjaJbNFOPjQ7QfHIgpNUavwF21chieX3K5SHREfOq1e5zwOOiOyRJYa4XHSAtR8oFRteN++HWYtm/1e530RGaTw6EtCZeGh2gmftQyuXu0RHzqtXuncArozskSSF2iQ6QlunFwOOjIzRTRzO6QVq6Sg6EdLVa7f4M7BHdoZn7YsrlttERc+yFwPujIyRJM7dbdIC0VCmXJwAHRXdo5vYb3yAtXSUHQlojrXZHA4dGd2jmvpNycY/5VRi/uD4SeF90iyRpptYZb72ReiHlsh8+xy+ix7ba/So6QvPNgZCW4v9FByhES7nsFB0xj1rtLgMehUMhSZI0h1Iu98QtQ4uoAYdFR2j+ORDSGmu1Ox+4S3SHQpySctk2OmIeXWEo9N7oFkmSpL9KuewBfD66QyHuM35GlVbLgZCWpNXu68DbozsU4pSUy+bREfNo/IL7aBwKSdKiWCs6QFqdlMstgG9GdyjE41vtTomOUD84ENJyPDs6QCE2AE5IuVwrOmQejYdCjwT+NbpFkjR1DoQ0t1IuuwPHRXcoxI+Ad0VHqD8cCGnJ3Dq20HYAjkq5bBAdMo9a7Wi1exlwQHSLJGmqHAhpLqVcrgecFN2hMMWtYloKB0JalvHWsbdEdyjEzRhdSb9+dMi8arX7APBP0R2SpKnxGVpzJ+WyA/CL6A6FeYxbxbRUvphpJZ4bHaAwdwI+lXJZNzpkXrXaVeDG0R2SpKlYJzpAuqKUy7UBrxhfXN/GW8W0DA6EtGytdhcAt43uUJi9gA+nXHwoXoVWuwZsDnwlukWSNFG+9mlupFy2An4b3aFQD2i1uzw6Qv3jQEgr0mr3PeDl0R0Kc3/gvSkXv5esQqvdOcDdgWdFt0iSJsYVspoLKZctgFOiOxRqv1a706Ij1E++idMkvAw4PzpCYR4GHOZQaNVa7S5vtXs9cIfoFknSRKwXHSClXDYHfg5cM7pFYT4LfCQ6Qv3lGzitWKvdxcA/Rnco1IHAO1Iu3rqyGq123wK2AT4X3SJJWhEvVlColMtmwMnAptEtCnVAq110g3rMgZAmotXuROAp0R0K9WjgbQ6FVq/V7gxgb+AB0S2SpGW7RnSAFlfKZVNGV8tvFd2iUHdrtTs7OkL95kBIk3QIcFx0hEI9DodCV6vVjla7TzBaLfSZ6B5J0pI5EFKI8cqgnwDXjm5RqLe22nlpiVbMgZAmptXuMmCf6A6FexzwLs8Uunrj1UIF2De6RZK0JBtGB2jxjM8M+imwbXSLwj0nOkDD4Bs2TVSr3W9wK4zgUXjQ9BoZrxb6JKMDIf81ukeStEY2ig7QYhnfJvZzYMvoFoW7eavdn6MjNAy+WdPEjbfCfCC6Q+EOBN6fclknOqQPWu0uaLV7GbAj4OmAkjTfvNVJM5Ny2Rr4NbBZdIvCPaPV7vjoCA2HAyFNy5OiAzQXHgp8NOWybnRIX7Ta/arVbh9gD0ZnBEiS5s/G0QFaDCmXawO/x22KgmOBN0VHaFgcCGkqWu3OB24d3aG5sC/wmZSLV/QuQavd0cDuwB2A/4nukSRdiQMhTV3KZQfgt9EdmhtlfGarNDEOhDQ1rXbHAs+N7tBcuCfwlZTLBtEhfTI+X+hbwK7AHYGfRTdJkgDYNDpAw5Zy2Rn4VXSH5kZptXM4qIlzIKRpey3w/egIzYU7At9Nufip6hKNB0PfBHYBbg4cHt0kSQtu8+gADVfK5YaMDpCWAA5ptftMdISGyYGQpmq8rHHv6A7NjZsAPx5fm6olGg+Gjm+1uz+wHfCS6CZJWlBbRAdomFIutwBOjO7Q3Pgz8KzoCA2XAyFNXavd6Yy2DEkA1wFOT7lsGx3SZ612p7favZTR1ccFOCa6SZIWiFd/a+JSLnsAx0V3aK7cotXuwugIDdda0QFaHCmX1+KEW1e2c6vdKdERQzG+ieSBeAOFJE3bF1vt/LBLE5Ny2Qv4XHSH5sqBrXbvj47QsLlCSLP0AuB30RGaK79IuaToiKEYrxp6M6Pv7bsx+nfuL9FdkjRArnLVxKRc9sNhkK7s44DDIE2dK4Q0UymX6wG/iO7Q3Lldq913oiOGKOUCcF3g3sDzgJ2imwboOGB94MbRIZJm5netdteOjlD/pVyeABwa3aG5s3Gr3fnRERo+B0KauZTLfYFPRndo7uzVaveF6IihG9/ydjPgfsAz8XVgqX4FfAT4KnACcHqr3SUplxMYHZouaXGs1WoX3aCeGn9g8294QYT+3s1a7U6IjtBi8I2AQqRc3gw8ObpDc+dhrXYfjI5YFOOH0a0ZrWy5K7A/sHN01xz5PnAE8E1GN778ttXu4qv6G1MuP8QVQtKiWbvV7vLoCPVPymUd4BDgcdEtmjuPbbV7V3SEFocDIYVIuawP/AbYKrpFc+fZrXavi45YVCmXawA7MlpFtAewN6PziIbsWOBI4LvAjxmtAjq31e6yNf0JUi4nAjeM/kIkzdS6rXaXRkeoX1IuGzA6H2bv6BbNncOB+7vyULPkQEhhPE9Iq/F64DlLeUOu6Rl/krkFo0HRPzDaGvWPwJ7AetF9a+A0Rqt9jmO00ucX4//uTODCSXzCn3L5CbBr9BcqaaY2aLW7KDpC/ZFy2Rw4muF/0KLl8dwgzZwDIYVKuewNfDa6Q3Ppk8CDfdiebymXdYGNgE0YrfjbjtHgaLvxjx3Gf74zcM0J/JKXAb9nNND5JaOVhqePf5w2/mtnA+cC5wMXz2JLR8rlZ8D1p/3rSJorvnnTGku57AicGt2huXXjVrsWHaHF40BI4VIur2R0+5H0t04C7tBq94foEK3c+MyitcY/1gHWHv/462vRX//a5YwGP5f9zX++bF6XUadcTmU0+JK0OLZqtTsrOkLzL+VyU+D46A7NrYe22n0oOkKLad3oAAl4MbAPcKPoEM2dGwJnp1x2arX7ZXSMVmY8zLmc/xvyDImvp9Li2SA6QPMv5XIPwFtUtSrvdhikSGtHB0itdpcwuuFIWpVTUy63io6QVqMPZylJmqyNogM031Iuj8ZhkFbtLLx1WcEcCGkutNqdDtwhukNz7ZiUS4mOkFbBgZC0eK4VHaD5lHJZK+Xy74DXh2t1btVqd2F0hBabAyHNjVa7bwFPie7QXPt0ysV/RjSPHAhJi2fj6ADNn/G18p8AXhDdorl2j1Y7DxlXOAdCmjdvAT4eHaG59qaUyyHj262kebF+dICkmds0OkDzJeWyDfA/wP2iWzTXXthq96XoCAkcCGnOjA+dPRC4JLpFc+2JwDdTLj6Ma164QkhaPJtHB2h+pFwS8Dtgh+gWzbUKvDI6QvorB0KaO612fwJ2j+7Q3LstcE7K5frRIVpsKXu0lbSgtogO0HxIudwL+FF0h3ph31a7y6MjpL9yIKS51Gr3M2Cv6A71ws9SLneOjpAkLZytogMUK+VCyuWZwBHRLeqFG7banRsdIV2RAyHNrVa7LwDPi+5QL3wt5fLY6AhJ0kLZNjpAcVIu1wA+ALwuukW9cN9Wux9HR0h/y4GQ5t2rgc9GR6gX3pFyeauHTSvAWtEBkkJcOzpAMVIu2wInAQ+LblEvHNRq9+noCOmqOBDSXBvvsX0wcHF0i3rhScD3Ui5bRodIkgbvOtEBmr2Uy62A04Gdo1vUC18BXhodIa2KAyHNvVa784HdojvUGzcHzky53Cw6RJI0aN4mtWBSLvsDx0R3qFf2bbW7LDpCWhUHQuqFVrtTgD2jO9QrP0i5PCg6QgvBLWPSYtrGWwYXQ8pl3ZTLG4APRreoV3ZptftjdIS0Og6E1Butdl8DnhjdoV75cMrl1SmXdaJDJEmD5LP0wKVctga+Dzw9ukW9crfxrcnSXPNFTH3zNuBd0RHqlecAx44f6KRpcIWQtLj8wGHAUi63Bn4P3Di6Rb3ylFa7r0RHSGvCgZB6pdUORgcHnxDdol65GfD78YOdNGkOhKTFtV50gCYv5ULK5dHA96Jb1DvvAt4SHSGtKQdC6p1Wu78AObpDvfS9lMtjPPNBE+ZASFpc14gO0GSlXDYEPoAr0rV0JwBPGn+ALfWCAyH1Uqvd2cDu0R3qpXcC/5Vy2Sg6RJLUextGB2hyUi7XB84AHhbdol7K4w+upd5wIKTearX7CXCP6A710oOB81Iuu0aHaBBcISQtrmtGB2gyUi77AD/D31Mtz+7jD6ylXnEgpF5rtfsS8IToDvXSOsBPUi7/HB2i3vO1VFpcG0cHaGVSLuulXF4PfCq6Rb111/EH1VLv+BCr3mu1eztwcHSHeuujKZe3p1w2iA5Rb7lCSFpcm0YHaPlSLtcFfgo8I7pFvfWYVruvRkdIy+VASEPxbMBvxlquxzG6hWyX6BD1kgMhaXFtHh2g5Um53Bv4JbBjdIt669Wtdu+OjpBWwoGQBqHV7lJgH+C86Bb11sbA/6RcHhQdot5xICQtri2jA7Q0KZf1Uy4HA5+JblGvfR54fnSEtFIOhDQYrXZ/Am4Y3aHe+3DK5f0pFw+V1JrytVRaXFtHB2jNpVz+AfgN8LToFvXaacADWu0uiw6RVsqHWA1Kq91pwE2iO9R7DwfOT7ncNDpEveAKIWlxXTs6QFcv5ULK5SGMzgvaKrpHvXeLVrsLoiOkSXAgpMFptfsRcLfoDg3C8SmXf0m5+IZfq+NrqbS4tosO0OqlXDYGPgJ8KLpFg7Bbq93voyOkSfEhVoPUavcV4BHRHRqEtwBHpVy2jQ7R3PK1VFpcO0QHaNVSLrdldL7kA6NbNAh3arU7OTpCmiQfYjVYrXbvA/4tukODsAdwesplr+gQzSVfS6XF5Q1Vcyjlsm7K5UXAd6JbNBj7tdodFR0hTZoPsRq6g4DDoiM0GJ9Lubwt5bJRdIjmiq+l0uK6TsolukFXkHLZmdFZQS+LbtFgPKPV7iPREdI0+BCrQWu1A3g88LXoFg3G44E/pVxuFR2iueFrqbTY/B4wB8YHRx8A/BzYKbpHg/H6VruDoyOkafEFTIPXancJcG/gt9EtGpRjUi4vTLmsGx2icL6WSottneiARZdy2Qb4KvC+6BYNyuHAc6IjpGnyIVYLodXuT8DNojs0OC8Hfp1y2S06RKF8LZUW2/rRAYss5VKA3wE5ukWDcjzwkFa7y6JDpGnyIVYLo9XuDGDn6A4NzrbAj1MuT0m5+D11Mbk6QFpsG0QHLKKUy+Yplw8Dn45u0eCcB9y51e6i6BBp2nzzooXSancKcNPoDg3Sm4A2PsxSi8XXUmmxedHAjKVc7gGcDTwoukWDtGur3XnREdIs+BCrhdNq90PgztEdGqTdgZ+nXJ7oaqGF4gohabFdKzpgUaRcNk25vB/4QnSLBusfWu1+Fx0hzYpvWLSQWu2+AdwvukODdQhwYsrl+tEhmglfS6XFtml0wCJIuewFnAM8PLpFg3WLVrufR0dIs+RDrBZWq92ngEdEd2iwdgN+Nj5byBUkw+bvr7TYNo8OGLKUyxYpl48An4tu0aDdudXuB9ER0qw5ENJCa7V7H/CM6A4N2puAX6VcbhQdoqlxICQtti2jA4Yo5ULK5X7AWcADo3s0aPcZ7x6QFo4DIS28VruDgZdFd2jQtmN04PSLUy5eTzw8DoSkxbZ1dMDQpFyuA3wFODy6RYP30Fa7z0ZHSFEcCEkj/wocGh2hwTsIuCjlcrvoEE2UAyFpsV07OmAoUi5rp1weDfwG+KfoHg3ev7TafSg6QorkQEgCWu0Angz4oqBZODrl8q6Uy2bRIZoIB0LSYrtOdMAQjLdW/wx4V3SLFsLzW+0OiY6QojkQksZa7S4DDgCOiG7RQng08IeUy/1SLtEtWpl1owMkhbpudECfpVw2TLn8O9CA60X3aCG8otXuP6IjpHngQEi6gla7S4F9gaOjW7QwDge+4xX1veYKIWmx7RQd0Fcpl7sBFwAviG7RwngL8MLoCGlerBUdIM2jlMuGwHHA7tEtWigvBF7XandRdIjWXMrlLsCR0R2SQq013n6uNZBy2Z7R1rC9olu0UD4AHNhqd3l0iDQvXCEkXYVWuz8DtwV+Gd2ihfLvwIUplxwdoiVxy5gkP2RdAymX9VIuTwV+jcMgzdbHgUc6DJKuzIGQtAqtdn8EbgqcFd2ihfPVlMvnUy6eS9EPDoQk+X3gaqRc7gRcDLwxukUL5wjgweOjISRdgQMhaTVa7c4FdgUujG7Rwrkn8MuUy3NSLteIjtFq+UZQ0vrRAfMq5bJ9yuXTwNejW7SQjgT2bbW7JDpEmkcOhKSr0Wp3NrBjdIcW1qsZbSO7p7eRzS0HQpI2iA6YNymXDVIuz2G0PcwXMEX4LrBXq93F0SHSvHIgJK2BVrszgGtHd2ihfZ7RbWS7Rofo7zgQknTN6IB5kXIh5bI38GdGH2pIEY4D9vSiDmn1HAhJa6jV7nfAdaI7tNBuC/wk5XJwymXz6Bj9LwdCkjaODpgHKZcbMnoj/tnoFi2044E7ji+JkbQaDoSkJWi1+y2wfXSHFt7TgLNTLo9NuawXHSMHQpLYLDogUspl65TLO4ETgVtE92ihNWAPh0HSmnEgJC1Rq91pwA7RHRLwDuDilMtdPV8olEM5SVtEB0QYnxP0dOD3wGOie7Twfgz8Y6vdBdEhUl84EJKWodXuNzgU0vz4MvCDlMtNokMWlCuEJG0dHTBLKZe1Uy77Mjon6A3RPRKjlUG3brX7U3SI1CcOhKRlGg+F3D6meXEz4ISUy3+lXPzncrZcISRp2+iAWUm53B44HfhEdIs0djxwW4dB0tI5EJJWYLx9bLvoDukKHgz8OuXyypTLZtExC8IVQpIG/yyQctk95fI14Fss2IoozbXjgNu7TUxaHgdC0gq12p2OV9Jr/jwP+EPK5Wkplw2jYwbOFUKSBruNPOWyQ8rlg8BJwJ2je6Qr+C7eJiatiAMhaQLGV9JvA/jphObNwcAFKZeHeSPZ1Pj/q6SdogMmLeWyZcrlNcCvgP2je6S/cSRwZ4dB0so4EJImpNXuDOC6wBnRLdJV+ACjG8num3Lxe/9kORCStHN0wKSkXDZJubwIOBN4dnSPdBWOAO7ZandRdIjUd74pkCao1e5s4AbAKdEt0ip8Ejgv5XK3lMta0TEDsX50gKRwm6dcohtWJOWyUcrlqcC5wMuie6RV+Dhw31a7i6NDpCFwICRNWKvducBNGF1/Kc2jawJfAn6bctnTwdCKuUJIEsA60QHLkXLZMOXyBOBPwBuje6TV+ACwX6vdJdEh0lA4EJKmoNXufOA2wFHRLdJqbAtU4Bcplzv0/dPtQA6EJEHPvhekXDZIuTya0fmHh0b3SFfjLcCBrXaXRodIQ+JASJqS8SF3dwW66BbpauzEaHj585TLnVwxtGRuGZMEsEF0wJoYD4IeA/wZeFd0j7QGXgE8pdXu8ugQaWjWjQ6QhqzV7uKUy77Ae4GHRfdIV2Nn4OvAr1IuDwe+7sPXGunVqgBJU7MRcE50xKqkXDYEDgDeFt0iLcHzWu1eFR0hDZUrhKQpGy9tPYDRUlepD67L6DrX36Vc7uGtZFfLFUKSADaODrgqKZeNUy5PY7Q1zGGQ+uRfHAZJ0+VDvjQD41UWTwFeEt0iLcHWwBcYXVd/v5SLq0qvmgMhSQCbRQdcUcpl85TLC4HzgIOje6Qlemir3SHREdLQ+XAvzUirHcBLUy5nA2+K7pGWYB3gcICUy4HAR8dnZGnEgZAkgC2iAwBSLtcBngk8K7pFWqZ7t9odER0hLQJXCEkz1mr3ZuDh0R3SMr0PuCDl8syUy6bRMXPCgZAkgK0if/GUyy4plw8Av8FhkPrrzg6DpNlxICQFaLX7T8A7vtVnrwPOSbm8JuWyfXRMMAdCkgC2nfUvmHIh5XKblMuRwP/gBRbqt1u02n0jOkJaJA6EpCCtdp8B7hDdIa3Qs4Ffp1w+nnJJ0TFBHAhJApjZcDzlsm7KZW/gt8B3gbtEf/HSCv1Dq90PoiOkReMZQlKgVrtvpVxuDPwoukVaofsD90+5NOBpwJHjG/YWwTWiAyTNhR2m/QukXDYB9gcOjf5ipQk5D9i11e530SHSInKFkBSs1a4BO0V3SBOSgC8Dl6RcHp1ymctrmCfMFUKSYIqv5SmXHVMubwDOxWGQhuN44LoOg6Q4a0UHSBpJuWwJHIvDIQ3P64E3t9qdEh0yDSmX7wM3j+6QFO6sVruJHSydclkbuB3wCtwSpuE5HHhIq91F0SHSInMgJM2RlMuGwKeAu0e3SFNwNPBc4FtD2k6WcjkRuGF0h6S5sFar3Yp+gpTLtYAHAO+N/mKkKXk98JxWu8uiQ6RF50BImjMpl3WAtwKPj26RpuhJwH+32v0hOmSlUi4/A64f3SFpLqy73IF3yuUGwNMZfX+UhurprXZvjI6QNOJASJpDKReA5zNaJi4N2X8B/wH8sNXu8uiY5Ui5/JoZ3i4kaa5t2Gp34Zr+zSmXawB3Y7RiYtfoeGnKHtRq99HoCEn/x4GQNMdSLvsDH4zukGbgfOBfgE+22p0XHbMUKZczgImdGyKp17ZYk5WPKZfrAY9j9OGPtAju1Gp3VHSEpCtzICTNuZTLXYAjozukGfpP4LXACX1YNZRyOQ9YhNvUJF29HVrtfnNVf2F8TuBdgVcCN44OlWZot1a7k6MjJP09B0JSD6RcbgicGN0hBXgS8NFWuzOjQ1Yl5XIRXj0vaeRGrXYn/fVPxlvAdweeCDw1Ok6asdOAW7Ta/T46RNJVcyAk9UTKZVvgeGDb6BYpwFeAlzO6oezi6Ji/Gr/Zm/tVTJJmZo9Wu6NTLlsA9wVeB2weHSUF+Bzwz612F0SHSFo1B0JSj4yXm38M2Du6RQr0euCdwE+it5Q5EJL0NwrwFOAe0SFSoFcDz/daeWn+ORCSeiblsjaj28eeG90iBbsIeCbwiVa70yMCHAhJknQlj261Oyw6QtKacSAk9VTK5ZGAL7jSyInAS4AvttqdO6tfNOWyFuAnoJIkwV1b7b4aHSFpzTkQknrMG8ikq/RlRud2fKPV7k/T/IUcCEmSBMDurXY/iY6QtDQOhKSeS7n8A/DT6A5pTh0OvAn4Tqvdnyf9k4+3cF4a/UVKkhTkBCC32p0dHSJp6RwISQOQctkU+Dxwu+gWaY59HHgr8O1JDYccCEmSFtg7gX9ptftLdIik5XEgJA1EymUd4A2MbjeRtHqfAg5ldI39H5f7k4z/vbsk+ouRJGnGngK8pdUuukPSCjgQkgbGw6alJTsKOBg4stXurKX8D1Mu6wJ+MipJWiQeHi0NhAMhaYBSLrcHvhXdIfXQL4FXA58FTm21W+2V8imX9YCLo6MlSZqRXVrtfhYdIWkyHAhJA5Vy2QE4HtgiukXqsdcCHwF+2Gp34d/+xZTL+sBF0ZGSJE3ZV4B9V7LNWtL8cSAkDVjKZUPgvcCDolukAfgy8HZGW8xOb7Uj5XIN4MKV/bSSJM21lwIHtdpdFh0iabIcCEkDl3IBeCrwxugWaUAuZ7S17BPAd6JjJEmakvu22n06OkLSdDgQkhZEymVPoEZ3SJIkqRdu2Gr34+gISdOzdnSApNlotTsS2Ak4O7pFkiRJc6sCmzoMkobPgZC0QFrtfglsD7wvukWSJElz54WMrpU/LzpE0vS5ZUxaQONzhR4FvDu6RZIkSXPhHq12X4qOkDQ7DoSkBZZyuRVwTHSHJEmSwpwF3KrV7tToEEmz5ZYxaYG12h0LbAV8O7pFkiRJM/duYAeHQdJicoWQJFIuawPPB14e3SJJkqSZeGir3YeiIyTFcSAk6X+lXP4J+Ep0hyRJkqYqtdqdGB0hKZZbxiT9r1a7rzK6heyn0S2SJEmauMOBjR0GSQIHQpL+RqvdacANgVdGt0iSJGliHgPcv9Xu/OgQSfPBLWOSVinlcnfgi9EdkiRJWpGbtdqdEB0hab64QkjSKrXafYnRFrIfR7dIkiRpyT7GaIuYwyBJf8eBkKTVGm8huzHwkugWSZIkrbEDgQe6RUzSqrhlTNIaS7ncCfh6dIckSZJW6QLglq12P4kOkTTfXCEkaY212n0D2Aqo0S2SJEn6O4cAWzoMkrQmXCEkaclSLmsBT2D00CFJkqR492m1+2x0hKT+cCAkadlSLgn4PrBedIskSdKCOhYorXa/jQ6R1C9uGZO0bK12DdgEeEt0iyRJ0gJ6BnBbh0GSlsMVQpImIuVyT+Dz0R2SJEkL4uatdsdHR0jqL1cISZqIVrsvAFsDX45ukSRJGrC3ABs5DJK0Uq4QkjRRKReAA4D3RbdIkiQNzN1a7b4SHSFpGBwISZqKlMvOwFeB60W3SJIk9dxngQNa7c6ODpE0HG4ZkzQVrXa/AHYBnhPdIkmS1GP7MbpS3mGQpIlyhZCkqRtfT/9t4FrRLZIkST3xbeABrXanRYdIGiZXCEmauvH19FsCL4tukSRJ6oFHA3s4DJI0Ta4QkjRTKZdbAsdGd0iSJM2hHwL7tNqdEh0iafhcISRpplrtjgM2AF4Z3SJJkjRHHg/czGGQpFlxhZCkMCmXWwHHRHdIkiQFaowOjT4lOkTSYnGFkKQwrXbHMlot9PLoFkmSpACPBW7qMEhSBFcISZoLKZebAt8ANolukSRJmrKjgf1a7X4VHSJpcblCSNJcaLU7AdgKeG50iyRJ0hTtz+gGMYdBkkK5QkjS3Em57Ap8BrhBdIskSdKEfBp4bKvd76NDJAkcCEmaUymXtYEDgcOiWyRJklZor1a7L0RHSNIVORCSNNdSLtsB7wHuGd0iSZK0RG8BXtBq98foEEn6Ww6EJM29lAvA3sBno1skSZLWwJ+APVvtjokOkaRVcSAkqTdSLtcCDgKeEd0iSZK0Ck8DDmm1uyQ6RJJWx4GQpN4ZX1H/RWDb6BZJkqSxI4EDvD1MUl947byk3hlfUb898NjoFkmSJODeQHYYJKlPXCEkqddSLlsDbwIeHN0iSZIWziuAV7Ta/Sk6RJKWyoGQpEFIudwe+DqwbnSLJEkavBOAB7banRwdIknL5ZYxSYPQanc0sBHw5OgWSZI0aPcHbu4wSFLfuUJI0uCkXLYF3gA8JLpFkiQNxiuAV7banR8dIkmT4EBI0mClXG7D6DayzaJbJElSb30beFir3c+iQyRpkhwISRq0lMs6wP7A+6NbJElS79wT+GKrXXSHJE2cAyFJCyHlsinwYuBZ0S2SJGnuPQ14W6vdxdEhkjQtDoQkLZSUyy7Ae4E7RLdIkqS5837gOa12v48OkaRpcyAkaeGkXADuAnwJWC+6R5IkhfshsH+r3Y+iQyRpVhwISVpYKZd1gYcyWjEkSZIW017AFzwnSNKicSAkaeGlXDYBngu8ILpFkiTNzJOAd3tOkKRF5UBIksZSLtsDrwUeHN0iSZKm5lXAf7TanRMdIkmRHAhJ0t9IudwYeB9wy+gWSZI0MR8FntVq96voEEmaBw6EJOkqjA+e3hP4FLBJdI8kSVq2Y4FHttr9MDpEkuaJAyFJWo2Uy9rAfYFPRLdIkqQlOQO4P3CUB0ZL0t9zICRJayDlsj5wIPCO6BZJknS19gE+22p3WXSIJM0rB0KStAQpl2sBTwReHd0iSZL+zsOBD7fa/SU6RJLmnQMhSVqGlMtmwLOAF0W3SJIkngi8t9XuwugQSeoLB0KStAIpl22AFwJPjW6RJGkBPRc4pNXu/OgQSeobB0KSNAEpl+sA/wo8PrpFkqQF8CLgLa1250aHSFJfORCSpAlKuewAHAQ8MrpFkqQBOgg4uNXuD9EhktR3DoQkaQpSLjsCLwUeEd0iSdIAvAx4Y6vdWdEhkjQUDoQkaYpSLtdltJXsMdEtkiT10EuAN7fanR0dIklD40BIkmYg5bI98GI8Y0iSpDXxYuCtbg2TpOlxICRJM5RyuTaj6+qfHd0iSdIceibw7la786JDJGnoHAhJUoCUy5bAkxkthZckadE9AfhAq90F0SGStCgcCElSoJTLJsCjgDdEt0iSFGB/4BOtdhdFh0jSonEgJElzIOWyAfBA4P3RLZIkTdmZwAHAF1vtLo2OkaRF5UBIkuZIymVd4F7Ae4EtonskSZqgY4GnAke32l0eHSNJi86BkCTNoZTLWsA/MtpKdrvoHkmSVuAjwEta7U6KDpEk/R8HQpI051IuuwL/Cjw0ukWSpCV4NfDGVrvTokMkSX/PgZAk9UTKZRvg8cBB0S2SJK3GE4APtdr9MTpEkrRqDoQkqWdSLhsC9wf+M7pFkqSxXwBPBL7SandJdIwk6eo5EJKknkq5rA3sAbxq/EdJkmbtI8DLgR+22kW3SJKWwIGQJA1AyuV6wNOAp0e3SJIWwvOAw1rtzogOkSQtjwMhSRqQlMvGwD8Dh0W3SJIG51RG18Z/vtXu4ugYSdLKOBCSpAEabye7NfBSYK/oHklSr70beC3wY7eFSdJwOBCSpIFLuVwbeBTw79EtkqReeRzwkVa7c6NDJEmT50BIkhZEymU94C7AK4DbRPdIkubS4YxeJ45rtbssOkaSND0OhCRpAaVcrgs8BvjX6BZJ0lx4MvDfrXZnRYdIkmbDgZAkLbCUy/rAnRidNXSH6B5J0kx9FHg1rgaSpIXkQEiSBPzvWUMPA14T3SJJmprzgacAn2y1Oyc6RpIUx4GQJOlKUi7rALcEngE8JLpHkjQRBwNvx5vCJEljDoQkSauUctkYuBfwKuB60T2SpCX5JnAQ8LVWu4uiYyRJ88WBkCRpjaRcdmS0Yug/olskSat0LvBsRlvCzoyOkSTNLwdCkqQlSbmsDdwUeBLw2OgeSRIA/w68F/ipW8IkSWvCgZAkadlSLhsAtweeCdwnukeSFsxhwKHA91vtLo2OkST1iwMhSdJEjM8buhvwQuBW0T2SNFCfBV4PfKvV7sLoGElSfzkQkiRNXMplS+CewIuB3aN7JKnnKvA6RodDnx8dI0kaBgdCkqSpSrlsA9wbeBFw/egeSeqJbwGvBb7aandudIwkaXgcCEmSZmY8HNoLeAGwW3SPJM2ZrwFvAI50CCRJmjYHQpKkECmXrYC7MzqQ+tbRPZIU5AjgEOAbrXbnRcdIkhaHAyFJUriUy6bAnYB/YbSCSJKG7APAu4Dvtdr9OTpGkrSYHAhJkuZKymUj4JbAgcBjonskaUJeBXwY+FGr3V+iYyRJciAkSZpbKZd1GJ01dH9G19lvEN0kSWvol8CrGV0Tf2qr3eXRQZIkXZEDIUlSL6RcAK4N7Ak8EbhzdJMk/Y2PA+8BvtVq94foGEmSVseBkCSpl1IuGwI3B/6Z0cHUkjRr5wCvAz4NnORWMElSnzgQkiT1XsplLWA74C7AY4Ec3SRpsD4KvB84Gjir1S66R5KkZXEgJEkanJTLNRidPXQv4MnADtFNknrrB8A7gC8Dv2i1uyQ6SJKkSXAgJEkavJTLJsAtgPsBT8PXP0mrdgZwCKPDoFur3QXRQZIkTYMPxJKkhTI+nHor4FbAAxhtMZO0uC4C3gR0wPGtdudFB0mSNAsOhCRJC218/tDWwC2B+wJPiG6SNFXnAG8HjgBOAM7xHCBJ0iJyICRJ0hWMVxBtCdwM2At41PjPJfXT/zA6BPrLwImuAJIkacSBkCRJVyPlci1gV0a3l+0H3Ca6SdIqfQn4OPAN4OetdhdGB0mSNI8cCEmStEQpl3WB7RltM9ub0SqitaO7pAV0FvA+4IuMtn/9rtXusugoSZL6wIGQJEkrNN5mtjFwfeB2QAHuHd0lDdB/MTr75xjg1Fa7P0cHSZLUVw6EJEmagvFh1ZsDuzAaEt0buEd0l9QjHwO+AHwP+AVwnoc/S5I0OQ6EJEmakfGQaDNGK4luCdwNeCC+HmuxnQN8AqjAD4BTgT86/JEkabp8AJUkKdB4u9lGjM4kuhGj1UR7ATePbpOm4BuMDn3+LvAT4LetdhdFR0mStIgcCEmSNIdSLmszWk20I/83KLo7sHt0m7QGjgG+wmjw82Pg14xW/VweHSZJkkYcCEmS1CPjQdGmwHWAXYFbAHcC9oxu08L5C6Pbvb4JHA/8FPgtcL6DH0mS5p8DIUmSBmC89WwDYAtgB0bDopsDtwf2iO5Tb10GfBX4NqNr3X8K/AY4p9Xu4ug4SZK0fA6EJEkauPGwaH1GK4u2Ba7HaOvZzYFbA7tFNyrUD4BjGa3y+QnwS+D3wB+Bv3i4syRJw+RASJKkBTe+/Wx9YGNgK0YHXO8E3IDR+UU3Z3SWkfrnZEYDn5MYre75FXAacCZwPg58JElaWA6EJEnS1RoPjdZjdCPaJsCWwLWB6zIaHu0M7MJo5dHG0b0DdyajlTw/BU5hdE37r4HfAWcD5wF/xmGPJEmSJEmSJEmSJEmSJEmSJEmSJEmSJEmSJEmSJEmSJEmSJEmSJEmSJEmSJEmSJEmSJEmSJEmSJEmSJEmSJEmSJEmSJEmSJEmSJEmSJEmSJEmSJEmSJEmSJEmSJEmSJEmSJEmSJEmSJEmSJEmSJEmSJEmSJEmSJEmSJEmSJEmSJEmSJEmSJEmSJEmSJEmSJEmSJEmSJEmSJEmSJEmSJEmSJEmSJEmSJEmSJEmSJEmSJEmSJEmSJEmSJEmSJEmSJEmSJEmSJEmSJEmSJEmSJEmSJEmSJEmSJEmSJEmSJEmSJEmSJEmSJEmSJEmSJEmSJEmSJEmSJEmSJEmSJEmSJEmSJEmSJEmSJEmSJEmSJEmSJEmSJEmSJEmSJEmSJEmSJEmSJEmSJEmSJEmSJEmSJEmSJEmSJEmSJEmSJEmSJEmSJEmSJEmSJEmSJEmSJEmSJEmSJEmSJEmSJEmSJEmSJEmSJEmSJEmSJGk5/j9Q9aIX5RVK5AAAACV0RVh0ZGF0ZTpjcmVhdGUAMjAxNi0wNy0yNlQyMTo0NTozNCswODowMBBn2dYAAAAldEVYdGRhdGU6bW9kaWZ5ADIwMTYtMDctMjZUMjE6NDU6MzQrMDg6MDBhOmFqAAAAY3RFWHRzdmc6Y29tbWVudAAgR2VuZXJhdG9yOiBBZG9iZSBJbGx1c3RyYXRvciAxOS4wLjAsIFNWRyBFeHBvcnQgUGx1Zy1JbiAuIFNWRyBWZXJzaW9uOiA2LjAwIEJ1aWxkIDApICDOSJALAAAAAElFTkSuQmCC;" vertex="1" parent="1">
          <mxGeometry x="990" y="-10" width="40" height="40" as="geometry" />
        </mxCell>
        <mxCell id="Vr0tz_ug4oFLOFbfRHcb-26" value="" style="group;fontStyle=1" vertex="1" connectable="0" parent="1">
          <mxGeometry x="1250" y="110" width="200" height="150" as="geometry" />
        </mxCell>
        <mxCell id="Vr0tz_ug4oFLOFbfRHcb-17" value="" style="rounded=1;whiteSpace=wrap;html=1;arcSize=23;absoluteArcSize=1;imageWidth=15;imageHeight=24;fillColor=#FaFafa;strokeColor=none;" vertex="1" parent="Vr0tz_ug4oFLOFbfRHcb-26">
          <mxGeometry y="6.249999999999999" width="190" height="143.74999999999997" as="geometry" />
        </mxCell>
        <mxCell id="Vr0tz_ug4oFLOFbfRHcb-15" value="/devop/{project}" style="swimlane;fillColor=#fff2cc;strokeColor=#d6b656;container=0;rounded=1;startSize=30;arcSize=15;" vertex="1" parent="Vr0tz_ug4oFLOFbfRHcb-26">
          <mxGeometry width="190" height="150" as="geometry" />
        </mxCell>
        <mxCell id="Vr0tz_ug4oFLOFbfRHcb-33" value="deploy.sh" style="text;html=1;strokeColor=none;fillColor=none;align=left;verticalAlign=middle;whiteSpace=wrap;rounded=0;fontStyle=1" vertex="1" parent="Vr0tz_ug4oFLOFbfRHcb-15">
          <mxGeometry x="19.999999999999993" y="61.62904040404039" width="60" height="16.66666666666666" as="geometry" />
        </mxCell>
        <mxCell id="Vr0tz_ug4oFLOFbfRHcb-34" value="compose.template.yml" style="text;html=1;strokeColor=none;fillColor=none;align=left;verticalAlign=middle;whiteSpace=wrap;rounded=0;fontStyle=1" vertex="1" parent="Vr0tz_ug4oFLOFbfRHcb-26">
          <mxGeometry x="20" y="109.08522727272727" width="150" height="16.66875" as="geometry" />
        </mxCell>
        <mxCell id="Vr0tz_ug4oFLOFbfRHcb-48" style="edgeStyle=orthogonalEdgeStyle;rounded=0;orthogonalLoop=1;jettySize=auto;html=1;" edge="1" parent="Vr0tz_ug4oFLOFbfRHcb-26" source="Vr0tz_ug4oFLOFbfRHcb-33" target="Vr0tz_ug4oFLOFbfRHcb-34">
          <mxGeometry relative="1" as="geometry" />
        </mxCell>
        <mxCell id="Vr0tz_ug4oFLOFbfRHcb-39" style="edgeStyle=orthogonalEdgeStyle;rounded=0;orthogonalLoop=1;jettySize=auto;html=1;entryX=0;entryY=0.5;entryDx=0;entryDy=0;exitX=1;exitY=1;exitDx=0;exitDy=0;" edge="1" parent="1" source="Vr0tz_ug4oFLOFbfRHcb-1" target="Vr0tz_ug4oFLOFbfRHcb-33">
          <mxGeometry relative="1" as="geometry">
            <Array as="points">
              <mxPoint x="1230" y="30" />
              <mxPoint x="1230" y="180" />
            </Array>
          </mxGeometry>
        </mxCell>
        <mxCell id="Vr0tz_ug4oFLOFbfRHcb-46" value="2. Run script" style="edgeLabel;html=1;align=center;verticalAlign=middle;resizable=0;points=[];" vertex="1" connectable="0" parent="Vr0tz_ug4oFLOFbfRHcb-39">
          <mxGeometry x="-0.5842" relative="1" as="geometry">
            <mxPoint x="24" y="-10" as="offset" />
          </mxGeometry>
        </mxCell>
        <mxCell id="Vr0tz_ug4oFLOFbfRHcb-42" value="" style="outlineConnect=0;dashed=0;verticalLabelPosition=bottom;verticalAlign=top;align=center;html=1;shape=mxgraph.aws3.cloud_2;fillColor=#F58534;gradientColor=none;" vertex="1" parent="1">
          <mxGeometry x="1520" y="154.96" width="50" height="50" as="geometry" />
        </mxCell>
        <mxCell id="Vr0tz_ug4oFLOFbfRHcb-43" style="edgeStyle=orthogonalEdgeStyle;rounded=0;orthogonalLoop=1;jettySize=auto;html=1;" edge="1" parent="1" source="Vr0tz_ug4oFLOFbfRHcb-33" target="Vr0tz_ug4oFLOFbfRHcb-42">
          <mxGeometry relative="1" as="geometry" />
        </mxCell>
        <mxCell id="Vr0tz_ug4oFLOFbfRHcb-47" value="3. Read image(s)" style="edgeLabel;html=1;align=center;verticalAlign=middle;resizable=0;points=[];" vertex="1" connectable="0" parent="Vr0tz_ug4oFLOFbfRHcb-43">
          <mxGeometry x="-0.2421" relative="1" as="geometry">
            <mxPoint x="-2" y="-8" as="offset" />
          </mxGeometry>
        </mxCell>
        <mxCell id="Vr0tz_ug4oFLOFbfRHcb-49" value="" style="group;fillColor=none;strokeColor=none;" vertex="1" connectable="0" parent="1">
          <mxGeometry x="1250" y="450" width="150" height="100" as="geometry" />
        </mxCell>
        <mxCell id="Vr0tz_ug4oFLOFbfRHcb-50" value="" style="rounded=1;whiteSpace=wrap;html=1;arcSize=23;absoluteArcSize=1;imageWidth=15;imageHeight=24;fillColor=#FaFafa;strokeColor=none;" vertex="1" parent="Vr0tz_ug4oFLOFbfRHcb-49">
          <mxGeometry y="5" width="150" height="95" as="geometry" />
        </mxCell>
        <mxCell id="Vr0tz_ug4oFLOFbfRHcb-51" value="ENV" style="swimlane;fillColor=#fff2cc;strokeColor=#d6b656;container=0;rounded=1;startSize=30;arcSize=15;" vertex="1" parent="Vr0tz_ug4oFLOFbfRHcb-49">
          <mxGeometry width="150" height="100" as="geometry" />
        </mxCell>
        <mxCell id="Vr0tz_ug4oFLOFbfRHcb-55" value="AWS_ACCOUNT_ID" style="text;html=1;strokeColor=none;fillColor=none;align=center;verticalAlign=middle;whiteSpace=wrap;rounded=0;fontColor=default;" vertex="1" parent="Vr0tz_ug4oFLOFbfRHcb-49">
          <mxGeometry x="10" y="30.75999999999999" width="120" height="30" as="geometry" />
        </mxCell>
        <mxCell id="Vr0tz_ug4oFLOFbfRHcb-54" value="DOCKER_PASSWORD" style="text;html=1;strokeColor=none;fillColor=none;align=center;verticalAlign=middle;whiteSpace=wrap;rounded=0;fontColor=default;" vertex="1" parent="Vr0tz_ug4oFLOFbfRHcb-49">
          <mxGeometry x="10" y="70" width="120" height="30" as="geometry" />
        </mxCell>
        <mxCell id="Vr0tz_ug4oFLOFbfRHcb-52" value="AWS_REGION" style="text;html=1;strokeColor=none;fillColor=none;align=center;verticalAlign=middle;whiteSpace=wrap;rounded=0;fontColor=default;" vertex="1" parent="Vr0tz_ug4oFLOFbfRHcb-49">
          <mxGeometry x="10" y="51.76" width="120" height="30" as="geometry" />
        </mxCell>
        <mxCell id="Vr0tz_ug4oFLOFbfRHcb-76" value="" style="group" vertex="1" connectable="0" parent="1">
          <mxGeometry x="1560" y="-50" width="280" height="170" as="geometry" />
        </mxCell>
        <mxCell id="Vr0tz_ug4oFLOFbfRHcb-59" value="GitHub secrets" style="whiteSpace=wrap;html=1;fillColor=#f5f5f5;fontSize=14;strokeColor=#666666;verticalAlign=top;shadow=1;rounded=1;fontColor=#333333;arcSize=6;" vertex="1" parent="Vr0tz_ug4oFLOFbfRHcb-76">
          <mxGeometry width="280" height="170" as="geometry" />
        </mxCell>
        <mxCell id="Vr0tz_ug4oFLOFbfRHcb-60" value="" style="shape=image;verticalLabelPosition=bottom;labelBackgroundColor=default;verticalAlign=top;aspect=fixed;imageAspect=0;image=data:image/png,iVBORw0KGgoAAAANSUhEUgAABIQAAASECAYAAAAV0tQ2AAAABGdBTUEAALGPC/xhBQAAACBjSFJNAAB6JgAAgIQAAPoAAACA6AAAdTAAAOpgAAA6mAAAF3CculE8AAAABmJLR0QAAAAAAAD5Q7t/AAAACXBIWXMAAAEEAAABBADFKsCjAACAAElEQVR42uzdd5RtRYG28ZecM5JFEEGgwAQqKoZSBAzbAOgoijmHATHNZ0TFnBXDGMCsOAa0zIKlYMSAokWWnHPOcL8/zvZC07n7nPPu8PzW6nV1XDPzCJe+3W/vXSUBAAAAAAAAAAAAAAAAAAAAAAAAAAAAAAAAAAAAAAAAAAAAAAAAAAAAAAAAAAAAAAAAAAAAAAAAAAAAAAAAAAAAAAAAAAAAAAAAAAAAAAAAAAAAAAAAAAAAAAAAAAAAAAAAAAAAAAAAAAAAAAAAAAAAAAAAAAAAAAAAAAAAAAAAAAAAAAAAAAAAAAAAAAAAAAAAAAAAAAAAAAAAAAAAAAAAAAAAAAAAAAAAAAAAAAAAAAAAAAAAAAAAAAAAAAAAAAAAAAAAAAAAAAAAAAAAAAAAAAAAAAAAAAAAAAAAAAAAAAAAAAAAAAAAAAAAAAAAAAAAAAAAAAAAAAAAAAAAAAAAAAAAAAAAAAAAAAAAAAAAAAAAAAAAAAAAAAAAAAAAAAAAAAAAAAAAAAAAAAAAAAAAAAAAAAAAAAAAAAAAAAAAAAAAAAAAAAAAAAAAAAAAAAAAAAAAAAAAAAAAAAAAAAAAAAAAADCNZdwBAACgv0KspMHXI8vXHyvWHytLWlXSavWv//nXq9cfa9S//ud/fuf/bJX6f/+uHytIWlbScnf5WCLpNkm317/+5+NmSTfe6eOm+tfrJV1bf1xX//vr6n9/zRT/2X/+8xvq//2b649bJd1Wclri/vsAAAD6h0EIAAAMRYjVf4adlTUYZtaUtLakdSVtIGkjSZtK2qT+9e71r323RNJZks6VdF79cb6kCyVdIulySVdqMDZdp8GoxJAEAAAWhUEIAABMq36CZzkNnrpZU3eMO5tK2kLS1pLuLWnb+j/H+Fwi6SRJJ0v6twaj0nm6Y0S6RtKNJafb3aEAAKB5GIQAAOixEKtlNRh71pa0oaR7SLqXBgPPjpJ2Fl8vtN31kv4q6V8ajEenSTpH0sWSrtJgNOJpIwAAeoYv8AAA6LD6Na5VJK0jaWNJ95S0vaSdJD2s/p8D50n6vaTjJJ0o6QwNXlm7UtJNJSd3HwAAGDIGIQAAWq5+rWsVSXeTtLkGr3A9QIPB577uPnTCHzQYjP4u6RQNzju6TIxFAAC0FoMQAAAtUb/etZakzXTH6PMIDYYfwOUXkn6rO8ai8yVdy2toAAA0G4MQAAANUw8/a2rwtM8OknaRtLsGIxDQFn+RdJSkYyWdoMFraQxFAAA0BIMQAABGIVYra3C2T9Bg+NlDg4Ocga7Kkn4p6c8a3JJ2ccnpZncUAAB9wyAEAMAY1Of8rCFpS0n3lxQl7S1pdXcb0ADnSTpC0m8kHS/pnJLT9e4oAAC6jEEIAIAhu9P4c08NnvbZU9I+7i6gZW6Q9C0NniY6TtLZjEQAAAwPgxAAAItUv/a1uQZXuT9O0n7uJqCjrpT0dQ1Gor9LOr/kdIs7CgCANmIQAgBgHkKsltHgevcdJO0m6dmS7u7uAnrseA2eJPq1BmcSXVFycjcBANB4DEIAAMwgxGpFDZ7+eYgGr309yd0EYFZfkfQDDQ6uPr/kdJs7CACApmEQAgDgTkKsVpW0jaRHS9pXg9fAALTbkZK+LekYSadzqxkAAAxCAICeC7FaXdK2knaX9AJJW7mbAIzcnzV4iihL+nfJ6UZ3EAAA48YgBADolRCrVTQYgPaU9FJJ93A3AbD7q6RDJf1KPEEEAOgJBiEAQKeFWK2gwVM/u0t6kaQd3U0AGu83kr6kwUHVZ5ecbncHAQAwbAxCAIBOqW8B20TSrpKeI+nx7iYArfc1Sd+UdKykS7nFDADQBQxCAIDWC7FaTdJ9JT1N0gHuHgCddo2kD0n6oaQTS043uYMAAFgIBiEAQOvUTwFtrsFrYK+QdD93E4De+qWkL2jwmtlFPD0EAGgLBiEAQCuEWK2swVNAT5d0oLsHAKZwnaT3STpC0sklp1vcQQAATIdBCADQWCFW60l6uAZPAT3W3QMA8/QNDW4v+1PJ6Vp3DAAAd8YgBABojDu9CvZ4SW+QtIW7CQCG5E+SPiHpqJLTRe4YAAAYhAAAViFWy0raRoMDod/p7gGAMbhQ0rslJQ2utV/iDgIA9A+DEABg7EKslpe0o6T9JL3G3QMARkskvVXS/0k6lXEIADAuDEIAgLEIsVpBg0Ohnyfple4eAGiod0j6lqRTSk63u2MAAN3FIAQAGJn6SaD7SnqxpJe6ewCgZQ6W9HUNbizjySEAwFAxCAEAhirEajlJQdLzJR3g7gGAjniLBk8Onc44BAAYBgYhAMCi1beD3UvSczT4pgUAMBq3SXqtpO+UnM5zxwAA2otBCACwYCFWm0raR9KHJC3v7gGAnjlLgwOpf1xyutwdAwBoFwYhAMC8hFitJWlPDa5M3srdAwCQJB2jweflo0tON7hjAADNxyAEAJhViNWKknaR9HpJT3T3AABm9AVJn5J0PDeVAQCmwyAEAJhSiJUkbS3pRZLe4O4BACzI6yV9o+R0vjsEANAsDEIAgAlCrNaW9CRJH5a0vrsHADAUf9fgvKGjeKUMACAxCAEAJIVYLStpZ0lvlLSXuwcAMFKflnSIpBNLTu4WAIAJgxAA9FiI1YaSninpo+4WAMDYXSHpvyX9sOR0tTsGADBeDEIA0DMhVstJeoikd0h6tLsHANAIX5X0IUn/LDktcccAAEaPQQgAeiLEagNJz5L0EXcLAKCxrpX0ckk/KDld444BAIwOgxAAdFiI1TIanA10kKTHu3sAAK3yeQ0uGDiZs4YAoHsYhACgg0Ks1tDgcOhDJS3r7gEAtNrpkvaX9MuS003uGADAcDAIAUCHhFhtJelASa9wtwAAOultkj5fcrrQHQIAWBwGIQBoufqQ6Idr8Fj/A9w9AIBe+IEGlxMcx+tkANBODEIA0FIhVmtKeoak/3W3AAB661JJL5X0Y14nA4B2YRACgJYJsbq7pAM0eDUMAICmeL2kw0pOl7lDAACzYxACgBYIsZIGr4O9R9Ie7h4AAGbwBUnvLzmd5g4BAEyPQQgAGizEanlJj9Xgi+tN3D0AAMzD7zV4mvXYktMSdwwAYCIGIQBooBCrVSX9lwbXxgMA0GaXSnq+pJ+VnG51xwAABhiEAKBBQqzWk/QySQe7WwAAGIEXSfpmyel6dwgA9B2DEAA0QIjVphocxrm/uwUAgDF4o6TPl5yucIcAQF8xCAGAUYjV1pLeIemZ7hYAAAw+KOmjJacL3CEA0DcMQgBgEGK1g6QPS9rd3QIAQAN8XtLBJaez3SEA0BcMQgAwJvXV8TtL+qSkXdw9AAA00OGS3sKV9QAwegxCADBi9RD0EElflLSduwcAgBb4saTXlZxOcocAQFcxCAHAiNRD0MMkHSZpa3cPAAAt9HNJB5acTnCHAEDXMAgBwJDVQ9DDJX1Z0pbuHgAAOuAoSQeUnP7lDgGArmAQAoAhqYegh0r6iqSt3D0AAHTQLyXtX3I60R0CAG3HIAQAi1QPQQ/S4NWw7d09AAD0wI8kvbbkdIo7BADaikEIABYhxOp+kg6VdH93CwAAPfRdSa8vOZ3hDgGAtmEQAoAFCLHaVtIhkh7jbgEAAPqipLeVnM53hwBAWzAIAcA8hFhtIemDkvZxtwAAgEk+LOl9JadL3SEA0HQMQgAwByFWG0h6h6SXuVsAAMCs3iTpkyWna90hANBUDEIAMIMQqzUlvUbSQe4WAAAwby+W9JWS083uEABoGgYhAJhCiNVKkl4g6dPuFgAAsGhPlfTDktPt7hAAaAoGIQC4kxCrZSQ9SdIR7hYAADBUF0t6SsnpD+4QAGgCBiEAqIVY7SLpe5I2drcAAICR+Y2kl5ScTnGHAIATgxCA3gux2krS5yQ92t0CAADG5guS3lRyusQdAgAODEIAeivEah1Jb5N0gLsFAADYHCjpMyWnG90hADBODEIAeifEagVJL5T0GXcLAABojCdLSiWnJe4QABgHBiEAvRFiJUmPkXSkuwUAADTS6ZL2Kjn9wx0CAKPGIASgF0Ks7iXpy5Ie6m4BAACN9xVJry85XewOAYBRYRAC0GkhVmtpcE7Qge4WAADQOgdocL7Qze4QABg2BiEAnRRitaykZ0j6ursFAAC03mNKTr9yRwDAMDEIAeicEKv7SUqSNnO3AACAzjhK0gtLTme5QwBgGBiEAHRGiNV6kj4g6QXuFgAA0FlvlfThktMN7hAAWAwGIQCtV78etp+kL7lbAABAb+xecvqlOwIAFopBCECrhVjdR9KPxethAABg/I6U9IKS0znuEACYLwYhAK1U3x52sKRXuVsAAEDvvU7SJ7mNDECbMAgBaJUQK0l6iqTvu1sAAADuZImkh5ac/ugOAYC5YBAC0BohVltocI38Q90tAAAA0/iSpNeWnC53hwDATBiEADReiNUKkv5b0ofcLQAAAHP0DEnfLjktcYcAwFQYhAA0WojVTpKOkbSKuwUAAGCe/iLpaSWnM90hAHBXDEIAGinEanUNDo3e390CAACwSAdI+lTJ6VZ3CAD8B4MQgMYJsXqspF+4OwAAAIboCkmx5PQPdwgASAxCABokxGpdSZ+R9HR3CwAAwIi8R9K7Sk43ukMA9BuDEAC7+ir5J0s6wt0CAAAwJruUnP7kjgDQXwxCAKxCrDaU9GVJe7hbAAAAxuyTkv5fyek6dwiA/mEQAmBRPxX0dEmHu1sAAADMHl5y+q07AkC/MAgBGLv6qaCvSdrN3QIAANAQn5L0Rp4WAjAuDEIAxqZ+Kuhpkr7tbgEAAGioXUtOv3NHAOg+BiEAYxFitb6kr0h6nLsFAACg4T4m6U0lpxvcIQC6i0EIwMiFWD1B0o/cHQAAAC2zc8npr+4IAN3EIARgZEKs1pL0aUn7ulsAAABa6h2S3l1yusUdAqBbGIQAjESI1SMk/cbdAQAA0AFXSnpIyekkdwiA7mAQAjBUIVYrSTpY0uvcLQAAAB3zCkmfLTktcYcAaD8GIQBDE2IVJP1F0sruFgAAgI46VtJTSk4XuEMAtBuDEIBFC7FaRtKrJH3C3QIAANATTyk5/cAdAaC9GIQALEqI1UaSjpD0YHcLAABAz3xJ0qtKTte5QwC0D4MQgAULsXqcpJ+4OwAAAHruASWn49wRANqFQQjAvIVYrSzpI5Je7m4B0EuXSLpI0hWSrqo/rpZ0Tf1xg6Sb6o+b7/TrbZJun+Jjmfpj2bt8LC9pRUkr1R8ranBG2iqS1qg/1pK0pqS1Ja0raaP6XwPAuL1W0sdKTre7QwC0A4MQgHkJsdpW0j80+MYIABbiKkmnSTpd0tmSzpV0oaTLdMe4c60Gw86Nkm7RHWPOkpKTu39GIVbSHQPT8pJW0GBIWlXS6rpjQFpf0saSNpN0D0n3lLS1OJgfwML9WVJVcrrIHQKg+RiEAMxJ/Q3O8yUd6m4B0FgnSjq+/vV0SedJuliDJ3n+8+TOrVyXPLP6oP4VNXgSaU0NnjzaQIPh6F6StpN0X0lbulsBNNZjS05HuiMANBuDEIBZhVitJekrkp7kbgFgc7GkP2rwhOBJks6UdIGkyyVdp8HQ427slXqoX1HSaho8bbSJBk8ZbSvpfpIeVv9nAPrpA5LeUnK6xR0CoJkYhADMKMRqJ0l/cXcAGIsi6TeSjpN0iqRzJF0q6TrOpGinEKvlNXhNbQNJm0u6t6SdJUUNXlMD0G3nSnpYyelsdwiA5mEQAjCl+pWFV0g6xN0CYKiul/RTSb/V4GmfMzU4pPk6XuXqlxCrZTU4GHtDDZ4sur+kR0raw90GYOiqktOP3BEAmoVBCMAkIVZrS/qW+KYAaLNbJR0hKWvwxM+Zki4rOd3sDkOz1a+irazBU0X31OCJosdI2tPdBmBRPibpjfw5AOA/GIQATMArYkAr/V1SkvQ7SSdrcGPXjZzpg2Gqh6LVNDirKEh6hKSniMOtgTa5QNIuvEIGQGIQAlCrv9B/iaT/dbcAmNExkn6gwQHPp2rw1M9t7ij0V4jVCho8TbStpF0l7S1pR3cXgBk9ruT0M3cEAC8GIQAKsVpd0mGS9nG3AJjg75K+o8EIdJKkSzncGW1QH2a9oaQdJD1K0r4aHGoNoDkOlnQQP1QA+otBCOi5EKvtJJ3g7gCg2zQYZn8q6W+SzuOqYHRJiNXKGtxs9iBJTxI/hACa4HhJjy05XewOATB+DEJAj4VY7a3B0wcAxu80SV+RdKQGo+xVnPmDPqlvs1xf0n00OLD6hZLWcXcBPfWQktMf3REAxotBCOih+lH+90s60N0C9MhfJX1Z0q8k/bvkdKM7CGia+hXmbTW45fJFkrZwNwE98nJJn+WHE0B/MAgBPRNitaEG11Bv524BOu4vGrwC9msNBqCb3EFA24RYrabBQPRYSS/T4JUzAKNzuKQXlJyud4cAGD0GIaBHQqwerMHNRACG7xxJn9HgDKCTeAIIGL4QqzU0uMHsyZL2l7SSuwnooBskhZLTGe4QAKPFIAT0RIjVCyR90d0BdMynJX1b0t9KTte4Y4A+CbGSpPUk7SLp2ZKe4W4COuaxJacj3REARodBCOi4EKsVJR0i6cXuFqADjpH0eQ1eAzu35LTEHQRgIMRqOUn3lLS7pP+WtI27CeiA10n6CH/eAd3EIAR0WIjVRpL+IA7lBBbjE5K+JekfnKkAtEeI1VqSHizpuZL2dfcALfYDSfvyZyDQPQxCQEeFWO0s6c/uDqCFztHgFr4fSzqLn4oC7VffrrmNpL0kvV3S8u4moGWuk7R9yelsdwiA4WEQAjooxGpfSV93dwAt8mtJn5L065LTpe4YAKNTnz20mQZX279Og1vMAMzNI0pOx7gjAAwHgxDQIfX5Ce+V9Hp3C9AC35X0WUl/KDld544B4BFitY6kKOk1knZ19wAt8JKS0+fdEQAWj0EI6IgQqzUl/UTSw9wtQIN9SYPb9v7CtfAA7qr+s3RXSa+S9Dh3D9Bgn5X06pLTre4QAAvHIAR0QIjVPSX9290BNNRXNfjC9S8lp5vdMQDaIcRqdQ3GoddocHMZgIn+Jmm3ktMV7hAAC8MgBLRciNXDJR3t7gAa5nANzgQ6tuR0kzsGQLuFWK0h6ZEanDn0SHcP0DDblJxOdUcAmD8GIaDFQqyeL+lQdwfQEL+W9AFJv+FqXACjUp85tKekgzS4uQyA9JiS06/cEQDmh0EIaKEQq2UlvU8cHg2cLunNkn7OI+sAxi3EamNJT5X0MUkruHsAsxeXnL7gjgAwdwxCQMuEWK2qwe1Ie7pbAKP/kfSNktM57hAACLFaRtK9Jb1Y0oHuHsDoQ5LeWHK63R0CYHYMQkCL1D+JPF7S+u4WwOBQSZ+UdDxfaAJoqhCrFSXtIun/iR/eoJ9+LmkvXt8Gmo9BCGiJEKsdNRiDgD45TdIbNXgl7Dp3DADMR4jVepL2knSIpBXdPcAYXSZph5LThe4QANNjEAJaIMRqN0m/dHcAY/QOSYeVnM5yhwDAYtWvlG0v6dWSXuruAcYolJxOcEcAmBqDENBwIVbPk3SYuwMYg79IepMGt4Td7I4BgFEIsVpd0hMkfULSBu4eYAweXXLK7ggAkzEIAQ1V/zTxIElvc7cAI3aQpC+WnM51hwDAuIRYSdK2kvaX9DJ3DzBi+5WcvuaOADARgxDQQCFWK0j6kqR93S3AiJwm6QBJv+RpIAB9F2K1hgZnDX1B0vLuHmBE3izpPSUndweAGoMQ0DD1F4VHSnqQuwUYgc9K+mjJ6RR3CAA0Tf108E4aPB1cuXuAEficpFeUnG5zhwBgEAIaJcRqI0knSVrL3QIM2UslfavkdLU7BADaoP6a4MWS3uluAYbsKElVyekGdwjQdwxCQEOEWG0j6WR3BzBEf5d0oKSj+UkgACxMiNXKkp6owetk/MAIXXG2pAeUnC5zhwB9xiAENECI1QMlHevuAIbkSxqcEXCqOwQAuuJOr5O9X9Kj3T3AkNyj5HS2OwLoKwYhwCzEandJP3d3AEPwFkmfKzld4g4BgC4LsdpC0uslvcLdAgzBDiWn4o4A+ohBCDAKsXqmpG+4O4BFerak73EWAACMV4jVOpKeL+nD7hZgkR5Wcvq9OwLoGwYhwCTEan9JH3N3AAt0gQbfhBzJ+UAA4FWfM7SPpK+6W4BFqEpOP3JHAH3CIASMWYiVNLgx5K3uFmAB/ihpf0nHlpzcLQCAOwmxWk7S7hqc5baBuwdYgP1KTl9zRwB9wSAEjFGI1bKSDpH0cncLME8/lvSGktMJ7hAAwMzqA6gfKulzkrZ39wDz9OqS0yHuCKAPGISAMQmxWkGD84L2cbcA8/ANSW8rOf3bHQIAmJ/6qeSdJH1Cg4EIaIuDJL2Dp5GB0WIQAsYgxGoVDW4Se7i7BZijz0k6uOR0jjsEALB4IVZB0kc0eKUMaINPStq/5LTEHQJ0FYMQMGIhVmtI+oOk4G4B5uCzGgxB57lDAADDF2K1nQa3kj3O3QLMwVckvYALLIDRYBACRqi+DvZfkjZxtwCz+JSk95SczneHAABGL8RqW0kflPREdwswix9K2qfkdIs7BOgaBiFgREKsNpR0lqSV3C3ADD4v6SCGIADop/qJoU9I2s3dAszgaEl7lJxudIcAXcIgBIxAiNVmkjh7BU32NUlvLjmd7Q4BAPiFWO2owWvDHD6NpvqnpIeUnK5zhwBdwSAEDFmI1T0knenuAKZxhKTXlpxOd4cAAJonxGonSV+StIO7BZjCvyU9oOR0tTsE6AIGIWCIQqzuJelUdwcwhT9IenHJqbhDAADNVl9X/whJ35O0nrsHuIsLJW1fcrrCHQK0HYMQMCT14YwnujuAuzhT0jNKTn9yhwAA2iXEallJj5eU3C3AXVwj6Z4lp0vdIUCbMQgBQxBiFTS4TQxokj0l/aLktMQdAgBorxCr5SU9S4NXyYCmuF3SxiWni90hQFsxCAGLVB/CeLy7A7iT50n6esnpVncIAKA7QqxWk7S/pHe7W4A72ajkdJE7AmgjBiFgEUKs7iPpH+4OoPZmSZ8oOV3rDgEAdFeI1QaS3iXpJe4WoLZxyelCdwTQNgxCwAKFWN1P0nHuDkDSVyW9gS+EAADjFGJ1b0mHSXqIuwWQtEnJ6QJ3BNAmDELAAjAGoSH+JemZJSfOrwIAWNQ3kj1K0pGSlnP3oPcYhYB5YBAC5onXxNAQj5P0s5K5+AUA4FcfPL2fpEPdLeg9Xh8D5ohBCJgHDpBGAxwo6dMlp5vcIQAA3FWI1dqSDtLg8GnAhYOmgTlgEALmiKvlYfYtSa/hJ14AgDaozxf6uqSd3C3orQ25kh6YGYMQMAchVttKOtHdgV66WNLjS05/dYcAADAf9flCj5P0E3cLeulWDZ4UuswdAjQVgxAwixCre0k61d2BXnq+pK+WnG5zhwAAsFAhVqtIer2kd7hb0DtXSdqi5HSlOwRoIgYhYAYhVveQdKa7A71zmKTX8xMtAECXhFhtKemrkh7mbkGvnC9p25LTNe4QoGkYhIBphFhtJukcdwd65UpJjyk5/c0dAgDAKPAaGUxOlXT/ktN17hCgSRiEgCmEWG0oicN7MU6vkPQ5Xg8DAPRBiNVqkt4m6Q3uFvTG3yU9pOR0ozsEaAoGIeAuQqzWkXSBpJXcLeiFn0p6UcnpfHcIAADjVt/i+mNJ93C3oBeypD1KTre4Q4AmYBAC7iTEag1JJ0naxN2CXti95PRLdwQAAE4hVstKeo4GZ+gBo/Z9SU/jqWyAQQhYqr4B48+SgrsFnfdxSW8pOV3rDgEAoClCrDaSdKgGZwwBo3SYpBeWnJa4QwAnBiFAUojVCpKOkvRwdws67UZJu5ac/uoOAQCgqUKsHq/Ba2TAKH1M0mtKTu4OwGZZdwDgVj+m/A0xBmG03iBpTcYgAABmVnL6iaS1JP2vuwWddoCkN7sjACeeEEKv1VefflrSy90t6KyzNTgr6GR3CAAAbRNitaukY9wd6LRXlJw+444AHHhCCH33TjEGYXT+W9I9GYMAAFiYktNvJa0m6aPuFnTWp0OsnumOABx4Qgi9FWK1vwbvDgPDdqKkJ5acTneHAADQFSFWD5L0J3cHOuvxJaefuiOAceIJIfRS/VOAj7k70EmvkrQDYxAAAMNVcjpW0qqSPuJuQSf9JMRqF3cEME48IYTeCbHaXdLP3R3onLMk7VZyOs0dAgBA14VYPUTS790d6KTtS04nuiOAceAJIfRKiNUDxRiE4XutpK0YgwAAGI+S0x8kra7B5SDAMJ0QYrWZOwIYB54QQm+EWG0jicN9MUw3SHpgyam4QwAA6KsQq0dLOsrdgc5Zt+R0hTsCGCWeEEIvhFhtJMYgDNcHJK3DGAQAgFfJ6VeS1pX0A3cLOuXYEKuV3RHAKPGEEDovxGoNSedIWsvdgs7YteT0O3cEAAC4Q4iVJD1d0uHuFnTGTyRVJafb3SHAKDAIodNCrFaQ9FtJD3K3oBP+T9KLSk5Xu0MAAMDU6vNffiFpO3cLOuFTkl5VcnJ3AEO3nDsAGJUQq2UkfUXSnu4WdMIzSk4HXXLmKTe5QwAAwPQuOfOUqzfY8t6flXS9pN3cPWi9B0m64ZIzT+HpcHQOTwihs0Ks3iHpbe4OtN4Zkh5dcjrTHQIAAOYnxGpnSX92d6ATnlFy4nVEdAqHSqOTQqyeJ8YgLN5BkrZhDAIAoJ1KTn+RtIakb7lb0HrfCrHa1R0BDBNPCKFzQqx2k/RLdwda75Elp6PdEQAAYDhCrPaV9HV3B1pv25ITtxejExiE0CkhVjtKOt7dgVY7RtJeJadL3SEAAGC4Qqy2lvRXDZ4aAhZqw5LTxe4IYLF4ZQydEWK1sRiDsDj7a/BkEGMQAAAdVHI6VdLdJB3ibkGr/TXEamV3BLBYPCGETgixWlXSWZLWd7egtR5ccjrWHQEAAMYjxOqpkr7n7kBr/UDSU0tOS9whwELxhBBaL8RqWUnfFWMQFuY3ktZjDAIAoF9KTt+XtJWkq9wtaKUnS3qXOwJYDAYhdMH7JO3pjkArvU5SLDld7g4BAADjV3I6XdJGkj7nbkErvTnE6jnuCGCheGUMrRZi9XxJh7o70Eq7lpx+544AAADNEGL1DEnfdHeglR5RcjrGHQHMF4MQWivE6uGSuBYc83WypEeVnC50hwAAgGYJsQqS/uXuQCvds+R0hjsCmA9eGUMrhVjdU4xBmL+PSNqBMQgAAEyl5FQkrSXp5+4WtM7pIVZruiOA+eAJIbRO/YmWw/8wX3uXnLhJBAAAzCrEahlJB0r6kLsFrfJbDZ5Ev80dAszFcu4AYD5CrJaTdKSkzd0taJVQcuKJMgAAMCeXnHmKLjnzlD9ssOW9fyuJQ4MxV5tLWuOSM0/hCTO0Aq+MoW3eK+lh7gi0xjGS1ik5neAOAQAA7VNyOkrSlpKuc7egNV4TYrWfOwKYCwYhtEaI1b6SXu/uQGu8S4NHdq90hwAAgPYqOZ0paQNJ33W3oDW+EmL1YHcEMBvOEEIrhFjtLOnP7g60xl4lp++7IwAAQHeEWEnSa8W5Qpi7TUtO57sjgOkwCKHxQqw2knSBuwOtcd+S0/HuCAAA0E0hVntK+qm7A61wkaQtSk43ukOAqfDKGBotxGpFSX9wd6AVTpK0AWMQAAAYpZLTzyRt6+5AK2wo6Yv102VA4zAIoekOkbSFOwKN9wVJ9yk5XeIOAQAA3VdyOlnSOpKOdbeg8faV9Ep3BDAVXhlDY4VYvUDSF90daLz9JX2i5OTuAAAAPRNitbykT0h6ubsFjfeIktMx7gjgzhiE0Ej1qfx/dHeg8R5fcuIdfgAAYBVi9UoNnmwHZnL3ktO57gjgPxiE0DghVhtKutDdgcbbseT0L3cEAACAJIVY7S7p5+4ONNrFkjYvOd3kDgEkzhBCw9SP3WZ3BxrtPEkbMgYBAIAmKTn9QlJwd6DRNpD0KXcE8B8MQmia90vazh2BxvqppK1LThe7QwAAAO6q5HSCpI00eBIEmMoLQ6ye644AJF4ZQ4OEWO0t6TvuDjTWhyW9oeR0uzsEAABgJiFWq0o6QtJj3S1orAeUnI5zR6DfGITQCCFW20k6wd2Bxnp5yemz7ggAAIC5CrFaVtJHNLgRFZjKeiWny90R6C8GIdiFWK0u6Rp3BxqrKjn9yB0BAACwECFW+0v6mLsDjXSMpEfxBDxcOEMIViFWknSYuwON9WDGIAAA0GYlp49Lerq7A430cElvcEegvxiE4PYSSfu4I9BIW5ecjnVHAAAALFbJ6f8kPdLdgUZ6b4gVvzdgwStjsAmx2knSX9wdaJxLJO3ATWIAAKBrQqyCpH+5O9BIm5ScLnBHoF8YhGARYrW2pCvcHWicv0iKJadr3SEAAACjEGJ1d0lnuzvQOCdK2rHkdJs7BP3BK2MYuxCrZSR9y92BxjlC0sMYgwAAQJeVnM6RtL6kc90taJTtJL3dHYF+YRCCwysk7eGOQKN8StLeJaeb3SEAAACjVnK6TNK2kn7vbkGjvDXE6jHuCPQHr4xhrDg3CFN4q6SDS07uDgAAgLEKsVpB0tfELWSYiPOEMBYMQhibEKu1JF3p7kCjvLrkdIg7AgAAwCXEallJh0h6ubsFjfEvSffjPCGM2nLuAPRDiJUkfVvSvd0taIznlJy+4I4AAABwuuTMU5ZssOW9fyxpRUkPd/egETaQdPMlZ55yjDsE3cYghLHYYMt7P1/SG9wdaIynlJy+7Y4AAABogkvOPEWXnHnKrzbY8t7XSdrd3YNGePQGW977yEvOPOUcdwi6i1fGMHIhVttqcI0iIEm7lZyOckcAAAA0UYjViyV9zt2Bxliv5HS5OwLdxC1jGKkQq5Ul/cPdgcbYlTEIAABgeiWnz0vaz92BxvhmiBUPcmAkGIQwah/R4H1o4EElp9+5IwAAAJqu5PQ1SU9zd6ARdpf0YncEuomlESMTYvU4ST9xd6AR7ltyOt4dAQAA0CYhVk+UlNwdaITtS04cw4GhYhDCSIRYbSTpAncHGoE/vAAAABYoxOqxkn7h7oDd9ZLWLTnd5A5Bd/DKGIaufsf1CHcHGmFbxiAAAICFKzn9UtJj3B2wW1XS+9wR6BYGIYzCqyQ92B0Bu21KTie7IwAAANqu5PQrSdHdAbsDQqx2c0egO3hlDEMVYhUk/cvdAbt7lZz+7Y4AAADokhCrR0j6jbsDduuXnC5zR6D9eEIIQxNitZKkv7g7YHdPxiAAAIDhKzkdLenh7g7YfTXEyt2ADmAQwjAdLGlldwSs7lVyOsMdAQAA0FUlp99KeqS7A1aPk/RsdwTaj1fGMBQ8vgoNzgw61R0BAADQByFWj5KU3R2w2rLkdKY7Au3FIIRFC7FaS9KV7g5YbcsB0gAAAOMVYvUYSUe6O2BzqqTtSk63uUPQTrwyhmH4tDsAVtszBgEAAIxfyekoSXu4O2CztaRXuyPQXjwhhEUJsXqCpB+5O2Bz35LT8e4IpxCrZSQtL2lFDc7QWq7+98tJul3SbfXHTZJulnSrpNtKTkvc7QAAtFGI1XKSVpW0hqR1JN1N0rr1v19T0lq648/gWyVdK+kiSZdKukLSBZKu6tJTFSFWlaQfujtgs33J6UR3BNqHQQgLFmK1vqRL3B2weVDJ6c/uiHEKsdpKg5/E7CzpgfWvmyzw/9zFkk6QVOqP0ySdI+lCSdd06YtUAADmq75BaVVJG0naVtIDNPhz9xEajEDDcImkL0n6qaTj236Nd4jV0yR9290BiyskbVhyusUdgnZhEMKC1H9I/0SDE+7RP7uWnH7njhinEKu7Szp7jP8vz9bgn7FjJB1f//urS07uvxQAAAxdiNWqkrbQ4AcuT5D0NEPGciWn291/LRYjxOo5kr7s7oDFQSWnd7gj0C4MQlgQfgLRa7vV76v3SojV+yW9wd2hwT93P5H0J0lnlJxucgcBADAf9Q8W15G0owY/XHyxpPXcXZJWLzld545YrBCrl0r6rLsDFvcvOf3dHYH2YBDCvIVYbajBay3on6eUnH7gjhi3EKvVNDh/oIlOlvRVST+TdGLJ6Xp3EAAAdxVitbqk+0h6iqQDNThrr2k2Kzmd544YhhCrN0p6n7sDY3erpNVKTje7Q9AOy7sD0C71T3S+5u6AxXP6OAbV9nIHzODekg6uPxRidYqkz2nwFNFpvEsOAHCoL13YQtKekvbX4M+rpttAUicGoZLT+0Os1pH0RncLxmp5SW+R9DZ3CNqBJ4QwLyFWT5d0uLsDY/fqktMh7giHEKtlNfhpS1s/X/5A0qGSfltyutwdAwDorhCrFSXdT9K+GoxAbfOkklNnDuurR7nPSnqJuwVj94CS03HuCDRfW7/BgQGvivXWW0tOB7sjXEKsHiLp9+6OITlT0ock/UjS2SWnJe4gAEC71YdBP0iDc4D2dfcs0gElp4+7I4ap/sHW/6nZTztj+G7T4NUxzprEjHhlDHNSvyrGjQX98ynVryL1WJceud1C0iH1x+0hVm+R9F1JpzIOAQDmKsRqZUm7SHq1ujU0bOMOGLaS0+0hVs+U9FsNbnBDPywn6f9JOsgdgmbjCSHMSYjVkyUd4e7AWB0hae+2X7+6GCFW60m61N0xJm+W9C1Jp3O1PQDgrkKslpe0s6RXSnq2u2dEji45PdIdMQr1od6nSdrQ3YKx2rHk9C93BJqLQQizCrFaV9Jl7g6M1V8kPazvNxT09NrWmyW9VtJ3S04XuGMAAD71GTRbS3q+pP9x94zB1SWntdwRoxJitb6kS9wdGKvLJG1UcrrVHYJmYhDCrEKsDpf0dHcHxuYSSfcsOTX1mvWxqL8IvlXSsu4Wo39p8Kjxz/v++wEA+qR+QnYvSZ+UtJK7Z8yW6/LT0SFWm0s6y92BsXpdyenD7gg0E4MQZhRi9VhJv3B3YKw2LDld7I5wC7G6j6R/uDsa5KuSPirpH13+QhkA+qp+Jewhkt6kwVXxfbVKyelGd8QohVjtKOl4dwfGauuS02nuCDQPgxCmVb9rfI27A2PFHxa1EKsvSnqBu6OhXiXp8JJTX85XAoDOCrHaWNJzJb3X3dIQ65ecOn9UQohVlPQrdwfG5gRJO3CJCO6KQQjTCrH6mKT93R0YmweXnI51RzRBfXvKDe6OFvihpHdL+gtPDQFAe4RYLSdpV0nvkNTJQ5QXYauS0+nuiHGobx/7hrsDY/O8khO3RmMCBiFMKcRqJw0OFkY/VCWnH7kjmoKfmi3ICzQ4iPpqdwgAYGr1RSHPlHSIu6XBevUDshCr10n6oLsDY7NRyekidwSaY3l3AJonxGoFSce4OzA2L2cMmuQAd0ALHSrp0BCrz0j6CK8eAkAzhFhJUpD0Rkn7uXtaYCN3wJh9SNJWkl7mDsFYfFHSE90RaA6eEMIkIVav1eAPB3Tfh0tOr3NHNAlnZw3NnzW4vv53vE4GAONXHxL9aA2eBtra3dMiryg5fcYdMU71K4S/kvQIdwvGYs+S08/dEWiGPl+njCmEWG0hxqC++KmkN7gjGoizFIbjgZKOlnRbiNWzQqxWcQcBQB+EWK0ZYvVySbdI+rkYg+ZrC3fAuJWcbpP0BPEDsb74WYjVau4INAODEJaqHyn+ursDY3GepL15cmNKr3cHdNDXJF0fYvX6+vwKAMCQhVhtEmL1fklXSfq0u6fFtnIHOJScrpW0rbsDY/N2dwCagVfGsFSI1VMkfd/dgbHYsOR0sTuiaXhdbGw+Ken9Jafz3CEA0HYhVttJeqekfdwtHXF8yem+7giXEKv7SPqHuwNjsWPJ6V/uCHgxCEGSFGK1lqQr3R0YCz75TyPE6tGSjnJ39Mg3JL2dA6gBYH7qp7ofJOkTkh7s7umYW0pOK7ojnEKsnigpuTswcudJ2pw3BvqNV8bwHwe7AzAWj2cMmtHz3QE9s6+kU0OsfhZiFdwxANB0IVbLhlg9VtLZkv4kxqBRWCHEqtffI9W3zx7o7sDIbSrpue4IePGEEHg0tD/2Lzl9wh3RVCFWK0i62d3Rc7/W4Pfp8e4QAGiS+haox0v6tqSV3T09sFLJqddfE9RPoR0qfljWB3crOV3qjoBHr9dvDH7SJOnH7g6M3Oc1eKwc09veHQA9StI/Qqx+H2J1P3cMALiFWK0QYvU0SbdK+qEYg8al93+dS06S9FJJPFnefR91B8CHQQj7SdrMHYGROknSK+s/2DG9p7sDsNRDJB0XYvWbEKsd3DEAMG71EPQMDZ5c/ba7p4dWdwc0QcnpFknR3YGRe3aIFa+f9hSvjPVYiNV6kng8sPs2KDld4o5osvqx6OslreJuwZR+ocGrZCe5QwBglOrXl/eW9E13S89tx585d6h/OPNPdwdG6kZJa5ScbnWHYLx4QqjfPuAOwMjdlzFoTtYXY1CT7S7pxBCrb4VY3cMdAwDDFmK1XIjVPho8EcQY5LeOO6BJ6gtJnuLuwEitLOlF7giMH4NQT9Xnc7zA3YGR2ovDeefsQe4AzMl/STozxOpTIVYbumMAYLHqW8OeqMEZQf/n7sFS67sDmqbk9ANJb3F3YKQ+E2J1N3cExotBqIfqg6Q5UKbb3lVy+r47okWe6Q7AvLxC0oUhVm8NseKcBwCtE2KlEKtHS7pSfE3WRBu4AxrqPZJ+5o7ASH3EHYDxYhDqp2eIg6S77GhJB7kj2qIeSJ/t7sCCvFPSNSFWL6jP3QCAxguxeqCkUyQdJWkNdw+mtLE7oIlKTkvEJRxd9+wQq53cERgfBqGeCbFaS9LX3R0YqSeXnG53R7TIpu4ALNoXJd0cYrVHfUA4ADROiNW9Q6x+LelYSVu7ezCjTdwBTVVyukbSNu4OjNTP6h+Yogf4G90/b3MHYKRCyelKd0TLPNAdgKH5maR/hljt6A4BgP8Isdo4xOpLkk6S9Eh3D+bk7u6AJis5nSrpCe4OjMz64jiF3mAQ6pEQq3tJOtDdgZHZu+R0gjuihZ7sDsBQ7SDp+BCrr4VYbeSOAdBfIVarh1gdJOl8Sc9192BetnAHNF3J6SfiB81d9rUQqzXdERg9BqGeqF+j+LK7AyPzkZLT99wRbRNitYyk57g7MBLPknRBiNWBIVYruWMA9Ed9hfx+kq6R9HZ3DxZkS3dAS7xb0u/cERiZN7sDMHrLuAMwHiFWj5F0pLsDI3GSpB1LTre6Q9omxGp9SZe4OzAWe0r6eclc5tNndzljapm7/HrXf31XS+7y69J/ze8r/EeI1SMl/VISB92337L1IcqYQYjVupIuc3dgZO5Vcvq3OwKjwyDUA/XtOze7OzAyG5ecLnRHtFGIVZT0K3cHxuaPkp7NFzbNVz+9t5yk5SWtJGllSavWH6tpcDPTmnf6dU1Ja9Ufa9zp368pafX6Y436f38UbpZ0Xf1xjaSr61//86+vqn+988c1kq6tf71O0vWSbpB0U/1xq6Tb+Ya0HUKs7inpC5KiuwVDs3zJ6TZ3RBuEWD1A0l/dHRiJo0tOnH3WYQxCPRBi9TJJn3F3YCR2LTnxqO4ChVi9Q7z/3kcHS3pvyel6d0gf1E/lLKvBsLOaBiPNupI2qD82kbSZBmd23EODVzVWcXc3yHWSzpB0lqRz64/zJV0k6VJJl2swMF0n6UZJt/LE0viEWK0h6S2S3uBuwdCtUnK60R3RFiFWz5d0qLsDI/GIktMx7giMBoNQx4VYraPBF4vonteVnD7sjmizEKvjJXEjVX9Vkn7EN88LVz/Js6IGT+CsJ2kjDW7n2UrStpK2l3Qf8fXGuJ0l6QRJJ0s6rf73F2jwiuyVGjyNxHC0CPXv/b0l/Z+7BSOzdsnpKndEW9Tj/zfE7VRddIOkNXhirpv4Aq3jQqw+KukAdweG7teSHs2rBAsXYrW8pFvcHbA7RtJ+Jaez3CFNVH+Bv6KktTUYe+4h6d6S7ivpwZK2djdiUf4i6W+SiqRTJZ0t6WINXnG7mcFoaiFWQdL3xe//ruOV/HkKsVpNg1dh0T3PKTl91R2B4WMQ6rAQq600+Mkgume9khNPfi1CiNUmks5zd6AxXi/pEyWnXp63Vp81t46kTSVtI+kBkh5Wf6C//lh//EODCwzO0eDw2Bv7OBbVr4cdJOlAdwvGgsN0FyDEajsNnlBE96xZcrrGHYHhWt4dgJH6nDsAI/FgxqCh2N4dgEb5oKQPhFg9pOT0J3fMqIRYrShpfUn3lHR/DQafPTR4Agi4q13qj0lCrH4j6WgNnjA6SYNzja7p4pOr9ZNyT5L0A3cLxmoNd0AblZxODLF6lqSvu1swdK8XZ292Dk8IdVSI1S6S/uDuwNDtX3L6hDuiC0KsDpL0dncHGumzkt5YcrraHbJQ9fkma0raXIPXux4l6SkanPMDjNKxkn4u6U+STpR0QcnpBnfUQoVY3V3SVyVxy07/PLLkdLQ7oq1CrL4s6TnuDgzdpiWn890RGB6eEOqg+huB77k7MHRHS/qkO6JDHuMOQGO9TNLLQqyeWHL6sTtmNvXTC2tpcJDzgyU9ToMDswGHB9UfS4VY3SjpO5J+qcHV1GdJurbJr52FWC2nweeCQ9wtsFnLHdByLxeDUBd9QNKz3REYHp4Q6qAQqydLOsLdgaG7W8npUndEF9Sj6e3uDrTCjyS9sOR0sTvkP+rXvjbX4JvuJ4obXdBOt2vw5M3PNDjc+uymnOEVYrWtBk85be5ugdXzSk5fdke0WYjVDpL+6e7A0IWSE+dEdQSDUMeEWK0k6UZ3B4aOx5aHKMRqdUkciof5+C9J33Y80VD/ft1Wg6faniPOv0J3naTBSHSUpBPH/dpmffvk6yS91/0XAo3w2pLTR9wRbRdi9WJxrmnX/FnSg5r8lCfmjlfGuucF7gAM3UGMQUO3sTsArXO4pFeGWD1z1O/O1wNQ0ODVr5dJ2tD9Xx4Yk20lvbv+UIjV1ZI+I+nHko4vOV01qv/HIVb3lvQb8c8b7rC+O6AjPq/BGXaPd4dgaB4o6REaHGeBluMJoQ4JsVpT0si+WILFGZK2KTnd6g7pkhCrJ0rixxpYqGdK+tawfjJWvwK2tQa3fb1Cg7OAAEx2oaRPafD5+6SS002L/T8YYrWspFdK4sIG3NXnS04vcUd0QYjVOpK4IbdbLtfgOAuOYGi5Zd0BGKrXuAMwdJExaCTu4w5Aq31T0lEhVgt+kiDE6m4hVk8JsfqhpJsk/UvSh8UYBMxkI0nvkvR3STeGWP08xGqvEKu7LeT/WIjVJhq8+sAYhKnwtNiQlJyu0OCJEnTHuuICi07gCaGOCLHaQNJF7g4M1TNKToe7I7ooxOr7Gjy+DCzW3iWnWW91rJ9CuKekJ0n6H0kL+gYWwLTO1+DsnyTprNme4AuxeoIGh8YD0zm25PRgd0SXhFi9W9Kb3B0YqpWaciEAFoYzhLrjHe4ADNW3GYNG6uHuAHTGd0OsvivpRSWnK+/8H9TXVgdJ+0p6ozsU6LhNJH2y/rgxxOrNGlx1f/adx6H6Fc33SzrAHYzG28gd0EEHSXqhePqqS54t6VB3BBaOJ4Q6IMRqCw3OmkF3rDXu21X6ov4mndfwMAqP1uBQ2iDpeZIOdAcB0IUaPJX3Q0mrSPqdpC3cUWiFW0pOK7ojuibEaitJp7k7MFSrl5yuc0dgYThDqBs+6A7AUO3KGDRSq7sD0Fm/knSbpOPFGAQ0xUaSvqTBAajniTEIc7dCiByRMmwlp39r8JQQuuOl7gAsHINQy4VYbStpH3cHhub9JaffuSM6bj13AAAAaAW+VxqNwyQd447A0Hw4xGotdwQWhk9y7XeIOwBDc4Okt7sjeoD31gEAwFws5w7oopLTEklPc3dgqLjtuqUYhFosxOp+kh7j7sDQPLDkdJM7ogc2cwcAAIBW4AKeESk5XaTBzZvohreHWHGDagsxCLVU/U4zJ7p3x2tLTsUd0RNbugMAAEArrOAO6LKSU5L0LXcHhuZN7gDMH4NQez1I0v3dERiKsyR93B3RI/d2BwAAgFbglrHRe7k7AENzQIjVRu4IzA+DUAvVTwcd5u7A0OxWcrrNHdEjO7gDAABAK6zkDui6ktOVknZ3d2Bo3uoOwPwwCLXTQyVt747AULyy5HSaO6JntnEHAACAVljZHdAHJadfih92d8UrQqw2dUdg7hiEWqZ+Ougr7g4MxQmSPuuO6JMQq2Ukre3uAAAArcAgND77uwMwNAe5AzB3DELt83BJW7kjMBRVyel2d0TPcH0sAACYq1XcAX1RcrpG3J7cFS8Ksbq7OwJzwyDUIvXTQV92d2AoXl1yOt0d0UMcDgkAAOZqVXdAn5ScfiXehOiKt7sDMDcMQu3yMHFldhecLekz7oie4id9AABgrlZzB/TQf7sDMBQvDLHazB2B2TEItQQ3i3XK7twqZsMgBAAA5oonhMas5HSVpMe5OzAU3DjWAgxC7fEQSVu7I7Bobyg5neyO6DEOhwQAAHPFE0IGJaefSfquuwOL9pIQq03cEZgZg1AL1E8HfdHdgUW7QdLH3BE9xxNCAABgrtZwB/TYy9wBGIo3uwMwMwahdthZ0nbuCCzariWnW9wRPcdP+gAAwFyt7g7oq5LTpZKe6e7Aor0ixGpDdwSmxyDUDp90B2DRPl5y+ps7AnxhBwAA5oyvG7wOl/RXdwQW7UB3AKbHINRwIVY7SNrF3YFFe4s7AJI4QwgAAMwdg5BRyWmJpH3cHVi0N4RYreuOwNQYhJrvw+4ALNruJadr3RGQJK3oDgAAAK3BGUJmJaczxRMmXfBKdwCmxiDUYCFWW0va3d2BRflpyemX7ggstYI7AAAAtMaa7gBIkg6RxDmc7fbOECv+eWogBqFme4c7AIv2IncAJuAJIQAAMFc8IdQA9aUsD3d3YNGe5w7AZAxCDRVitak4Wb/tXlFyOt8dgQkYhAAAwFxxhlBDlJz+JOkwdwcW5eMhVpzn2TAMQs31encAFuUKSZ9zR2CSZdwBAACgNXhCqFle6w7Aou3tDsBEDEINFGK1nqT93R1YlN1KTre5IzDJ7e4AAADQGpx50iAlpysk7evuwKJ8LcRqeXcE7sAg1EwvcwdgUQ4tOf3NHYEpMdIBAIC54gmh5vmWpDPcEViUPdwBuAODUMOEWK0q6WB3BxblDe4ATIsnhAAAwFxxhlDDlJyWSHqSuwOLcliIFcc4NASDUPP8lzsAi/L8ktNl7ghMi0EIAADM1cohVu4G3EXJ6V8aXEWPdrqbpAe6IzDAINQg9fuUh7o7sGAXS/qKOwIzusEdAAAAgEV7izsAi/IRdwAGGISa5bHuACzK40tOPIHSbAxCAABgPni1pYFKTldJepa7Awv2sBCrrd0RYBBqjPpx1C+4O7Bg3yw5/dUdgVkxCAEAgPlgEGqub0m6yB2BBeMprwZgEGqOB0jaxB2BBXuNOwBzwiAEAADQAfWT+U90d2DBnhNidTd3RN8xCDXHe9wBWLDXlJz46UQ73OgOAAAArcITQg1WcvqLpMPdHViwl7gD+o5BqAFCrO4uaQ93BxbsM+4AzNm17gAAANAqfL/UfAe4A7BgB4dYreKO6DM+wTXDAe4ALNieJaeb3BGYs+vdAQAAoFV4QqjhSk4XSnqDuwML9hR3QJ8xCJmFWK0p6UB3Bxbkn5J+7o7AvHCGEAAAmA8GoXY4xB2ABftqiBW7hAl/4f2e4Q7Agu1bcnI3YH54mgsAAMwH3y+1QMnpBkl7uTuwIMtJ2sUd0Vd8gjMKsVpO0v+6O7AgXyk5/csdgXm7xR0AAABahSeE2uMISee6I7Ag73MH9BWDkNfD3QFYMN5Tbqdb3QEAAKBV+H6pJUpOSyQ91d2BBXl4iNU93BF9xCc4rw+7A7Agb+aa+XaqX/E7z90BAABagyeEWqS+hv7H7g4syH+7A/qIQcgkxGorSQ9wd2BBPu4OwKKc7A4AAACtwSDUPq92B2BBDgyxWt0d0TcMQj7cLNZOzy05XeeOwKKc6g4AAACtwSDUMiWnMyR90t2BBdnbHdA3DEIGIVZrSHqFuwML8g13ABbtJHcAAABoDQahdnqnOwAL8sUQK/6ZGyMGIQ+uRGynPUpOHErcfqe7AwAAQGvwzWkLlZwulfR6dwfmbTlJO7sj+oRBaMzqxfNQdwfm7QxJv3RHYCg4VBoAAMwVg1B7fdodgAV5uzugTxiExm9n8de9jZ5ZX2WJ9rvYHQAAAFqDQailSk7XS3qBuwPz9oQQqw3dEX3BMDF+B7kDMG+/Lzn9yR2BobncHQAAAICx+Lo7AAvyfHdAXzAIjVGI1QaSHu/uwLy9xB2AobreHQAAAFqDJ4RarOR0szi/tY3eG2K1gjuiDxiExutZ7gDM2/dLTsUdgeGpX/37t7sDAAAAY/EDSde6IzBvD3cH9AGD0JiEWC0n6SPuDszb69wBGInfuQMAAAAweiWn2yU91d2BeXu3O6APGITG5yHuAMzbV0tOXFHeTX9wBwAAAGBsjpJ0gTsC87JLiNVm7oiuYxAan3e4AzBvb3EHYGT+6Q4AAACtwC2zHVAfGfAMdwfm7YXugK5jEBqD+tq8R7s7MC+fKzmd7Y7AyJzpDgAAAMBYHS3pNHcE5uUgDpceLQah8XimOwDzxhNd3XapOwAAALQCTwh1RMlJkvZzd2DednUHdBmD0IiFWC0r6aPuDszLISWn890RGJ2S002SrnJ3AACAxmMQ6pY/SjrBHYF5Ocgd0GUMQqO3szsA8/YedwDG4gh3AAAAaDwGoQ6pnxLiXJp2eUSI1UbuiK5iEBq9N7oDMC+fKTlxA0E/ZHcAAABoPAah7vmjpJPdEZiXfd0BXcUgNEIhVmtL2svdgXk52B2AsfmbOwAAADQeg1DH1E8JPd/dgXn5cH0UC4aMv6ij9SR3AOblfzk7qFfOcAcAAIDGYxDqpj+IG8fa5v7ugC5iEBqRECtJ+rC7A/PC00H9cq2kW90RAACg0W53B2D4eEqolV7jDugiBqHR2VrS+u4IzNnXS07nuiMwPvUXAl9xdwAAgEbjCaHu+p2ki90RmLNnhVit4Y7oGgah0XmROwDz8nZ3ACx+6A4AAACNxhNCHVVyWiJpP3cH5mUPd0DXMAiNQIjVipLe4O7AnP2o5PRvdwQs/uoOAAAAjcYTQt12pDhCoE3e5w7oGgah0djFHYB5eaM7ADYXuAMAAECjMQh1WMnpdklPc3dgzrYKsbq7O6JLGIRG4/XuAMzZH0pOJ7gj4FFyuk3SEe4OAADQWLwy1n0/cgdgXp7pDugSBqEhC7FaS9IT3R2YswPcAbD7hjsAAAA0Fk8IdVzJ6VZx41ibvD/Eih1jSPgLOXx7ugMwZ+dLOtYdAbs/uAMAAEBjMQj1w7fdAZiXHd0BXcEgNHzvdgdgzl5QXz2OfjvPHQAAABqLQagHSk7Xi3NF2+Tl7oCuYBAaohCrTSVt5e7AnB3pDoBffeXoR9wdAACgkRiE+uPz7gDM2UtDrFZyR3QBg9Bw7eMOwJw9qz5QGJCkw90BAAAA8Ck5XSHp4+4OzNlD3AFdwCA0JCFWy0j6kLsDc/Z9dwAa5R/uAAAA0DjXcrxA7/DUeHu8xh3QBQxCw3MvScu7IzAnby453eCOQHOUnG6S9B13BwAAaJRr3AEYr5LT2ZJ+5u7AnDwpxGoNd0TbMQgNz3PcAZizz7kD0EifdAcAAIBGudIdAIs3uQMwZ492B7Qdg9AQhFgtJ+kt7g7MyWElp0vdEWikP7kDAABAo1zpDoDFcZLOdUdgTt7sDmg7BqHhCO4AzNl73QFopvq1sU+7OwAAQGNc6Q7A+NXnRr3E3YE5eWCI1bruiDZjEBqO57sDMCfHlZxOdUeg0T7lDgAAAI1xlTsANke6AzBne7gD2oxBaJFCrJaXdIC7A3PyWncAGu8ESRe5IwAAQCNc7Q6AR8npFvE9Xlvw2tgiMAgt3n3dAZizo90BaLb6EeGXuzsAAEAjXOEOgNVX3QGYkxBidTd3RFsxCC3ei90BmJOXlJxuc0egFX7kDgAAAI3AK2M9VnK6XNJh7g7MyRPcAW3FILQIIVYrSHqpuwNzcrg7AO1QPyK8j7sDAADYMQjh/e4AzAmvjS0Qg9Di8LpYO3ym5MQ74JiP72lw5SgAAOgvvn7suZLTyZK4lKb57sVrYwvDILQ4z3MHYE4+5g5Ae4RYLSPpfZLu724BAABWXw2x2t4dAbvXuAMwJ3u6A9qIQWiB6tvFXunuwKxOLTmd4o5AO9T/XH9Z0hvcLQAAoBFKiNW93RGw+qU7AHPy/9wBbcQgtHA7ugMwJyz6mJMQq1U1+AN/P3cLAABolJNCrO7ljoBHyelmSW91d2BW24VYre+OaBsGoYXjm8Z2YNHHrEKs1pH0L0mPcrcAAIBGOjXE6u7uCNh80R2AOdnNHdA2DEILEGK1rHjypA3eXi/6wLRCrDaTdLmkLd0tAACg0c4OsdrQHYHxKzldIOlX7g7Miu/R54lBaGG2cQdgTg51B6DZQqy2k3SOuwMAALTGuSFW67ojYHGQOwCzelCI1ZruiDZhEFqYp7kDMKs/l5zOdUeguUKsdpF0grsDAAC0yvKSjg+xWs0dgrH7gzsAc7KrO6BNGITmqb6S+p3uDszqze4ANFeI1ePEH+oAAGBhNpV0VIjViu4QjE/J6VZxE20bcBP4PDAIzd/m7gDMyW/cAWimEKv9JP3E3QEAAFrtwZIOr88WRX981R2AWT0+xGoVd0Rb8Als/h7vDsCsDuIwaUwlxOo1kr7i7gAAAJ3wFEkfD7Fyd2BMSk4XSvq1uwOzeoA7oC2Wdwe0EI8JNt+X3AFolvpVz/dKeqO7BQAAdMqrJJ0t6YPuEIzNuyQ9yh2BGT1H0u/cEW2wjDugTUKs1pN0qbsDMzq15MQtcFgqxGo5SV+U9Fx3CwAA6Kxnl5y+7o7A6NVnR93k7sCsli853eaOaDpeGZufh7sDMKv/cQegOUKsVpL0IzEGAQCA0fpaiFV0R2D06qMp3uvuwKx4SGAOGITm5xXuAMzq5+4ANEOI1RqSjpW0p7sFAAD0wq9CrLZzR2AsvuAOwKye6g5oAwahOQqxWlnSY90dmNEXS07XuSPgV7/eeZqk+7hbAABAr5wQYrWBOwIjd7qkc9wRmNGbOfB9dgxCc3dfdwBmdYg7AH4hVptocNYXX4wBAACHv9c/TEZHlZwkjqpoulUlbeiOaDoGobl7ujsAszreHQCvEKt7SjrP3QEAAHptY0lfr285RXf9xB2AWT3KHdB0DEJzUH8yP9DdgRm9seR0uzsCPvU7+/92dwAAAEjaS9Kb3BEYnZLTlZJ+7O7AjF7mDmg6BqG52dwdgFl90x0AnxCr+0s6wd0BAABwJweHWO3ljsBIfcAdgBk9KsRqFXdEkzEIzc3u7gDM6N8lJw5166kQqwdL+pu7AwAAYArfDbHawR2BkfmjOwCz4izgGTAIzQ3XzTfbm90B8AixeoT4gxgAADTbP0Os1nVHYPhKTjdL+qi7AzPa2x3QZAxCswixWk3S/dwdmNHP3QEYvxCrx0j6jbsDAABgDn4eYrWcOwIjcag7ADN6HQe8T49BaHY8YtZsuT7QDT0SYrW7pCPdHQAAAHO0s6R3uyMwEpxj2XwbuwOaikFodk9zB2BGHOTWMyFWjxNPhQEAgPZ5Y4jVk9wRGK76pmOOsGi2R7gDmopBaAb1o2UHuDswo6PdARifegz6ibsDAABggX4QYrW1OwJDx43HzfYid0BTMQjNbBN3AGb0rZLT9e4IjEeI1Z5iDAIAAO13Aldhd84Zkq5yR2BajwmxWskd0UQMQjPb1R2AGX3KHYDxqM8M+qm7AwAAYAiWl/QZdwSGp+Qk8dpY023jDmgiBqGZPccdgBn92R2A0QuxepQ4MwgAAHTLc0Os9nVHYKiOcAdgRo9zBzQRg9A0QqxWkPR4dwem9ZWS003uCIxWiNVDJWV3BwAAwAh8PcTq3u4IDM15ki52R2Bar3IHNBGD0PS2cgdgRv/rDsBohVjtJOl37g4AAIAR+itnm3RD/drY29wdmNbdQ6zWdEc0DYPQ9HZ3B2BGf3EHYHRCrLYXf48BAED3rSbpA+4IDE1yB2BG93MHNA2D0PS4mq65Dis53eyOwGiEWG0pqbg7AAAAxuS/69tU0XIlp/MlXeDuwLSe4g5oGgahKdTXQO7o7sC0vugOwGiEWG0o6XR3BwAAwJj9NMTqbu4IDMXB7gBMa/8QK3dDozAITW1bdwBm9Fd3AIavfqf3NHcHAACAybf4ZrUTeG2suZaVtJ47okkYhKbGI5vN9Z2S043uCAxXiNXKkn4vaXV3CwAAgMmjJT3PHYFFO0fSDe4ITGsnd0CTMAhN7aXuAEzrs+4ADFeI1bKSvi0puFsAAADMDqvPU0RLcdtY4+3tDmgSBqG7CLFaXdI93B2Y1h/dARi6D0ni+WgAAICBH9c/MEN7fd8dgGm9JMRqGXdEU/CJZjLOD2quXHK6zh2B4Qmx+m9Jr3F3AAAANMh24o2FtuOSlGZb3x3QFAxCk+3uDsC0PuUOwPCEWFWSPu7uAAAAaKBPh1ht5Y7AwpSclkj6gLsD03qAO6ApGIQme4E7ANP6tTsAwxFidT9JP3R3AAAANNgPebWl1b7lDsC0nuwOaAoGoTsJsVpVEkt8M51dcrrMHYHFC7HaRNJx7g4AAICG217cOtZm/3IHYFovD5EjTCUGobvaxh2Aab3fHYDFq6+X/6u7AwAAoCUOrX+YhpYpOd0i6ZvuDkxrPXdAEzAITfRodwCm9RN3ABanXuEPk7SRuwUAAKBFvszTDK11qDsA07qPO6AJGIQm2tcdgGmd5Q7Aor1G0jPcEQAAAC2zm6Q93RFYkGPdAZgW/0yJQWipEKsVJe3k7sCUPl6f1I+WCrGKkj7i7gAAAGipn4ZYreaOwPyUnK6WdKK7A1PiMikxCN3Z5u4ATOtwdwAWLsRqM0m/cncAAAC03NvdAViQj7sDMKX1Q6xWd0e4MQjd4SHuAEzr7+4ALEz95N0f3R0AAAAd8PoQq3u7IzBvP3cHYFq9v1SKQegO+7gDMKWjS043uCOwYB+WtKk7AgAAoCMOD7Faxh2BeeEs1OZ6lDvAjUFIUv1J9UnuDkzp8+4ALEyI1ZMlvcrdAQAA0CH3Fd+3tEp9Fuqn3R2Y0n+5A9wYhAbu5g7AtH7tDsD8hVhtIekIdwcAAEAHHRFitao7AvPybXcApvSgEKvl3RFODEIDO7gDMK3z3AGYn/qT6m/dHQAAAB22vzsA8/I3dwCmtYk7wIlBaGA3dwCm9Cmum2+lt4hzgwAAAEbpPSFWvf5Gtk1KTtdIOtXdgSk9wB3gxCA08Gx3AKbEo5UtE2L1EHElKgAAwDh8xB2AeTnEHYApPd4d4NT7QSjEamVJd3d3YErHuQMwdyFWa0j6vbsDAACgJ/4rxGpHdwTmjOvnm+kFIVbuBpveD0KSNncHYEpn149Woj0+5g4AAADomS/1+ZvZljndHYApLSdpdXeEC4OQtJM7AFP6jDsAcxdi9RhJL3B3AAAA9MwDJD3SHYHZlZxuEU8JNdU93QEuDELS49wBmNJP3QGYmxCrtSQd6e4AAADoqRRixfd17fAVdwCmtIs7wKXXnzjqxyv3c3dgSie7AzBnH3IHAAAA9Ngakp7gjsCc/NYdgCn19r3LXg9CGnzyRPP8ueR0ozsCs6tvFXuRuwMAAKDnfhhitbw7ArM61x2AKT0xxGoZd4RD3weh3r4r2HCHuQMwuxCrlcStYgAAAE2xjzsAMys53S7pm+4OTGkdd4BD3wehnd0BmNKv3QGYk9e6AwAAALDUN0OsVnBHYFbfcQdgSvdyBzj0fRDa0x2AKXElY8OFWN1D0rvdHQAAAJhgb3cAZvUndwCm9GB3gENvB6H6QGkeq2yeP5ecbnJHYHr1Pzu81gcAANA8PCXUfBe4AzClXh7M3ttBSBwo3VRcxdh8j5UU3REAAACY0lPdAZhefY7Qt90dmGSPPh4s3edBaEt3AKaU3QGYXv0Tp1+4OwAAADCtw0OslnNHYEb/5w7AlNZ2B4xbnweh+7sDMKV/uwMwo+e6AwAAADCrx7oDMKNj3QGYUu8eGunzIMQrL81zasnpRncEphZitZakz7s7AAAAMKsv9/H1lxY5zx2AKe3kDhi3Pg9CnMDfPJwf1GxvdAcAAABgTjaQtIs7AlMrOd0mjspoose4A8atl4NQiNXKklZ3d2CSI90BmFqI1UaS/p+7AwAAAHP2YXcAZnS4OwCTPK2+Ubk3ejkISdrYHYApnegOwLTe5g4AAADAvDwkxOpe7ghM6xh3ACZZVtKq7ohx/xfuo+AOwCS3SrrKHYHJQqzuIenl7g4AAADM25vcAZjW6e4ATGlTd8A49XUQ4n3a5jms5ORuwNQOcgcAAABgQZ4fYrWuOwKT1ZfpnOvuwCTbuQPGqa+D0B7uAEzyU3cAJgux2lTS89wdAAAAWLBnuwMwra+7AzDJQ9wB49S7QSjEallJO7s7MMnf3AGYEo8ZAwAAtNvHQ6yWd0dgSlyq0zy9enikd4OQpDXdAZjS+e4ATBRitaGkV7g7AAAAsGjRHYAp/dMdgEnuXz9E0gu9+S96J5u7AzDJcSWnW9wRmIQxCAAAoBve4w7AlC5xB2BKa7kDxqWPg9AO7gBM8h13ACYKsVpNXDUPAADQFTuHWN3dHYGJSk63i9fGmqg3D5H0cRDihrHmOcYdgEme5g4AAADAUL3QHYApcdVy82zvDhiXPg5Cu7sDMMlJ7gDcIcRqOUmHuTsAAAAwVG8PsVrBHYFJ/uAOwCS9eYikV4NQfTjUvd0dmOQydwAm6M0nQAAAgJ55mDsAk5zmDsAkj3UHjEuvBiH16HCoFvlN/e4smuOd7gAAAACMxJvcAZjkSncAJtmuLzeN9eK/5J1s5g7AJD90B+AOIVYbS3q0uwMAAAAj8dgQq/XcEbhDyWmJOEeoidZ0B4xD3wYhXhdrnj+6AzDB890BAAAAGKknuQMwyc/cAZhkU3fAOPRtEHqAOwCTnOoOwEB9mPS73R0AAAAYqfeEWLkbMNGf3QGYZGt3wDj0bRB6hDsAk1zuDsBS93cHAAAAYOQ2krS5OwITnO4OwCS9+N6oN4NQvYJzqn6zHFdyus0dgaUOcAcAAABgLP7LHYAJrnAHYJKHuwPGoTeDkKRV3AGYhMPTGiLEajVJz3J3AAAAYCw+EGK1jDsCA/Wty793d2CC2IdXK/s0CN3NHYBJfucOwFI8PQcAANAv93QHYIIfuwMwycrugFHr0yDEe7LNc7I7AEvt7w4AAADAWO3jDsAEx7oDMMm67oBR69MgxJXzzXOROwBLXxd7vLsDAAAAY/U+XhtrlFPcAZhkM3fAqPVpEOLK+Wa5WdKN7ghIknZ1BwAAAMCCtyiagx+WN0/nr57v0yDEGSnNckTJnCndEC90BwAAAMCCp8QbouR0k6Qb3B2Y4H7ugFHrxSBUPwp5X3cHJvi1OwBSiNUKkp7m7gAAAIDF/7gDMMEP3AGY4KHugFHrxSAkrpxvouPcAZAkbe8OAAAAgM3mIVbruyOw1G/cAZjgoV2/er4vg9A67gBMcqY7AJKkvd0BAAAAsOJojeY43h2ASVZ0B4xSXwahjd0BmORyd0Df1Wv3ge4OAAAAWD3fHYClznQHYJK13AGj1JdB6J7uAExwXcnpZncEtK6k1dwRAAAAsHpyfa4k/C51B2CSDd0Bo9SXQYhzUprlp+4ASJIe4A4AAABAI2zrDoBU/9D8JncHJriHO2CU+jII7eQOwAS/dQdAEucHAQAAYGAPdwCW+ok7ABN0eiztyyDEQWnN8g93QN/V5we9zN0BAACARni5OwBL/c4dgAnu7w4Ypc4PQiFWy4pbxprmTHcA+GcCAAAAS90zxGp1dwQkSf90B2CCTr9t1PlBSNIq7gBMcok7ANrOHQAAAIBG2dEdAEnSGe4ATLBt/XZFJ/VhEFrbHYBJrncHQNEdAAAAgEbhHKFmuMgdgElWcgeMSh8GoU5fE9dC/yw5LXFHQPu6AwAAANAoL3QHQJJ0rTsAk6zhDhiVPgxCnb4mroWOdgf0XYjV8pK2d3cAAACgUTYLsVrNHdF3JafbJZ3u7sAE67sDRqUPg9C93AGY4Dh3ALr7CQ0AAACLso07AJL4IXrTbOoOGJU+DELbugMwwSnuAPAHPQAAAKa0qzsAkqS/uwMwQWffOurDIMRp+c1yrjsAerA7AAAAAI20tzsAkqST3AGYoLNvHXV6EKqvh9vZ3YEJLnUHQI91BwAAAKCRHhlitZw7AjrLHYAJOnv+aqcHIUnLSVrGHYEJrnMH9Fk9kjIIAQAAYDrc0ux3sTsAE9zfHTAqXR+EVnEHYIKL6lPz4bOSOwAAAACNtp07ALraHYAJNg+x6uSDJl0fhNZ0B2CCP7gDoPXcAQAAAGg0Dpb2u1XSEncEJljBHTAKXR+E1nUHYILj3QHQ5u4AAAAANNqT3QF9V3KS+GF606zqDhiFrg9CG7gDMAGn5ftt5Q4AAABAo92fg6Ub4Th3ACbo5NtHXR+ENnUHYIIz3QHQvd0BAAAAaLx13AFQcQdggk4evdH1QWgLdwAmuMAdAN3HHQAAAIDG28IdAP3bHYAJNnIHjELXB6Gt3QGY4HJ3APRAdwAAAAAa737uAOhcdwAm2MwdMApdH4R4PaZZrncH9Fl9VeIm7g4AAAA03iPcAdCl7gBMsIU7YBS6Pght6w7ABLe6A3quk1clAgAAYOh2cwdA17gDMMEW7oBR6OwgVD8N0cmTwFuq1NcnwmcVdwAAAABaYWNuGrO7yR2ACTp5HE1nByFJy7sDMME/3QHQ6u4AAAAAtMZa7oA+KzndLuladweW6uTbR10ehFZ2B2CCE90B4A91AAAAzBlnT/od5w7AUmu4A0ahy4MQT0M0y+nuAGg9dwAAAABaY0t3APQvdwC6rcuDEOcHNct57gB0c9UGAADASGznDgA/VMdodXkQWtsdgAkucQeAkRQAAABz9gB3AHSOOwDd1uVBaF13ACa4wh0AzhACAADAnD3MHQBd4A5At3V5ENrAHYAJrnEHQOu4AwAAANAam4VYLeOO6DnessBIdXkQ2sgdgAlucAeAQQgAAADzsqI7oOeudAeg27o8CG3qDsAEt7oDoJXdAQAAAGgVLiXx4i0LjFSXB6FN3AFY6sqS0xJ3BLSCOwAAAACtsp47oOducgeg27o8CPGEUHOc6g6AJB75BQAAwPys7w7oOd6ywEh1eRC6uzsAS53hDoAkBiEAAADMD+eyGtVvWdzo7kB3dXIQCrGSeEKoSc52B0ASgxAAAADmZzN3AHjbAqPTyUFIEtcjNsu57gBIkm5zBwAAAKBVtnAHQKe7A9BdXR2ElncHYIIL3QGQxOOmAAAAmJ/N3QHQWe4AdBeDEMbhMncAJHFLAQAAAOaHc1n9+OE6RqargxBnpTTLVe4ASGIQAgAAwPxs4Q6ALnEHoLsYhDAOV7sDIIlBCAAAAPNzt/rCHvjwtgVGpquD0MruAExwnTsAkqRr3QEAAABona5+z9gWV7gD0F1d/Yd7VXcAJrjeHQBJ/GECAACA+evq94xtwfEbGJmu/sO9mjsAE/CqUjNc6Q4AAABA63Bhj9c17gB0V1cHIZ4QapZb3AGQxE8XAAAAMH8ruAN6jrctMDIMQhiH29wBkMTh3gAAAJg/nhDy4m0LjExXByFeGWuW290BkMSh0gAAAJg/BiGvm90B6K6uDkKruwMwwRJ3ACRxqDQAAADmj0HIi+M3MDIMQhi1i0tO7gYMcCAdAAAA5otByOtWdwC6q6uD0BruACx1oTsAS3EgHQAAAOaLQciL4zcwMl0dhHhCqDl4Tak5OJAOAAAA87WMO6DnGIQwMl0dhLhlrDm46rw5uO0NAAAA88UgBHRUVwchbhlrDq46b4j6LKd/uzsAAAAAzE39NfyV7g50E4MQRo1BqFn+6g4AAABAq/CEkB/HcGAkujoIcYZQczAINcu/3AEAAABoFY4d8LvSHYBuYhDCqF3rDsAEp7oDAAAA0CoMQn5XugPQTV0dhFZxB2CpG9wBmOAsdwAAAABahVuu/K5zB6CbujoIrewOwFJcdd4sF7oDAAAA0Co8IeR3ozsA3cQghFFjEGqWS90BAAAAaJVb3AHgrQuMBoMQRu1mdwAm4HFTAAAAzAeDkB9PCGEkGIQwajwh1CAlp9vFwdIAAACYu1vdAeAJIYwGgxBGjSeEmudodwAAAABag0HIjyeEMBJdHYRWcAdgKQ6ha56/uAMAAADQGnw978coh5Ho6iDU1f9ebcQ1lc1zgjsAAAAArcEg5Mf3VBiJrg4ny7kDsBSfvJqHM4QAAAAwV0vcAWCUw2gwCGHUGISa5xJ3AAAAAFrhvJKTuwEMQhgRBiGMGoNQw5ScbpV0hrsDAAAAjXeeOwCS+J4KI8IghFHjk1cz/dAdAAAAgMa7wB0ASXxPhRHp6iDEe67NsYw7AFM6xh0AAACAxrvQHQBgdLo6CPGOZXMwCDXT8e4AAAAANB5nTzZDV79vh1lXf2PxSF1zdPX3WNud6w4AAABA413qDoAkvqfCiHT1NxZPCDUHTwg1UMnpBkmXuzsAAADQaJe5AyCpu9+3w6yrv7EYhJqjq7/HuuBb7gAAAAA0Gk8INQPfU2Ekuvobi0GoObjxrbmOdAcAAACg0RiEmmF5dwC6qauD0M3uACy1gjsA0/qHOwAAAACNdqU7AJKkldwB6KauDkI3ugOwFINQc3GwNAAAAGZyjTsAkhiEMCIMQhi1Fd0BmFrJ6WZJxd0BAACAxrrOHQBJfE+FEWEQwqjxyavZvukOAAAAQGPd5A6AJGlldwC6qauDEJ+4moNBqNmyOwAAAACNdYs7AJKkVdwB6KauDkI8IdQcq7oDMKMT3QEAAABopLNKTu4GDKzuDkA3dXUQut4dgKVWcwdgRle4AwAAANBI/3QHYKk13AHopq4OQte6A7AUg1CD1T/1+Zy7AwAAAI1zkjsASzEIYSS6OghxGn5zMAg13w/cAQAAAGicf7sDsNSa7gB0U1cHIZ4Qag7ed22+v7kDAAAA0DinuwOw1NruAHRTVwchzhBqjnXcAZjVRe4AAAAANM657gBIIVYS31NhRLo6CPHKWHOs5w7AzEpOSyR93d0BAACARrnEHQBJ0jLuAHRXVwchXhlrDgahdjjcHQAAAIBGudodAEkMQhihrg5C17gDsNT67gDMyZ/cAQAAAGiUm9wBkNTd79nRAF39zcUTQs2xXv3eK5rtYncAAAAAGuP4kpO7AQPLuwPQXQxCGAcec2y4+g/8Q9wdAAAAaITfugOw1AruAHRXVwchDpVulq7+Puua77kDAAAA0Ah/cwdgqZXcAeiurn6jzrXzzcJjju3wV3cAAAAAGuEkdwCWWtkdgO5iEMI48JhjC5Scrpb0b3cHAAAA7M52B2CpVd0B6K6uDkK8MtYsPObYHp9wBwAAAMDuMncAllrdHYDu6uogdIM7ABOs4g7AnP3MHQAAAAA73rhojrXcAeiurg5CN7oDMMEa7gDMGa+MAQAA9NsvuXK+UdZ1B6C7ujoI3ewOwASs2i1RcrpN0pfcHQAAALDJ7gBMsL47AN3FIIRxWNsdgHn5sjsAAAAANtw82ywbuAPQXV0dhG51B2ACVu12+bM7AAAAADanugMwwcbuAHRXVweh29wBmIBVu0VKTtdJ+r27AwAAABYXuAMwwT3cAeiuTg5CJaclkpa4O7DU3d0BmLdD3AEAAAAYu2tLTlzQ0yz3dAeguzo5CNXOcgdgKVbt9jnSHQAAAICx+447AJNs4w5Ad3V5EDrXHYCltnIHYH5KTpdIOt3dAQAAgLH6lTsAdwixWkbd/p4dZl3+zXWeOwBLsWq303vcAQAAABir49wBmGAFdwC6jUEI47ByvW6jXX7iDgAAAMBYnekOwASruAPQbV0ehM53B2AC1u32uUDSJe4IAAAAjMXNkq51R2CCNdwB6LYuD0IXugMwwaruAMxPyUmS3uruAAAAwFh8pf76D82xtjsA3dblQYgnG5qFdbudfuAOAAAAwFj8zB2ASe7mDkC3dXkQutwdgAnWdQdg/kpOF0o6zd0BAACAkfubOwCTbOwOQLd1eRC6yh2ACTZwB2DB3uEOAAAAwMid6w7AJFu6A9BtXR6ErnYHYILN3QFYsJ+6AwAAADBSfyo53eKOwCTbuAPQbV0ehK5zB2CCrdwBWJiS02WSfuvuAAAAwMh83R2AKQV3ALqty4PQje4ATLCtOwCLcrA7AAAAACPza3cApnRfdwCWutQdMApdHoRucwdggvu4A7Aov3EHAAAAYGS4RKRhQqyWk7S8uwNLnewOGIXODkIlpyXi6vkm2SrEyt2ABSo53Sjpc+4OAAAADN0pJacb3BGYZGV3ACbo5Gja2UGo1skVr8VWdAdgUT7tDgAAAMDQ/a87AFNa2x2ACc50B4wCgxDGaXV3ABbleHcAAAAAhu7n7gBM6W7uAExwljtgFLo+CHXysa4WW88dgIWrX8N8mbsDAAAAQ3WqOwBT2swdgAnOdQeMQtcHoU6ueC22sTsAi/YddwAAAACG5jclp5vdEZjSVu4ATHCRO2AUuj4InecOwARbuAOwOCWnyyT9yN0BAACAoTjMHYBp7egOwASXuwNGoeuDELeMNUtwB2Ao3uMOAAAAwFAc5Q7AtB7oDsAEV7sDRqHrg9AV7gBMsJM7AEPxJ3cAAAAAhoI3KhooxEqS7uPuwAQ3uANGoeuDUCdXvBZ7mDsAi1dyul3Si90dAAAAWJQP1JeGoHlWdAdgklvcAaPQ9UHoRncAJlg5xGp5dwSG4v/cAQAAAFgULgtprrXcAZjglJKTu2EkOj0I1U8yXO/uwASruQOweCWnqyR90d0BAACABfunOwDT2sgdgAn+4Q4YlU4PQrW/uQMwwQbuAAzNB90BAAAAWJAjSk68TdFcW7oDMMEJ7oBR6cMgxPLdLFu4AzAcJaeTJR3v7gAAAMC8fcYdgBlxO3OznOYOGJU+DEInuwMwwXbuAAzV/u4AAAAAzNsf3AGY0c7uAExwjjtgVPowCHV2zWsprp7vlmPcAQAAAJiX35acrnFHYEaPdAdggvPdAaPSh0Gos2teSz3cHYDhKTndJul57g4AAADM2UfdAZhefSvzeu4OTHCpO2BU+jAIXewOwARbhlj14fddn3AFPQAAQHsc5Q7AjNZ0B2CSa90Bo9KHb8yvcgdgkjXcARiektP1kt7o7gAAAMCscsmJ74+abWN3ACa5xR0wKn0YhLhOsXk2cgdg6D7vDgAAAMCsPugOwKzu5Q7ABH8vObkbRqbzg1DJaYmk89wdmIBPch1TcrpC0kfcHQAAAJjR0e4AzOr+7gBM8Fd3wCh1fhCq/d4dgAnu6w7ASHzYHQAAAIBpfbfkdJ07ArPihrFm+Yc7YJT6Mggd5w7ABNw01kElp/PFq2MAAABNxQ/vGi7ESpIe5e7ABCe7A0apL4PQie4ATLBn/ckO3fMudwAAAACm9Gd3AGa1ijsAk5ztDhilvgxCZ7gDMAmf7Dqo5HSOpC+7OwAAADDBO0pOt7ojMKsN3AGY5GJ3wCj1ZRC60B2ASfhk111vdwcAAABgAn5g1w5buwMwyTXugFHqyyB0pTsAk2zlDsBolJzOkvQldwcAAAAkDd6W4I2JdtjJHYAJbpd0iztilPoyCN3kDsAkfLLrtre6AwAAACBJOrDk5G7A3DzaHYAJftX1f3Z6MQjVfxP/4O7ABLu5AzA6JadzJX3S3QEAAAD93B2A2dWX7uzu7sAEf3QHjFovBqHa790BmGB3bhrrvIPdAQAAAD334ZLTDe4IzMlq7gBMcrw7YNT6NAj93R2ASVZ3B2B0Sk4Xi1EIAADA6dPuAMzZJu4ATHKaO2DU+jQIneIOwCSbugMwch90BwAAAPTUcSWn090RmLMd3AGY5Dx3wKj1aRA61x2ASfik13Elp6slvczdAQAA0EMHugMwL7u6AzDJle6AUevTIHSZOwCTPMIdgLE4zB0AAADQQ8e4AzAvHLDaLLeUnG52R4xanwYhrp5vnqe6AzB69SfSJ7s7AAAAeuTFJafb3BGYmxCr5SVt7e7ABL9wB4xDbwah+ur5XvxNbZG7h1it4I7AWCRJp7ojAAAAeuJwdwDm5W7uAEzyO3fAOPRmEKr14m9qy2zoDsDolZyWSNrH3QEAANAD7y45XeOOwLxs6w7AJP9wB4xD3wah49wBmGQ7dwDGo+R0vKSvuDsAAAA67pPuAMzbw9wBmKTzV85L/RuEuHq+eR7pDsBYvd4dAAAA0GGHlpwuckdg3jhQunkucAeMQ98GoV78TW2ZvdwBGJ+S08WSXu3uAAAA6Kh3uwMwPyFWy0l6kLsDk1zrDhiHvg1CvEvbPNtxsHTvfFZS569wBAAAGLMflZxOd0dg3jhQunn+Up+B2nm9GoTqv6l/dXdgEg6W7pGS063iVUEAAIBh49X8dtreHYBJjnIHjEuvBqFab/7mtsiO7gCMV8npj5K+6e4AAADoiJ+WnE5yR2BB+EFp8xzrDhiXPg5Cvfmb2yKPdQfAYn93AAAAQEe81h2ABdvHHYBJejOu9nEQOsEdgEn2dQdg/EpOl0h6lrsDAACg5X5RcjrRHYH5q89S5ZWx5jnXHTAufRyEevM3t0U2DLFaxR0Bi29K+rs7AgAAoMW4wbW9NnUHYEq9uYyqj4NQL66Pa6F7uAMwfvVB73u7OwAAAFrq6yWnU9wRWLCd3AGY5Ld9uWFM6uEgVP/Nze4OTLKLOwAe9fWoB7o7AAAAWuh/3AFYlCe4AzDJL9wB49S7Qah2pDsAkzzVHQCrT0g6xx0BAADQIh8rOXEcRkuFWEnS890dmKRXl1D1dRDq1d/klnhSiFVffz/2XsnpNkm7uTsAAABa5N3uACzKWu4ATOlkd8A49fUb8N5cI9cyd3MHwKd+/51XxwAAAGa3f8npUncEFoXbxZrpAnfAOPV1ELrYHYAp3ccdALtPSDrDHQEAANBw/+sOwKI9xh2ASa4sOd3kjhinXg5CJaebJZ3v7sAkj3cHwKt+dYw/HAEAAKZX9e2b1o7azx2ASb7nDhi3Xg5CtSPcAZjkpfXhauixktMZkp7j7gAAAGigUyT92B2BxQmxWlnSNu4OTNK728j7PAj9xh2ASVYRh6th4Kvq2ZWPAAAAc7BXyWmJOwKLtpU7AFP6uztg3Po8CP3DHYApcbgaVHKSpGe5OwAAABrk4yWn4o7AUDzKHYApneUOGLc+D0LnuAMwpd3dAWiG+uaMR7o7AAAAGuJt7gAMzbPdAZjSNe6AcevtIFRyul7Sje4OTPISdwCao+R0tKR3uDsAAADMnl5yutodgcULsVpR0i7uDkzy3fothV7p7SBU+6Y7AJNsEmK1hjsCjfIuDQ5QBAAA6KO/S/qOOwJDs4U7AFP6mTvAoe+D0JHuAEwpuAPQHFxFDwAAem5vDpLulOgOwJT+7A5w6Psg9Dd3AKb0OHcAmqXkdK6k3dwdAAAAY/baktPp7ggM1fPcAZjSGe4Ah74PQme7AzCll7kD0Dwlp6MkvcXdAQAAMCZXS/qEOwLDE2K1kjg/qKl6eUZXrweh+mDpq9wdmGSDEKu13BFopPdK+r07AgAAYAweWXK61R2BobqXOwBT+mYfD5SWej4I1b7uDsCU7ucOQPOUnG6XVLk7AAAARuxtJae/uyMwdI91B2BKP3EHuDAISb9wB2BKe7kD0Ewlp8sl7ejuAAAAGJErJL3PHYGReLk7AFP6izvAhUFI+oc7AFP67xB5EARTKzn9S9Le7g4AAIAR2LXkdIs7AsMVYrW6pG3cHZjSWe4AFwYh6Tx3AKa1oTsAzVVy+p6kd7s7AAAAhuh1JacT3BEYifu4AzCly0pON7gjXHo/CNXr+z/dHZjSw9wBaLy3Sfq5OwIAAGAI/i7po+4IjMxT3AGY0lfcAU69H4Rq33IHYErPdQeg2epDpveWdKW7BQAAYJGeUH9tg46pj8J4vbsDU+r1D5cZhAayOwBTelKI1QruCDRbyek6STu4OwAAABahKjmd747AyGzkDsC0jncHODEIDZzkDsC0tnYHoPlKTudJ2tndAQAAsACfKzn9yB2BkXq4OwDTusgd4MQgNHCFOwDTerw7AO1QcvqrpCe4OwAAAObhKkn7uyMwci90B2BKv+z7a5oMQpJKTpL0VXcHpvRadwDao+T0E0kvcXcAAADM0QNKTje6IzA6IVYrStrD3YEpfdcd4MYgdIcfuAMwpY1CrNZzR6A9Sk6fl3SwuwMAAGAWTy45ne6OwMgFdwCmdYw7wI1B6A5/dgdgWg91B6B13ibpy+4IAACAaXyk5PRDdwTGYh93AKbV+0GWQegO57kDMK0XuAPQLiWnJRq8q93rayQBAEAjHS/pje4IjF593fyb3B2Y0qm8rskgtFTJ6TZJv3J3YEpPqd+9Beas/mf6KZL+6W4BAAC4k8eUnG51R2AsNnUHYFpfcQc0AYPQRIe7AzCtHdwBaJ969X+YpMvdLQAAAJLuV3K61B2BsdnNHYBpHekOaAIGoYmOdgdgWv/lDkA7lZyukbSNpFvcLQAAoNf+q+T0D3cExuoAdwCmdYI7oAkYhCY6wx2Aab0hxGoZdwTaqeR0maTN3B0AAKC3Dio5fdsdgfEJsVpL0v3cHZjSVSWnq90RTcAgdCclp5sk/cXdgWndwx2A9io5XSze4wYAAOP3f5Le6Y7A2D3EHYBpfdYd0BQMQpNxuFRzPdEdgHYrOZ0vhkUAADA+/5a0X30DKvrlxe4ATOsn7oCmYBCaLLsDMK23uAPQfiWnsyVt7u4AAAC9sEv9FgJ6JMRqJUl7uTswrePdAU3BIDTZae4ATGvDEKsN3RFov5LTOZLu7u4AAACddi9uFOutB7gDMK2bJF3pjmgKBqG7qK+pPs7dgWnt7g5AN5SczhUHTQMAgNHYqeT0b3cEbJ7vDsC0Pllycjc0BoPQ1L7oDsC0XusOQHeUnM6TtJG4kh4AAAzPY0tOf3NHwCPEanlxflCT/dAd0CQMQlP7lTsA07pviNW67gh0R8npIg1GoYvcLQAAoPX2LTkd6Y6AVXAHYEacH3QnDEJT4/HOZnuMOwDdUnK6XNLWkk50twAAgNZ6Scnpm+4I2D3XHYBpXVJyusod0SQMQlMoOd0s6Wh3B6b1OncAuqfkdI2knSTxUz0AADBfB5acPu+OgFeI1XKSXuPuwLQ+7Q5oGgah6X3JHYBpPSjEam13BLqn5HSDpD3FP/8AAGDu3lZy+qg7Ao3A62LN9mN3QNMwCE0vuwMwo+gOQDeVnG6T9AJJ73G3AACAxnuvpHe5I9AYz3EHYEbFHdA0DELTO9sdgBn9jzsA3VVyWlJyerOkV7pbAABAY71H0pu4whrS0tfFuBG5uf5ecrreHdE0DELTKDndLunr7g5M60HcNoZRKzl9WlLl7gAAAI1zsKQ3MwbhTu7jDsCMPucOaCIGoZlxS0Cz7eEOQPeVnH4kaWd3BwAAaIx3SnorYxDu4kXuAMyIi2OmwCA0sz+5AzCjt7gD0A8lp79K2kLSre4WAABg9SZJb2cMwp2FWK0g6RXuDszoDHdAEzEIzexSSde5IzCt7UOsNnRHoB9KTmdJWlccOA8AQF+9suT0XsYgTGEndwBm9J2SEz/YnQKD0AzqT/YfcndgRk92B6A/Sk7XSNpN0gfcLQAAYKz2q88WBKbyancAZvRld0BTLeMOaLoQq/tL+pu7A9O6UtI6/KQG4xZitZ+kr7g7AADAyD215HSEOwLNFGK1qnirpOnuVnK61B3RRDwhNLsT3AGY0dqStnRHoH9KTl8Vh00DANB1D2cMwiwe6Q7AjK7U4CgYTIFBaBYlp5skHeXuwIz2dQegn+rDpjeQVNwtAABg6ELJ6bfuCDTe/7gDMKMP8zbJ9BiE5ubz7gDM6OAQK34vw6LkdImk+0n6uLsFAAAMxU2SNi058aYAZhRitZ6kR7g7MKMfugOajG+i5+Y37gDM6n7uAPRXyenWktMBkvZytwAAgEX5o6QNS07nu0PQCk9yB2BWJ7oDmoxBaG4ulHSDOwIz4mR/2JWcvi9pa0nXu1sAAMC8fVqDM4Oucoeg+UKsJG6kbrrvlZxucUc0GYPQHNTvHL7X3YEZPa8+4R+wKjmdJml9SV9ytwAAgDl7ZcnplSWnW90haI2tJK3rjsCMDnUHNB2D0Nwd4Q7ArB7tDgAkqeR0Q8np+ZL2cbcAAIBZ7VFy+rQ7Aq3zfHcAZvV7d0DTMQjN3UnuAMzqXe4A4M5KTt+VtKWkc9wtAABgkiWSti45/cIdgnYJsVpB0pvdHZjR2SWnK9wRTccgNEf1u4ffcndgRvcLsdrUHQHcWcnpTA0eKX63uwUAACz1Y0lr1q96A/P1UHcAZvVBd0AbMAjNzxfdAZjVs9wBwF2VnG4pOb1FfPEAAEATvFFSVXK61h2C1nqLOwCz+rE7oA2WcQe0SYjVGpKudndgVsuXnG5zRwBTqT+PfErSfu4WAAB66NElp+yOQHuFWK0v6RJ3B2a1bMlpiTui6XhCaB5KTtdI+rO7A7N6oDsAmE7J6ZqS03MkVe4WAAB6pEjamDEIQ8ClIc33fsaguWEQmr+PuwMwqze5A4DZlJx+JGk9Sd9ztwAA0HEHS7pvyelCdwjaLcRqWUmfcXdgVoe7A9qCQWj+jnIHYFZViNV67ghgNiWny0tOe0t6krsFAICO2q3k9FaOE8CQ3N8dgDn5lzugLRiE5qn+ycLF7g7M6unuAGCuSk5Jg6eFvuluAQCgI7Kku5Wc+GEuhumN7gDM6qv1DeGYAwahhTnYHYBZfbp+pBNohfppoX0lRXcLAAAt9xJJjyk5XeoOQXeEWK0t6WnuDsyKm8HngW+YF+aH7gDMyU7uAGC+Sk6/lrSapA+6WwAAaJnLJG1Xcvo8B8piBHgDoR2OdQe0CYPQwpztDsCcvNUdACxEyen6ktMbJO0g6Qx3DwAALfBmDW4RO8kdgu6p3zz4X3cHZvXTktMN7og2YRBagPonDm9zd2BWVYjV3dwRwEKVnIqke0naz90CAEBD3aDBDWLv4dwQjNAD3QGYk0+5A9qGQWjhvu0OwJzwjTRareR0e8npaxocOs070QAA3OGdktYuOR3vDkHn8TBAOxzjDmibZdwBbVU/Nsj1le2wQsnpVncEMAwhVveR9F0NnhwCAKCPzpW0R8npBHcIui/EakNJF7o7MKujS06PdEe0DU8ILVDJ6XZJ73J3YE4e5Q4AhqX+Keg2kvZ2twAAYPBySVswBmGMXugOwJx8xB3QRgxCi/NNdwDm5MPuAGCYSk5LSk7f0+A2sje5ewAAGIMs6e4lp8+WnHhKH2MRYrWSpHe7OzAnv3YHtBGvjC0Cr421ytYlp9PcEW1V/15fXtKK9a/SHZ8/bpJ0s6TbuOLVI8RqI0nvk/RcdwsAACOwu6RflpzcHeiZEKtK0g/dHZjVH0pOD3VHtBGD0CKFWL1b/IS+DT5dcnqlO6LpQqxWl7SZpPtI2rn+2FXSCnP8P3GbBj/B+5Ok4yX9u/64ki/iRi/EansNDp7exd0CAMAQvFXSh0pON7pD0D8hVpJ0lqTN3S2Y1V4lp++7I9qIQWiRQqy2k8Q7zO2wdsnpKndEk4RYrSApSNpL0oslbTTC/3fflPRjSX+QdGZ9DhdGIMTqIZIOl3R3dwsAAAtwlKQXlZzOdIegv0KsdtTgB5xoPr7PWyAGoUUKsVpGEt/YtsMrS06fdkc0QYjV2pIOluR8auoTGoxE/yg53eD+a9I19eemPST91N0CAMAcXSdpz5LTb90hQIjV/0nax92BWf265BT/f3v3HS5rVR5s/KYKKL2JIIhBQJe9RbGxYkN0oWgURQV7i7189kTRaOzYwIotmlhRX8XuQkWxAAq6QIkFLIhSBEQEpHx/zJiAcg5n7z0zz7zv3L/rOhcieM69PbDnnWdWiY7oKwdCE5ByeTFwUHSH1sjCX0GfcrkDMG8PWh9idDPA9105NFkpl3WAfYBPRLdIkrQaDwf+ywOjNQ+8ar5X7tNq99noiL7ylrHJ8Lax/rhrdECklMv2zN8wCGB/4Bjg0pTLM1Mu20UHDUWr3aXjPdXrAftF90iS9Df+Ddik1e4/HQZpjjw+OkBr7GvRAX3mCqEJcNtYr/wM2GVRDzhOuXwO2Cu6Yw19EnhBq91J0SFDMj436gE4yJYkxToUeEmr3e+jQ6QrSrlsxGj7oubfEa12946O6DMHQhOScnkGoy0vmn83b7U7Pjpi1lIuOwGnRHcswzeBpwHHLuogbxpSLusCBbeSSZJm65PAM1vtfhEdIl2VlMvDgfdHd2iN3LXV7qvREX3mlrHJ+Wh0gNbYy6MDgtwgOmCZ7sBoO9nJKZd/jI4Zila7S8ZbydYF7g2cFd0kSRq0LwI3arXb12GQ5tX47EWHQf3xreiAvnMgNCGtdr8GfhXdoTVyn5TLIl7H3ffDtG8AfDvl8pmUy47RMUMxPmPoCGBrRsO346KbJEmD8hXgxq1293QbuHpgz+gArbHDWu0ujI7ou3WiA4Zkm513OwvYN7pDa2StM045+QvREbN0xiknn7LNzrvdBdg5umWFdgWesc3Ou627zc67fe+MU06+ODpoCM445WTOOOXkX51xysnv2Gbn3T4GbA/sHt0lSeqtrwL7tNq99oxTTj4jOka6OikXgM8DW0a3aI087oxTTj4tOqLvPENoglIuWwJnRndojW3RaveH6IhZSrnsDPw8umPCHgp8yPOFJi/lch3gycDzo1skSb3xEeDFrXYnR4dIS5FyuTnw/egOrbH1Wu36vgMinFvGJqjV7ixGB+CqHx4bHTBr4z37r4jumLAPAl9NuVw7OmRoWu1Oa7V7AbAx8OjoHknSXDsU2LHVbj+HQeqp10QHaI39u8OgyXCF0ISlXPYCPhfdoTV2zVa7C6IjZinlci3gj9EdU/JA4GOuFpqO8UGLewCvZHTekCRJLwLe0WrntjD1VsrlH4CfRndojd2g1c7frwlwhdDkfS06QEuyX3TArLXanT/gr/ujwBEpl62jQ4ZofAD1N1rt7gjsBLwqukmSFOahwEatdv/uMEgD8KLoAK2x83B4NzGuEJqClMu7gUdFd2iNrd9q95foiFlKuawNnAIM+ba1e7TafSk6YuhSLhsC9wReT/8PLJckrd73gGcDR7XaXRYdI01CymU7wMOJ++NxrXbvjI4YClcITcdbogO0JCU6YNbGD3H3je6Ysi+mXJ6fcnHwPUWtdn9utfskcH3gBsDB0U2SpIl7DbBzq91tW+2+7jBIA/Oc6AAtySejA4bEN0pTMF59cWl0h5ZknUV8uEm5vBx4YXTHlH0FeECr3bnRIYtivGooAwcBt4rukSQtyznAE4Bu0c5b1OLwluje+eb46AJNiCuEpmA8WPh/0R1akntEB0RotXsRcGB0x5TdFTgn5ZKiQxbFeNXQEa12twa2x0/eJKlP3gYkYPNWuw87DNLAPTk6QEtyUHTA0LhCaEpSLtsDv47u0Bo7G9iq1e7y6JAIKZc7sxgHou/XaveR6IhFNF45eRPg8cATo3skSVfyM0bD+y84ANKiSLlsymglnPpjg1a7i6IjhsSB0BSlXI4HbhrdoTX2T612NToiSsrlBsDJ0R0z8P+A13g1fZyUyzUYXVv/HGCv6B5JWmAvAv6z1e7U6BBp1sWnakMAAEULSURBVFIuzwX+I7pDa+yNrXZPj44YGgdCU5Ry2Qf4VHSH1thvgOsu6ioh+N991EcBu0e3TNnBwLMW8dyoeZNy2ZjReUP/j9GQSJI0Xe8G3goc7+ugFtX4+eO86A4tyQ1b7X4cHTE0DoSmKOWyEfCn6A4tyV1a7b4eHREp5bI+8F7gIdEtU/ZxYP9Wu4ujQzSSctkcuDujlUO3ju6RpAH5DPBGRgey/jk6RoqWcnkG8ProDq2xPwHXcoX/5DkQmrKUy6GMbmhQP5zC6FrV6I5Q46vaXwC8PLplyo4FcqvdH6NDdGUpl82APYFnAneK7pGkHvoSoze832i18wNKaSzlci3AZ79+eWSr3XujI4bIgdCUpVxuBLToDi3JnVrtjoqOmAcplwcBH47umLI/ALu32v0+OkRXLeWyCXB74HHA/aN7JGmOfRY4hNEQyDe80lVwdVAvbd5qd050xBA5EJqylAvAucAm0S1aY6cyWiW0sGcJXVHKZRvgHcB9o1umbLtWu9OjI7R64wOpbwo8DHhqdI8kzYH3AIcBx7odTFo9zw7qpY+22j0oOmKoHAjNQMrlAOB90R1aktxqd2R0xDxJuewFfC66Y8q2abU7IzpCa2Z8lf31GN1U9nTgBtFNkjQDFzK6Gelw4KRWu79EB0l9kXJ5NvCa6A4tyW1a7Y6JjhgqB0IzkHLZFDgnukNLcjpwHVcJXdn4U5VXM9xzsS5gdNPc2dEhWrrx99p/BPYHDozukaQJOhJ4G/A14PRFP+tQWo7xFvRzozu0ZOt4I+L0OBCakZTLBxm9SVF/3K3V7ivREfMo5XI74Ojojik5E9il1c4Hhh4brx7aCfgn4PHAbaKbJGkJzgDezOh2sJNa7S6MDpL6LuXyQoZ/YcrQPKXV7i3REUPmQGhGUi43A34Q3aElOR/Y1In0VRuf5fJ84N+iW6bgl8CNPZBzOFIuGwK7Mdpe9gRGwyJJmidvBz7K6Cygc6JjpCFJuWwBnBXdoSXbqtXO37cpciA0I+NrvP8EbBjdoiW5b6vdp6Mj5lnKZWdGh1nuGd0yYT8GbtVqd0F0iCZvfOXsTRgNiB4DXCe6SdLCORT4FHAccKbb1KXpSbn8B/Dc6A4tySdb7faNjhg6B0Iz5OHSvbVeq90l0RHzLuWSga9Gd0zYd4A7+vs/fOMB0e7A3YFHALtGN0kalNOA9wNfAo4HzvIcIGk2Ui7bMjofVP3iYdIz4EBohjzIrLce2mr3oeiIPki5rA+8kWEdOv1O4HE+uC+W8ZbInYHbA/8M7B3dJKlXvgR8DPgm8HOvg5fipFzexug8QfWLh0nPgAOhGUu5vAt4dHSHlmxDD3RccymXRwDvie6YoGe12r0+OkJxxodUbwPcmNFB1Q9hdOW9JH0b+CRwFPAT4GzfxEjzYXy0wc+jO7Rkj2u1e2d0xCJwIDRjKZcbAidGd2jJntpq9+boiD5JudwG+G50xwTt22r3yegIzY/xKqLrArcA7go8GNg0ukvSVH0R+ALwPeB/gDNa7S6NjpJ01VIunwL2ie7Qkm3mjb+z4UBoxlIuAKfgDTd9tLm3fizNeM/29xi9aR4C9zJrtca3me0A3JzRQev3wwOrpT76CaPhz7eBExjdPvlHD36W+iPlchNG//6qXw5rtXNHzYw4EAqQctmH0a0S6pdXtNq9MDqib1IuGzH6NPWO0S0TslOr3S+jI9Qf47O1tmF07f3tGR1cfefoLkkAHAN8g9ElAicCvwbOdcuX1G/jD+GPBW4Z3aIlu1Gr3UnREYvCgVCA8TYDz6Ppp+1b7U6LjuiblMt6jG7Ye0h0ywRcCmzRandedIj6K+WyFnAtYHvgRsDtGJ1NdKvoNmmAvs9oC/MxwEmMVvucCVzoih9pmFIuewI1ukNLdipwPS9zmR0HQkFSLv8GvCS6Q0v2wVa7h0VH9NH4DfBrgGdFt0zA14E9fSOhSbvCoOjawA0YfbK5B3A3YL3oPmlOHcPoKvcTGW31OhX4HXAecJFvLKTFknJZB/gjsGF0i5bsvq12n46OWCQOhIKkXLYDXGnSTzdutWvREX2VcnkxcFB0xwQ8ptXu3dERWhzjlXabM1pVtCtwE+C2wF2A9aP7pCk4afzjp8AvgN+Mf5wBnANcAFzqwEfSFaVc9gP+O7pDy7JBq91F0RGLxIFQoJRLB9wnukNLdixwax9Aly/l8jLgRdEdE3C9VrtToyOklMu6wCaMziraEdgFuDGjLWi3je6TlugHwN6tdr+NDpHUL+OzK/8U3aFleV6r3auiIxbN2tEBC+7fogO0LLcCcnREz72Y0faxvvvUeIuPFKrV7pJWu7Nb7X4MfAk4gtHNKptFt0nLcHPgtJTL3tEhknrnqdEBWrbDogMWkW9kAo3fSJ7FaAuA+uUy4BqtdpdEh/TV+PaHg4GnRbes0AGtdh+IjtBiS7lsANwU2A94ZnSPNEFvAZ7TaudlHJJWK+VybcCVhf30kVa7/aIjFpErhAKND6R9XHSHlmVt4IDoiD4bb7l7BvBf0S0r9P7xA4g0UykXUi53Srl8Hvgzo2uzHQZpaJ4MnJ1y2Tk6RNLce3V0gJbt5dEBi8qBULzPRAdo2d6dctk0OqLPxkPRRzC6ErjPPFxaM5VyuQ2jG5W+Dtwzukeasg2Bn6dc7hAdImk+pVxuAjw8ukPLcgrww+iIReVAKNh4CfTzoju0bEM4GDlUq93FjM5k6vP2u70960KzkHK5ScrlW8B3gRtG90gzdlTKxdW5kq5kfAzHR6M7tGxP9LKeOA6E5oOrC/rr2SmXXaIj+q7V7lyg79sBPpty2SQ6QsOUcrlByuWvB0XfPrpHCvS+lMsrUy4+w0r6qwLsFh2hZftydMAi88V0DrTanQm8J7pDy/be8QHJWoFWu18zusGtz14bHaBhSbnsmHL5EHAycK/oHmlOPA/43PgwdUkLLOWyIfCp6A4t2xO8pCeWA6H58croAC3bHYC7RUcMQavdccCB0R0r8NiUyx2jIzQMKZc9gVOBh0S3SHPoHsC3Ui4bRYdICvX06ACtSN8vl+k9r52fIymXbwP/GN2hZbvG+DwcrVDK5VDgCdEdK3DNVrsLoiPUT+MVh08G3hzdIvXAT4DbtNr9MTpE0mylXK4L/DK6Q8v26la750ZHLDpXCM2XZ0QHaEX+JTpgQJ4G/CI6YgVeER2gfkq5XAP4AA6DpDW1G3BiymWz6BBJM/fO6ACtyBujA+QKobkyPiH/LGDz6BYt2w6tdr+JjhiClMt2wGnRHStwx1a7b0ZHqD9SLtcBjgG2i26ReugPwA1a7c6KDpE0feNt1TW6Q8v20Va7B0VHyBVCc6XV7nLgEdEdWpFDowOGotXut8C9oztW4KiUy7WiI9QPKZfbA7/BYZC0XJsDP0q5XDM6RNJ0pVzWx2FQ3/1bdIBGHAjNn89FB2hFSsrlztERQ9FqdwRwSHTHCrjtR1cr5XJL4FvRHdIAXBv4fMpl3egQSVP1lOgArchxrXYnRUdoxIHQnGm1+wvwuOgOrcjXxp9caDKeBfwlOmKZHpFy6fMqJ01ZymV74NjoDmlA7ggcNt6GL2lgxgdJvza6QyviQG+OOBCaTx+KDtCKPS06YCha7S4Ebh7dsQKfGZ8NI13JeGvLidEd0gA9HHh5dISkqTgsOkArciZwdHSE/o8DoTnUavcn4PnRHVqRV6dcdoqOGIpWuxOB/xfdsQKfT7msEx2h+ZFyWRs4HNgkukUaqBekXB4bHSFpclIudwfuFt2hFTlgfG6u5oQDofn1jugArdgHUi7RDUPyBuCM6IhlugnwvOgIzZX/AO4eHSEN3DtSLreJjpC0cimXjYAvRndoxfw9nDMOhOZUq93ZwOujO7QidwLuEx0xFK12lwB7RneswMtTLv8UHaF4KZdHAc+J7pAWxHdTLltHR0hasX+NDtCKPbTV7tLoCF2ZA6H59rroAK1Yl3JxS8iEjLeOvSC6YwW+Mj5EWAsq5bIN8O7oDmnBfMFtu1J/pVwS8NzoDq3Yx6MD9PccCM2xVrvT8OC0IfiP6ICB6fug9Hsplw2iIxTmDdEB0gK6BfCy6AhJSzc+c++I6A6t2BNa7S6KjtDfcyA0/w6KDtCKPdEzDCan1e5iRtcK99V2wLs9X2rxjL8P7B/dIS2o56dc7hIdIWnJHgPsGB2hFftAdICumgOhOddqdyrwsegOrdhRKZf1oiOGotXum8BHojtWYH/gadERmp3xdhUPUpRiHek2bqk/xtvs3x7doRV7VqvdBdERumoOhPrhhdEBWrH1gWdFRwzMU6IDVujglMv9oiM0MwcCm0VHSOLN0QGSrt54JfV/RndoIt4VHaBVcyDUA612JwNfiO7Qir0y5bJbdMRQtNr9HnhCdMcKHZ5yuW10hKYr5bIpHiQtzYsDUi73jI6QdLX2pd+3y2rkX1vtzouO0Ko5EOqPZ0YHaCI+Nz4cT5MxhEPXv5Ny2TU6QlP14OgASVfy+ZTLZtERkq5aymVL4BPRHZqIt0QHaPV8Y9oT4+u2vxzdoRXbGXhsdMRQtNr9Bbh7dMcE/CTlskN0hCZvfHbQ26I7JP0dbx2T5pfnBg3DS1vt/hAdodVzINQvT48O0ES8LeVyveiIAfkycEx0xAT8KuWydXSEJu7O0QGSrtKTUy43io6QdGUpl72AB0R3aCLeFB2gq+dAqEda7RpwZHSHJuJTKZe1oiOGoNUO4OHRHRNymkOhwXlddICkVfqor8XS/Bifufe56A5NxMtb7c6OjtDVcyDUP0+NDtBE3BR4VHTEULTa/Rj4UHTHBKwLnO5QaBhSLv8A3CK6Q9Iq3Qi4b3SEpP/11ugATczB0QFaMw6EeqbV7ofAV6M7NBHvSrnsGB0xIM+LDpiQtYHfpVyuEx2iFXt8dICkq3V4ymWD6Ahp0Y1v/3todIcm4qBWu7OiI7RmHAj101OiAzQxn3a5+mS02v2K4XwasRbwm5TLDaJDtDzj2wSfE90haY0MZdux1Espl82Bz0d3aGIOjg7QmnMg1EPjG8fcXzsMN8NVBJP079EBE3ZyyuWW0RFaFod5Un+8I+WyUXSEtMAOjQ7QxLzYm8X6xYFQfz0jOkATc2jKZZfoiCFotTsTOCi6Y8KOTbl4xkX/PDA6QNKSPDI6QFpEKZd9gP2iOzQxb44O0NK4VaXHUi6HA/eL7tBEnALs0mp3aXRI36VctgCGuG/5ucCrx7eqaY6Nt4FeFt0hack2brU7PzpCWhQpl22A30V3aGKe22r36ugILY0rhPrtWdEBmpjr4e/nRIyvuHxpdMcUvAr475TLNaNDdLV2iA6QtCz7RwdIiyLlAvBf0R2aqEOiA7R0DoR6rNXu58B7ozs0Ma9KudwsOmIg3hgdMCX7AeenXHaPDtFq3Sk6QNKyvD3lsm50hLQgHg78U3SEJuZJrrDsJwdC/fei6ABN1A+8/nblxofZDe2A6Ss6KeXy4PGna5o/B0QHSFq2u0YHSEOXctkZeH90hybqPdEBWh4HQj3XavcbvNpvaF4VHTAQQ10l9Ff/BXw25bJVdIj+T8plPeCe0R2Slu0Qh+3S9IxX4dXoDk3Uw1vtLoyO0PI4EBqGV0QHaKKemnK5W3RE37XanQG8NbpjyvYGzki57B0dIhgP5x4X3SFpRa4P3CQ6Qhqw5wI7RUdooj4cHaDl85axgUi5vAh4WXSHJmrr8TXqWqaUyw7Ar6I7ZuTzwGPGqwY1I+NPOm8HvBi4R3SPpIl4R6vd46MjpKFJudwG+G50hyZqn1Y7r8DtMQdCA5Fy2Rg4L7pDE1WBu7baXR4d0mcplw8DD4rumKFnAG9ttftLdMiQpVy2Bw5k2GdVSYvsmq12F0RHSEPhe5VBOhPYttXusugQLZ9bxgai1e6PgJ9mDUsGHhMdMQD/Fh0wY28ALk653Cfl4tB/glIuG6dc9km5HAP8GodB0pC5dVuakPG5XO+K7tDE7eswqP98szAgKZdrAB7oNTyp1e7E6Ig+G7+Bv1V0R4AzgPsDR7Xqat7lSLlsBNwBeCawV3SPpJn5YavdTaMjpCFIuTyY0WUYGo5jgVv7fNl/DoQGJuXyAOBj0R2aqMsZLV3/c3RIX6Vc9gC+Gd0R6BTgscBX/STn6qVc1gduCzwZ2C+6R1KY7VrtTo+OkPos5XJ94GfRHZq4m7XanRAdoZVbNzpAE3c4cDawRXSIJmYt4M24fWwljgYuADaKDglyPeBL8L+f0n3aAeOVpVw2A/Zg9O/ZvtE9kubCvYD3REdIfTX+gOU70R2auI85DBoOVwgNUMrlDsBR0R2auPu32h0eHdFXKZcHAh+J7pgjbwLeCpy8iMt9x+cr7cRoG9gzgRtEN0maOz9ttfN7g7RMKZc3AE+P7tDE7dhqtyi3+A6eA6GBSrkcxejcCw3L9VvtfhEd0Ucplw0AV8X8vd8Bzwc+N+StEeMB0NaMzpLal9EWOkm6Otu02p0RHSH1Tcplb+Cz0R2auFe12j0vOkKT40BooFIuuwMnRXdo4s4Etm+1uzg6pI9SLs8DXhndMcd+C7wM+Azwmz6fN5RyWRvYktEA6H54C6Ok5Xloq92HoiOkPkm5XBf4ZXSHpmLzVrtzoiM0OQ6EBizlchjwyOgOTdxbWu2eEh3RRymXrYHfR3f0yAcZbbP7DnDGvA6Ixqt/tmC07ev2QAFydJekQfhGq92doyOkvki5rAf8FNgxukUT96RWu0OjIzRZDoQGLOWyDaPtIBqe+7XafSo6oo9SLh8CHhLd0VNfZ7T8+2jgZOAPwMWzOoMo5bIusBmwPbArcAvgTsAdo/+PkTRoG7baXRgdIfVByuV1jM7m0/Bcw10Kw+NAaOBSLs8GXhPdoanYpdXOazyXKOWSgB9FdwzMt4DvAicw2nZ2NnAO8EdGt7v9BbgcuGz8x7/+WIfRbZfrAesD12B0E9zWwHUY3Y62C7A7cFNg0+gvVNJCulWr3XHREdK8S7ncB1i8myoWw71a7T4fHaHJ89r54XsrDoSG6oSUy1ZeH75kDfg5cP3okAHZY/xDkoZoH8CBkLQaKZfr4zBoqH4EOAwaqLWjAzRd42HB/aM7NBUbAW+Ljuib8famJ0d3SJJ642nRAdI8S7lsCPwgukNTs/+sjgfQ7DkQWgyfxJP+h+qAlMuB0RE99OXoAElSb2yWcrlWdIQ0j1IuMPqAcuPoFk3F+1vtfhgdoelxILQAWu0uZ3TtsobpvSmXW0RH9Emr3V/wwENJ0prbLTpAmlOPAA6IjtDUPCc6QNPlQGhBtNp9n9EV0hqm41IuW0ZH9Mz7ogMkSb3xT9EB0rxJudwaeE90h6bm6a12v4+O0HQ5EFosz4oO0FQdkXJZJzqiL1rtzgYOi+6QJPXCQ6MDpHmSctka+F50h6bq0OgATZ8DoQXSavc73CYzZLcFXhod0TOvig6QJPXCzfzQRRpJuayL5zEO3T1b7S6OjtD0ORBaPIdEB2iqXphy8Va5NdRqdzLw3egOSVIvbB0dIM2JVwE3jY7Q1Hwb+GJ0hGbDgdCCabW7CLh7dIem6uMplxtHR/TIM6IDJEm9sHt0gBQt5bI/7jgYuod7zfzicCC0mL4MfC06QlP1w5TL5tERPXE0cE50hCRp7u0RHSBFSrncEi+pGbpXttr9NDpCs+NAaAGNJ76PiO7Q1H1hvMdbq9FqdznwkOgOSdLc86YxLayUyzbAsdEdmrpXRAdothwILahWu1OAl0R3aKpuA7w2OqInvghcGh0hSZprd025RDdIM5dyWR/4VnSHpu7+rXbnR0dothwILbbXRAdo6p6WcnlkdMS8a7W7DLhXdIckae5tGB0gzdJ4CPou4B+iWzRVPwQ+GR2h2XMgtMBa7S7AN8GL4LCUyx2iI3rgS8BJ0RGSpLm2bXSANGNPBx4eHaGp++fxMQpaMA6E9HngyOgITd1RKZfrRUfMs/HZWvtEd0iS5toO0QHSrKRc7gm8IbpDU/eKVruToyMUw4HQgvOA6YXys5TLJtER82x8q4LX0EuSVmXX6ABpFlIuidEHxxo+D5JeYA6ERKvdqcBzozs0dWsDR6Rc1okOmXNvBn4bHSFJmks3jQ6Qpm18o9iPojs0E/dutftTdITiOBDSXx0cHaCZuAPw+uiIedZqdylw1+gOSdJc+sfoAGmaUi4bAN+N7tBMHAkcER2hWA6EBECr3cXAHaM7NBNPTbk8KTpinrXanQS8ILpDkjR3bh0dIE1LymUt4IPATtEtmokDxseHaIE5ENL/arX7JvCf0R2aibemXO4dHTHnXotbxyRJV7auW681YC8D7h8doZl4eqvdr6IjFM+BkP7W06MDNDOfSbncIjpiXrXa/QW4fXSHJGnubBgdIE1ayuWRwAujOzQTFwBvjY7QfHAgpCtptTsL2D+6QzNzXMrlutER82p84LorqSRJV+SNnRqUlMvdgMOiOzQzd2m1uyQ6QvPBgZCuyn8DP4iO0MycmnLZLDpiXrXaHQG8KrpDkjQ3No8OkCYl5XJT4EvRHZqZt7baHRMdofnhQEh/p9XucuAB0R2ambWAb6Rc1o8OmWMvAv4nOkKSNBe2jg6QJmG8Svz46A7N1POjAzRfHAjpKrXa/Rx4VnSHZubGwIfGt0vob4yX1e4Z3SFJmgvbRQdIKzVeHf7L6A7N1F6tdn+MjtB8cSCk1XkTcH50hGbmAbg1apVa7U4DbhndIUkKd53oAGklUi4bAN+M7tBMda12X4iO0PxxIKRVGq+KuHN0h2bqOSmXZ0RHzKtWu+8De0d3SJJC7RgdIC1XymUd4OPAjaJbNFOPjQ7QfHIgpNUavwF21chieX3K5SHREfOq1e5zwOOiOyRJYa4XHSAtR8oFRteN++HWYtm/1e530RGaTw6EtCZeGh2gmftQyuXu0RHzqtXuncArozskSSF2iQ6QlunFwOOjIzRTRzO6QVq6Sg6EdLVa7f4M7BHdoZn7YsrlttERc+yFwPujIyRJM7dbdIC0VCmXJwAHRXdo5vYb3yAtXSUHQlojrXZHA4dGd2jmvpNycY/5VRi/uD4SeF90iyRpptYZb72ReiHlsh8+xy+ix7ba/So6QvPNgZCW4v9FByhES7nsFB0xj1rtLgMehUMhSZI0h1Iu98QtQ4uoAYdFR2j+ORDSGmu1Ox+4S3SHQpySctk2OmIeXWEo9N7oFkmSpL9KuewBfD66QyHuM35GlVbLgZCWpNXu68DbozsU4pSUy+bREfNo/IL7aBwKSdKiWCs6QFqdlMstgG9GdyjE41vtTomOUD84ENJyPDs6QCE2AE5IuVwrOmQejYdCjwT+NbpFkjR1DoQ0t1IuuwPHRXcoxI+Ad0VHqD8cCGnJ3Dq20HYAjkq5bBAdMo9a7Wi1exlwQHSLJGmqHAhpLqVcrgecFN2hMMWtYloKB0JalvHWsbdEdyjEzRhdSb9+dMi8arX7APBP0R2SpKnxGVpzJ+WyA/CL6A6FeYxbxbRUvphpJZ4bHaAwdwI+lXJZNzpkXrXaVeDG0R2SpKlYJzpAuqKUy7UBrxhfXN/GW8W0DA6EtGytdhcAt43uUJi9gA+nXHwoXoVWuwZsDnwlukWSNFG+9mlupFy2An4b3aFQD2i1uzw6Qv3jQEgr0mr3PeDl0R0Kc3/gvSkXv5esQqvdOcDdgWdFt0iSJsYVspoLKZctgFOiOxRqv1a706Ij1E++idMkvAw4PzpCYR4GHOZQaNVa7S5vtXs9cIfoFknSRKwXHSClXDYHfg5cM7pFYT4LfCQ6Qv3lGzitWKvdxcA/Rnco1IHAO1Iu3rqyGq123wK2AT4X3SJJWhEvVlColMtmwMnAptEtCnVAq110g3rMgZAmotXuROAp0R0K9WjgbQ6FVq/V7gxgb+AB0S2SpGW7RnSAFlfKZVNGV8tvFd2iUHdrtTs7OkL95kBIk3QIcFx0hEI9DodCV6vVjla7TzBaLfSZ6B5J0pI5EFKI8cqgnwDXjm5RqLe22nlpiVbMgZAmptXuMmCf6A6FexzwLs8Uunrj1UIF2De6RZK0JBtGB2jxjM8M+imwbXSLwj0nOkDD4Bs2TVSr3W9wK4zgUXjQ9BoZrxb6JKMDIf81ukeStEY2ig7QYhnfJvZzYMvoFoW7eavdn6MjNAy+WdPEjbfCfCC6Q+EOBN6fclknOqQPWu0uaLV7GbAj4OmAkjTfvNVJM5Ny2Rr4NbBZdIvCPaPV7vjoCA2HAyFNy5OiAzQXHgp8NOWybnRIX7Ta/arVbh9gD0ZnBEiS5s/G0QFaDCmXawO/x22KgmOBN0VHaFgcCGkqWu3OB24d3aG5sC/wmZSLV/QuQavd0cDuwB2A/4nukSRdiQMhTV3KZQfgt9EdmhtlfGarNDEOhDQ1rXbHAs+N7tBcuCfwlZTLBtEhfTI+X+hbwK7AHYGfRTdJkgDYNDpAw5Zy2Rn4VXSH5kZptXM4qIlzIKRpey3w/egIzYU7At9Nufip6hKNB0PfBHYBbg4cHt0kSQtu8+gADVfK5YaMDpCWAA5ptftMdISGyYGQpmq8rHHv6A7NjZsAPx5fm6olGg+Gjm+1uz+wHfCS6CZJWlBbRAdomFIutwBOjO7Q3Pgz8KzoCA2XAyFNXavd6Yy2DEkA1wFOT7lsGx3SZ612p7favZTR1ccFOCa6SZIWiFd/a+JSLnsAx0V3aK7cotXuwugIDdda0QFaHCmX1+KEW1e2c6vdKdERQzG+ieSBeAOFJE3bF1vt/LBLE5Ny2Qv4XHSH5sqBrXbvj47QsLlCSLP0AuB30RGaK79IuaToiKEYrxp6M6Pv7bsx+nfuL9FdkjRArnLVxKRc9sNhkK7s44DDIE2dK4Q0UymX6wG/iO7Q3Lldq913oiOGKOUCcF3g3sDzgJ2imwboOGB94MbRIZJm5netdteOjlD/pVyeABwa3aG5s3Gr3fnRERo+B0KauZTLfYFPRndo7uzVaveF6IihG9/ydjPgfsAz8XVgqX4FfAT4KnACcHqr3SUplxMYHZouaXGs1WoX3aCeGn9g8294QYT+3s1a7U6IjtBi8I2AQqRc3gw8ObpDc+dhrXYfjI5YFOOH0a0ZrWy5K7A/sHN01xz5PnAE8E1GN778ttXu4qv6G1MuP8QVQtKiWbvV7vLoCPVPymUd4BDgcdEtmjuPbbV7V3SEFocDIYVIuawP/AbYKrpFc+fZrXavi45YVCmXawA7MlpFtAewN6PziIbsWOBI4LvAjxmtAjq31e6yNf0JUi4nAjeM/kIkzdS6rXaXRkeoX1IuGzA6H2bv6BbNncOB+7vyULPkQEhhPE9Iq/F64DlLeUOu6Rl/krkFo0HRPzDaGvWPwJ7AetF9a+A0Rqt9jmO00ucX4//uTODCSXzCn3L5CbBr9BcqaaY2aLW7KDpC/ZFy2Rw4muF/0KLl8dwgzZwDIYVKuewNfDa6Q3Ppk8CDfdiebymXdYGNgE0YrfjbjtHgaLvxjx3Gf74zcM0J/JKXAb9nNND5JaOVhqePf5w2/mtnA+cC5wMXz2JLR8rlZ8D1p/3rSJorvnnTGku57AicGt2huXXjVrsWHaHF40BI4VIur2R0+5H0t04C7tBq94foEK3c+MyitcY/1gHWHv/462vRX//a5YwGP5f9zX++bF6XUadcTmU0+JK0OLZqtTsrOkLzL+VyU+D46A7NrYe22n0oOkKLad3oAAl4MbAPcKPoEM2dGwJnp1x2arX7ZXSMVmY8zLmc/xvyDImvp9Li2SA6QPMv5XIPwFtUtSrvdhikSGtHB0itdpcwuuFIWpVTUy63io6QVqMPZylJmqyNogM031Iuj8ZhkFbtLLx1WcEcCGkutNqdDtwhukNz7ZiUS4mOkFbBgZC0eK4VHaD5lHJZK+Xy74DXh2t1btVqd2F0hBabAyHNjVa7bwFPie7QXPt0ysV/RjSPHAhJi2fj6ADNn/G18p8AXhDdorl2j1Y7DxlXOAdCmjdvAT4eHaG59qaUyyHj262kebF+dICkmds0OkDzJeWyDfA/wP2iWzTXXthq96XoCAkcCGnOjA+dPRC4JLpFc+2JwDdTLj6Ma164QkhaPJtHB2h+pFwS8Dtgh+gWzbUKvDI6QvorB0KaO612fwJ2j+7Q3LstcE7K5frRIVpsKXu0lbSgtogO0HxIudwL+FF0h3ph31a7y6MjpL9yIKS51Gr3M2Cv6A71ws9SLneOjpAkLZytogMUK+VCyuWZwBHRLeqFG7banRsdIV2RAyHNrVa7LwDPi+5QL3wt5fLY6AhJ0kLZNjpAcVIu1wA+ALwuukW9cN9Wux9HR0h/y4GQ5t2rgc9GR6gX3pFyeauHTSvAWtEBkkJcOzpAMVIu2wInAQ+LblEvHNRq9+noCOmqOBDSXBvvsX0wcHF0i3rhScD3Ui5bRodIkgbvOtEBmr2Uy62A04Gdo1vUC18BXhodIa2KAyHNvVa784HdojvUGzcHzky53Cw6RJI0aN4mtWBSLvsDx0R3qFf2bbW7LDpCWhUHQuqFVrtTgD2jO9QrP0i5PCg6QgvBLWPSYtrGWwYXQ8pl3ZTLG4APRreoV3ZptftjdIS0Og6E1Butdl8DnhjdoV75cMrl1SmXdaJDJEmD5LP0wKVctga+Dzw9ukW9crfxrcnSXPNFTH3zNuBd0RHqlecAx44f6KRpcIWQtLj8wGHAUi63Bn4P3Di6Rb3ylFa7r0RHSGvCgZB6pdUORgcHnxDdol65GfD78YOdNGkOhKTFtV50gCYv5ULK5dHA96Jb1DvvAt4SHSGtKQdC6p1Wu78AObpDvfS9lMtjPPNBE+ZASFpc14gO0GSlXDYEPoAr0rV0JwBPGn+ALfWCAyH1Uqvd2cDu0R3qpXcC/5Vy2Sg6RJLUextGB2hyUi7XB84AHhbdol7K4w+upd5wIKTearX7CXCP6A710oOB81Iuu0aHaBBcISQtrmtGB2gyUi77AD/D31Mtz+7jD6ylXnEgpF5rtfsS8IToDvXSOsBPUi7/HB2i3vO1VFpcG0cHaGVSLuulXF4PfCq6Rb111/EH1VLv+BCr3mu1eztwcHSHeuujKZe3p1w2iA5Rb7lCSFpcm0YHaPlSLtcFfgo8I7pFvfWYVruvRkdIy+VASEPxbMBvxlquxzG6hWyX6BD1kgMhaXFtHh2g5Um53Bv4JbBjdIt669Wtdu+OjpBWwoGQBqHV7lJgH+C86Bb11sbA/6RcHhQdot5xICQtri2jA7Q0KZf1Uy4HA5+JblGvfR54fnSEtFIOhDQYrXZ/Am4Y3aHe+3DK5f0pFw+V1JrytVRaXFtHB2jNpVz+AfgN8LToFvXaacADWu0uiw6RVsqHWA1Kq91pwE2iO9R7DwfOT7ncNDpEveAKIWlxXTs6QFcv5ULK5SGMzgvaKrpHvXeLVrsLoiOkSXAgpMFptfsRcLfoDg3C8SmXf0m5+IZfq+NrqbS4tosO0OqlXDYGPgJ8KLpFg7Bbq93voyOkSfEhVoPUavcV4BHRHRqEtwBHpVy2jQ7R3PK1VFpcO0QHaNVSLrdldL7kA6NbNAh3arU7OTpCmiQfYjVYrXbvA/4tukODsAdwesplr+gQzSVfS6XF5Q1Vcyjlsm7K5UXAd6JbNBj7tdodFR0hTZoPsRq6g4DDoiM0GJ9Lubwt5bJRdIjmiq+l0uK6TsolukFXkHLZmdFZQS+LbtFgPKPV7iPREdI0+BCrQWu1A3g88LXoFg3G44E/pVxuFR2iueFrqbTY/B4wB8YHRx8A/BzYKbpHg/H6VruDoyOkafEFTIPXancJcG/gt9EtGpRjUi4vTLmsGx2icL6WSottneiARZdy2Qb4KvC+6BYNyuHAc6IjpGnyIVYLodXuT8DNojs0OC8Hfp1y2S06RKF8LZUW2/rRAYss5VKA3wE5ukWDcjzwkFa7y6JDpGnyIVYLo9XuDGDn6A4NzrbAj1MuT0m5+D11Mbk6QFpsG0QHLKKUy+Yplw8Dn45u0eCcB9y51e6i6BBp2nzzooXSancKcNPoDg3Sm4A2PsxSi8XXUmmxedHAjKVc7gGcDTwoukWDtGur3XnREdIs+BCrhdNq90PgztEdGqTdgZ+nXJ7oaqGF4gohabFdKzpgUaRcNk25vB/4QnSLBusfWu1+Fx0hzYpvWLSQWu2+AdwvukODdQhwYsrl+tEhmglfS6XFtml0wCJIuewFnAM8PLpFg3WLVrufR0dIs+RDrBZWq92ngEdEd2iwdgN+Nj5byBUkw+bvr7TYNo8OGLKUyxYpl48An4tu0aDdudXuB9ER0qw5ENJCa7V7H/CM6A4N2puAX6VcbhQdoqlxICQtti2jA4Yo5ULK5X7AWcADo3s0aPcZ7x6QFo4DIS28VruDgZdFd2jQtmN04PSLUy5eTzw8DoSkxbZ1dMDQpFyuA3wFODy6RYP30Fa7z0ZHSFEcCEkj/wocGh2hwTsIuCjlcrvoEE2UAyFpsV07OmAoUi5rp1weDfwG+KfoHg3ev7TafSg6QorkQEgCWu0Angz4oqBZODrl8q6Uy2bRIZoIB0LSYrtOdMAQjLdW/wx4V3SLFsLzW+0OiY6QojkQksZa7S4DDgCOiG7RQng08IeUy/1SLtEtWpl1owMkhbpudECfpVw2TLn8O9CA60X3aCG8otXuP6IjpHngQEi6gla7S4F9gaOjW7QwDge+4xX1veYKIWmx7RQd0Fcpl7sBFwAviG7RwngL8MLoCGlerBUdIM2jlMuGwHHA7tEtWigvBF7XandRdIjWXMrlLsCR0R2SQq013n6uNZBy2Z7R1rC9olu0UD4AHNhqd3l0iDQvXCEkXYVWuz8DtwV+Gd2ihfLvwIUplxwdoiVxy5gkP2RdAymX9VIuTwV+jcMgzdbHgUc6DJKuzIGQtAqtdn8EbgqcFd2ihfPVlMvnUy6eS9EPDoQk+X3gaqRc7gRcDLwxukUL5wjgweOjISRdgQMhaTVa7c4FdgUujG7Rwrkn8MuUy3NSLteIjtFq+UZQ0vrRAfMq5bJ9yuXTwNejW7SQjgT2bbW7JDpEmkcOhKSr0Wp3NrBjdIcW1qsZbSO7p7eRzS0HQpI2iA6YNymXDVIuz2G0PcwXMEX4LrBXq93F0SHSvHIgJK2BVrszgGtHd2ihfZ7RbWS7Rofo7zgQknTN6IB5kXIh5bI38GdGH2pIEY4D9vSiDmn1HAhJa6jV7nfAdaI7tNBuC/wk5XJwymXz6Bj9LwdCkjaODpgHKZcbMnoj/tnoFi2044E7ji+JkbQaDoSkJWi1+y2wfXSHFt7TgLNTLo9NuawXHSMHQpLYLDogUspl65TLO4ETgVtE92ihNWAPh0HSmnEgJC1Rq91pwA7RHRLwDuDilMtdPV8olEM5SVtEB0QYnxP0dOD3wGOie7Twfgz8Y6vdBdEhUl84EJKWodXuNzgU0vz4MvCDlMtNokMWlCuEJG0dHTBLKZe1Uy77Mjon6A3RPRKjlUG3brX7U3SI1CcOhKRlGg+F3D6meXEz4ISUy3+lXPzncrZcISRp2+iAWUm53B44HfhEdIs0djxwW4dB0tI5EJJWYLx9bLvoDukKHgz8OuXyypTLZtExC8IVQpIG/yyQctk95fI14Fss2IoozbXjgNu7TUxaHgdC0gq12p2OV9Jr/jwP+EPK5Wkplw2jYwbOFUKSBruNPOWyQ8rlg8BJwJ2je6Qr+C7eJiatiAMhaQLGV9JvA/jphObNwcAFKZeHeSPZ1Pj/q6SdogMmLeWyZcrlNcCvgP2je6S/cSRwZ4dB0so4EJImpNXuDOC6wBnRLdJV+ACjG8num3Lxe/9kORCStHN0wKSkXDZJubwIOBN4dnSPdBWOAO7ZandRdIjUd74pkCao1e5s4AbAKdEt0ip8Ejgv5XK3lMta0TEDsX50gKRwm6dcohtWJOWyUcrlqcC5wMuie6RV+Dhw31a7i6NDpCFwICRNWKvducBNGF1/Kc2jawJfAn6bctnTwdCKuUJIEsA60QHLkXLZMOXyBOBPwBuje6TV+ACwX6vdJdEh0lA4EJKmoNXufOA2wFHRLdJqbAtU4Bcplzv0/dPtQA6EJEHPvhekXDZIuTya0fmHh0b3SFfjLcCBrXaXRodIQ+JASJqS8SF3dwW66BbpauzEaHj585TLnVwxtGRuGZMEsEF0wJoYD4IeA/wZeFd0j7QGXgE8pdXu8ugQaWjWjQ6QhqzV7uKUy77Ae4GHRfdIV2Nn4OvAr1IuDwe+7sPXGunVqgBJU7MRcE50xKqkXDYEDgDeFt0iLcHzWu1eFR0hDZUrhKQpGy9tPYDRUlepD67L6DrX36Vc7uGtZFfLFUKSADaODrgqKZeNUy5PY7Q1zGGQ+uRfHAZJ0+VDvjQD41UWTwFeEt0iLcHWwBcYXVd/v5SLq0qvmgMhSQCbRQdcUcpl85TLC4HzgIOje6Qlemir3SHREdLQ+XAvzUirHcBLUy5nA2+K7pGWYB3gcICUy4HAR8dnZGnEgZAkgC2iAwBSLtcBngk8K7pFWqZ7t9odER0hLQJXCEkz1mr3ZuDh0R3SMr0PuCDl8syUy6bRMXPCgZAkgK0if/GUyy4plw8Av8FhkPrrzg6DpNlxICQFaLX7T8A7vtVnrwPOSbm8JuWyfXRMMAdCkgC2nfUvmHIh5XKblMuRwP/gBRbqt1u02n0jOkJaJA6EpCCtdp8B7hDdIa3Qs4Ffp1w+nnJJ0TFBHAhJApjZcDzlsm7KZW/gt8B3gbtEf/HSCv1Dq90PoiOkReMZQlKgVrtvpVxuDPwoukVaofsD90+5NOBpwJHjG/YWwTWiAyTNhR2m/QukXDYB9gcOjf5ipQk5D9i11e530SHSInKFkBSs1a4BO0V3SBOSgC8Dl6RcHp1ymctrmCfMFUKSYIqv5SmXHVMubwDOxWGQhuN44LoOg6Q4a0UHSBpJuWwJHIvDIQ3P64E3t9qdEh0yDSmX7wM3j+6QFO6sVruJHSydclkbuB3wCtwSpuE5HHhIq91F0SHSInMgJM2RlMuGwKeAu0e3SFNwNPBc4FtD2k6WcjkRuGF0h6S5sFar3Yp+gpTLtYAHAO+N/mKkKXk98JxWu8uiQ6RF50BImjMpl3WAtwKPj26RpuhJwH+32v0hOmSlUi4/A64f3SFpLqy73IF3yuUGwNMZfX+UhurprXZvjI6QNOJASJpDKReA5zNaJi4N2X8B/wH8sNXu8uiY5Ui5/JoZ3i4kaa5t2Gp34Zr+zSmXawB3Y7RiYtfoeGnKHtRq99HoCEn/x4GQNMdSLvsDH4zukGbgfOBfgE+22p0XHbMUKZczgImdGyKp17ZYk5WPKZfrAY9j9OGPtAju1Gp3VHSEpCtzICTNuZTLXYAjozukGfpP4LXACX1YNZRyOQ9YhNvUJF29HVrtfnNVf2F8TuBdgVcCN44OlWZot1a7k6MjJP09B0JSD6RcbgicGN0hBXgS8NFWuzOjQ1Yl5XIRXj0vaeRGrXYn/fVPxlvAdweeCDw1Ok6asdOAW7Ta/T46RNJVcyAk9UTKZVvgeGDb6BYpwFeAlzO6oezi6Ji/Gr/Zm/tVTJJmZo9Wu6NTLlsA9wVeB2weHSUF+Bzwz612F0SHSFo1B0JSj4yXm38M2Du6RQr0euCdwE+it5Q5EJL0NwrwFOAe0SFSoFcDz/daeWn+ORCSeiblsjaj28eeG90iBbsIeCbwiVa70yMCHAhJknQlj261Oyw6QtKacSAk9VTK5ZGAL7jSyInAS4AvttqdO6tfNOWyFuAnoJIkwV1b7b4aHSFpzTkQknrMG8ikq/RlRud2fKPV7k/T/IUcCEmSBMDurXY/iY6QtDQOhKSeS7n8A/DT6A5pTh0OvAn4Tqvdnyf9k4+3cF4a/UVKkhTkBCC32p0dHSJp6RwISQOQctkU+Dxwu+gWaY59HHgr8O1JDYccCEmSFtg7gX9ptftLdIik5XEgJA1EymUd4A2MbjeRtHqfAg5ldI39H5f7k4z/vbsk+ouRJGnGngK8pdUuukPSCjgQkgbGw6alJTsKOBg4stXurKX8D1Mu6wJ+MipJWiQeHi0NhAMhaYBSLrcHvhXdIfXQL4FXA58FTm21W+2V8imX9YCLo6MlSZqRXVrtfhYdIWkyHAhJA5Vy2QE4HtgiukXqsdcCHwF+2Gp34d/+xZTL+sBF0ZGSJE3ZV4B9V7LNWtL8cSAkDVjKZUPgvcCDolukAfgy8HZGW8xOb7Uj5XIN4MKV/bSSJM21lwIHtdpdFh0iabIcCEkDl3IBeCrwxugWaUAuZ7S17BPAd6JjJEmakvu22n06OkLSdDgQkhZEymVPoEZ3SJIkqRdu2Gr34+gISdOzdnSApNlotTsS2Ak4O7pFkiRJc6sCmzoMkobPgZC0QFrtfglsD7wvukWSJElz54WMrpU/LzpE0vS5ZUxaQONzhR4FvDu6RZIkSXPhHq12X4qOkDQ7DoSkBZZyuRVwTHSHJEmSwpwF3KrV7tToEEmz5ZYxaYG12h0LbAV8O7pFkiRJM/duYAeHQdJicoWQJFIuawPPB14e3SJJkqSZeGir3YeiIyTFcSAk6X+lXP4J+Ep0hyRJkqYqtdqdGB0hKZZbxiT9r1a7rzK6heyn0S2SJEmauMOBjR0GSQIHQpL+RqvdacANgVdGt0iSJGliHgPcv9Xu/OgQSfPBLWOSVinlcnfgi9EdkiRJWpGbtdqdEB0hab64QkjSKrXafYnRFrIfR7dIkiRpyT7GaIuYwyBJf8eBkKTVGm8huzHwkugWSZIkrbEDgQe6RUzSqrhlTNIaS7ncCfh6dIckSZJW6QLglq12P4kOkTTfXCEkaY212n0D2Aqo0S2SJEn6O4cAWzoMkrQmXCEkaclSLmsBT2D00CFJkqR492m1+2x0hKT+cCAkadlSLgn4PrBedIskSdKCOhYorXa/jQ6R1C9uGZO0bK12DdgEeEt0iyRJ0gJ6BnBbh0GSlsMVQpImIuVyT+Dz0R2SJEkL4uatdsdHR0jqL1cISZqIVrsvAFsDX45ukSRJGrC3ABs5DJK0Uq4QkjRRKReAA4D3RbdIkiQNzN1a7b4SHSFpGBwISZqKlMvOwFeB60W3SJIk9dxngQNa7c6ODpE0HG4ZkzQVrXa/AHYBnhPdIkmS1GP7MbpS3mGQpIlyhZCkqRtfT/9t4FrRLZIkST3xbeABrXanRYdIGiZXCEmauvH19FsCL4tukSRJ6oFHA3s4DJI0Ta4QkjRTKZdbAsdGd0iSJM2hHwL7tNqdEh0iafhcISRpplrtjgM2AF4Z3SJJkjRHHg/czGGQpFlxhZCkMCmXWwHHRHdIkiQFaowOjT4lOkTSYnGFkKQwrXbHMlot9PLoFkmSpACPBW7qMEhSBFcISZoLKZebAt8ANolukSRJmrKjgf1a7X4VHSJpcblCSNJcaLU7AdgKeG50iyRJ0hTtz+gGMYdBkkK5QkjS3Em57Ap8BrhBdIskSdKEfBp4bKvd76NDJAkcCEmaUymXtYEDgcOiWyRJklZor1a7L0RHSNIVORCSNNdSLtsB7wHuGd0iSZK0RG8BXtBq98foEEn6Ww6EJM29lAvA3sBno1skSZLWwJ+APVvtjokOkaRVcSAkqTdSLtcCDgKeEd0iSZK0Ck8DDmm1uyQ6RJJWx4GQpN4ZX1H/RWDb6BZJkqSxI4EDvD1MUl947byk3hlfUb898NjoFkmSJODeQHYYJKlPXCEkqddSLlsDbwIeHN0iSZIWziuAV7Ta/Sk6RJKWyoGQpEFIudwe+DqwbnSLJEkavBOAB7banRwdIknL5ZYxSYPQanc0sBHw5OgWSZI0aPcHbu4wSFLfuUJI0uCkXLYF3gA8JLpFkiQNxiuAV7banR8dIkmT4EBI0mClXG7D6DayzaJbJElSb30beFir3c+iQyRpkhwISRq0lMs6wP7A+6NbJElS79wT+GKrXXSHJE2cAyFJCyHlsinwYuBZ0S2SJGnuPQ14W6vdxdEhkjQtDoQkLZSUyy7Ae4E7RLdIkqS5837gOa12v48OkaRpcyAkaeGkXADuAnwJWC+6R5IkhfshsH+r3Y+iQyRpVhwISVpYKZd1gYcyWjEkSZIW017AFzwnSNKicSAkaeGlXDYBngu8ILpFkiTNzJOAd3tOkKRF5UBIksZSLtsDrwUeHN0iSZKm5lXAf7TanRMdIkmRHAhJ0t9IudwYeB9wy+gWSZI0MR8FntVq96voEEmaBw6EJOkqjA+e3hP4FLBJdI8kSVq2Y4FHttr9MDpEkuaJAyFJWo2Uy9rAfYFPRLdIkqQlOQO4P3CUB0ZL0t9zICRJayDlsj5wIPCO6BZJknS19gE+22p3WXSIJM0rB0KStAQpl2sBTwReHd0iSZL+zsOBD7fa/SU6RJLmnQMhSVqGlMtmwLOAF0W3SJIkngi8t9XuwugQSeoLB0KStAIpl22AFwJPjW6RJGkBPRc4pNXu/OgQSeobB0KSNAEpl+sA/wo8PrpFkqQF8CLgLa1250aHSFJfORCSpAlKuewAHAQ8MrpFkqQBOgg4uNXuD9EhktR3DoQkaQpSLjsCLwUeEd0iSdIAvAx4Y6vdWdEhkjQUDoQkaYpSLtdltJXsMdEtkiT10EuAN7fanR0dIklD40BIkmYg5bI98GI8Y0iSpDXxYuCtbg2TpOlxICRJM5RyuTaj6+qfHd0iSdIceibw7la786JDJGnoHAhJUoCUy5bAkxkthZckadE9AfhAq90F0SGStCgcCElSoJTLJsCjgDdEt0iSFGB/4BOtdhdFh0jSonEgJElzIOWyAfBA4P3RLZIkTdmZwAHAF1vtLo2OkaRF5UBIkuZIymVd4F7Ae4EtonskSZqgY4GnAke32l0eHSNJi86BkCTNoZTLWsA/MtpKdrvoHkmSVuAjwEta7U6KDpEk/R8HQpI051IuuwL/Cjw0ukWSpCV4NfDGVrvTokMkSX/PgZAk9UTKZRvg8cBB0S2SJK3GE4APtdr9MTpEkrRqDoQkqWdSLhsC9wf+M7pFkqSxXwBPBL7SandJdIwk6eo5EJKknkq5rA3sAbxq/EdJkmbtI8DLgR+22kW3SJKWwIGQJA1AyuV6wNOAp0e3SJIWwvOAw1rtzogOkSQtjwMhSRqQlMvGwD8Dh0W3SJIG51RG18Z/vtXu4ugYSdLKOBCSpAEabye7NfBSYK/oHklSr70beC3wY7eFSdJwOBCSpIFLuVwbeBTw79EtkqReeRzwkVa7c6NDJEmT50BIkhZEymU94C7AK4DbRPdIkubS4YxeJ45rtbssOkaSND0OhCRpAaVcrgs8BvjX6BZJ0lx4MvDfrXZnRYdIkmbDgZAkLbCUy/rAnRidNXSH6B5J0kx9FHg1rgaSpIXkQEiSBPzvWUMPA14T3SJJmprzgacAn2y1Oyc6RpIUx4GQJOlKUi7rALcEngE8JLpHkjQRBwNvx5vCJEljDoQkSauUctkYuBfwKuB60T2SpCX5JnAQ8LVWu4uiYyRJ88WBkCRpjaRcdmS0Yug/olskSat0LvBsRlvCzoyOkSTNLwdCkqQlSbmsDdwUeBLw2OgeSRIA/w68F/ipW8IkSWvCgZAkadlSLhsAtweeCdwnukeSFsxhwKHA91vtLo2OkST1iwMhSdJEjM8buhvwQuBW0T2SNFCfBV4PfKvV7sLoGElSfzkQkiRNXMplS+CewIuB3aN7JKnnKvA6RodDnx8dI0kaBgdCkqSpSrlsA9wbeBFw/egeSeqJbwGvBb7aandudIwkaXgcCEmSZmY8HNoLeAGwW3SPJM2ZrwFvAI50CCRJmjYHQpKkECmXrYC7MzqQ+tbRPZIU5AjgEOAbrXbnRcdIkhaHAyFJUriUy6bAnYB/YbSCSJKG7APAu4Dvtdr9OTpGkrSYHAhJkuZKymUj4JbAgcBjonskaUJeBXwY+FGr3V+iYyRJciAkSZpbKZd1GJ01dH9G19lvEN0kSWvol8CrGV0Tf2qr3eXRQZIkXZEDIUlSL6RcAK4N7Ak8EbhzdJMk/Y2PA+8BvtVq94foGEmSVseBkCSpl1IuGwI3B/6Z0cHUkjRr5wCvAz4NnORWMElSnzgQkiT1XsplLWA74C7AY4Ec3SRpsD4KvB84Gjir1S66R5KkZXEgJEkanJTLNRidPXQv4MnADtFNknrrB8A7gC8Dv2i1uyQ6SJKkSXAgJEkavJTLJsAtgPsBT8PXP0mrdgZwCKPDoFur3QXRQZIkTYMPxJKkhTI+nHor4FbAAxhtMZO0uC4C3gR0wPGtdudFB0mSNAsOhCRJC218/tDWwC2B+wJPiG6SNFXnAG8HjgBOAM7xHCBJ0iJyICRJ0hWMVxBtCdwM2At41PjPJfXT/zA6BPrLwImuAJIkacSBkCRJVyPlci1gV0a3l+0H3Ca6SdIqfQn4OPAN4OetdhdGB0mSNI8cCEmStEQpl3WB7RltM9ub0SqitaO7pAV0FvA+4IuMtn/9rtXusugoSZL6wIGQJEkrNN5mtjFwfeB2QAHuHd0lDdB/MTr75xjg1Fa7P0cHSZLUVw6EJEmagvFh1ZsDuzAaEt0buEd0l9QjHwO+AHwP+AVwnoc/S5I0OQ6EJEmakfGQaDNGK4luCdwNeCC+HmuxnQN8AqjAD4BTgT86/JEkabp8AJUkKdB4u9lGjM4kuhGj1UR7ATePbpOm4BuMDn3+LvAT4LetdhdFR0mStIgcCEmSNIdSLmszWk20I/83KLo7sHt0m7QGjgG+wmjw82Pg14xW/VweHSZJkkYcCEmS1CPjQdGmwHWAXYFbAHcC9oxu08L5C6Pbvb4JHA/8FPgtcL6DH0mS5p8DIUmSBmC89WwDYAtgB0bDopsDtwf2iO5Tb10GfBX4NqNr3X8K/AY4p9Xu4ug4SZK0fA6EJEkauPGwaH1GK4u2Ba7HaOvZzYFbA7tFNyrUD4BjGa3y+QnwS+D3wB+Bv3i4syRJw+RASJKkBTe+/Wx9YGNgK0YHXO8E3IDR+UU3Z3SWkfrnZEYDn5MYre75FXAacCZwPg58JElaWA6EJEnS1RoPjdZjdCPaJsCWwLWB6zIaHu0M7MJo5dHG0b0DdyajlTw/BU5hdE37r4HfAWcD5wF/xmGPJEmSJEmSJEmSJEmSJEmSJEmSJEmSJEmSJEmSJEmSJEmSJEmSJEmSJEmSJEmSJEmSJEmSJEmSJEmSJEmSJEmSJEmSJEmSJEmSJEmSJEmSJEmSJEmSJEmSJEmSJEmSJEmSJEmSJEmSJEmSJEmSJEmSJEmSJEmSJEmSJEmSJEmSJEmSJEmSJEmSJEmSJEmSJEmSJEmSJEmSJEmSJEmSJEmSJEmSJEmSJEmSJEmSJEmSJEmSJEmSJEmSJEmSJEmSJEmSJEmSJEmSJEmSJEmSJEmSJEmSJEmSJEmSJEmSJEmSJEmSJEmSJEmSJEmSJEmSJEmSJEmSJEmSJEmSJEmSJEmSJEmSJEmSJEmSJEmSJEmSJEmSJEmSJEmSJEmSJEmSJEmSJEmSJEmSJEmSJEmSJEmSJEmSJEmSJEmSJEmSJEmSJEmSJEmSJEmSJEmSJEmSJEmSJEmSJEmSJEmSJEmSJEmSJEmSJEmSJGk5/j9Q9aIX5RVK5AAAACV0RVh0ZGF0ZTpjcmVhdGUAMjAxNi0wNy0yNlQyMTo0NTozNCswODowMBBn2dYAAAAldEVYdGRhdGU6bW9kaWZ5ADIwMTYtMDctMjZUMjE6NDU6MzQrMDg6MDBhOmFqAAAAY3RFWHRzdmc6Y29tbWVudAAgR2VuZXJhdG9yOiBBZG9iZSBJbGx1c3RyYXRvciAxOS4wLjAsIFNWRyBFeHBvcnQgUGx1Zy1JbiAuIFNWRyBWZXJzaW9uOiA2LjAwIEJ1aWxkIDApICDOSJALAAAAAElFTkSuQmCC;" vertex="1" parent="Vr0tz_ug4oFLOFbfRHcb-76">
          <mxGeometry x="10" y="10" width="40" height="40" as="geometry" />
        </mxCell>
        <mxCell id="Vr0tz_ug4oFLOFbfRHcb-56" value="" style="group" vertex="1" connectable="0" parent="Vr0tz_ug4oFLOFbfRHcb-76">
          <mxGeometry x="31" y="60" width="60" height="80" as="geometry" />
        </mxCell>
        <mxCell id="Vr0tz_ug4oFLOFbfRHcb-57" value="SSH_KEY" style="verticalLabelPosition=bottom;sketch=0;aspect=fixed;html=1;verticalAlign=top;strokeColor=none;align=center;outlineConnect=0;shape=mxgraph.citrix.document;" vertex="1" parent="Vr0tz_ug4oFLOFbfRHcb-56">
          <mxGeometry y="9.756097560975611" width="39.73983739837398" height="60.8780487804878" as="geometry" />
        </mxCell>
        <mxCell id="Vr0tz_ug4oFLOFbfRHcb-58" value="" style="verticalLabelPosition=bottom;sketch=0;aspect=fixed;html=1;verticalAlign=top;strokeColor=none;align=center;outlineConnect=0;shape=stencil(5VjbcpswEP0aHq3RlctjJ20/oP0Chcg2E4I84MT233dB2AUp9shbO81MGGaAXbQ6Zy+6JeKhW+uNSTjV3caU20R8Tzh/022lH2sQc9CsnTATJGdO0ugX44S/bP8X/W3K17baHpy627b22eyqp+3YtGrWBtROuxvNSZLLXiJ+JPQbyPtbPJS2aQBHZZtukP309I+6fF619rV5ele9tK0Z1VPFUb3RPaRAcVS/2Leezd4hZJz0gHvMh8AFftdzQ7ot4aXW7cos4H2xrPXKmaCueXvqY/w+zL+7nTGbSbOx17EVPQHbL/S+6hat3ereZ7M+RpMpiwRdV415r48TtM9BfhKWCPaUUAT5lJOUo+zcmTxUTRpPPjpkc/aTTq7NoTvTn8Qlgn50uZa17czZv8QDyM+MHDDiVHV9oWmvLm1tW/h0zwFawgVcl7BdOViJoF5F+s8xY37MiPKjdpRcjpvIrqlZgStaVZBs7gIF8DCGcpJ7hhSqkCAEyguKICnGkPIRCUk4jpqHSKUkwxjKAmdnKGcDNepRUyhq4BERGCow1FLCbkJNSZ8aGMKEX4kAUYozxIj0DOWoWpM5KYISQeURDfJIEoZBlAZFS1F5JFXgI4YKvxR+rckCNYxIFuQRjprIfWoSl5CiCAwpnKEgauA1TEJC9fvO5qjqhxHaR8RxzuZ+iUjcdCSYP7VLipuOmI8I4ngbRJBZmOoXwXgEK4VbrNmOf80XSVz6uHnsNBq9sBX+GkmcWyKNDf9iOxZ5zMo+1t93x82Kq3Yk+a03Eh+Du4/O58A9yeE43HH5/V+2QMvhugQPHFpv1hpe3XPci99y5/TVDzq85dfXPujgKnJCjKdP/T0zjdoyX3XGFw37DmU+NArOXQepO1seBH8A);fillColor=#FFE599;gradientColor=#FFD966;gradientDirection=south;" vertex="1" parent="Vr0tz_ug4oFLOFbfRHcb-56">
          <mxGeometry x="29.756097560975608" width="26.211382113821134" height="26.211382113821134" as="geometry" />
        </mxCell>
        <mxCell id="Vr0tz_ug4oFLOFbfRHcb-64" value="SERVER_ID" style="text;html=1;strokeColor=none;fillColor=none;align=center;verticalAlign=middle;whiteSpace=wrap;rounded=0;" vertex="1" parent="Vr0tz_ug4oFLOFbfRHcb-76">
          <mxGeometry x="120" y="40" width="60" height="30" as="geometry" />
        </mxCell>
        <mxCell id="Vr0tz_ug4oFLOFbfRHcb-68" value="SERVER_USER" style="text;html=1;strokeColor=none;fillColor=none;align=center;verticalAlign=middle;whiteSpace=wrap;rounded=0;" vertex="1" parent="Vr0tz_ug4oFLOFbfRHcb-76">
          <mxGeometry x="160" y="60" width="60" height="30" as="geometry" />
        </mxCell>
        <mxCell id="Vr0tz_ug4oFLOFbfRHcb-69" value="AWS_DEVOP_CREDENTIALS" style="text;html=1;strokeColor=none;fillColor=none;align=center;verticalAlign=middle;whiteSpace=wrap;rounded=0;" vertex="1" parent="Vr0tz_ug4oFLOFbfRHcb-76">
          <mxGeometry x="97" y="95" width="170" height="30" as="geometry" />
        </mxCell>
        <mxCell id="Vr0tz_ug4oFLOFbfRHcb-71" value="AWS_ECR_URL" style="text;html=1;strokeColor=none;fillColor=none;align=center;verticalAlign=middle;whiteSpace=wrap;rounded=0;" vertex="1" parent="Vr0tz_ug4oFLOFbfRHcb-76">
          <mxGeometry x="160" y="125" width="60" height="30" as="geometry" />
        </mxCell>
        <mxCell id="Vr0tz_ug4oFLOFbfRHcb-77" value="&quot;devop&quot; user" style="sketch=0;outlineConnect=0;fontColor=#232F3E;gradientColor=none;strokeColor=#232F3E;fillColor=#ffffff;dashed=0;verticalLabelPosition=bottom;verticalAlign=top;align=center;html=1;fontSize=12;fontStyle=0;aspect=fixed;shape=mxgraph.aws4.resourceIcon;resIcon=mxgraph.aws4.user;" vertex="1" parent="1">
          <mxGeometry x="1270" y="301" width="60" height="60" as="geometry" />
        </mxCell>
      </root>
    </mxGraphModel>
  </diagram>
</mxfile>
